<svg xmlns="http://www.w3.org/2000/svg" width="154.467" height="154.467" viewBox="0 0 154.467 154.467"><defs><style>.a{fill:#fff;}.b{fill:#ffa726;}</style></defs><g transform="translate(20626 13067)"><circle class="a" cx="77.233" cy="77.233" r="77.233" transform="translate(-20626 -13067)"/><g transform="translate(-20594 -13035)"><path class="a" d="M46.424,310.866a10.452,10.452,0,0,0-5.1-2.92l-7.232-1.733,0,0,0,0V301.8H25.258v4.429h0l-7.213,1.723A10.479,10.479,0,0,0,10,318.141v11.816H25.989Z" transform="translate(-8.242 -248.747)"/><path class="a" d="M105.162,301.8v4.534l-4.583,10.978L96,306.347V301.8Z" transform="translate(-79.125 -248.747)"/><path class="a" d="M85.639,215.261v6.115A9.844,9.844,0,0,1,75.8,231.22h0a9.844,9.844,0,0,1-9.844-9.844v-6.115Z" transform="translate(-54.358 -177.422)"/><path class="a" d="M85.639,169v-2.37a9.844,9.844,0,0,0-9.844-9.844h0a9.844,9.844,0,0,0-9.844,9.844V169h6.786A23.472,23.472,0,0,0,84.8,165.661h0" transform="translate(-54.358 -129.225)"/><path class="a" d="M294.79,310.866a10.452,10.452,0,0,1,5.1-2.92l7.232-1.733,0,0,0,0V301.8h8.832v4.429h0l7.213,1.723a10.479,10.479,0,0,1,8.044,10.192v11.816H315.224Z" transform="translate(-242.971 -248.747)"/><path class="a" d="M121.23,352.4l-10.073,2.414a14.6,14.6,0,0,0-11.195,14.194V378.7h54.821v-9.68a14.6,14.6,0,0,0-11.2-14.2l-10.047-2.4Z" transform="translate(-82.391 -290.457)"/><g transform="translate(38.439 53.05)"><path class="a" d="M373.042,301.8v4.55l-4.578,10.963-4.583-10.978V301.8Z" transform="translate(-338.355 -301.797)"/><path class="a" d="M225.237,343.193,231.8,328.3a5.414,5.414,0,0,1-.764-2.776V324.1h-11.6v1.431a5.413,5.413,0,0,1-.762,2.772Z" transform="translate(-218.674 -320.176)"/></g><path class="a" d="M205.423,191.525v9.46A13.711,13.711,0,0,1,191.712,214.7h0A13.711,13.711,0,0,1,178,200.985v-9.46Z" transform="translate(-146.712 -157.858)"/><path class="a" d="M191.71,115.437h0A13.711,13.711,0,0,0,178,129.148v3.3h6.7a15.064,15.064,0,0,0,11.546-5.389h0l9.172,5.389v-3.3A13.711,13.711,0,0,0,191.71,115.437Z" transform="translate(-146.71 -95.145)"/><path class="a" d="M334.045,215.261v6.115a9.844,9.844,0,0,0,9.844,9.844h0a9.844,9.844,0,0,0,9.844-9.844v-6.115Z" transform="translate(-275.326 -177.422)"/><path class="a" d="M334.045,169v-2.37a9.844,9.844,0,0,1,9.844-9.844h0a9.844,9.844,0,0,1,9.844,9.844V169h-6.786a23.472,23.472,0,0,1-12.064-3.338h0" transform="translate(-275.326 -129.225)"/><path class="b" d="M247.5,492a1.759,1.759,0,1,0,1.243.515A1.771,1.771,0,0,0,247.5,492Z" transform="translate(-202.544 -405.516)"/><path class="b" d="M80.606,144.4,74.743,143v-2.326a11.6,11.6,0,0,0,5.423-9.812v-6.551a11.595,11.595,0,0,0-20.282-7.686,15.5,15.5,0,0,0-14.865-11.184h0a15.5,15.5,0,0,0-14.874,11.214,11.595,11.595,0,0,0-20.309,7.655v6.551a11.6,11.6,0,0,0,5.422,9.812V143l-5.864,1.4A12.2,12.2,0,0,0,0,156.3v11.816a1.758,1.758,0,0,0,1.758,1.758H15.814v5.273a1.758,1.758,0,0,0,1.758,1.758H36.856a1.758,1.758,0,1,0,0-3.516H29.008v-7.736a1.758,1.758,0,0,0-3.516,0v7.736H19.329v-7.931a12.8,12.8,0,0,1,9.846-12.484l8.645-2.072,5.563,12.656a1.758,1.758,0,0,0,1.609,1.05h0a1.758,1.758,0,0,0,1.609-1.05l5.557-12.637,8.62,2.059a12.8,12.8,0,0,1,9.855,12.486v1.962a1.761,1.761,0,0,0,0,1.375v4.586H64.507v-7.736a1.758,1.758,0,1,0-3.516,0v7.736H52.383a1.758,1.758,0,0,0,0,3.516h20.01a1.758,1.758,0,0,0,1.758-1.758v-5.273H88.242A1.758,1.758,0,0,0,90,168.114V156.3A12.2,12.2,0,0,0,80.606,144.4Zm-9.375.082L68.547,150.9,65.9,144.562a1.758,1.758,0,0,0,.012-.192c0-.016,0-.033,0-.049V142.15a11.521,11.521,0,0,0,5.316,0v2.236C71.227,144.415,71.229,144.446,71.231,144.478ZM37.082,145.89a12.205,12.205,0,0,0-3.593-1.5l-5.884-1.41v-2.305a11.685,11.685,0,0,0,3.633-3.622,15.58,15.58,0,0,0,5.844,6.248Zm-4.017-15.86v-4.066h4.946a16.776,16.776,0,0,0,11.881-4.912l7.07,4.154v5.236a11.952,11.952,0,0,1-23.9-.413ZM52.9,143.336a15.579,15.579,0,0,0,5.884-6.251,11.692,11.692,0,0,0,3.613,3.591v2.305l-5.884,1.41A12.208,12.208,0,0,0,52.9,145.9v-2.566Zm15.664-4.393a8.1,8.1,0,0,1-8.086-8.086v-.287c.006-.179.011-4.726.011-4.726a25.235,25.235,0,0,0,11.134,2.59h5.028v2.423A8.1,8.1,0,0,1,68.563,138.944Zm0-22.723a8.1,8.1,0,0,1,8.086,8.086v.612H71.621A21.719,21.719,0,0,1,60.8,122.031,8.1,8.1,0,0,1,68.563,116.221Zm-35.5,4.685a11.954,11.954,0,0,1,23.907,0v.229L50.447,117.3a1.758,1.758,0,0,0-2.238.387,13.275,13.275,0,0,1-10.2,4.76H33.064Zm-19.714,3.4A8.087,8.087,0,0,1,29.2,122.031a21.72,21.72,0,0,1-10.819,2.887H13.351v-.612Zm0,4.128h5.028a25.235,25.235,0,0,0,11.145-2.6v5.018a8.086,8.086,0,0,1-16.173,0S13.351,128.434,13.351,128.434Zm8.086,14.025a11.592,11.592,0,0,0,2.652-.309v2.122q0,.05,0,.1c0,.055.005.11.011.165l-2.66,6.368-2.67-6.395c0-.042.005-.084.005-.127v-2.236A11.593,11.593,0,0,0,21.437,142.459Zm-5.623,23v.9H10.547v-7.81a1.758,1.758,0,0,0-3.516,0v7.81H3.516V156.3a8.693,8.693,0,0,1,6.695-8.482l5.572-1.331,3.637,8.711A16.318,16.318,0,0,0,15.814,165.457Zm12.543-15.9a16.525,16.525,0,0,0-2.972,1.022l1.712-4.1,5.573,1.335a8.71,8.71,0,0,1,1.261.407Zm16.637,8.928-4.4-10v-3.625a15.481,15.481,0,0,0,8.786.017V148.5Zm11.044-10.25a8.725,8.725,0,0,1,1.293-.42l5.559-1.332,1.719,4.118a16.524,16.524,0,0,0-3.013-1.037Zm30.447,18.125H82.969v-7.81a1.758,1.758,0,0,0-3.516,0v7.81h-5.3v-.891a16.318,16.318,0,0,0-3.594-10.249l3.648-8.735,5.585,1.334a8.693,8.693,0,0,1,6.695,8.482Z" transform="translate(0 -86.903)"/><path class="b" d="M214.218,231.25a1.759,1.759,0,1,0,1.243.515A1.771,1.771,0,0,0,214.218,231.25Z" transform="translate(-175.114 -190.601)"/><path class="b" d="M281.088,234.766a1.758,1.758,0,1,0-1.243-.515A1.77,1.77,0,0,0,281.088,234.766Z" transform="translate(-230.229 -190.601)"/><path class="b" d="M240.679,265.428a1.758,1.758,0,0,0-2.486,0,1.335,1.335,0,0,1-1.885,0,1.758,1.758,0,0,0-2.486,2.486,4.855,4.855,0,0,0,6.857,0A1.758,1.758,0,0,0,240.679,265.428Z" transform="translate(-192.296 -218.346)"/><path class="b" d="M398.378,57.516h1.206a1.758,1.758,0,0,0,0-3.516h-1.206a1.758,1.758,0,0,0,0,3.516Z" transform="translate(-326.902 -44.508)"/><path class="b" d="M446.9,57.516H448.1a1.758,1.758,0,0,0,0-3.516H446.9a1.758,1.758,0,0,0,0,3.516Z" transform="translate(-366.894 -44.508)"/><path class="b" d="M426.069,79.552a1.758,1.758,0,0,0,1.758-1.758V76.589a1.758,1.758,0,0,0-3.516,0v1.206A1.758,1.758,0,0,0,426.069,79.552Z" transform="translate(-349.725 -61.677)"/><path class="b" d="M426.069,31.031a1.758,1.758,0,0,0,1.758-1.758V28.068a1.758,1.758,0,1,0-3.516,0v1.206A1.758,1.758,0,0,0,426.069,31.031Z" transform="translate(-349.725 -21.685)"/><path class="b" d="M41.2,57.516h1.206a1.758,1.758,0,0,0,0-3.516H41.2a1.758,1.758,0,0,0,0,3.516Z" transform="translate(-32.51 -44.508)"/><path class="b" d="M89.723,57.516h1.206a1.758,1.758,0,0,0,0-3.516H89.723a1.758,1.758,0,0,0,0,3.516Z" transform="translate(-72.502 -44.508)"/><path class="b" d="M68.892,79.552a1.758,1.758,0,0,0,1.758-1.758V76.589a1.758,1.758,0,0,0-3.516,0v1.206A1.758,1.758,0,0,0,68.892,79.552Z" transform="translate(-55.333 -61.677)"/><path class="b" d="M68.892,31.031a1.758,1.758,0,0,0,1.758-1.758V28.068a1.758,1.758,0,1,0-3.516,0v1.206A1.758,1.758,0,0,0,68.892,31.031Z" transform="translate(-55.333 -21.685)"/><path class="b" d="M247.758,46.227a1.758,1.758,0,0,0,1.758-1.758V39.845a1.758,1.758,0,1,0-3.516,0V44.47A1.758,1.758,0,0,0,247.758,46.227Z" transform="translate(-202.758 -31.392)"/><path class="b" d="M247.758,3.516a1.759,1.759,0,0,0,1.758-1.758,1.758,1.758,0,1,0-3,1.243A1.771,1.771,0,0,0,247.758,3.516Z" transform="translate(-202.758)"/><path class="b" d="M192.337,28.13a1.758,1.758,0,1,0,2.486-2.486l-2.572-2.572a1.758,1.758,0,0,0-2.486,2.486Z" transform="translate(-155.983 -18.591)"/><path class="b" d="M289.383,28.18a1.752,1.752,0,0,0,1.243-.515l2.658-2.658a1.758,1.758,0,0,0-2.486-2.486l-2.658,2.658a1.758,1.758,0,0,0,1.243,3Z" transform="translate(-237.066 -18.138)"/></g></g></svg>