<svg xmlns="http://www.w3.org/2000/svg" width="154.467" height="154.467" viewBox="0 0 154.467 154.467"><defs><style>.a{fill:#ffedb7;}.b{fill:#039be5;}.c{fill:#4dd0e1;}.d{fill:#ffca28;}.e{fill:#fff6db;}.f{fill:#ffa726;}.g{fill:#1565c0;}</style></defs><g transform="translate(20146 12879)"><path class="a" d="M77.233,0A77.233,77.233,0,1,1,0,77.233,77.233,77.233,0,0,1,77.233,0Z" transform="translate(-20146 -12879)"/><g transform="translate(-20115 -12848)"><path class="b" d="M6,71.161V18.9A2.9,2.9,0,0,1,8.9,16H78.581a2.9,2.9,0,0,1,2.9,2.9V71.161" transform="translate(2.258 6.774)"/><path class="c" d="M73.234,59.8V20H10V63.112H70.15A3.207,3.207,0,0,0,73.234,59.8Z" transform="translate(4.065 8.581)"/><path class="d" d="M51.742,41.774V35.968H48.563a15.862,15.862,0,0,0-2.54-6.143l2.246-2.244-4.107-4.107-2.244,2.246a15.862,15.862,0,0,0-6.143-2.54V20H29.968v3.179a15.862,15.862,0,0,0-6.143,2.54L21.58,23.474,17.474,27.58l2.246,2.244a15.862,15.862,0,0,0-2.54,6.143H14v5.806h3.179a15.862,15.862,0,0,0,2.54,6.143l-2.246,2.244,4.107,4.107,2.244-2.246a15.862,15.862,0,0,0,6.143,2.54v3.179h5.806V54.563a15.862,15.862,0,0,0,6.143-2.54l2.244,2.246,4.107-4.107-2.246-2.244a15.862,15.862,0,0,0,2.54-6.143Z" transform="translate(5.871 8.581)"/><circle class="e" cx="10.161" cy="10.161" r="10.161" transform="translate(28.581 37.29)"/><path class="f" d="M38.853,34.71H34.6V31.281a18.726,18.726,0,0,1-5.536-2.3L26.64,31.412,23.025,27.8h0A10.161,10.161,0,0,1,38.853,34.71Z" transform="translate(9.947 11.29)"/><path class="e" d="M43.234,33.067,43.3,33,39.2,28.892l-2.244,2.246a15.862,15.862,0,0,0-6.143-2.54V25.419H25.745a13.065,13.065,0,1,1,17.489,7.649Z" transform="translate(10.837 3.162)"/><path class="f" d="M45.756,41.96a18.758,18.758,0,0,0,4.909-2.137l2.426,2.427,6.159-6.159-2.427-2.426a18.726,18.726,0,0,0,2.3-5.536h3.429v-8.71H59.12a18.726,18.726,0,0,0-2.3-5.536l2.427-2.426L53.091,5.3,50.664,7.725a18.7,18.7,0,0,0-5.535-2.3V2h-8.71V5.429a18.7,18.7,0,0,0-5.535,2.3L28.457,5.3,22.3,11.457l2.427,2.426a18.726,18.726,0,0,0-2.3,5.536H19v8.71h3.429a18.7,18.7,0,0,0,1.608,4.326h0a15.921,15.921,0,0,1,3.673-1.147V28.129h.743a13.065,13.065,0,1,1,17.489,7.649l-2.177,2.177a15.823,15.823,0,0,1,1.993,4.006Z" transform="translate(8.129 0.452)"/><path class="g" d="M4.9,54h81.29a2.9,2.9,0,0,1,2.9,2.9v2.9a5.806,5.806,0,0,1-5.806,5.806H7.806A5.806,5.806,0,0,1,2,59.806V56.9A2.9,2.9,0,0,1,4.9,54Z" transform="translate(0.452 23.935)"/><path class="b" d="M26,54v2.9a2.9,2.9,0,0,0,2.9,2.9H40.516a2.9,2.9,0,0,0,2.9-2.9V54" transform="translate(11.29 23.935)"/><path d="M86.645,76.484H85.194V25.677a4.355,4.355,0,0,0-4.355-4.355h-8.71V19.871a1.452,1.452,0,0,0-1.452-1.452H68.364a20.162,20.162,0,0,0-1.6-3.845L68.4,12.935a1.452,1.452,0,0,0,0-2.053L62.246,4.723a1.494,1.494,0,0,0-2.053,0L58.555,6.362a20.128,20.128,0,0,0-3.845-1.6V2.452A1.452,1.452,0,0,0,53.258,1h-8.71A1.452,1.452,0,0,0,43.1,2.452V4.765a20.128,20.128,0,0,0-3.845,1.6L37.613,4.723a1.494,1.494,0,0,0-2.053,0L29.4,10.883a1.452,1.452,0,0,0,0,2.053l1.637,1.639a20.161,20.161,0,0,0-1.6,3.845H27.129a1.452,1.452,0,0,0-1.452,1.452v1.452H11.161a4.355,4.355,0,0,0-4.355,4.355V76.484H5.355A4.355,4.355,0,0,0,1,80.839v2.9A7.267,7.267,0,0,0,8.258,91H83.742A7.267,7.267,0,0,0,91,83.742v-2.9a4.355,4.355,0,0,0-4.355-4.355ZM28.581,21.323h1.976a1.452,1.452,0,0,0,1.412-1.117A17.368,17.368,0,0,1,34.088,15.1a1.452,1.452,0,0,0-.209-1.79l-1.4-1.4L36.586,7.8l1.4,1.4a1.452,1.452,0,0,0,1.79.209,17.274,17.274,0,0,1,5.107-2.119A1.452,1.452,0,0,0,46,5.88V3.9h5.806V5.88a1.452,1.452,0,0,0,1.117,1.412,17.274,17.274,0,0,1,5.107,2.127,1.452,1.452,0,0,0,1.79-.209l1.4-1.4,4.105,4.107-1.4,1.4a1.452,1.452,0,0,0-.209,1.79,17.369,17.369,0,0,1,2.119,5.107A1.452,1.452,0,0,0,67.25,21.33h1.976v5.806H67.25a1.452,1.452,0,0,0-1.412,1.117,17.369,17.369,0,0,1-2.119,5.107,1.452,1.452,0,0,0,.209,1.79l1.4,1.4L61.22,40.657l-1.4-1.4a1.452,1.452,0,0,0-1.79-.209,17.466,17.466,0,0,1-3.284,1.578,16.96,16.96,0,0,0-1-2.01l1.2-1.2A14.516,14.516,0,1,0,34.789,27.6a1.44,1.44,0,0,0-.4.984v2.013c-.5.126-.968.312-1.452.48a17.261,17.261,0,0,1-.97-2.829,1.452,1.452,0,0,0-1.41-1.116H28.581Zm22.288,36.2,1.216,1.218-2.053,2.053-1.218-1.218a1.452,1.452,0,0,0-1.849-.17,14.358,14.358,0,0,1-5.583,2.308,1.452,1.452,0,0,0-1.189,1.428v1.727h-2.9V63.144A1.452,1.452,0,0,0,36.1,61.715a14.358,14.358,0,0,1-5.583-2.308,1.452,1.452,0,0,0-1.849.17l-1.218,1.218L25.4,58.742l1.216-1.218a1.452,1.452,0,0,0,.17-1.849,14.359,14.359,0,0,1-2.307-5.583A1.452,1.452,0,0,0,23.05,48.9H21.323V46H23.05a1.452,1.452,0,0,0,1.428-1.189,14.359,14.359,0,0,1,2.307-5.583,1.452,1.452,0,0,0-.17-1.849L25.4,36.161l2.053-2.053,1.219,1.218a1.452,1.452,0,0,0,1.849.168A14.309,14.309,0,0,1,36.1,33.188,1.452,1.452,0,0,0,37.29,31.76V30.032h2.9V31.76a1.452,1.452,0,0,0,1.189,1.428,14.308,14.308,0,0,1,5.581,2.307,1.452,1.452,0,0,0,1.849-.168l1.219-1.218,2.053,2.053-1.216,1.218a1.452,1.452,0,0,0-.17,1.849,14.359,14.359,0,0,1,2.307,5.583A1.452,1.452,0,0,0,54.434,46h1.727v2.9H54.434a1.452,1.452,0,0,0-1.428,1.189A14.359,14.359,0,0,1,50.7,55.675,1.452,1.452,0,0,0,50.869,57.524ZM37.29,24.226a11.613,11.613,0,1,1,17.145,10.18L51.059,31.03a1.452,1.452,0,0,0-2.053,0l-1.42,1.421a17.129,17.129,0,0,0-4.49-1.857V28.581a1.452,1.452,0,0,0-1.452-1.452H37.658A11.584,11.584,0,0,1,37.29,24.226Zm-7.839,5.806a20.056,20.056,0,0,0,.829,2.23c-.123.068-.255.115-.376.187l-1.42-1.421a1.452,1.452,0,0,0-2.053,0l-4.105,4.105a1.452,1.452,0,0,0,0,2.053l1.42,1.42A17.129,17.129,0,0,0,21.884,43.1H19.871a1.452,1.452,0,0,0-1.452,1.452v5.806a1.452,1.452,0,0,0,1.452,1.452h2.013A17.129,17.129,0,0,0,23.74,56.3l-1.42,1.42a1.452,1.452,0,0,0,0,2.053l4.105,4.105a1.494,1.494,0,0,0,2.053,0l1.42-1.42a17.179,17.179,0,0,0,4.49,1.855v2.013a1.452,1.452,0,0,0,1.452,1.452h5.806A1.452,1.452,0,0,0,43.1,66.323V64.309a17.178,17.178,0,0,0,4.49-1.855l1.42,1.42a1.452,1.452,0,0,0,2.053,0l4.105-4.105a1.452,1.452,0,0,0,0-2.053l-1.42-1.42a17.129,17.129,0,0,0,1.855-4.49h2.013a1.452,1.452,0,0,0,1.452-1.452V44.548A1.452,1.452,0,0,0,57.613,43.1H56.394a20.126,20.126,0,0,0,2.161-1.007l1.639,1.639a1.452,1.452,0,0,0,2.053,0l6.159-6.159a1.452,1.452,0,0,0,0-2.053l-1.637-1.639a20.162,20.162,0,0,0,1.6-3.845h8.12V70.677H15.516V30.032ZM9.71,25.677a1.452,1.452,0,0,1,1.452-1.452H25.677v2.9H14.065a1.452,1.452,0,0,0-1.452,1.452V72.129a1.452,1.452,0,0,0,1.452,1.452H77.935a1.452,1.452,0,0,0,1.452-1.452V28.581a1.452,1.452,0,0,0-1.452-1.452H72.129v-2.9h8.71a1.452,1.452,0,0,1,1.452,1.452V76.484H9.71Zm29.032,53.71H53.258v1.452a1.452,1.452,0,0,1-1.452,1.452H40.194a1.452,1.452,0,0,1-1.452-1.452ZM88.1,83.742A4.355,4.355,0,0,1,83.742,88.1H8.258A4.355,4.355,0,0,1,3.9,83.742v-2.9a1.452,1.452,0,0,1,1.452-1.452H35.839v1.452a4.355,4.355,0,0,0,4.355,4.355H51.806a4.355,4.355,0,0,0,4.355-4.355V79.387H86.645A1.452,1.452,0,0,1,88.1,80.839Z"/><path d="M30.613,25A11.613,11.613,0,1,0,42.226,36.613,11.613,11.613,0,0,0,30.613,25Zm7.258,6.808a8.668,8.668,0,0,1,.944,1.9h-.944Zm-1.306-1.543A17.274,17.274,0,0,1,31.652,28.2a1.452,1.452,0,0,0-1.79.209l-1.4,1.4-1.225-1.224a8.678,8.678,0,0,1,9.327,1.678ZM30.613,45.323A8.7,8.7,0,0,1,24.74,30.2l2.691,2.69a1.452,1.452,0,0,0,2.053,0l1.639-1.639a20.128,20.128,0,0,0,3.845,1.6v2.314a1.452,1.452,0,0,0,1.452,1.452h2.9a8.718,8.718,0,0,1-8.71,8.71Z" transform="translate(8.129 10.839)"/></g></g></svg>