<svg xmlns="http://www.w3.org/2000/svg" width="470.615" height="319.594" viewBox="0 0 470.615 319.594"><defs><style>.a{fill:#26a69a;}.b{fill:#f6f6f6;}</style></defs><g transform="translate(20658 13386.594)"><g transform="translate(-20377.412 -13231.789)"><path class="a" d="M1638.477,1074.2a92.5,92.5,0,0,1-36.99-7.65,94.6,94.6,0,0,1-30.2-20.857,97.142,97.142,0,0,1-20.358-30.928,99.272,99.272,0,0,1,18.859-105.1.809.809,0,1,1,1.183,1.1,97.373,97.373,0,0,0,1.473,133.791,91.821,91.821,0,0,0,132.067,0,96.252,96.252,0,0,0,27.361-67.667c0-23.94-7.985-45.753-23.093-63.081a.809.809,0,1,1,1.22-1.063,94.084,94.084,0,0,1,17.346,29.166,100.094,100.094,0,0,1,6.145,34.978,98.715,98.715,0,0,1-7.464,37.869,97.136,97.136,0,0,1-20.358,30.928,94.6,94.6,0,0,1-30.2,20.857A92.5,92.5,0,0,1,1638.477,1074.2Z" transform="translate(-1543.464 -909.41)"/></g><g transform="translate(-20337.785 -13260.631)"><path class="a" d="M1729.941,794.456a.809.809,0,0,1-.486-1.457c2.317-1.734,4.737-3.38,7.2-4.892a.809.809,0,1,1,.848,1.378c-2.416,1.486-4.8,3.1-7.073,4.809A.805.805,0,0,1,1729.941,794.456Zm105.346-4a.805.805,0,0,1-.435-.127c-2.4-1.531-4.891-2.967-7.411-4.266a.809.809,0,0,1,.741-1.438c2.565,1.322,5.1,2.783,7.541,4.341a.809.809,0,0,1-.436,1.491Zm-90.663-5.023a.809.809,0,0,1-.359-1.535c2.595-1.283,5.277-2.457,7.972-3.489a.809.809,0,1,1,.579,1.511c-2.648,1.015-5.284,2.169-7.834,3.429A.807.807,0,0,1,1744.623,785.43Zm75.343-2.871a.81.81,0,0,1-.3-.058c-2.636-1.061-5.352-2.008-8.073-2.817a.809.809,0,1,1,.461-1.551c2.769.823,5.534,1.787,8.216,2.867a.809.809,0,0,1-.3,1.56Zm-59.25-3.294a.809.809,0,0,1-.217-1.589c2.785-.777,5.64-1.431,8.484-1.942a.809.809,0,0,1,.286,1.593c-2.795.5-5.6,1.144-8.336,1.908A.812.812,0,0,1,1760.717,779.265Zm42.731-1.613a.812.812,0,0,1-.158-.015c-2.781-.549-5.626-.974-8.456-1.264a.809.809,0,1,1,.165-1.61c2.88.294,5.775.727,8.605,1.286a.809.809,0,0,1-.156,1.6Zm-25.767-1.437a.809.809,0,0,1-.067-1.615c2.577-.216,5.2-.326,7.792-.326q.452,0,.9,0a.809.809,0,0,1-.008,1.618h-.008q-.445,0-.889,0c-2.549,0-5.125.108-7.657.32Z" transform="translate(-1729.131 -774.273)"/></g><g transform="translate(-20517.5 -13386.594)"><path class="a" d="M1050.22,345.01a.809.809,0,0,1-.585-1.368,93.395,93.395,0,1,0-160.907-64.534c0,23.363,7.983,44.651,23.087,61.563l.014.016,1.322,1.564a.809.809,0,0,1-1.235,1.045l-1.316-1.555a91.44,91.44,0,0,1-17.343-28.473,95.676,95.676,0,0,1-6.147-34.16,95.013,95.013,0,1,1,163.7,65.652A.807.807,0,0,1,1050.22,345.01Z" transform="translate(-887.11 -184.095)"/></g><g transform="translate(-20472.963 -13215.973)"><path class="a" d="M1146.447,1003.435l-.757,0a.809.809,0,0,1,.006-1.618h.007c.255,0,.511,0,.765,0,2.592,0,5.211-.109,7.785-.323a.809.809,0,1,1,.135,1.613c-2.618.218-5.283.329-7.919.329Zm-9.364-.462c-.027,0-.053,0-.08,0-2.882-.284-5.779-.7-8.61-1.245a.809.809,0,1,1,.3-1.589c2.783.533,5.631.945,8.464,1.224a.809.809,0,0,1-.078,1.614Zm25.791-.974a.809.809,0,0,1-.14-1.606c2.8-.495,5.6-1.126,8.343-1.877a.809.809,0,0,1,.428,1.561c-2.787.764-5.643,1.406-8.489,1.91A.805.805,0,0,1,1162.874,1002Zm-42.718-2.269a.815.815,0,0,1-.225-.032c-2.778-.8-5.55-1.743-8.24-2.8a.809.809,0,0,1,.59-1.507c2.644,1.036,5.368,1.961,8.1,2.749a.809.809,0,0,1-.224,1.586Zm59.341-2.286a.809.809,0,0,1-.285-1.567c2.656-1,5.3-2.135,7.858-3.375a.809.809,0,1,1,.706,1.456c-2.6,1.262-5.292,2.418-7.995,3.434A.806.806,0,0,1,1179.5,997.445Zm-75.389-4a.807.807,0,0,1-.363-.086c-2.581-1.3-5.133-2.73-7.587-4.261a.809.809,0,0,1,.856-1.373c2.412,1.5,4.92,2.913,7.457,4.188a.809.809,0,0,1-.364,1.532Zm90.9-3.52a.809.809,0,0,1-.419-1.5c2.431-1.468,4.824-3.066,7.112-4.751a.809.809,0,1,1,.959,1.3c-2.328,1.713-4.762,3.339-7.235,4.832A.807.807,0,0,1,1195.005,989.923Z" transform="translate(-1095.778 -983.514)"/></g><g transform="translate(-20658 -13231.789)"><path class="a" d="M323.832,1074.2a92.5,92.5,0,0,1-36.99-7.65,94.6,94.6,0,0,1-30.2-20.857,97.137,97.137,0,0,1-20.357-30.928,99.272,99.272,0,0,1,18.859-105.1.809.809,0,1,1,1.183,1.1,97.372,97.372,0,0,0,1.473,133.791,91.821,91.821,0,0,0,132.067,0A96.251,96.251,0,0,0,417.227,976.9c0-23.94-7.986-45.753-23.093-63.081a.809.809,0,1,1,1.22-1.063A94.083,94.083,0,0,1,412.7,941.917a100.1,100.1,0,0,1,6.145,34.978,98.714,98.714,0,0,1-7.464,37.869,97.137,97.137,0,0,1-20.358,30.928,94.6,94.6,0,0,1-30.2,20.857A92.5,92.5,0,0,1,323.832,1074.2Z" transform="translate(-228.819 -909.41)"/></g><g transform="translate(-20625.313 -13260.631)"><path class="a" d="M382.776,800.185a.809.809,0,0,1-.544-1.408l.281-.254a.809.809,0,1,1,1.083,1.2l-.276.25A.806.806,0,0,1,382.776,800.185Zm6.943-5.73a.809.809,0,0,1-.486-1.457c2.316-1.735,4.737-3.38,7.2-4.892a.809.809,0,1,1,.848,1.378c-2.416,1.486-4.8,3.1-7.073,4.809A.806.806,0,0,1,389.719,794.455Zm105.344-4a.805.805,0,0,1-.435-.127c-2.4-1.532-4.891-2.967-7.412-4.266a.809.809,0,1,1,.741-1.438c2.565,1.322,5.1,2.783,7.541,4.341a.809.809,0,0,1-.437,1.491ZM404.4,785.43a.809.809,0,0,1-.359-1.535c2.595-1.282,5.277-2.456,7.972-3.489a.809.809,0,1,1,.579,1.511c-2.648,1.015-5.284,2.169-7.834,3.429A.805.805,0,0,1,404.4,785.43Zm75.342-2.87a.806.806,0,0,1-.3-.059c-2.636-1.061-5.352-2.008-8.073-2.817a.809.809,0,0,1,.461-1.551c2.769.823,5.534,1.787,8.216,2.867a.809.809,0,0,1-.3,1.56Zm-59.249-3.295a.809.809,0,0,1-.217-1.589c2.785-.777,5.639-1.43,8.483-1.942a.809.809,0,1,1,.286,1.593c-2.794.5-5.6,1.144-8.334,1.908A.819.819,0,0,1,420.494,779.264Zm42.731-1.613a.814.814,0,0,1-.158-.015c-2.781-.549-5.626-.974-8.456-1.264a.809.809,0,0,1,.165-1.61c2.88.294,5.776.727,8.605,1.286a.809.809,0,0,1-.156,1.6Zm-25.77-1.437a.809.809,0,0,1-.067-1.615c2.577-.216,5.2-.326,7.794-.326q.452,0,.9,0a.809.809,0,0,1-.008,1.618h-.008q-.445,0-.889,0c-2.55,0-5.127.108-7.659.32Z" transform="translate(-381.967 -774.273)"/></g><g transform="translate(-20642.297 -13242.191)"><circle class="b" cx="10.402" cy="10.402" r="10.402" transform="translate(0.809 0.809)"/><path class="a" d="M313.608,883.1a11.211,11.211,0,1,1,11.211-11.211A11.224,11.224,0,0,1,313.608,883.1Zm0-20.8a9.593,9.593,0,1,0,9.593,9.593A9.6,9.6,0,0,0,313.608,862.291Z" transform="translate(-302.397 -860.673)"/></g><g transform="translate(-20225.1 -13242.191)"><path class="b" d="M10.4,0A10.4,10.4,0,1,1,0,10.4,10.4,10.4,0,0,1,10.4,0Z" transform="translate(0.809 0.809)"/><path class="a" d="M2268.313,883.1a11.211,11.211,0,1,1,11.211-11.211A11.224,11.224,0,0,1,2268.313,883.1Zm0-20.8a9.593,9.593,0,1,0,9.593,9.593A9.6,9.6,0,0,0,2268.313,862.291Z" transform="translate(-2257.102 -860.673)"/></g><g transform="translate(-20500.063 -13237.027)"><path class="b" d="M972.618,889.262l4.923,21.241a.493.493,0,0,0,.78.28l14.3-10.945a.493.493,0,0,0-.067-.826l-19.22-10.3A.493.493,0,0,0,972.618,889.262Z" transform="translate(-971.795 -887.846)"/><path class="a" d="M975.039,908.708a1.3,1.3,0,0,1-1.27-1.008l-4.923-21.24h0a1.3,1.3,0,0,1,1.883-1.441l19.22,10.3a1.3,1.3,0,0,1,.177,2.181l-14.3,10.945A1.3,1.3,0,0,1,975.039,908.708Zm-4.459-21.935,4.655,20.083,13.517-10.349Z" transform="translate(-968.811 -884.86)"/></g><g transform="translate(-20360.949 -13242.213)"><path class="b" d="M1625.084,886.019l20.067-8.529a.493.493,0,0,0,.141-.816l-13.256-12.184a.493.493,0,0,0-.8.209l-6.81,20.713A.493.493,0,0,0,1625.084,886.019Z" transform="translate(-1623.587 -863.55)"/><path class="a" d="M1621.9,883.887a1.305,1.305,0,0,1-1.232-1.711l6.811-20.713a1.3,1.3,0,0,1,2.118-.552l13.256,12.184a1.3,1.3,0,0,1-.372,2.157l-20.066,8.529h0A1.315,1.315,0,0,1,1621.9,883.887Zm.2-.851h0Zm-.315-.745h0Zm7.08-19.857-6.439,19.584,18.973-8.064Z" transform="translate(-1620.603 -860.568)"/></g></g></svg>