<svg xmlns="http://www.w3.org/2000/svg" width="100.299" height="100.301" viewBox="0 0 100.299 100.301"><g transform="translate(11617 18909)"><path d="M708.633,96.455a50.147,50.147,0,1,0,44.63,55.115A50.205,50.205,0,0,0,708.633,96.455Z" transform="translate(-12270.24 -19005.178)" fill="#fff"/><g transform="translate(-11598 -18890)"><g transform="translate(1 1)"><g transform="translate(8)"><path d="M62,4V14H54.8l1.16-5.82A1.472,1.472,0,0,0,56,7.82,1.814,1.814,0,0,0,54.18,6a1.472,1.472,0,0,0-.36.04L45.3,7.74a1.621,1.621,0,0,0-.83,2.73L46.5,12.5,44.88,14H10V4a2.006,2.006,0,0,1,2-2H60A2.006,2.006,0,0,1,62,4Z" transform="translate(-10 -2)" fill="#4dd0e1"/></g><g transform="translate(8 12)"><path d="M44.88,14,33,25l-7-7-2.3,2.3A14.026,14.026,0,0,0,10,19.35V14Z" transform="translate(-10 -14)" fill="#e6e9ed"/></g><g transform="translate(17 12)"><path d="M62,14V48a2.006,2.006,0,0,1-2,2H19V45.68A14.017,14.017,0,0,0,29.13,27.13L33,31,49.5,15.5l2.03,2.03a1.621,1.621,0,0,0,2.73-.83L54.8,14Z" transform="translate(-19 -14)" fill="#e6e9ed"/></g><g transform="translate(28 4)"><path d="M30,6h4v4H30Z" transform="translate(-30 -6)" fill="#e6e9ed"/></g><g transform="translate(20 4)"><path d="M22,6h4v4H22Z" transform="translate(-22 -6)" fill="#e6e9ed"/></g><g transform="translate(52 20)"><path d="M54,22h4V46H54Z" transform="translate(-54 -22)" fill="#ffca28"/></g><g transform="translate(5.22 4)"><path d="M56,7.82a1.472,1.472,0,0,1-.04.36L54.8,14l-.54,2.7a1.621,1.621,0,0,1-2.73.83L49.5,15.5,33,31l-3.87-3.87L26,24l-2,2L10,40a9.89,9.89,0,0,1-2.78-3.22L20.78,23.22,23.7,20.3,26,18l7,7L44.88,14l1.62-1.5-2.03-2.03a1.621,1.621,0,0,1,.83-2.73l8.52-1.7A1.472,1.472,0,0,1,54.18,6,1.814,1.814,0,0,1,56,7.82Z" transform="translate(-7.22 -6)" fill="#ffa726"/></g><g transform="translate(44 22)"><path d="M46,24h4V46H46Z" transform="translate(-46 -24)" fill="#ffca28"/></g><g transform="translate(36 28)"><path d="M38,30h4V46H38Z" transform="translate(-38 -30)" fill="#ffca28"/></g><g transform="translate(28 34)"><path d="M30,36h4V46H30Z" transform="translate(-30 -36)" fill="#ffca28"/></g><g transform="translate(0 16)"><path d="M19,45.68a14,14,0,0,1-9-26.33,14.026,14.026,0,0,1,13.7.95l-2.92,2.92-.01-.01A10,10,0,1,0,24,26l2-2,3.13,3.13A14.017,14.017,0,0,1,19,45.68Z" transform="translate(-2 -18)" fill="#1565c0"/></g><g transform="translate(8 24)"><path d="M24,26A10,10,0,0,1,10,40Z" transform="translate(-10 -26)" fill="#69d6f4"/></g><g transform="translate(4 20)"><path d="M20.78,23.22,7.22,36.78A9.9,9.9,0,0,1,6,32a10,10,0,0,1,14.77-8.79Z" transform="translate(-6 -22)" fill="#69d6f4"/></g><g transform="translate(11 43.68)"><path d="M19,50v9a3,3,0,0,1-6,0V45.68a14.223,14.223,0,0,0,6,0Z" transform="translate(-13 -45.68)" fill="#ffa726"/></g><g transform="translate(12 4)"><path d="M14,6h4v4H14Z" transform="translate(-14 -6)" fill="#e6e9ed"/></g></g><g transform="translate(0 0)"><path d="M60,1H12A3,3,0,0,0,9,4V18.744a14.981,14.981,0,0,0,3,27.7V59a4,4,0,1,0,8,0V51H60a3,3,0,0,0,3-3V4A3,3,0,0,0,60,1ZM12,3H60a1,1,0,0,1,1,1v9H56.02l.925-4.628A2.818,2.818,0,0,0,54.181,5a2.783,2.783,0,0,0-.554.055l-8.521,1.7a2.621,2.621,0,0,0-1.338,4.423l1.29,1.291-.57.527H11V4a1,1,0,0,1,1-1ZM26,22.586,9.946,38.64a9.086,9.086,0,0,1-1.465-1.707L26,19.414l6.974,6.974,14.969-13.86-2.761-2.76A.621.621,0,0,1,45.5,8.72l8.521-1.7a.835.835,0,0,1,.98.8.792.792,0,0,1-.016.161L53.28,16.5a.647.647,0,0,1-1.048.317l-2.711-2.711-16.5,15.5ZM25,32a8.987,8.987,0,0,1-13.418,7.832L23.834,27.58A8.9,8.9,0,0,1,25,32ZM7,32a8.975,8.975,0,0,1,12.044-8.459l-11.5,11.5A8.933,8.933,0,0,1,7,32Zm4-17H42.328l-9.3,8.612L26,16.586l-2.455,2.455A14.871,14.871,0,0,0,11,17.875ZM3,32A12.991,12.991,0,0,1,22.074,20.512l-1.5,1.5a10.928,10.928,0,1,0,4.727,4.1l.7-.7,2.252,2.252A13,13,0,1,1,3,32ZM16,61a2,2,0,0,1-2-2V46.851A14.99,14.99,0,0,0,16,47a14.989,14.989,0,0,0,2-.149V59A2,2,0,0,1,16,61ZM60,49H20V46.442a15.043,15.043,0,0,0,9-6.99V47H59V21H53V45H51V23H45V45H43V29H37V45H35V35H30.7a14.478,14.478,0,0,0,.2-4.692l2.084,2.084,16.5-15.5,1.34,1.34A2.6,2.6,0,0,0,52.671,19a2.628,2.628,0,0,0,2.57-2.106L55.62,15H61V48a1,1,0,0,1-1,1ZM31,45V37h2v8Zm10,0H39V31h2Zm8,0H47V25h2Zm6,0V23h2V45Z" transform="translate(-1 -1)"/><path d="M19,5H13v6h6ZM17,9H15V7h2Z" transform="translate(-1 -1)"/><path d="M27,5H21v6h6ZM25,9H23V7h2Z" transform="translate(-1 -1)"/><path d="M35,5H29v6h6ZM33,9H31V7h2Z" transform="translate(-1 -1)"/></g></g></g></svg>