<svg xmlns="http://www.w3.org/2000/svg" width="100.299" height="100.301" viewBox="0 0 100.299 100.301"><g transform="translate(13257 19041)"><path d="M708.633,96.455a50.147,50.147,0,1,0,44.63,55.115A50.205,50.205,0,0,0,708.633,96.455Z" transform="translate(-13910.24 -19137.178)" fill="#fff"/><g transform="translate(-13237 -19021)"><path d="M73.171,225.051H58.126a1,1,0,0,0-.911.583l-3.462,7.5-3.775.944H42.553l-6.619-8.09a7.99,7.99,0,0,0-6.014-2.938v-.171a3.135,3.135,0,0,0,2.128-2.965v-6.069a3.009,3.009,0,0,0-1-5.845H23.722a5.716,5.716,0,0,0-4.9,8.656l2.194,3.657v3.025A7.032,7.032,0,0,0,16,230.066v14.042h2.006V230.066a5.021,5.021,0,0,1,5.015-5.015h6.7a6,6,0,0,1,4.658,2.207l6.92,8.458a1,1,0,0,0,.776.368h5.015V240.1h-7.24a3.014,3.014,0,0,1-2.237-1l-7.832-8.7-1.491,1.342,3.755,4.172v8.2h2.006v-5.967l2.071,2.3a5.022,5.022,0,0,0,3.728,1.66h3.4a3.014,3.014,0,0,0,2.836,2.006H65.147a3.012,3.012,0,0,0,3.009-3.009v-1.786l5.926-12.839a1,1,0,0,0-.911-1.423Zm-44.254-4.012a1.117,1.117,0,0,1-.8-.329l-1.089-1.089v-3.293l1.54-2.31h1.469v5.9a1.126,1.126,0,0,1-1.125,1.125Zm-8.905-7.323a3.714,3.714,0,0,1,3.71-3.71h7.323a1,1,0,1,1,0,2.006H28.036a1,1,0,0,0-.835.447L25.2,215.468a1,1,0,0,0-.168.556v3.009H22.586l-2.045-3.409a3.711,3.711,0,0,1-.529-1.909Zm3.009,7.323h2.594l1.089,1.089a3.117,3.117,0,0,0,1.211.753v.164H23.021ZM49.1,236.084h1a1,1,0,0,0,.243-.03l3.609-.9,4.113,2.468a.12.12,0,0,1-.085.221l-3.672-.734a1,1,0,0,0-.8.181L50.035,239.9a1.009,1.009,0,0,1-.6.2H49.1Zm2.14,5.416,1.872-1.4h2.006v1a2.994,2.994,0,0,0,.173,1H49.433A3.029,3.029,0,0,0,51.239,241.5Zm14.911-.4a1,1,0,0,1-1,1H58.126a1,1,0,0,1-1-1v-1H66.15Zm.361-3.009H60.1a2.1,2.1,0,0,0-1-2.19l-3.456-2.074,3.124-6.769H71.6Z" transform="translate(-16 -183.928)" fill="#ffa726"/><path d="M122.15,16H75.009A3.012,3.012,0,0,0,72,19.009V38.066h2.006V19.009a1,1,0,0,1,1-1H122.15a1,1,0,0,1,1,1v33.1a1,1,0,0,1-1,1H83.033v2.006H122.15a3.012,3.012,0,0,0,3.009-3.009v-33.1A3.012,3.012,0,0,0,122.15,16Z" transform="translate(-64.979 -16)" fill="#ffa726"/><ellipse cx="0.5" cy="1" rx="0.5" ry="1" transform="translate(10.016 2.869)" fill="#ffa726"/><circle cx="1" cy="1" r="1" transform="translate(12.016 2.869)" fill="#ffa726"/><circle cx="1" cy="1" r="1" transform="translate(17.016 2.869)" fill="#ffa726"/><path d="M201.1,96h-6.018a1,1,0,0,0-1,1v3.009h-5.015a1,1,0,0,0-1,1v4.012h-5.015a1,1,0,0,0-1,1v4.012h-5.015a1,1,0,0,0-1,1v3.009h-5.015a1,1,0,0,0-1,1v4.012H168v2.006h36.108v-2.006H202.1V97A1,1,0,0,0,201.1,96Zm-29.087,20.06h4.012v3.009h-4.012Zm6.018-4.012h4.012v7.021H178.03Zm6.018-5.015h4.012v12.036h-4.012Zm6.018-5.015h4.012v17.051h-4.012Zm10.03,17.051h-4.012V98.006H200.1Z" transform="translate(-148.943 -85.97)" fill="#ffa726"/><path d="M144,66.048h4.185A3.009,3.009,0,0,0,153.9,64.17l5.216-3.844a3.008,3.008,0,0,0,4.708-3.469l4.566-3.364a3.007,3.007,0,0,0,4.524-1.487H179.1V50h-6.191a3.009,3.009,0,0,0-5.715,1.878l-4.736,3.49a3.007,3.007,0,0,0-4.368,3.218l-5.387,3.969a3.007,3.007,0,0,0-4.524,1.487H144ZM170.078,50a1,1,0,1,1-1,1A1,1,0,0,1,170.078,50Zm-9.027,7.021a1,1,0,1,1-1,1,1,1,0,0,1,1-1Zm-10.03,7.021a1,1,0,1,1-1,1A1,1,0,0,1,151.021,64.042Z" transform="translate(-127.952 -43.982)" fill="#ffa726"/><path d="M440,64h2.006v2.006H440Z" transform="translate(-386.841 -57.982)" fill="#ffa726"/><path d="M112,176h2.006v2.006H112Z" transform="translate(-99.964 -155.94)" fill="#ffa726"/></g></g></svg>