<svg xmlns="http://www.w3.org/2000/svg" width="100.299" height="100.301" viewBox="0 0 100.299 100.301"><g transform="translate(12605 18909)"><path d="M708.633,96.455a50.147,50.147,0,1,0,44.63,55.115A50.205,50.205,0,0,0,708.633,96.455Z" transform="translate(-13258.24 -19005.178)" fill="#fff"/><g transform="translate(-12589 -18893.002)"><g transform="translate(1.014 1.015)"><path d="M19.279,13.861c6.5,0,11.767,4.009,11.767,8.952,0,4.005-3.454,7.4-8.225,8.542l-3.053,4.1c-.344.459-.612.494-.979,0l-3.053-4.1c-4.77-1.144-8.225-4.537-8.225-8.542,0-4.942,5.268-8.952,11.767-8.952Z" transform="translate(-7.512 -13.861)" fill="#fff6db" fill-rule="evenodd"/><path d="M246.866,46.106h33.3a.789.789,0,0,0,.788-.784V14.645a.788.788,0,0,0-.788-.784h-33.3a.789.789,0,0,0-.788.784V45.322A.789.789,0,0,0,246.866,46.106Z" transform="translate(-213.883 -13.861)" fill="#f4fbff" fill-rule="evenodd"/><path d="M275.861,126.794h4.388a.788.788,0,0,0,.788-.784V112.582a.789.789,0,0,0-.788-.784h-4.388a.785.785,0,0,0-.784.784V126.01A.785.785,0,0,0,275.861,126.794Z" transform="translate(-238.969 -98.581)" fill="#ffa726" fill-rule="evenodd"/><path d="M353.988,58.4h4.388a.792.792,0,0,1,.788.788V79.814a.789.789,0,0,1-.788.784h-4.388a.789.789,0,0,1-.788-.784V59.183A.792.792,0,0,1,353.988,58.4Z" transform="translate(-306.549 -52.385)" fill="#26a69a" fill-rule="evenodd"/><path d="M432.14,87.506h4.388a.789.789,0,0,1,.784.788V105a.785.785,0,0,1-.784.784H432.14a.789.789,0,0,1-.788-.784v-16.7A.792.792,0,0,1,432.14,87.506Z" transform="translate(-374.154 -77.567)" fill="#4dd0e1" fill-rule="evenodd"/><path d="M142.377,138.5a16.181,16.181,0,0,1,7.953,30.271,2.078,2.078,0,0,0-1.205,1.924v3.959l-6.58,1.278-6.913-1.278V170.7a2.186,2.186,0,0,0-1.213-1.928,16.18,16.18,0,0,1,7.957-30.267Z" transform="translate(-110.182 -121.681)" fill="#ffca28" fill-rule="evenodd"/><path d="M209.594,443.108a6.746,6.746,0,1,1-13.492,0l7.008-.784Z" transform="translate(-170.651 -384.502)" fill="#afafaf" fill-rule="evenodd"/><path d="M196.1,406.408h13.492v5.631H196.1Z" transform="translate(-170.651 -353.433)" fill="#afafaf" fill-rule="evenodd"/></g><path d="M12.781,6.349A14.848,14.848,0,0,1,21.717,9.18a9.018,9.018,0,0,1,3.845,7.134A8.591,8.591,0,0,1,23.006,22.3a13.1,13.1,0,0,1-6.086,3.443L13.592,30.22a1.012,1.012,0,0,1-1.633-.015l-3.317-4.46A13.1,13.1,0,0,1,2.555,22.3,8.591,8.591,0,0,1,0,16.314,9.012,9.012,0,0,1,3.848,9.18,14.827,14.827,0,0,1,12.781,6.349ZM63.162,18.315H59.226v16.25h3.936Zm-4.95-2.024h5.96a1.012,1.012,0,0,1,1.014,1.01V35.576a1.013,1.013,0,0,1-1.014,1.014h-5.96a1.01,1.01,0,0,1-1.01-1.014V17.3A1.009,1.009,0,0,1,58.212,16.291ZM42.068,25.626V21.59H38.132v2.3A17.148,17.148,0,0,1,42.068,25.626Zm-5.96-2.211V20.576a1.012,1.012,0,0,1,1.014-1.01h5.96a1.009,1.009,0,0,1,1.01,1.01v6.476q.666.545,1.274,1.152a17.092,17.092,0,0,1,1.289,1.442V13.373a1.012,1.012,0,0,1,1.01-1.014h5.964a1.012,1.012,0,0,1,1.01,1.014v22.2a1.01,1.01,0,0,1-1.01,1.014H49.987a17.2,17.2,0,0,1,.325,2.008H67.071V8.373H52.94a1.012,1.012,0,1,1,0-2.024H68.085A1.012,1.012,0,0,1,69.1,7.363V39.608a1.012,1.012,0,0,1-1.01,1.014H50.4a17.638,17.638,0,0,1-.165,2.1,16.769,16.769,0,0,1-.482,2.314,1.01,1.01,0,1,1-1.944-.547,15.216,15.216,0,0,0,.425-2.035,15.441,15.441,0,0,0,.142-2.093,15.166,15.166,0,0,0-28.92-6.4,1.012,1.012,0,0,1-1.836-.853,17.257,17.257,0,0,1,6.366-7.249A17.082,17.082,0,0,1,32.2,23.2V7.363a1.012,1.012,0,0,1,1.01-1.014H48.353a1.012,1.012,0,1,1,0,2.024H34.222V23.2a16.084,16.084,0,0,1,1.886.214ZM49.4,34.566h3.217V14.386H48.679V32.852a16.937,16.937,0,0,1,.719,1.714Zm9.33,15.845A1.012,1.012,0,0,1,57.3,48.98L60.473,45.8a1.007,1.007,0,0,1,1.438,0l3.175,3.175a1.012,1.012,0,0,1-1.431,1.431l-1.45-1.45v9.02a6.27,6.27,0,0,1-6.255,6.251h-10.2a1.012,1.012,0,1,1,0-2.024h10.2a4.245,4.245,0,0,0,4.231-4.227v-9.02ZM16.675,60.69a1.012,1.012,0,0,1,1.431-1.431l3.175,3.175a1.016,1.016,0,0,1,0,1.442l-3.171,3.171a1.012,1.012,0,0,1-1.431-1.431l1.45-1.45H10.367a6.269,6.269,0,0,1-6.251-6.255V28.766a1.012,1.012,0,1,1,2.024,0V57.912a4.245,4.245,0,0,0,4.227,4.231h7.758ZM8.355,17.328a1.012,1.012,0,1,1,0-2.024h8.852a1.012,1.012,0,1,1,0,2.024Zm0,3.753a1.012,1.012,0,1,1,0-2.024h6.6a1.012,1.012,0,0,1,0,2.024Zm0-7.506a1.012,1.012,0,1,1,0-2.024h8.852a1.012,1.012,0,1,1,0,2.024ZM34.222,54.94v4.384h4.721V55.07a1.011,1.011,0,0,1,.593-.918,15.133,15.133,0,0,0,3.684-2.395,15.351,15.351,0,0,0,2.854-3.351,1.008,1.008,0,1,1,1.706,1.075A17.183,17.183,0,0,1,40.967,55.7V65.969a7.758,7.758,0,1,1-15.516,0V55.7a17.172,17.172,0,0,1-9.43-15.336c0-.428.015-.865.05-1.3s.08-.872.145-1.293a1.011,1.011,0,0,1,2,.3c-.057.383-.1.765-.13,1.144s-.042.757-.042,1.155a15.1,15.1,0,0,0,2.387,8.175,15.251,15.251,0,0,0,6.377,5.581,1.006,1.006,0,0,1,.666.952v4.254H32.2V54.94L24.717,40.3l-.3.172A1.006,1.006,0,0,1,23.4,38.739l3.1-1.813a1.008,1.008,0,0,1,1.037.008L30.11,38.44l2.59-1.515a1.008,1.008,0,0,1,1.037.008l2.574,1.507,2.59-1.515a1,1,0,0,1,1.033.008l3.087,1.806A1.007,1.007,0,1,1,42,40.476l-.295-.172ZM27.008,38.961l-.547.321,6.748,13.209,6.752-13.209-.551-.321-2.574,1.507a1.008,1.008,0,0,1-1.037.008l-2.59-1.515-2.574,1.507a1,1,0,0,1-1.033.008ZM37.264,70.024a5.722,5.722,0,0,0,1.591-3.041H27.566a5.73,5.73,0,0,0,9.7,3.041Zm-9.789-8.672v3.608H38.943V61.351ZM20.489,10.787a12.772,12.772,0,0,0-7.708-2.414,12.772,12.772,0,0,0-7.708,2.414,7.048,7.048,0,0,0-3.049,5.528A6.607,6.607,0,0,0,4.009,20.9,11.161,11.161,0,0,0,9.43,23.866a1.006,1.006,0,0,1,.62.39l2.731,3.672,2.735-3.672a1,1,0,0,1,.574-.379A11.2,11.2,0,0,0,21.552,20.9a6.607,6.607,0,0,0,1.986-4.587,7.048,7.048,0,0,0-3.049-5.528Z" transform="translate(0 -6.348)"/></g></g></svg>