<svg xmlns="http://www.w3.org/2000/svg" width="100.299" height="100.301" viewBox="0 0 100.299 100.301"><g transform="translate(12295 18909)"><path d="M708.633,96.455a50.147,50.147,0,1,0,44.63,55.115A50.205,50.205,0,0,0,708.633,96.455Z" transform="translate(-12948.24 -19005.178)" fill="#fff"/><g transform="translate(-12279 -18886)"><g transform="translate(13.809 1.01)"><path d="M143.8,82.69V77.012a.652.652,0,0,0-.652-.652h-4.318a.648.648,0,0,1-.629-.481,15.55,15.55,0,0,0-1.626-3.924.648.648,0,0,1,.1-.785l3.054-3.054a.652.652,0,0,0,0-.923l-4.015-4.015a.652.652,0,0,0-.923,0l-3.054,3.054a.648.648,0,0,1-.785.1,15.551,15.551,0,0,0-3.924-1.626.648.648,0,0,1-.481-.629V59.765a.652.652,0,0,0-.652-.652h-5.678a.652.652,0,0,0-.652.652v4.318a.648.648,0,0,1-.481.629,15.548,15.548,0,0,0-3.924,1.626.648.648,0,0,1-.785-.1l-3.054-3.054a.652.652,0,0,0-.923,0L106.4,67.194a.652.652,0,0,0,0,.923l3.054,3.054a.648.648,0,0,1,.1.785,15.552,15.552,0,0,0-1.626,3.924.648.648,0,0,1-.629.481h-4.318a.652.652,0,0,0-.652.652V82.69a.652.652,0,0,0,.652.652H107.3a.648.648,0,0,1,.629.481,15.553,15.553,0,0,0,1.626,3.924.648.648,0,0,1-.1.785L106.4,91.585a.652.652,0,0,0,0,.923l4.015,4.015a.652.652,0,0,0,.923,0l3.054-3.054a.648.648,0,0,1,.785-.1A15.551,15.551,0,0,0,119.1,94.99a.648.648,0,0,1,.481.629v4.318a.652.652,0,0,0,.652.652h5.678a.652.652,0,0,0,.652-.652V95.618a.648.648,0,0,1,.481-.629,15.551,15.551,0,0,0,3.924-1.626.648.648,0,0,1,.785.1l3.054,3.054a.652.652,0,0,0,.923,0l4.015-4.015a.652.652,0,0,0,0-.923l-3.054-3.054a.648.648,0,0,1-.1-.785,15.551,15.551,0,0,0,1.626-3.924.648.648,0,0,1,.629-.481h4.318A.652.652,0,0,0,143.8,82.69Z" transform="translate(-102.329 -59.113)" fill="#ffca28"/></g><g transform="translate(4.648 48.677)"><circle cx="2.736" cy="2.736" r="2.736" fill="#ffa726"/><g transform="translate(13.581)"><circle cx="2.736" cy="2.736" r="2.736" fill="#ffa726"/></g><g transform="translate(27.163)"><circle cx="2.736" cy="2.736" r="2.736" transform="translate(0)" fill="#ffa726"/></g><g transform="translate(40.744)"><circle cx="2.736" cy="2.736" r="2.736" fill="#ffa726"/></g><g transform="translate(54.326)"><circle cx="2.736" cy="2.736" r="2.736" fill="#ffa726"/></g></g><g transform="translate(23.399 10.599)"><circle cx="11.149" cy="11.149" r="11.149" transform="translate(0 0)" fill="#ffedb7"/></g><g transform="translate(0 0)"><path d="M68.085,407.59H65.317a3.745,3.745,0,0,0-7.213,0H51.736a3.745,3.745,0,0,0-7.213,0H38.154a3.745,3.745,0,0,0-7.213,0H24.573a3.745,3.745,0,0,0-7.213,0H10.991a3.745,3.745,0,0,0-7.213,0H1.01a1.01,1.01,0,1,0,0,2.019H3.778a3.745,3.745,0,0,0,7.213,0H17.36a3.745,3.745,0,0,0,7.213,0h6.368a3.745,3.745,0,0,0,7.213,0h6.368a3.745,3.745,0,0,0,7.213,0H58.1a3.745,3.745,0,0,0,7.213,0h2.768a1.01,1.01,0,1,0,0-2.019Zm-60.7,2.736A1.727,1.727,0,1,1,9.111,408.6,1.729,1.729,0,0,1,7.384,410.326Zm13.581,0a1.727,1.727,0,1,1,1.727-1.727A1.729,1.729,0,0,1,20.966,410.326Zm13.581,0a1.727,1.727,0,1,1,1.727-1.727A1.729,1.729,0,0,1,34.547,410.326Zm13.581,0a1.727,1.727,0,1,1,1.727-1.727A1.729,1.729,0,0,1,48.129,410.326Zm13.582,0a1.727,1.727,0,1,1,1.727-1.727A1.729,1.729,0,0,1,61.71,410.326Z" transform="translate(0 -357.186)"/><path d="M185.694,143.034a1.01,1.01,0,0,0,1.426-.078,12.129,12.129,0,1,0-4.046,2.969,1.01,1.01,0,0,0-.833-1.84,10.15,10.15,0,1,1,3.375-2.477,1.009,1.009,0,0,0,.078,1.426Z" transform="translate(-143.515 -113.096)"/><path d="M96.51,77.879h4.044a16.563,16.563,0,0,0,1.516,3.659L99.211,84.4a1.662,1.662,0,0,0,0,2.351l4.015,4.015a1.662,1.662,0,0,0,2.35,0l2.86-2.86a16.57,16.57,0,0,0,3.659,1.516v4.044a1.664,1.664,0,0,0,1.662,1.662h5.678a1.664,1.664,0,0,0,1.662-1.662V89.42a16.572,16.572,0,0,0,3.659-1.516l2.86,2.86a1.662,1.662,0,0,0,2.35,0l4.015-4.015a1.664,1.664,0,0,0,0-2.35l-2.86-2.86a16.573,16.573,0,0,0,1.516-3.659h4.044a1.664,1.664,0,0,0,1.662-1.662V70.539a1.664,1.664,0,0,0-1.662-1.662h-4.044a16.578,16.578,0,0,0-1.516-3.659l2.86-2.86a1.664,1.664,0,0,0,0-2.35l-4.015-4.015a1.664,1.664,0,0,0-2.35,0l-2.86,2.86a16.57,16.57,0,0,0-3.659-1.516V53.293a1.664,1.664,0,0,0-1.662-1.662h-5.678a1.664,1.664,0,0,0-1.662,1.662v4.044a16.571,16.571,0,0,0-3.659,1.516l-2.86-2.86a1.662,1.662,0,0,0-2.351,0l-.523.523a1.01,1.01,0,0,0,1.428,1.428l.271-.271,2.8,2.8a1.659,1.659,0,0,0,2.009.262,14.542,14.542,0,0,1,3.669-1.52,1.658,1.658,0,0,0,1.235-1.606V53.65h4.963v3.961a1.658,1.658,0,0,0,1.235,1.606,14.539,14.539,0,0,1,3.669,1.52,1.658,1.658,0,0,0,2.009-.262l2.8-2.8,3.51,3.51-2.8,2.8a1.658,1.658,0,0,0-.262,2.009,14.547,14.547,0,0,1,1.52,3.669,1.658,1.658,0,0,0,1.606,1.235h3.961V75.86h-3.961a1.658,1.658,0,0,0-1.606,1.235,14.543,14.543,0,0,1-1.52,3.669,1.658,1.658,0,0,0,.262,2.009l2.8,2.8-3.51,3.509-2.8-2.8a1.658,1.658,0,0,0-2.009-.262,14.543,14.543,0,0,1-3.669,1.52,1.658,1.658,0,0,0-1.235,1.606v3.961h-4.963V89.146a1.658,1.658,0,0,0-1.235-1.606,14.549,14.549,0,0,1-3.669-1.52,1.658,1.658,0,0,0-2.009.262l-2.8,2.8-3.509-3.509,2.8-2.8a1.658,1.658,0,0,0,.262-2.009,14.545,14.545,0,0,1-1.52-3.669,1.658,1.658,0,0,0-1.606-1.235H96.867V70.9h3.961a1.658,1.658,0,0,0,1.606-1.235,14.547,14.547,0,0,1,1.52-3.669,1.658,1.658,0,0,0-.262-2.009l-2.8-2.8.062-.062a1.01,1.01,0,1,0-1.428-1.428l-.315.315a1.664,1.664,0,0,0,0,2.35l2.86,2.86a16.573,16.573,0,0,0-1.516,3.659H96.51a1.664,1.664,0,0,0-1.662,1.662v5.678a1.664,1.664,0,0,0,1.662,1.662Z" transform="translate(-82.048 -51.631)"/><path d="M249.528,154.573a1.01,1.01,0,0,0-1.01,1.01v6.846a1.01,1.01,0,0,0,1.01,1.01h5.416a1.01,1.01,0,1,0,0-2.019h-4.406v-5.836A1.009,1.009,0,0,0,249.528,154.573Z" transform="translate(-214.98 -140.681)"/></g></g></g></svg>