<svg xmlns="http://www.w3.org/2000/svg" width="100.299" height="100.301" viewBox="0 0 100.299 100.301"><g transform="translate(12937 19041)"><path d="M708.633,96.455a50.147,50.147,0,1,0,44.63,55.115A50.205,50.205,0,0,0,708.633,96.455Z" transform="translate(-13590.24 -19137.178)" fill="#fff"/><g transform="translate(-12921 -19025)"><g transform="translate(0 0)"><path d="M66.752,1H4.343A3.347,3.347,0,0,0,1,4.343V53.379a3.347,3.347,0,0,0,3.343,3.343h30.09v.613a7.838,7.838,0,0,0,.814,3.469l2.53,5.094v4.147l20.06.052V66.009l1.783-2.377a7.848,7.848,0,0,0,1.56-4.681V56.722h5.572A3.347,3.347,0,0,0,70.1,53.379V4.343A3.347,3.347,0,0,0,66.752,1ZM4.343,3.229H66.752a1.116,1.116,0,0,1,1.114,1.114v10.03H3.229V4.343A1.116,1.116,0,0,1,4.343,3.229Zm40.12,24.518A3.347,3.347,0,0,0,41.12,31.09V32.2H27.747V21.06H63.409V32.2h-15.6V31.09A3.347,3.347,0,0,0,44.463,27.747ZM41.12,45.864a8.232,8.232,0,0,0-6-2.562A2.923,2.923,0,0,0,32.2,46.22a2.956,2.956,0,0,0,.308,1.306l1.256,2.51H27.747V38.891H41.12ZM58.951,58.951a5.6,5.6,0,0,1-1.114,3.343l-2.229,2.972v2.6l-15.6-.042V65.376l-2.763-5.563a5.6,5.6,0,0,1-.581-2.477V52.757a8.163,8.163,0,0,0-.857-3.632l-1.3-2.6a.692.692,0,0,1-.074-.309.72.72,0,0,1,.8-.689,5.9,5.9,0,0,1,5.891,5.892v4.138h2.229V31.09a1.114,1.114,0,1,1,2.229,0V48.921h2.229V44.463a1.114,1.114,0,0,1,2.229,0v4.458h2.229V44.463a1.114,1.114,0,0,1,2.229,0v4.458h2.229V46.692a1.114,1.114,0,0,1,2.229,0Zm-1.114-15.6a3.325,3.325,0,0,0-1.244.245,3.314,3.314,0,0,0-5.443-1.6,3.241,3.241,0,0,0-3.343-.664V38.891h15.6V50.035H61.18V46.692A3.347,3.347,0,0,0,57.836,43.349Zm8.916,11.144H61.18V52.264h4.458v-15.6H47.807V34.433H65.638v-15.6H25.518v15.6h15.6v2.229h-15.6v15.6H34.4c.014.164.029.329.029.493v1.736H4.343a1.116,1.116,0,0,1-1.114-1.114V16.6H67.866V53.379A1.116,1.116,0,0,1,66.752,54.493Z" transform="translate(-1 -1)" fill="#ffa726"/><path d="M11.687,5H5v6.687h6.687ZM9.458,9.458H7.229V7.229H9.458Z" transform="translate(-0.542 -0.542)" fill="#ffa726"/><path d="M19.687,5H13v6.687h6.687ZM17.458,9.458H15.229V7.229h2.229Z" transform="translate(0.373 -0.542)" fill="#ffa726"/><path d="M27.687,5H21v6.687h6.687ZM25.458,9.458H23.229V7.229h2.229Z" transform="translate(1.289 -0.542)" fill="#ffa726"/><path d="M27,21h2.229v2.229H27Z" transform="translate(1.975 1.289)" fill="#ffa726"/><path d="M31,21H57.747v2.229H31Z" transform="translate(2.433 1.289)" fill="#ffa726"/><path d="M45,25H56.144v2.229H45Z" transform="translate(4.035 1.747)" fill="#ffa726"/><path d="M27,25h8.916v2.229H27Z" transform="translate(1.975 1.747)" fill="#ffa726"/><path d="M7,32.6H22.6V17H7ZM9.229,19.229H20.373V30.373H9.229Z" transform="translate(-0.313 0.831)" fill="#ffa726"/><path d="M13.31,25.077l-1.441-1.441-1.576,1.576,3.017,3.017,6.36-6.36-1.576-1.576Z" transform="translate(0.063 1.208)" fill="#ffa726"/><path d="M7,48.6H22.6V33H7ZM9.229,35.229H20.373V46.373H9.229Z" transform="translate(-0.313 2.662)" fill="#ffa726"/><path d="M13.31,41.077l-1.441-1.441-1.576,1.576,3.017,3.017,6.36-6.36-1.576-1.576Z" transform="translate(0.063 3.039)" fill="#ffa726"/></g></g></g></svg>