<svg xmlns="http://www.w3.org/2000/svg" width="100.299" height="100.301" viewBox="0 0 100.299 100.301"><g transform="translate(13099 18909)"><path d="M708.633,96.455a50.147,50.147,0,1,0,44.63,55.115A50.205,50.205,0,0,0,708.633,96.455Z" transform="translate(-13752.24 -19005.178)" fill="#fff"/><g transform="translate(-13083 -18887)"><path d="M50.433,35.945V31.488l-3.62-.483a13.28,13.28,0,0,0-1.924-4.626l2.222-2.906-3.152-3.152-2.906,2.222a13.3,13.3,0,0,0-4.626-1.924L35.945,17H31.488l-.483,3.62a13.28,13.28,0,0,0-4.626,1.924l-2.906-2.222-3.152,3.152,2.222,2.906a13.3,13.3,0,0,0-1.924,4.626L17,31.488v4.458l3.62.483a13.28,13.28,0,0,0,1.924,4.626l-2.222,2.906,3.152,3.152,2.906-2.222a13.3,13.3,0,0,0,4.626,1.924l.483,3.62h4.458l.483-3.62a13.28,13.28,0,0,0,4.626-1.924l2.906,2.222,3.152-3.152L44.89,41.054a13.3,13.3,0,0,0,1.924-4.626ZM33.717,42.632a8.916,8.916,0,1,1,8.916-8.916A8.916,8.916,0,0,1,33.717,42.632Z" transform="translate(0.831 -5.856)" fill="#1565c0"/><g transform="translate(1.114 1.114)"><path d="M54,28h8.916v8.916H54Z" transform="translate(3.951 -5.711)" fill="#ffca28"/><path d="M54,48h8.916v8.916H54Z" transform="translate(3.951 -3.422)" fill="#ffca28"/><path d="M54,8h8.916v8.916H54Z" transform="translate(3.951 -8)" fill="#ffca28"/><path d="M0,0H8.916V8.916H0Z" transform="translate(8.916 31.204) rotate(180)" fill="#ffca28"/><path d="M0,0H8.916V8.916H0Z" transform="translate(8.916 53.493) rotate(180)" fill="#ffca28"/><path d="M0,0H8.916V8.916H0Z" transform="translate(8.916 8.916) rotate(180)" fill="#ffca28"/></g><g transform="translate(10.03 4.458)"><path d="M54.8,13.229V11H50.343a1.115,1.115,0,0,0-1.114,1.114V33.289H47v2.229h2.229V56.692a1.115,1.115,0,0,0,1.114,1.114H54.8V55.578H51.458V35.518H54.8V33.289H51.458V13.229Z" transform="translate(-5.766 -11)" fill="#61668c"/><path d="M15.572,12.114A1.115,1.115,0,0,0,14.458,11H10v2.229h3.343v20.06H10v2.229h3.343v20.06H10v2.229h4.458a1.115,1.115,0,0,0,1.114-1.114V35.518H17.8V33.289H15.572Z" transform="translate(-10 -11)" fill="#61668c"/></g><path d="M33.03,23A10.03,10.03,0,1,0,43.06,33.03,10.042,10.042,0,0,0,33.03,23Zm0,17.831a7.8,7.8,0,1,1,7.8-7.8A7.81,7.81,0,0,1,33.03,40.831Z" transform="translate(1.518 -5.169)"/><path d="M68.981,7H60.065a1.115,1.115,0,0,0-1.114,1.114v3.343H55.608a1.115,1.115,0,0,0-1.114,1.114V33.747H53.379V32.632a1.114,1.114,0,0,0-.967-1.1l-2.859-.381a14.278,14.278,0,0,0-1.48-3.557l1.756-2.3a1.115,1.115,0,0,0-.1-1.464L46.58,20.676a1.112,1.112,0,0,0-1.464-.1l-2.3,1.756a14.362,14.362,0,0,0-3.557-1.48L38.881,18a1.114,1.114,0,0,0-1.1-.967H33.319a1.114,1.114,0,0,0-1.1.967l-.381,2.859a14.279,14.279,0,0,0-3.557,1.48l-2.3-1.756a1.115,1.115,0,0,0-1.464.1l-3.153,3.153a1.113,1.113,0,0,0-.1,1.464l1.756,2.3a14.363,14.363,0,0,0-1.48,3.557l-2.859.381a1.114,1.114,0,0,0-.967,1.1v1.114H16.6V12.572a1.115,1.115,0,0,0-1.114-1.114H12.144V8.114A1.115,1.115,0,0,0,11.03,7H2.114A1.115,1.115,0,0,0,1,8.114V17.03a1.115,1.115,0,0,0,1.114,1.114H11.03a1.115,1.115,0,0,0,1.114-1.114V13.687h2.229v20.06H12.144V30.4a1.115,1.115,0,0,0-1.114-1.114H2.114A1.115,1.115,0,0,0,1,30.4v8.916a1.115,1.115,0,0,0,1.114,1.114H11.03a1.115,1.115,0,0,0,1.114-1.114V35.975h2.229v20.06H12.144V52.692a1.115,1.115,0,0,0-1.114-1.114H2.114A1.115,1.115,0,0,0,1,52.692v8.916a1.115,1.115,0,0,0,1.114,1.114H11.03a1.115,1.115,0,0,0,1.114-1.114V58.264h3.343A1.115,1.115,0,0,0,16.6,57.15V35.975h1.114V37.09a1.114,1.114,0,0,0,.967,1.1l2.859.381a14.278,14.278,0,0,0,1.48,3.557l-1.756,2.3a1.115,1.115,0,0,0,.1,1.464l3.153,3.153a1.115,1.115,0,0,0,1.464.1l2.3-1.756a14.362,14.362,0,0,0,3.557,1.48l.381,2.859a1.114,1.114,0,0,0,1.1.967h4.458a1.114,1.114,0,0,0,1.1-.967l.381-2.859a14.279,14.279,0,0,0,3.557-1.48l2.3,1.756a1.112,1.112,0,0,0,1.464-.1l3.153-3.153a1.113,1.113,0,0,0,.1-1.464l-1.756-2.3a14.362,14.362,0,0,0,1.48-3.557l2.859-.381a1.114,1.114,0,0,0,.967-1.1V35.975h1.114V57.15a1.115,1.115,0,0,0,1.114,1.114h3.343v3.343a1.115,1.115,0,0,0,1.114,1.114h8.916A1.115,1.115,0,0,0,70.1,61.608V52.692a1.115,1.115,0,0,0-1.114-1.114H60.065a1.115,1.115,0,0,0-1.114,1.114v3.343H56.722V35.975h2.229v3.343a1.115,1.115,0,0,0,1.114,1.114h8.916A1.115,1.115,0,0,0,70.1,39.319V30.4a1.115,1.115,0,0,0-1.114-1.114H60.065A1.115,1.115,0,0,0,58.951,30.4v3.343H56.722V13.687h2.229V17.03a1.115,1.115,0,0,0,1.114,1.114h8.916A1.115,1.115,0,0,0,70.1,17.03V8.114A1.115,1.115,0,0,0,68.981,7ZM9.916,15.916H3.229V9.229H9.916Zm0,22.289H3.229V31.518H9.916Zm0,22.289H3.229V53.806H9.916ZM51.15,36.115l-2.652.353a1.115,1.115,0,0,0-.944.88,12.121,12.121,0,0,1-1.763,4.238,1.114,1.114,0,0,0,.046,1.289l1.63,2.132L45.695,46.78l-2.132-1.63a1.114,1.114,0,0,0-1.289-.046,12.121,12.121,0,0,1-4.238,1.763,1.116,1.116,0,0,0-.88.944L36.8,50.463H34.3l-.353-2.652a1.115,1.115,0,0,0-.88-.944A12.121,12.121,0,0,1,28.823,45.1a1.116,1.116,0,0,0-1.289.046L25.4,46.78,23.63,45.008l1.63-2.132a1.114,1.114,0,0,0,.046-1.289,12.121,12.121,0,0,1-1.763-4.238,1.116,1.116,0,0,0-.944-.88l-2.653-.353V33.608l2.652-.353a1.115,1.115,0,0,0,.944-.88A12.121,12.121,0,0,1,25.3,28.136a1.114,1.114,0,0,0-.046-1.289l-1.63-2.132L25.4,22.943l2.132,1.63a1.116,1.116,0,0,0,1.289.046,12.121,12.121,0,0,1,4.238-1.763,1.116,1.116,0,0,0,.88-.944l.353-2.653H36.8l.353,2.652a1.115,1.115,0,0,0,.88.944,12.121,12.121,0,0,1,4.238,1.763,1.112,1.112,0,0,0,1.289-.046l2.132-1.63,1.772,1.772-1.63,2.132a1.114,1.114,0,0,0-.046,1.289,12.121,12.121,0,0,1,1.763,4.238,1.116,1.116,0,0,0,.944.88l2.653.353ZM61.18,53.806h6.687v6.687H61.18Zm0-22.289h6.687V38.2H61.18Zm6.687-15.6H61.18V9.229h6.687Z" transform="translate(-1 -7)"/></g></g></svg>