<svg xmlns="http://www.w3.org/2000/svg" width="768.155" height="737.857" viewBox="0 0 768.155 737.857"><g transform="translate(14705.963 19228)"><g transform="translate(-14660.804 -19185.879)"><path d="M572.322,425.646a71.023,71.023,0,0,1-3.29-16.7c-1.044-14.14,2.939-26.75,6.455-37.875,3.951-12.5,7.36-23.288,3.708-34.523s-12.751-17.961-23.288-25.749c-9.388-6.939-20.024-14.8-27.488-26.852a70.978,70.978,0,0,1-7.156-15.444,72.15,72.15,0,0,1,4.189-54.685,71.612,71.612,0,0,1,96.271-31.278,72.152,72.152,0,0,1,35.533,41.775,71.171,71.171,0,0,1,3.287,16.706c1.047,14.134-2.936,26.741-6.452,37.866-3.951,12.5-7.36,23.291-3.708,34.528s12.751,17.964,23.29,25.751c9.388,6.939,20.021,14.8,27.482,26.849a71.036,71.036,0,0,1,7.159,15.444,72.151,72.151,0,0,1-4.192,54.685,71.61,71.61,0,0,1-96.271,31.279A72.146,72.146,0,0,1,572.322,425.646Z" transform="translate(-517.753 80.043)" fill="#26a69a"/><path d="M828.588,425.646a71.17,71.17,0,0,0,3.287-16.7c1.044-14.14-2.939-26.75-6.455-37.875-3.949-12.5-7.357-23.288-3.708-34.523S834.463,318.584,845,310.8c9.388-6.939,20.023-14.8,27.488-26.852a71.045,71.045,0,0,0,7.159-15.444,72.151,72.151,0,0,0-4.192-54.685,71.61,71.61,0,0,0-96.271-31.278,72.148,72.148,0,0,0-35.53,41.775,71.036,71.036,0,0,0-3.29,16.706c-1.047,14.134,2.939,26.741,6.452,37.866,3.952,12.5,7.36,23.291,3.711,34.528s-12.754,17.964-23.291,25.751c-9.391,6.939-20.024,14.8-27.486,26.849a71.068,71.068,0,0,0-7.159,15.444,72.15,72.15,0,0,0,4.192,54.685,71.61,71.61,0,0,0,96.271,31.279A72.15,72.15,0,0,0,828.588,425.646Z" transform="translate(-204.462 80.043)" fill="#26a69a"/><path d="M889.072,195.536a71.051,71.051,0,0,0-14.87-8.288c-13.122-5.363-26.345-5.47-38.013-5.564-13.108-.107-24.422-.2-33.98-7.145s-13.144-17.676-17.294-30.1c-3.7-11.074-7.883-23.619-17.04-34.441A71.081,71.081,0,0,0,755.4,98.417a72.157,72.157,0,0,0-53.3-12.915,71.617,71.617,0,0,0-59.5,81.893A72.157,72.157,0,0,0,671.35,214.1a71.028,71.028,0,0,0,14.867,8.288c13.122,5.363,26.343,5.47,38.008,5.564,13.111.108,24.428.2,33.988,7.142s13.142,17.681,17.294,30.11c3.7,11.071,7.883,23.613,17.039,34.435a70.991,70.991,0,0,0,12.477,11.58,72.151,72.151,0,0,0,53.3,12.912,71.608,71.608,0,0,0,59.5-81.893A72.153,72.153,0,0,0,889.072,195.536Z" transform="translate(-291.106 -84.647)" fill="#26a69a"/><path d="M654.843,264.8a70.974,70.974,0,0,1,16.9,2.037c13.767,3.375,24.53,11.06,34.025,17.843,10.664,7.617,19.874,14.194,31.689,14.194s21.022-6.577,31.683-14.191c9.5-6.786,20.261-14.471,34.031-17.846a70.952,70.952,0,0,1,16.9-2.037,72.158,72.158,0,0,1,50.714,20.884,71.61,71.61,0,0,1,0,101.227,72.149,72.149,0,0,1-50.714,20.883,71.09,71.09,0,0,1-16.9-2.034c-13.767-3.374-24.527-11.06-34.019-17.84-10.67-7.62-19.879-14.2-31.694-14.2s-21.025,6.576-31.689,14.191c-9.5,6.786-20.258,14.471-34.028,17.845a71.072,71.072,0,0,1-16.9,2.034,72.138,72.138,0,0,1-50.711-20.886,71.607,71.607,0,0,1,0-101.224A72.147,72.147,0,0,1,654.843,264.8Z" transform="translate(-398.114 244.779)" fill="#26a69a"/><path d="M565.459,195.536a71.12,71.12,0,0,1,14.87-8.288c13.125-5.363,26.348-5.47,38.016-5.564,13.1-.107,24.419-.2,33.98-7.145s13.142-17.676,17.291-30.1c3.7-11.074,7.886-23.619,17.042-34.441a71,71,0,0,1,12.477-11.58,72.15,72.15,0,0,1,53.3-12.915,71.612,71.612,0,0,1,59.5,81.893A72.165,72.165,0,0,1,783.184,214.1a71.045,71.045,0,0,1-14.87,8.288c-13.122,5.363-26.343,5.47-38.008,5.564-13.111.108-24.428.2-33.986,7.142s-13.145,17.681-17.294,30.11c-3.7,11.071-7.886,23.613-17.039,34.435a71.11,71.11,0,0,1-12.48,11.58,72.136,72.136,0,0,1-53.3,12.912,71.6,71.6,0,0,1-59.5-81.893A72.149,72.149,0,0,1,565.459,195.536Z" transform="translate(-484.732 -84.647)" fill="#26a69a"/></g><g transform="translate(-14651.888 -19175.85)"><g transform="translate(350.603 412.228)"><path d="M670.789,342.825a61.5,61.5,0,0,1,12.87-7.176c11.427-4.67,23.152-4.766,34.489-4.857,14.126-.116,27.471-.224,39.5-8.964s16.256-21.4,20.734-34.8c3.589-10.751,7.3-21.873,15.274-31.3a61.388,61.388,0,0,1,10.8-10.025v0a62.562,62.562,0,0,1,46.208-11.21,62.078,62.078,0,0,1,51.573,70.986,62.562,62.562,0,0,1-24.94,40.483,61.655,61.655,0,0,1-12.873,7.176c-11.428,4.67-23.149,4.763-34.486,4.857-14.129.113-27.474.221-39.5,8.964s-16.259,21.4-20.734,34.8c-3.589,10.754-7.3,21.873-15.274,31.3a61.7,61.7,0,0,1-10.8,10.025,62.55,62.55,0,0,1-46.208,11.21A62.069,62.069,0,0,1,645.849,383.3,62.534,62.534,0,0,1,670.789,342.825Z" transform="translate(-645.071 -233.754)" fill="#4dd0e1"/><path d="M757.423,322.451c-23.073,16.765-50.12,4.184-74.79,14.265a58.182,58.182,0,1,0,66.418,91.417c17.212-20.346,13.605-49.958,36.678-66.721s50.122-4.184,74.791-14.265A58.182,58.182,0,1,0,794.1,255.73C776.889,276.076,780.5,305.689,757.423,322.451Z" transform="translate(-642.602 -231.293)" fill="#4dd0e1"/></g><g transform="translate(0 97.279)"><path d="M693.087,203.718a61.51,61.51,0,0,1-6.195,13.371c-6.5,10.5-15.928,17.464-25.047,24.2-11.36,8.4-22.094,16.327-26.691,30.472s-.574,26.869,3.683,40.341c3.417,10.808,6.95,21.987,6.039,34.3a61.5,61.5,0,0,1-2.848,14.457v0a62.559,62.559,0,0,1-30.792,36.229,62.073,62.073,0,0,1-83.449-27.115,62.548,62.548,0,0,1-3.618-47.41,61.593,61.593,0,0,1,6.195-13.371c6.5-10.5,15.928-17.461,25.047-24.2,11.362-8.4,22.1-16.329,26.69-30.475s.574-26.869-3.683-40.341c-3.414-10.808-6.947-21.987-6.036-34.3a61.346,61.346,0,0,1,2.846-14.457,62.558,62.558,0,0,1,30.795-36.231,62.078,62.078,0,0,1,83.446,27.115A62.55,62.55,0,0,1,693.087,203.718Z" transform="translate(-521.121 -122.409)" fill="#4dd0e1"/><path d="M629.073,268.1c8.814-27.123,38.09-32.843,52.122-55.5a58.182,58.182,0,1,0-107.466-34.919c-1.966,26.577,18.357,48.414,9.544,75.537s-38.09,32.846-52.119,55.5a58.182,58.182,0,1,0,107.466,34.919C640.582,317.065,620.259,295.228,629.073,268.1Z" transform="translate(-518.665 -119.931)" fill="#4dd0e1"/></g><g transform="translate(484.625 97.279)"><path d="M695.5,203.718a61.518,61.518,0,0,0,6.194,13.371c6.5,10.5,15.928,17.464,25.047,24.2,11.362,8.4,22.094,16.327,26.691,30.472s.574,26.869-3.683,40.341c-3.417,10.808-6.95,21.987-6.039,34.3a61.512,61.512,0,0,0,2.848,14.457v0a62.553,62.553,0,0,0,30.795,36.229A62.078,62.078,0,0,0,860.8,369.976a62.55,62.55,0,0,0,3.618-47.41,61.576,61.576,0,0,0-6.195-13.371c-6.5-10.5-15.928-17.464-25.044-24.2-11.365-8.4-22.1-16.327-26.693-30.472s-.574-26.869,3.683-40.341c3.417-10.808,6.95-21.987,6.039-34.3a61.493,61.493,0,0,0-2.848-14.457,62.554,62.554,0,0,0-30.792-36.231,62.08,62.08,0,0,0-83.449,27.115A62.548,62.548,0,0,0,695.5,203.718Z" transform="translate(-692.452 -122.409)" fill="#4dd0e1"/><path d="M754.6,268.1c-8.811-27.123-38.09-32.846-52.122-55.5a58.182,58.182,0,1,1,107.466-34.919c1.966,26.577-18.357,48.414-9.544,75.537s38.09,32.846,52.122,55.5A58.182,58.182,0,1,1,745.06,343.642C743.094,317.065,763.417,295.228,754.6,268.1Z" transform="translate(-689.996 -119.931)" fill="#4dd0e1"/></g><g transform="translate(185.074)"><path d="M648.681,211.943a61.52,61.52,0,0,0,14.632-1.762c11.99-2.936,21.528-9.75,30.755-16.341,11.5-8.211,22.357-15.967,37.23-15.967s25.732,7.756,37.227,15.967c9.227,6.591,18.765,13.4,30.755,16.341a61.517,61.517,0,0,0,14.632,1.762h0a62.57,62.57,0,0,0,43.973-18.092,62.081,62.081,0,0,0,0-87.743,62.558,62.558,0,0,0-43.973-18.092,61.52,61.52,0,0,0-14.632,1.762c-11.99,2.936-21.528,9.75-30.753,16.341-11.5,8.211-22.36,15.967-37.23,15.967s-25.732-7.756-37.23-15.967c-9.227-6.591-18.765-13.4-30.755-16.341a61.522,61.522,0,0,0-14.632-1.762,62.546,62.546,0,0,0-43.97,18.092,62.074,62.074,0,0,0,0,87.743A62.546,62.546,0,0,0,648.681,211.943Z" transform="translate(-586.551 -88.017)" fill="#4dd0e1"/><path d="M728.833,171.591c-28.521,0-43.009,26.077-68.893,32.421a58.181,58.181,0,1,1,0-113c25.884,6.344,40.372,32.421,68.893,32.421s43.006-26.077,68.89-32.421a58.181,58.181,0,1,1,0,113C771.839,197.668,757.351,171.591,728.833,171.591Z" transform="translate(-584.086 -85.551)" fill="#4dd0e1"/></g><g transform="translate(51.088 412.228)"><path d="M771.416,342.825a61.526,61.526,0,0,0-12.873-7.176c-11.428-4.67-23.149-4.766-34.486-4.857-14.129-.116-27.474-.224-39.507-8.964s-16.256-21.4-20.731-34.8c-3.592-10.751-7.3-21.873-15.277-31.3a61.386,61.386,0,0,0-10.8-10.025v0a62.559,62.559,0,0,0-46.208-11.21,62.079,62.079,0,0,0-51.574,70.986,62.564,62.564,0,0,0,24.94,40.483,61.531,61.531,0,0,0,12.873,7.176c11.427,4.67,23.149,4.763,34.486,4.857,14.129.113,27.474.221,39.507,8.964s16.256,21.4,20.731,34.8c3.592,10.751,7.3,21.871,15.277,31.3a61.5,61.5,0,0,0,10.8,10.025,62.544,62.544,0,0,0,46.208,11.21A62.075,62.075,0,0,0,796.356,383.3,62.556,62.556,0,0,0,771.416,342.825Z" transform="translate(-539.183 -233.754)" fill="#4dd0e1"/><path d="M679.841,322.451c23.073,16.765,50.12,4.184,74.791,14.265a58.182,58.182,0,1,1-66.418,91.417c-17.212-20.346-13.605-49.958-36.678-66.721s-50.12-4.184-74.791-14.265a58.182,58.182,0,1,1,66.418-91.417C660.375,276.076,656.768,305.689,679.841,322.451Z" transform="translate(-536.713 -231.293)" fill="#4dd0e1"/></g></g><g transform="translate(-14500.323 -19065.52)"><g transform="translate(235.314 142.833)"><ellipse cx="60.781" cy="60.781" rx="60.781" ry="60.781" fill="#039be5"/><g transform="translate(19.392 111.104)"><g transform="translate(10.312)"><path d="M362.9,365.075l-9.688-11.622,5.811-4.844a97.213,97.213,0,0,0,24.963-31.818l3.317-6.8,13.6,6.633-3.316,6.8a112.472,112.472,0,0,1-28.876,36.809Z" transform="translate(-353.214 -309.991)" fill="#039be5"/></g><g transform="translate(0 26.813)"><path d="M356.13,341.955l-15.209,31.187,34.615-2.417Z" transform="translate(-340.921 -341.955)" fill="#039be5"/></g></g></g><g transform="translate(92.481 0)"><g transform="translate(0 0)"><circle cx="60.781" cy="60.781" r="60.781" transform="translate(0 85.958) rotate(-45)" fill="#4dd0e1"/></g><g transform="translate(136.172 69.237)"><path d="M353.786,138l-4.895-5.873A98.268,98.268,0,0,0,316.735,106.9l-6.873-3.352,6.7-13.743,6.871,3.352a113.651,113.651,0,0,1,37.2,29.182l4.9,5.873Z" transform="translate(-309.862 -89.804)" fill="#4dd0e1"/><g transform="translate(27.098 23.636)"><path d="M342.167,137.593l31.518,15.371-2.443-34.982Z" transform="translate(-342.167 -117.981)" fill="#4dd0e1"/></g></g></g><g transform="translate(0 96.207)"><g transform="translate(0 46.627)"><ellipse cx="60.781" cy="60.781" rx="60.781" ry="60.781" fill="#26a69a"/></g><g transform="translate(44.363)"><g transform="translate(0 2.859)"><path d="M103.5,179.4l-13.339-6.506,3.253-6.67a110.318,110.318,0,0,1,28.324-36.106l5.7-4.751,9.5,11.4-5.7,4.75a95.353,95.353,0,0,0-24.487,31.211Z" transform="translate(-90.164 -125.364)" fill="#26a69a"/></g><g transform="translate(22.941)"><path d="M136.547,152.546l14.919-30.591-33.953,2.371Z" transform="translate(-117.512 -121.955)" fill="#26a69a"/></g></g></g><g transform="translate(69.921 251.404)"><g transform="translate(38.65 0)"><ellipse cx="60.781" cy="60.781" rx="60.781" ry="60.781" transform="translate(0 119.94) rotate(-80.628)" fill="#1565c0"/></g><g transform="translate(0 28.282)"><g transform="translate(2.927 10.353)"><path d="M172.774,400.917l-6.827-3.33a112.931,112.931,0,0,1-36.961-29l-4.864-5.835,11.67-9.727,4.864,5.835a97.642,97.642,0,0,0,31.951,25.069l6.828,3.329Z" transform="translate(-124.122 -353.03)" fill="#1565c0"/></g><path d="M151.947,355.959l-31.314-15.272,2.427,34.756Z" transform="translate(-120.632 -340.687)" fill="#1565c0"/></g></g></g><g transform="translate(-14688.642 -19176.451)"><path d="M230.948,86.949C131.975,148.884,64.662,256.709,58.809,380.62" transform="translate(-58.809 -80.843)" fill="rgba(255,167,38,0)" stroke="#ffa726" stroke-linecap="round" stroke-linejoin="round" stroke-width="4"/><g transform="translate(152.329)"><path d="M138.928,83.764l-.656,3.781L156.9,90.758,152.334,109.1l3.725.923,5.557-22.346Z" transform="translate(-138.271 -83.764)" fill="rgba(255,167,38,0)" stroke="#ffa726" stroke-width="4"/></g></g><g transform="translate(-14484.373 -19226)"><path d="M498.849,100.241a367.651,367.651,0,0,0-333.484-4.6" transform="translate(-165.365 -57.917)" fill="rgba(255,167,38,0)" stroke="#ffa726" stroke-linecap="round" stroke-linejoin="round" stroke-width="4"/><g transform="translate(313.96 22.691)"><path d="M344.335,69.754l-3.6,1.329L347.3,88.81l-18.161,5.255,1.07,3.685,22.117-6.4Z" transform="translate(-329.141 -69.754)" fill="rgba(255,167,38,0)" stroke="#ffa726" stroke-width="4"/></g></g><g transform="translate(-14126.222 -19169.381)"><path d="M522.97,384.191C518.427,259.231,451.4,150.213,352.194,87.452" transform="translate(-352.194 -87.452)" fill="rgba(255,167,38,0)" stroke="#ffa726" stroke-linecap="round" stroke-linejoin="round" stroke-width="4"/><path d="M463.987,236.338l-2.952-2.451-12.06,14.558-13.64-13.093-2.655,2.771L449.3,254.065Z" transform="translate(-278.387 46.83)" fill="none" stroke="#ffa726" stroke-width="4"/></g><g transform="translate(-14124.71 -18847.445)"><path d="M354.8,550.853c96.958-63.562,161.993-171.8,165.842-295.464" transform="translate(-351.314 -255.389)" fill="rgba(255,167,38,0)" stroke="#ffa726" stroke-linecap="round" stroke-linejoin="round" stroke-width="4"/><g transform="translate(0 275.269)"><path d="M375.747,424.883l.577-3.794-18.692-2.823,4.182-18.438-3.743-.845-5.089,22.457Z" transform="translate(-352.983 -398.982)" fill="rgba(255,167,38,0)" stroke="#ffa726" stroke-width="4"/></g></g><g transform="translate(-14480.614 -18536.783)"><path d="M169.286,427.964a367.667,367.667,0,0,0,330.279-10.519" transform="translate(-165.528 -417.445)" fill="rgba(255,167,38,0)" stroke="#ffa726" stroke-linecap="round" stroke-linejoin="round" stroke-width="4"/><g transform="translate(0 1.3)"><path d="M176.333,446.757l3.533-1.5-7.4-17.4,17.892-6.11-1.244-3.63-21.789,7.446Z" transform="translate(-167.326 -418.123)" fill="rgba(255,167,38,0)" stroke="#ffa726" stroke-width="4"/></g></g><g transform="translate(-14703.152 -18843.57)"><path d="M58.863,259.577c6.4,121.373,71.794,227.111,168.033,289.078" transform="translate(-44.249 -255.423)" fill="rgba(255,167,38,0)" stroke="#ffa726" stroke-linecap="round" stroke-linejoin="round" stroke-width="4"/><g transform="translate(0 0)"><path d="M51.24,275.364l2.99,2.4,11.831-14.744L79.9,275.9l2.611-2.812L65.653,257.41Z" transform="translate(-51.24 -257.41)" fill="rgba(255,167,38,0)" stroke="#ffa726" stroke-width="4"/></g></g></g></svg>