<svg xmlns="http://www.w3.org/2000/svg" width="100.299" height="100.301" viewBox="0 0 100.299 100.301"><g transform="translate(11772 18909)"><path d="M708.633,96.455a50.147,50.147,0,1,0,44.63,55.115A50.205,50.205,0,0,0,708.633,96.455Z" transform="translate(-12425.24 -19005.178)" fill="#fff"/><g transform="translate(-11753 -18890.002)"><path d="M136,24V83.933h41.333V36.4L164.933,24Z" transform="translate(-120.5 -22.966)" fill="#e9eef2"/><g transform="translate(20.667 11.368)"><path d="M178.067,344a2.067,2.067,0,1,0,2.067,2.067A2.067,2.067,0,0,0,178.067,344Z" transform="translate(-176 -313)" fill="#c3c6c7"/><path d="M248,104h8.267v4.133H248Z" transform="translate(-238.7 -104)" fill="#c3c6c7"/><path d="M248,184h8.267v4.133H248Z" transform="translate(-238.7 -173.667)" fill="#c3c6c7"/></g><path d="M248,264h8.267v4.133H248Z" transform="translate(-218.033 -231.966)" fill="#26a69a"/><path d="M248,344h8.267v4.133H248Z" transform="translate(-218.033 -301.632)" fill="#c3c6c7"/><path d="M178.067,424a2.067,2.067,0,1,0,2.067,2.067A2.067,2.067,0,0,0,178.067,424Z" transform="translate(-155.333 -371.299)" fill="#c3c6c7"/><path d="M248,424h8.267v4.133H248Z" transform="translate(-218.033 -371.299)" fill="#c3c6c7"/><path d="M366.2,314.067V312l-6.2,4.133,6.2,4.133V318.2h2.067a4.133,4.133,0,0,1,0,8.267H360V330.6h8.267a8.267,8.267,0,1,0,0-16.533Z" transform="translate(-315.567 -273.766)" fill="#ffa726"/><path d="M24,74.067V90.6a2.067,2.067,0,0,0,2.067,2.067v8.267L36.4,92.667H46.733A2.067,2.067,0,0,0,48.8,90.6V74.067A2.067,2.067,0,0,0,46.733,72H26.067A2.067,2.067,0,0,0,24,74.067Z" transform="translate(-22.967 -64.766)" fill="#ffca28"/><path d="M360,36.4h12.4L360,24Z" transform="translate(-315.567 -22.966)" fill="#dadcde"/><path d="M171.1,336a3.1,3.1,0,1,0,3.1,3.1A3.1,3.1,0,0,0,171.1,336Zm0,4.133a1.033,1.033,0,1,1,1.033-1.033A1.033,1.033,0,0,1,171.1,340.133Z" transform="translate(-148.367 -294.666)"/><path d="M169.142,261.628a1.033,1.033,0,0,0,.831.567q.047,0,.093,0a1.033,1.033,0,0,0,.827-.413l3.1-4.133a1.033,1.033,0,1,0-1.653-1.24l-2.1,2.8-.286-.571a1.033,1.033,0,0,0-1.848.924Z" transform="translate(-148.366 -224.999)"/><path d="M249.3,96h-8.267A1.033,1.033,0,0,0,240,97.033v4.133a1.033,1.033,0,0,0,1.033,1.033h3.1v4.133h-3.1A1.033,1.033,0,0,0,240,107.367V111.5a1.033,1.033,0,0,0,1.033,1.033h3.1v4.133h-3.1A1.033,1.033,0,0,0,240,117.7v4.133a1.033,1.033,0,0,0,1.033,1.033h3.1V127h-3.1A1.033,1.033,0,0,0,240,128.033v4.133a1.033,1.033,0,0,0,1.033,1.033h3.1v4.133h-3.1A1.033,1.033,0,0,0,240,138.367V142.5a1.033,1.033,0,0,0,1.033,1.033H249.3a1.033,1.033,0,0,0,1.033-1.033v-4.133a1.033,1.033,0,0,0-1.033-1.033h-3.1V133.2h3.1a1.033,1.033,0,0,0,1.033-1.033v-4.133A1.033,1.033,0,0,0,249.3,127h-3.1v-4.133h3.1a1.033,1.033,0,0,0,1.033-1.033V117.7a1.033,1.033,0,0,0-1.033-1.033h-3.1v-4.133h3.1a1.033,1.033,0,0,0,1.033-1.033v-4.133a1.033,1.033,0,0,0-1.033-1.033h-3.1V102.2h3.1a1.033,1.033,0,0,0,1.033-1.033V97.033A1.033,1.033,0,0,0,249.3,96Zm-1.033,43.4v2.067h-6.2V139.4Zm0-8.267h-6.2v-2.067h6.2Zm0-10.333h-6.2v-2.067h6.2Zm0-10.333h-6.2V108.4h6.2Zm0-10.333h-6.2V98.067h6.2Z" transform="translate(-211.067 -85.666)"/><path d="M361.033,162.067h6.2a1.033,1.033,0,1,0,0-2.067h-6.2a1.033,1.033,0,1,0,0,2.067Z" transform="translate(-315.567 -141.399)"/><path d="M367.233,240h-6.2a1.033,1.033,0,0,0,0,2.067h6.2a1.033,1.033,0,0,0,0-2.067Z" transform="translate(-315.567 -211.066)"/><path d="M337.033,194.067h9.3a1.033,1.033,0,1,0,0-2.067h-9.3a1.033,1.033,0,0,0,0,2.067Z" transform="translate(-294.667 -169.266)"/><path d="M347.367,273.033A1.033,1.033,0,0,0,346.333,272h-9.3a1.033,1.033,0,0,0,0,2.067h9.3A1.033,1.033,0,0,0,347.367,273.033Z" transform="translate(-294.667 -238.932)"/><path d="M171.1,416a3.1,3.1,0,1,0,3.1,3.1A3.1,3.1,0,0,0,171.1,416Zm0,4.133a1.033,1.033,0,1,1,1.033-1.033A1.033,1.033,0,0,1,171.1,420.133Z" transform="translate(-148.367 -364.332)"/><path d="M78,64.567a9.3,9.3,0,0,0-4.133-7.728v-27.4a1.033,1.033,0,0,0-.3-.731l-12.4-12.4a1.033,1.033,0,0,0-.731-.3H31.5a1.033,1.033,0,0,0-1.033,1.033V22.2H19.1A3.1,3.1,0,0,0,16,25.3V41.833a3.105,3.105,0,0,0,2.067,2.923v7.41a1.033,1.033,0,0,0,1.679.807l10.05-8.04h.671V76.967A1.033,1.033,0,0,0,31.5,78H72.833a1.033,1.033,0,0,0,1.033-1.033V72.3A9.3,9.3,0,0,0,78,64.567Zm-2.067,0A7.241,7.241,0,0,1,68.7,71.8H61.467V69.733H68.7a5.167,5.167,0,0,0,0-10.333H66.633A1.033,1.033,0,0,0,65.6,60.433v.136l-3.3-2.2,3.3-2.2V56.3a1.033,1.033,0,0,0,1.033,1.033H68.7a7.241,7.241,0,0,1,7.233,7.233ZM61.467,19.528,70.339,28.4H61.467ZM29.433,42.867a1.033,1.033,0,0,0-.646.226l-8.654,6.923V43.9A1.033,1.033,0,0,0,19.1,42.867a1.034,1.034,0,0,1-1.033-1.033V25.3A1.034,1.034,0,0,1,19.1,24.267H39.767A1.034,1.034,0,0,1,40.8,25.3V41.833a1.034,1.034,0,0,1-1.033,1.033ZM71.8,75.933H32.533v-31h7.233a3.1,3.1,0,0,0,3.1-3.1V25.3a3.1,3.1,0,0,0-3.1-3.1H32.533V18.067H59.4V29.433a1.033,1.033,0,0,0,1.033,1.033H71.8V55.8a9.256,9.256,0,0,0-3.1-.533H67.667V54.233a1.033,1.033,0,0,0-1.607-.86l-6.2,4.133a1.033,1.033,0,0,0,0,1.719l6.2,4.133a1.033,1.033,0,0,0,1.607-.86V61.467H68.7a3.1,3.1,0,1,1,0,6.2H60.433A1.033,1.033,0,0,0,59.4,68.7v4.133a1.033,1.033,0,0,0,1.033,1.033H68.7a9.256,9.256,0,0,0,3.1-.533Z" transform="translate(-16 -15.999)"/><path d="M65.033,114.067h4.133a1.033,1.033,0,0,0,0-2.067H65.033a1.033,1.033,0,0,0,0,2.067Z" transform="translate(-57.8 -99.599)"/><path d="M129.033,114.067h6.2a1.033,1.033,0,0,0,0-2.067h-6.2a1.033,1.033,0,0,0,0,2.067Z" transform="translate(-113.533 -99.599)"/><path d="M122.333,177.033A1.033,1.033,0,0,0,121.3,176h-8.267a1.033,1.033,0,1,0,0,2.067H121.3A1.033,1.033,0,0,0,122.333,177.033Z" transform="translate(-99.6 -155.332)"/><path d="M49.033,146.067H65.567a1.033,1.033,0,1,0,0-2.067H49.033a1.033,1.033,0,1,0,0,2.067Z" transform="translate(-43.867 -127.466)"/><path d="M53.167,176H49.033a1.033,1.033,0,1,0,0,2.067h4.133a1.033,1.033,0,0,0,0-2.067Z" transform="translate(-43.867 -155.332)"/><path d="M261.167,58.067h-4.133a1.033,1.033,0,0,1,0-2.067h4.133a1.033,1.033,0,0,1,0,2.067Z" transform="translate(-225 -50.832)"/></g></g></svg>