<svg xmlns="http://www.w3.org/2000/svg" width="100.299" height="100.301" viewBox="0 0 100.299 100.301"><g transform="translate(13415 18909)"><path d="M708.633,96.455a50.147,50.147,0,1,0,44.63,55.115A50.205,50.205,0,0,0,708.633,96.455Z" transform="translate(-14068.24 -19005.178)" fill="#fff"/><g transform="translate(-13399 -18893)"><path d="M6,27H19.373V40.373H6Z" transform="translate(-0.428 1.975)" fill="#cf9e76"/><path d="M27.554,26.167l-1.583,1.571.468,2.586-2.151,1.493v4.458l2.151,1.493-.468,2.586,1.583,1.583-.869.858L8.586,53.972a33.435,33.435,0,0,1,0-39.852L26.685,25.3Z" transform="translate(-0.886 0.501)" fill="#ffca28"/><path d="M6,27H19.373V40.373H6Z" transform="translate(-0.428 1.975)" fill="#fff6db"/><g transform="translate(14.621 1.114)"><path d="M42.795,26.685l-.858.869-1.583-1.583-2.586.468-1.493-2.151H31.817L30.324,26.44l-2.586-.468-1.571,1.583-.869-.869L14.12,8.586a33.435,33.435,0,0,1,39.852,0Z" transform="translate(-14.12 -2)" fill="#ffca28"/><path d="M42.795,39.938l-.858-.858-1.583,1.571-2.586-.468-1.493,2.151H31.817l-1.493-2.151-2.586.468L26.167,39.08l-.869.858L14.12,58.037a33.146,33.146,0,0,0,15.468,6.285H38.5a33.146,33.146,0,0,0,15.468-6.285Z" transform="translate(-14.12 2.243)" fill="#ffca28"/><path d="M40.651,40.354l-.468-2.586,2.151-1.493V31.817l-2.151-1.493.468-2.586L39.08,26.167l.858-.869,18.1-11.178a33.435,33.435,0,0,1,0,39.852l-18.1-11.178-.858-.858Z" transform="translate(-11.264 -0.613)" fill="#ffca28"/></g><path d="M49,36h6.687v4.458H49Z" transform="translate(4.493 3.005)" fill="#b27946"/><path d="M36.916,58v4.157a33.171,33.171,0,0,1-8.916,0V58Z" transform="translate(2.09 5.523)" fill="#aab2bd"/><path d="M41.831,54v2.229A2.235,2.235,0,0,1,39.6,58.458H26.229A2.235,2.235,0,0,1,24,56.229V54Z" transform="translate(1.632 5.065)" fill="#ccd1d9"/><path d="M41.831,48.229v6.687H24V48.229A2.235,2.235,0,0,1,26.229,46H39.6A2.235,2.235,0,0,1,41.831,48.229Z" transform="translate(1.632 4.15)" fill="#4dd0e1"/><path d="M10,35h4.458v4.458H10Z" transform="translate(0.03 2.891)" fill="#26a69a"/><path d="M10,27h4.458v4.458H10Z" transform="translate(0.03 1.975)" fill="#26a69a"/><path d="M39.373,19.374H26a3.577,3.577,0,0,1,1.995-3.221l2.463-1.237v-.869a3.328,3.328,0,0,1-1.114-2.474V9.344A3.347,3.347,0,0,1,32.865,6,3.486,3.486,0,0,1,36.03,9.533v2.039a3.328,3.328,0,0,1-1.114,2.474v.869l2.463,1.237A3.577,3.577,0,0,1,39.373,19.374Z" transform="translate(1.861 -0.428)" fill="#4dd0e1"/><path d="M52.8,37.488H49.458A7.288,7.288,0,0,1,45,30.8a7.8,7.8,0,0,1,15.6,0,7.288,7.288,0,0,1-4.458,6.687Z" transform="translate(4.035 1.518)" fill="#ffedb7"/><circle cx="2" cy="2" r="2" transform="translate(54.981 30.575)" fill="#ffa726"/><path d="M44.289,30.916v4.458l-2.151,1.493.468,2.586-1.571,1.583-1.583,1.571-2.586-.468-1.493,2.151H30.916l-1.493-2.151-2.586.468-1.571-1.571-1.583-1.583.468-2.586L22,35.373V30.916l2.151-1.493-.468-2.586,1.583-1.571,1.571-1.583,2.586.468L30.916,22h4.458l1.493,2.151,2.586-.468,1.583,1.583,1.571,1.571-.468,2.586ZM37.6,33.144A4.458,4.458,0,1,0,33.144,37.6,4.457,4.457,0,0,0,37.6,33.144Z" transform="translate(1.403 1.403)" fill="#26a69a"/><path d="M40.6,20.6V19.488a4.694,4.694,0,0,0-2.61-4.223l-1.686-.843a4.44,4.44,0,0,0,.953-2.736V9.647A4.556,4.556,0,0,0,33.04,5.007a4.417,4.417,0,0,0-3.307,1.217,4.476,4.476,0,0,0-1.39,3.234v2.229a4.446,4.446,0,0,0,.952,2.736l-1.686.843A4.7,4.7,0,0,0,25,19.488V20.6Zm-12-3.343,3.08-1.54V13.666l-.369-.332a2.2,2.2,0,0,1-.746-1.647V9.458a2.229,2.229,0,0,1,2.349-2.226A2.362,2.362,0,0,1,35.03,9.647v2.039a2.2,2.2,0,0,1-.746,1.647l-.369.332v2.053L37,17.259a2.487,2.487,0,0,1,1.118,1.114H27.49a2.479,2.479,0,0,1,1.117-1.114Z" transform="translate(1.747 -0.542)"/><path d="M63.289,14.957l-.611-.82L47.717,23.378,56.958,8.417l-.82-.611a34.55,34.55,0,0,0-41.181,0l-.82.611,9.241,14.961L8.417,14.137l-.611.82a34.55,34.55,0,0,0,0,41.181l.611.82,14.961-9.241L14.137,62.679l.82.611a34.55,34.55,0,0,0,41.181,0l.82-.611L47.717,47.717l14.961,9.241.611-.82a34.55,34.55,0,0,0,0-41.181ZM17.117,9A32.323,32.323,0,0,1,53.978,9L43.425,26.087l-1.2-1.2-2.448.439-1.422-2.042H32.736L31.315,25.33l-2.448-.439-1.2,1.2ZM43.8,41.475,41.475,43.8l-2.71-.487-1.57,2.26H33.9L32.33,43.319l-2.71.487-2.329-2.329.487-2.71-2.26-1.571V33.9l2.259-1.572L27.29,29.62l2.329-2.328,2.71.486,1.571-2.26h3.293l1.571,2.259,2.71-.486L43.8,29.619l-.487,2.709,2.26,1.572v3.293l-2.259,1.571ZM9,53.978A32.32,32.32,0,0,1,9,17.116L26.088,27.671l-1.2,1.2.439,2.448-2.043,1.421v5.622L25.33,39.78l-.439,2.448,1.2,1.2Zm23.2,13.7V65.638h6.687v2.038a32.949,32.949,0,0,1-3.343.191A32.949,32.949,0,0,1,32.2,67.676Zm11.144-8.725h-15.6V53.379a1.115,1.115,0,0,1,1.114-1.114H42.234a1.115,1.115,0,0,1,1.114,1.114Zm-15.6,2.229h15.6v1.114a1.115,1.115,0,0,1-1.114,1.114H28.861a1.115,1.115,0,0,1-1.114-1.114Zm26.232.916A31.933,31.933,0,0,1,41.12,67.372V65.638h1.114a3.347,3.347,0,0,0,3.343-3.343V53.379a3.347,3.347,0,0,0-3.343-3.343H28.861a3.347,3.347,0,0,0-3.343,3.343v8.916a3.347,3.347,0,0,0,3.343,3.343h1.114v1.735A31.964,31.964,0,0,1,17.117,62.1L27.671,45.009l1.2,1.2,2.448-.439,1.422,2.041h5.622l1.421-2.042,2.448.439,1.2-1.2ZM62.1,53.978,45.008,43.425l1.2-1.2-.439-2.448,2.042-1.422V32.736l-2.042-1.421.439-2.448-1.2-1.2L62.1,17.115a32.324,32.324,0,0,1,0,36.863Z" transform="translate(-1 -1)"/><path d="M32.572,27a5.572,5.572,0,1,0,5.572,5.572A5.579,5.579,0,0,0,32.572,27Zm0,8.916a3.343,3.343,0,1,1,3.343-3.343A3.347,3.347,0,0,1,32.572,35.916Z" transform="translate(1.975 1.975)"/><path d="M52.916,22A8.926,8.926,0,0,0,44,30.916a8.261,8.261,0,0,0,4.458,7.364v4.895h8.916V38.28a8.262,8.262,0,0,0,4.458-7.364A8.926,8.926,0,0,0,52.916,22ZM50.687,40.945V38.717h4.458v2.229ZM51.8,30.916a1.114,1.114,0,1,1,1.114,1.114A1.116,1.116,0,0,1,51.8,30.916Zm4.185,5.572H54.03V34.054a3.343,3.343,0,1,0-2.229,0v2.434H49.845a6.129,6.129,0,0,1-3.616-5.572,6.687,6.687,0,0,1,13.373,0A6.129,6.129,0,0,1,55.986,36.488Z" transform="translate(3.921 1.403)"/><path d="M5,41.6H20.6V26H5Zm8.916-2.229H11.687V37.144h2.229ZM11.687,28.229h2.229v2.229H11.687Zm-4.458,0H9.458v4.458h6.687V28.229h2.229V39.373H16.144V34.916H9.458v4.458H7.229Z" transform="translate(-0.542 1.861)"/></g></g></svg>