<svg xmlns="http://www.w3.org/2000/svg" width="100.299" height="100.301" viewBox="0 0 100.299 100.301"><g transform="translate(12148 19041)"><path d="M708.633,96.455a50.147,50.147,0,1,0,44.63,55.115A50.205,50.205,0,0,0,708.633,96.455Z" transform="translate(-12801.24 -19137.178)" fill="#fff"/><g transform="translate(-12127 -19022)"><g transform="translate(0 0)"><path d="M69.628,4.012h-1.1v-1.1a2.914,2.914,0,0,0-5.829,0v1.1H58.5v-1.1a2.914,2.914,0,1,0-5.829,0v1.1h-4.2v-1.1a2.914,2.914,0,0,0-5.829,0v1.1h-4.2v-1.1a2.914,2.914,0,1,0-5.829,0v1.1h-1.1a4.926,4.926,0,0,0-4.92,4.92V31.158L24.37,28.936a2.917,2.917,0,0,0-4.121,0l-2.837,2.837a2.917,2.917,0,0,0,0,4.121l9.18,9.18v12A4.926,4.926,0,0,0,31.512,62h30.9a.908.908,0,0,0,0-1.816h-30.9a3.107,3.107,0,0,1-3.1-3.1V46.891L35.817,54.3a.886.886,0,0,0,.067.061c.016.013.032.024.049.036l.023.017c.021.014.042.026.064.038l.012.007c.023.012.046.023.07.033l.01,0c.023.009.046.017.07.025l.014,0c.022.007.044.012.067.017l.02,0c.022,0,.043.007.065.01l.023,0c.029,0,.059,0,.089,0h5.3l1.153,1.153a.908.908,0,0,0,1.284-1.284l-1.153-1.152v-5.3q0-.045,0-.089c0-.007,0-.013,0-.019,0-.023-.006-.046-.01-.069l0-.017c-.005-.023-.011-.046-.017-.069l0-.012c-.008-.024-.016-.048-.026-.072l0-.008c-.01-.025-.022-.049-.034-.073l-.005-.009c-.012-.023-.026-.045-.04-.067l-.015-.02c-.012-.018-.025-.035-.038-.052s-.039-.046-.061-.067l-7.409-7.409H66.619a.908.908,0,0,0,0-1.816h-32.1a.9.9,0,0,0-.672.3l-5.441-5.441V15.859H72.732v6.194a.908.908,0,1,0,1.816,0V8.933A4.926,4.926,0,0,0,69.628,4.012ZM41.225,52.75H38.652l2.573-2.573ZM22.175,38.09l1.553-1.553L38.012,50.821l-1.553,1.553ZM39.3,49.537,25.012,35.253,26.565,33.7,40.849,47.984ZM18.7,33.058l2.837-2.837a1.1,1.1,0,0,1,1.553,0l2.195,2.195L23.086,34.61h0l-2.195,2.195L18.7,34.61A1.1,1.1,0,0,1,18.7,33.058ZM65.616,1.816a1.1,1.1,0,0,1,1.1,1.1V6.927a1.1,1.1,0,0,1-2.2,0v-2h0v-2a1.1,1.1,0,0,1,1.1-1.1Zm-10.031,0a1.1,1.1,0,0,1,1.1,1.1V6.927a1.1,1.1,0,1,1-2.2,0v-2h0v-2a1.1,1.1,0,0,1,1.1-1.1Zm-11.129,1.1a1.1,1.1,0,0,1,2.2,0v2h0v2a1.1,1.1,0,0,1-2.2,0Zm-8.933-1.1a1.1,1.1,0,0,1,1.1,1.1v2h0v2a1.1,1.1,0,1,1-2.2,0v-2h0v-2A1.1,1.1,0,0,1,35.524,1.816ZM28.408,14.043V8.933a3.107,3.107,0,0,1,3.1-3.1h1.1v1.1a2.914,2.914,0,0,0,5.829,0v-1.1h4.2v1.1a2.914,2.914,0,0,0,5.829,0v-1.1h4.2v1.1a2.914,2.914,0,0,0,5.829,0v-1.1h4.2v1.1a2.914,2.914,0,0,0,5.829,0v-1.1h1.1a3.107,3.107,0,0,1,3.1,3.1v5.11Z" transform="translate(-16.559 0)" fill="#ffa726"/><path d="M426.183,204.619a.908.908,0,0,0-.908.908v31.393a3.108,3.108,0,0,1-3.1,3.1h-3.589a.908.908,0,0,0,0,1.816h3.589a4.926,4.926,0,0,0,4.92-4.92V205.527A.908.908,0,0,0,426.183,204.619Z" transform="translate(-369.101 -179.841)" fill="#ffa726"/><path d="M158.3,167.483h32.1a.908.908,0,0,0,0-1.816H158.3a.908.908,0,1,0,0,1.816Z" transform="translate(-140.336 -145.606)" fill="#ffa726"/><path d="M158.3,217.183h32.1a.908.908,0,0,0,0-1.816H158.3a.908.908,0,1,0,0,1.816Z" transform="translate(-140.336 -189.287)" fill="#ffa726"/><path d="M158.3,266.883h32.1a.908.908,0,1,0,0-1.816H158.3a.908.908,0,1,0,0,1.816Z" transform="translate(-140.336 -232.969)" fill="#ffa726"/><path d="M271.389,365.375a.908.908,0,0,0-.908-.908H249.416a.908.908,0,0,0,0,1.816H270.48A.908.908,0,0,0,271.389,365.375Z" transform="translate(-220.42 -320.332)" fill="#ffa726"/></g></g></g></svg>