<svg xmlns="http://www.w3.org/2000/svg" width="100.299" height="100.301" viewBox="0 0 100.299 100.301"><g transform="translate(12763 19041)"><path d="M708.633,96.455a50.147,50.147,0,1,0,44.63,55.115A50.205,50.205,0,0,0,708.633,96.455Z" transform="translate(-13416.24 -19137.178)" fill="#fff"/><g transform="translate(-12747 -19025)"><g transform="translate(0 0)"><path d="M64.523,1H6.572A5.579,5.579,0,0,0,1,6.572V51.15a5.579,5.579,0,0,0,5.572,5.572H41.12v1.113a12.259,12.259,0,1,0,24.518,0V56.609A5.582,5.582,0,0,0,70.1,51.15V6.572A5.579,5.579,0,0,0,64.523,1ZM63.409,57.836a10.031,10.031,0,0,1-20.061,0V54.957a7.831,7.831,0,0,0-.824-3.488l-1.332-2.664a.709.709,0,0,1-.072-.309.69.69,0,0,1,.689-.69,3.774,3.774,0,0,1,3.769,3.769v2.918h2.229V35.548a1.114,1.114,0,0,1,2.229,0V54.493h2.229V45.578a1.114,1.114,0,0,1,2.229,0v8.916h2.229v-7.8a1.114,1.114,0,0,1,2.229,0v7.8H61.18V47.806a1.114,1.114,0,0,1,2.229,0Zm4.458-6.687a3.339,3.339,0,0,1-2.229,3.138V47.806a3.348,3.348,0,0,0-3.343-3.343,3.306,3.306,0,0,0-1.639.447A3.293,3.293,0,0,0,56.2,43.8a3.276,3.276,0,0,0-3.933-1.356V35.548a3.343,3.343,0,0,0-6.687,0v11.4a5.942,5.942,0,0,0-3.769-1.371A2.921,2.921,0,0,0,38.891,48.5,2.955,2.955,0,0,0,39.2,49.8l1.333,2.665a5.6,5.6,0,0,1,.561,2.028H6.572a3.347,3.347,0,0,1-3.343-3.343V6.572A3.347,3.347,0,0,1,6.572,3.229H64.523a3.347,3.347,0,0,1,3.343,3.343Z" transform="translate(-1 -1)" fill="#ffa726"/><path d="M40.662,5H7.229A2.231,2.231,0,0,0,5,7.229V29.518a2.231,2.231,0,0,0,2.229,2.229H40.662a2.231,2.231,0,0,0,2.229-2.229V7.229A2.231,2.231,0,0,0,40.662,5Zm0,2.229v15.6H39.548a1.116,1.116,0,0,1-1.114-1.114V12.8a3.343,3.343,0,0,0-6.687,0v8.916a1.114,1.114,0,1,1-2.229,0V16.144a3.343,3.343,0,0,0-6.687,0v3.343a1.114,1.114,0,1,1-2.229,0V12.8a3.343,3.343,0,0,0-6.687,0V23.945a1.114,1.114,0,0,1-2.229,0V22.831a3.347,3.347,0,0,0-3.343-3.343H7.229V7.229ZM7.229,29.518v-7.8H8.343a1.116,1.116,0,0,1,1.114,1.114v1.114a3.343,3.343,0,0,0,6.687,0V12.8a1.114,1.114,0,1,1,2.229,0v6.687a3.343,3.343,0,0,0,6.687,0V16.144a1.114,1.114,0,0,1,2.229,0v5.572a3.343,3.343,0,1,0,6.687,0V12.8a1.114,1.114,0,0,1,2.229,0v8.916a3.347,3.347,0,0,0,3.343,3.343h1.116v4.458Z" transform="translate(-0.542 -0.542)" fill="#ffa726"/><path d="M9.458,39a4.458,4.458,0,1,0,4.458,4.458A4.462,4.462,0,0,0,9.458,39Zm0,6.687a2.229,2.229,0,1,1,2.229-2.229A2.231,2.231,0,0,1,9.458,45.687Z" transform="translate(-0.542 3.349)" fill="#ffa726"/><path d="M19.458,39a4.458,4.458,0,1,0,4.458,4.458A4.462,4.462,0,0,0,19.458,39Zm0,6.687a2.229,2.229,0,1,1,2.229-2.229A2.231,2.231,0,0,1,19.458,45.687Z" transform="translate(0.602 3.349)" fill="#ffa726"/><path d="M29.458,39a4.458,4.458,0,1,0,4.458,4.458A4.462,4.462,0,0,0,29.458,39Zm0,6.687a2.229,2.229,0,1,1,2.229-2.229A2.231,2.231,0,0,1,29.458,45.687Z" transform="translate(1.747 3.349)" fill="#ffa726"/><path d="M11.687,34.343a3.343,3.343,0,1,0-3.343,3.343A3.347,3.347,0,0,0,11.687,34.343Zm-4.458,0a1.114,1.114,0,1,1,1.114,1.114A1.116,1.116,0,0,1,7.229,34.343Z" transform="translate(-0.542 2.433)" fill="#ffa726"/><path d="M19.687,34.343a3.343,3.343,0,1,0-3.343,3.343A3.347,3.347,0,0,0,19.687,34.343Zm-4.458,0a1.114,1.114,0,1,1,1.114,1.114A1.116,1.116,0,0,1,15.229,34.343Z" transform="translate(0.373 2.433)" fill="#ffa726"/><path d="M27.687,34.343a3.343,3.343,0,1,0-3.343,3.343A3.347,3.347,0,0,0,27.687,34.343Zm-3.343,1.114a1.114,1.114,0,1,1,1.114-1.114A1.116,1.116,0,0,1,24.343,35.458Z" transform="translate(1.289 2.433)" fill="#ffa726"/><path d="M32.343,31a3.343,3.343,0,1,0,3.343,3.343A3.347,3.347,0,0,0,32.343,31Zm0,4.458a1.114,1.114,0,1,1,1.114-1.114A1.116,1.116,0,0,1,32.343,35.458Z" transform="translate(2.204 2.433)" fill="#ffa726"/><path d="M45.458,20.807V5H43.229V20.807a3.324,3.324,0,0,0,0,6.277v2.434h2.229V27.084a3.324,3.324,0,0,0,0-6.277ZM44.343,25.06a1.114,1.114,0,1,1,1.114-1.114A1.116,1.116,0,0,1,44.343,25.06Z" transform="translate(3.578 -0.542)" fill="#ffa726"/><path d="M51.458,9.663V5H49.229V9.663a3.324,3.324,0,0,0,0,6.277V29.518h2.229V15.939a3.324,3.324,0,0,0,0-6.277Zm-1.114,4.253A1.114,1.114,0,1,1,51.458,12.8,1.116,1.116,0,0,1,50.343,13.916Z" transform="translate(4.264 -0.542)" fill="#ffa726"/><path d="M57.458,18.578V5H55.229V18.578a3.324,3.324,0,0,0,0,6.277v4.663h2.229V24.855a3.324,3.324,0,0,0,0-6.277Zm-1.114,4.253a1.114,1.114,0,1,1,1.114-1.114A1.116,1.116,0,0,1,56.343,22.831Z" transform="translate(4.951 -0.542)" fill="#ffa726"/></g></g></g></svg>