<svg xmlns="http://www.w3.org/2000/svg" width="100.299" height="100.301" viewBox="0 0 100.299 100.301"><g transform="translate(13573 19041)"><path d="M708.633,96.455a50.147,50.147,0,1,0,44.63,55.115A50.205,50.205,0,0,0,708.633,96.455Z" transform="translate(-14226.24 -19137.178)" fill="#fff"/><g transform="translate(-13557 -19025)"><g transform="translate(0 0)"><path d="M13.687,7a6.687,6.687,0,1,0,6.687,6.687A6.693,6.693,0,0,0,13.687,7Zm0,11.144a4.458,4.458,0,1,1,4.458-4.458A4.462,4.462,0,0,1,13.687,18.144Z" transform="translate(-0.313 -0.313)" fill="#ffa726"/><path d="M31,12h2.229v2.229H31Z" transform="translate(2.433 0.259)" fill="#ffa726"/><path d="M35,12h6.687v2.229H35Z" transform="translate(2.891 0.259)" fill="#ffa726"/><path d="M31,16H42.144v2.229H31Z" transform="translate(2.433 0.717)" fill="#ffa726"/><path d="M13.916,49H5v6.687h8.916Zm-2.229,4.458H7.229V51.229h4.458Z" transform="translate(-0.542 4.493)" fill="#ffa726"/><path d="M15,49h6.687v2.229H15Z" transform="translate(0.602 4.493)" fill="#ffa726"/><path d="M15,53h6.687v2.229H15Z" transform="translate(0.602 4.951)" fill="#ffa726"/><path d="M5,57H22.831v2.229H5Z" transform="translate(-0.542 5.409)" fill="#ffa726"/><path d="M66.752,38.891H48.921a3.347,3.347,0,0,0-3.343,3.343v7.8H41.12V39.847a4.436,4.436,0,0,0,0-8.6V24.4h5.572a3.347,3.347,0,0,0,3.343-3.343V15.488h4.558a6.683,6.683,0,1,0,12.464-4.3l2.711-2.711L68.193,6.9,65.664,9.427a6.669,6.669,0,0,0-11.071,3.831H50.035V7.687a3.347,3.347,0,0,0-3.343-3.343H33.319a3.347,3.347,0,0,0-3.343,3.343v5.572H27.747V11.294l-2.925-.8c-.1-.255-.2-.51-.319-.763l1.5-2.637L21.652,2.739l-2.637,1.5c-.253-.116-.507-.223-.763-.319L17.452,1H11.294l-.8,2.925c-.255.1-.51.2-.763.319L7.094,2.74,2.74,7.095l1.5,2.637c-.116.253-.223.507-.319.763L1,11.294v6.158l2.925.8c.1.255.2.51.319.763l-1.5,2.637,4.355,4.355,2.637-1.5c.253.116.507.223.763.319l.8,2.924h1.965V45.578H4.343A3.347,3.347,0,0,0,1,48.921V66.752A3.347,3.347,0,0,0,4.343,70.1H24.4a3.347,3.347,0,0,0,3.343-3.343V48.921A3.347,3.347,0,0,0,24.4,45.578H15.488V27.747h1.965l.8-2.925c.255-.1.51-.2.763-.319l2.637,1.5,4.355-4.355-1.5-2.637c.116-.253.223-.507.319-.763l2.924-.8V15.488h2.229V21.06A3.347,3.347,0,0,0,33.319,24.4h5.572v6.845a4.436,4.436,0,0,0,0,8.6V52.264h6.687v7.8a3.347,3.347,0,0,0,3.343,3.343H66.752A3.347,3.347,0,0,0,70.1,60.065V42.234a3.347,3.347,0,0,0-3.343-3.343ZM61.18,9.916a4.416,4.416,0,0,1,2.9,1.1l-2.9,2.9-1.441-1.441-1.576,1.576,3.017,3.017,4.182-4.182A4.447,4.447,0,1,1,61.18,9.916ZM24.4,67.866H4.343a1.116,1.116,0,0,1-1.114-1.114V52.264H25.518V66.752A1.116,1.116,0,0,1,24.4,67.866Zm1.114-18.945v1.114H3.229V48.921a1.116,1.116,0,0,1,1.114-1.114H24.4A1.116,1.116,0,0,1,25.518,48.921Zm0-33.169-2.444.669-.181.585a8.848,8.848,0,0,1-.637,1.528l-.285.542,1.258,2.205-1.95,1.95-2.205-1.258-.542.285A8.9,8.9,0,0,1,17,22.9l-.585.181-.666,2.442H12.995l-.669-2.444-.585-.181a8.849,8.849,0,0,1-1.528-.637l-.542-.285L7.466,23.229l-1.95-1.95,1.258-2.205-.285-.542A8.9,8.9,0,0,1,5.851,17l-.181-.585-2.442-.666V12.995l2.444-.669.181-.585a8.849,8.849,0,0,1,.637-1.528l.285-.542-1.258-2.2,1.95-1.95L9.674,6.776l.542-.285a8.9,8.9,0,0,1,1.528-.637l.585-.181.666-2.444h2.757l.669,2.444.585.181a8.849,8.849,0,0,1,1.528.637l.542.285,2.205-1.258,1.95,1.95L21.973,9.674l.285.542a8.9,8.9,0,0,1,.637,1.528l.181.585L25.52,13v2.755Zm7.8-9.18H46.692a1.116,1.116,0,0,1,1.114,1.114V8.8H32.2V7.687A1.116,1.116,0,0,1,33.319,6.572ZM32.2,21.06V11.03h15.6V21.06a1.116,1.116,0,0,1-1.114,1.114H33.319A1.116,1.116,0,0,1,32.2,21.06Zm5.572,14.488a2.229,2.229,0,1,1,2.229,2.229A2.231,2.231,0,0,1,37.777,35.548ZM48.921,41.12H66.752a1.116,1.116,0,0,1,1.114,1.114v1.114H47.807V42.234A1.116,1.116,0,0,1,48.921,41.12ZM66.752,61.18H48.921a1.116,1.116,0,0,1-1.114-1.114V45.578h20.06V60.065A1.116,1.116,0,0,1,66.752,61.18Z" transform="translate(-1 -1)" fill="#ffa726"/><path d="M51.687,43H45v6.687h6.687Zm-2.229,4.458H47.229V45.229h2.229Z" transform="translate(4.035 3.806)" fill="#ffa726"/><path d="M53,43h6.687v2.229H53Z" transform="translate(4.951 3.806)" fill="#ffa726"/><path d="M53,47h6.687v2.229H53Z" transform="translate(4.951 4.264)" fill="#ffa726"/><path d="M45,51H60.6v2.229H45Z" transform="translate(4.035 4.722)" fill="#ffa726"/></g></g></g></svg>