<svg xmlns="http://www.w3.org/2000/svg" width="100.299" height="100.301" viewBox="0 0 100.299 100.301"><g transform="translate(13716 19041)"><path d="M708.633,96.455a50.147,50.147,0,1,0,44.63,55.115A50.205,50.205,0,0,0,708.633,96.455Z" transform="translate(-14369.24 -19137.178)" fill="#fff"/><g transform="translate(-13700 -19025)"><path d="M70.1,28.861V4.343A3.347,3.347,0,0,0,66.752,1H24.4A3.347,3.347,0,0,0,21.06,4.343V9.955c-.387-.026-.753-.039-1.114-.039a18.934,18.934,0,0,0-4.458,37.339V51.15a3.306,3.306,0,0,0,.447,1.639,3.336,3.336,0,0,0-1.561,2.818v8.916a5.572,5.572,0,0,0,11.144,0V55.608a3.336,3.336,0,0,0-1.561-2.818A3.306,3.306,0,0,0,24.4,51.15V47.255A18.984,18.984,0,0,0,35.451,39.7l.826,1.6a16.735,16.735,0,0,0-1.024,2.484l-3.048.976v8.313l3.047.976a16.637,16.637,0,0,0,1.024,2.484l-1.462,2.841,5.878,5.878,2.841-1.462a16.734,16.734,0,0,0,2.484,1.024l.978,3.048h8.313l.976-3.047A16.685,16.685,0,0,0,58.767,63.8l2.841,1.462,5.876-5.878-1.461-2.841a16.686,16.686,0,0,0,1.024-2.484l3.048-.978V44.764l-3.047-.976A16.735,16.735,0,0,0,66.024,41.3l1.461-2.841-5.876-5.878-2.841,1.462a16.713,16.713,0,0,0-2.484-1.024L56.02,32.2H66.752A3.347,3.347,0,0,0,70.1,28.861ZM24.4,32.2h7.317A12.251,12.251,0,1,1,19.945,16.6a11.139,11.139,0,0,1,1.114.064v12.2A3.347,3.347,0,0,0,24.4,32.2ZM23.289,64.523a3.343,3.343,0,1,1-6.687,0V55.608a1.115,1.115,0,0,1,1.114-1.114h4.458a1.115,1.115,0,0,1,1.114,1.114ZM22.174,51.15a1.115,1.115,0,0,1-1.114,1.114H18.831a1.115,1.115,0,0,1-1.114-1.114V47.664a19.1,19.1,0,0,0,2.229.143,18.888,18.888,0,0,0,2.229-.147Zm-2.229-5.572a16.717,16.717,0,1,1,0-33.433c.353,0,.724.018,1.114.048v2.231c-.381-.031-.752-.05-1.114-.05A14.488,14.488,0,1,0,34.019,32.2H36.3A16.72,16.72,0,0,1,19.945,45.578ZM38.559,32.2h7.72l-.262.818a16.665,16.665,0,0,0-2.484,1.024l-2.841-1.462-3.1,3.1A18.688,18.688,0,0,0,38.559,32.2ZM54.52,34.83l.576.163a14.388,14.388,0,0,1,3.117,1.285l.522.292,2.446-1.258,3.578,3.578L63.5,41.335l.292.523a14.365,14.365,0,0,1,1.285,3.117l.163.576,2.626.839v5.061l-2.626.84-.163.576a14.46,14.46,0,0,1-1.284,3.117l-.293.522,1.258,2.446-3.578,3.58-2.445-1.259-.523.292A14.457,14.457,0,0,1,55.1,62.85l-.576.163-.839,2.625H48.62l-.84-2.626-.576-.163a14.46,14.46,0,0,1-3.117-1.284l-.522-.293-2.446,1.259-3.58-3.58L38.8,56.506l-.293-.522a14.473,14.473,0,0,1-1.285-3.117l-.163-.576-2.625-.839V46.391l2.626-.84.163-.576a14.46,14.46,0,0,1,1.284-3.117l.293-.522L37.539,38.89l3.58-3.578,2.446,1.258.522-.292A14.333,14.333,0,0,1,47.2,34.993l.576-.163.839-2.626H53.68Zm-7.526-4.855H24.4a1.116,1.116,0,0,1-1.114-1.114V4.343A1.116,1.116,0,0,1,24.4,3.229H66.752a1.116,1.116,0,0,1,1.114,1.114V28.861a1.116,1.116,0,0,1-1.114,1.114H46.994Z" transform="translate(-1 -1)" fill="#ffa726"/><path d="M57.548,5a5.579,5.579,0,0,0-5.572,5.572,5.52,5.52,0,0,0,.317,1.775l-4.955,2.891a4.4,4.4,0,0,0-5.98-.291l-5.3-3.857a4.455,4.455,0,1,0-6.723,1.985l-2.9,7.536c-.03,0-.058-.009-.088-.009a3.383,3.383,0,1,0,2.165.817l2.906-7.555a4.113,4.113,0,0,0,.5.051,4.413,4.413,0,0,0,2.817-1.032l5.3,3.857a4.467,4.467,0,1,0,8.411.43l4.967-2.9A5.562,5.562,0,1,0,57.548,5Zm-31.2,20.06a1.114,1.114,0,1,1,1.114-1.114A1.116,1.116,0,0,1,26.343,25.06Zm5.572-13.373a2.229,2.229,0,1,1,2.229-2.229A2.231,2.231,0,0,1,31.916,11.687ZM44.174,20.6A2.229,2.229,0,1,1,46.4,18.373,2.231,2.231,0,0,1,44.174,20.6Zm13.373-6.687a3.343,3.343,0,1,1,3.343-3.343A3.347,3.347,0,0,1,57.548,13.916Z" transform="translate(1.518 -0.542)" fill="#ffa726"/><path d="M57,23h2.229v2.229H57Z" transform="translate(5.409 1.518)" fill="#ffa726"/><path d="M49,23h2.229v2.229H49Z" transform="translate(4.493 1.518)" fill="#ffa726"/><path d="M53,23h2.229v2.229H53Z" transform="translate(4.951 1.518)" fill="#ffa726"/><path d="M49,19H60.144v2.229H49Z" transform="translate(4.493 1.06)" fill="#ffa726"/><path d="M11.229,26H9A10.041,10.041,0,0,0,19.03,36.03V33.8A7.81,7.81,0,0,1,11.229,26Z" transform="translate(-0.084 1.861)" fill="#ffa726"/><path d="M53.8,44H51.572A5.579,5.579,0,0,1,46,49.572V51.8A7.811,7.811,0,0,0,53.8,44Z" transform="translate(4.15 3.921)" fill="#ffa726"/><path d="M35,45.259A12.259,12.259,0,1,0,47.259,33,12.273,12.273,0,0,0,35,45.259Zm12.259-10.03a10.03,10.03,0,1,1-10.03,10.03A10.041,10.041,0,0,1,47.259,35.229Z" transform="translate(2.891 2.662)" fill="#ffa726"/></g></g></svg>