<svg xmlns="http://www.w3.org/2000/svg" width="100.299" height="100.301" viewBox="0 0 100.299 100.301"><g transform="translate(12449 18909)"><path d="M708.633,96.455a50.147,50.147,0,1,0,44.63,55.115A50.205,50.205,0,0,0,708.633,96.455Z" transform="translate(-13102.24 -19005.178)" fill="#fff"/><g transform="translate(-12432 -18892)"><path d="M47.4,205.891H60.777l2.229-2.229H84.18V168H24v35.662H45.174Zm-20.06-23.4V171.343H80.836v6.621l-8.949,8.948-13.34-7.768L45.174,191.4l-7.8-5.572-10.03,7.8Zm8.916,17.831h0Z" transform="translate(-20.657 -144.597)" fill="#ebe5dd"/><path d="M49.234,424l-2.229,2.229H33.632L31.4,424H8v2.229a4.458,4.458,0,0,0,4.458,4.458H68.18a4.458,4.458,0,0,0,4.458-4.458V424Z" transform="translate(-6.886 -364.935)" fill="#26a69a"/><path d="M65.831,212.06,79.2,199.8l13.34,7.768,8.949-8.948V192H48v22.289l10.03-7.8Z" transform="translate(-41.313 -165.253)" fill="#4dd0e1"/><g transform="translate(0 0)"><path d="M65.752,195.662H64.638V161.114A1.114,1.114,0,0,0,63.523,160H3.343a1.114,1.114,0,0,0-1.114,1.114v34.548H1.114A1.114,1.114,0,0,0,0,196.777v2.229a5.579,5.579,0,0,0,5.572,5.572H61.294a5.579,5.579,0,0,0,5.572-5.572v-2.229A1.114,1.114,0,0,0,65.752,195.662ZM4.458,162.229H62.409v33.433H42.349a1.128,1.128,0,0,0-.789.328l-1.9,1.9H27.208l-1.9-1.9a1.128,1.128,0,0,0-.789-.328H4.458Zm60.18,36.777a3.343,3.343,0,0,1-3.343,3.343H5.572a3.343,3.343,0,0,1-3.343-3.343v-1.114H24.056l1.9,1.9a1.114,1.114,0,0,0,.788.327H40.12a1.114,1.114,0,0,0,.788-.327l1.9-1.9H64.638Z" transform="translate(0 -137.711)" fill="#231f20"/><path d="M59.032,206.606l13.435-12.316L85.84,202.08l9.882-9.884V184H40v25.682l11.172-8.693Zm-16.8-1.482v-18.9H93.493v5.044l-8.014,8.016L72.171,191.54l-13.312,12.2-7.742-5.53Z" transform="translate(-34.428 -158.368)" fill="#231f20"/><path d="M105.114,21.174a1.114,1.114,0,0,0,1.114-1.114v-2.4l3.873-.646a1.115,1.115,0,0,0,.9-.85,12.028,12.028,0,0,1,1.53-3.7,1.114,1.114,0,0,0-.038-1.241l-2.281-3.188,1.818-1.818L115.22,8.5a1.114,1.114,0,0,0,1.241.038,12.027,12.027,0,0,1,3.7-1.53,1.115,1.115,0,0,0,.85-.9l.651-3.873h2.57l.646,3.873a1.115,1.115,0,0,0,.85.9,12.028,12.028,0,0,1,3.7,1.53,1.114,1.114,0,0,0,1.241-.038l3.188-2.281,1.818,1.818L133.4,11.22a1.114,1.114,0,0,0-.038,1.241,12.027,12.027,0,0,1,1.53,3.7,1.115,1.115,0,0,0,.9.85l3.873.646v2.4a1.114,1.114,0,0,0,2.229,0V16.717a1.115,1.115,0,0,0-.931-1.1l-4.084-.684a14.336,14.336,0,0,0-1.242-3.009l2.408-3.367a1.115,1.115,0,0,0-.119-1.437L134.77,3.966a1.114,1.114,0,0,0-1.437-.118L129.966,6.26a14.341,14.341,0,0,0-3.009-1.245L126.274.927a1.114,1.114,0,0,0-1.1-.927h-4.458a1.114,1.114,0,0,0-1.1.931l-.684,4.084a14.336,14.336,0,0,0-3.009,1.241l-3.363-2.4a1.114,1.114,0,0,0-1.437.118L107.97,7.125a1.114,1.114,0,0,0-.118,1.437l2.408,3.363a14.341,14.341,0,0,0-1.245,3.009l-4.088.683a1.114,1.114,0,0,0-.927,1.1V20.06a1.114,1.114,0,0,0,1.114,1.114Z" transform="translate(-89.512 0)" fill="#231f20"/><path d="M191.6,80.916a1.114,1.114,0,1,0,2.229,0,8.916,8.916,0,0,0-17.831,0,1.114,1.114,0,1,0,2.229,0,6.687,6.687,0,0,1,13.373,0Z" transform="translate(-151.482 -61.97)" fill="#231f20"/><path d="M208,108.458a1.114,1.114,0,1,0,2.229,0,2.229,2.229,0,0,1,4.458,0,1.114,1.114,0,1,0,2.229,0,4.458,4.458,0,0,0-8.916,0Z" transform="translate(-179.025 -89.512)" fill="#231f20"/><path d="M95.722,289.831V272H93.493v16.717H91.264V276.458H89.035v12.259H86.807V279.8H84.578v8.916H82.349V277.572H80.12v11.144H77.891V275.343H75.662v13.373H73.433v-15.6H71.2v15.6H68.975V277.572H66.747v11.144H64.518V282.03H62.289v6.687H60.06v-4.458H57.831v4.458H55.6V282.03H53.373v6.687H51.144v-7.8H48.916v7.8H46.687v-4.458H44.458v4.458H42.229V287.6H40v3.343H95.722Z" transform="translate(-34.428 -234.109)" fill="#231f20"/></g></g></g></svg>