<svg xmlns="http://www.w3.org/2000/svg" width="100.299" height="100.301" viewBox="0 0 100.299 100.301"><g transform="translate(11958 18909)"><path d="M708.633,96.455a50.147,50.147,0,1,0,44.63,55.115A50.205,50.205,0,0,0,708.633,96.455Z" transform="translate(-12611.24 -19005.178)" fill="#fff"/><g transform="translate(-11939 -18890)"><path d="M58.633,200.3h-46.5A4.134,4.134,0,0,1,8,196.167V160H58.633Zm0,0" transform="translate(-6.967 -139.333)" fill="#ffedb7"/><path d="M142.233,176,104,214.233Zm0,0" transform="translate(-90.567 -153.267)" fill="#3086cd"/><path d="M14.2,136.3H12.133A4.134,4.134,0,0,0,8,140.433v-40.3A4.134,4.134,0,0,1,12.133,96H14.2Zm0,0" transform="translate(-6.967 -83.6)" fill="#ffa726"/><g transform="translate(11.367 25.833)"><path d="M88,200h12.4v8.267H88Zm0,0" transform="translate(-88 -200)" fill="#26a69a"/><path d="M88,344h12.4v8.267H88Zm0,0" transform="translate(-88 -325.4)" fill="#26a69a"/><path d="M264,200h12.4v8.267H264Zm0,0" transform="translate(-241.267 -200)" fill="#26a69a"/><path d="M264,344h12.4v8.267H264Zm0,0" transform="translate(-241.267 -325.4)" fill="#26a69a"/></g><path d="M184,224h10.333v2.067H184Zm0,0" transform="translate(-160.233 -195.067)" fill="#00104e"/><path d="M304,264h2.067v10.333H304Zm0,0" transform="translate(-264.733 -229.9)" fill="#00104e"/><path d="M184,368h10.333v2.067H184Zm0,0" transform="translate(-160.233 -320.467)" fill="#48add9"/><path d="M249.067,27.633v-6.2H244.53a12.783,12.783,0,0,0-1.322-3.193l3.214-3.2-4.392-4.392-3.2,3.214a12.783,12.783,0,0,0-3.193-1.322V8h-6.2v4.536a12.783,12.783,0,0,0-3.193,1.322l-3.2-3.214-4.392,4.392,3.214,3.2a12.78,12.78,0,0,0-1.322,3.193H216v6.2h4.536a12.78,12.78,0,0,0,1.322,3.193l-3.214,3.2,2.914,2.9,1.478,1.478,3.2-3.2a12.783,12.783,0,0,0,3.193,1.322v4.536h6.2V36.53a12.783,12.783,0,0,0,3.193-1.322l3.2,3.2,4.392-4.382-3.214-3.2a12.783,12.783,0,0,0,1.322-3.193Zm-19.633-3.1a3.1,3.1,0,1,1,3.1,3.1A3.1,3.1,0,0,1,229.433,24.533Zm0,0" transform="translate(-188.1 -6.967)" fill="#ffca28"/><path d="M281.3,82.6a9.3,9.3,0,1,1,9.3-9.3A9.3,9.3,0,0,1,281.3,82.6Zm0-16.533a7.233,7.233,0,1,0,7.233,7.233A7.233,7.233,0,0,0,281.3,66.067Zm0,0" transform="translate(-236.867 -55.733)" fill="#f7a116"/><path d="M5.167,138.633h46.5A1.033,1.033,0,0,0,52.7,137.6V110.733H50.633v25.833H5.167a3.1,3.1,0,1,1,0-6.2H7.233a1.033,1.033,0,0,0,1.033-1.033v-31H24.8V96.267H8.267V89.033A1.033,1.033,0,0,0,7.233,88H5.167A5.173,5.173,0,0,0,0,93.167v40.3A5.173,5.173,0,0,0,5.167,138.633ZM2.067,97.3V93.167a3.1,3.1,0,0,1,3.1-3.1H6.2V128.3H5.167a5.146,5.146,0,0,0-3.1,1.033Zm0,0" transform="translate(0 -76.633)"/><path d="M93.433,192h-12.4A1.033,1.033,0,0,0,80,193.033V201.3a1.033,1.033,0,0,0,1.033,1.033h12.4a1.033,1.033,0,0,0,1.033-1.033v-3.1H98.6v-2.067H94.467v-3.1A1.033,1.033,0,0,0,93.433,192ZM92.4,200.267H82.067v-6.2H92.4Zm0,0" transform="translate(-69.667 -167.2)"/><path d="M103.767,304.533h12.4A1.033,1.033,0,0,0,117.2,303.5v-8.267a1.033,1.033,0,0,0-1.033-1.033H111V288h-2.067v6.2h-5.167a1.033,1.033,0,0,0-1.033,1.033v3.1H94.467v-3.1a1.033,1.033,0,0,0-1.033-1.033h-12.4A1.033,1.033,0,0,0,80,295.233V303.5a1.033,1.033,0,0,0,1.033,1.033h12.4a1.033,1.033,0,0,0,1.033-1.033v-3.1h8.267v3.1A1.033,1.033,0,0,0,103.767,304.533Zm1.033-8.267h10.333v6.2H104.8Zm-12.4,6.2H82.067v-6.2H92.4Zm0,0" transform="translate(-69.667 -250.8)"/><path d="M281.3,64a9.3,9.3,0,1,0,9.3,9.3A9.3,9.3,0,0,0,281.3,64Zm0,16.533a7.233,7.233,0,1,1,7.233-7.233A7.233,7.233,0,0,1,281.3,80.533Zm0,0" transform="translate(-236.867 -55.733)"/><path d="M242.1,21.7a1.033,1.033,0,0,0,1.033-1.033v-6.2a1.033,1.033,0,0,0-1.033-1.033h-3.764a13.691,13.691,0,0,0-.817-1.974L240.184,8.8a1.033,1.033,0,0,0,0-1.463L235.8,2.948a1.032,1.032,0,0,0-1.461,0l-2.662,2.666A13.745,13.745,0,0,0,229.7,4.8V1.033A1.033,1.033,0,0,0,228.667,0h-6.2a1.033,1.033,0,0,0-1.033,1.033V4.8a13.745,13.745,0,0,0-1.974.817L216.8,2.949a1.032,1.032,0,0,0-1.461,0l-4.393,4.389a1.033,1.033,0,0,0,0,1.463l2.666,2.656a13.67,13.67,0,0,0-.816,1.977h-3.764A1.033,1.033,0,0,0,208,14.467v6.2a1.033,1.033,0,0,0,1.033,1.033H212.8a13.7,13.7,0,0,0,.817,1.974l-2.666,2.656a1.033,1.033,0,0,0,0,1.464l4.388,4.381a1.034,1.034,0,0,0,1.461,0l2.658-2.657a13.816,13.816,0,0,0,1.978.817V34.1a1.033,1.033,0,0,0,1.033,1.033h6.2A1.033,1.033,0,0,0,229.7,34.1V30.335a13.758,13.758,0,0,0,1.975-.817l2.658,2.657a1.034,1.034,0,0,0,1.46,0l4.392-4.382a1.033,1.033,0,0,0,0-1.464l-2.666-2.656a13.679,13.679,0,0,0,.817-1.973Zm-5.534-1.3a11.816,11.816,0,0,1-1.217,2.936,1.033,1.033,0,0,0,.164,1.252l2.48,2.472-2.927,2.921-2.471-2.474a1.034,1.034,0,0,0-1.251-.162,11.769,11.769,0,0,1-2.936,1.216,1.034,1.034,0,0,0-.773,1v3.5H223.5v-3.5a1.033,1.033,0,0,0-.77-1,11.769,11.769,0,0,1-2.935-1.216,1.034,1.034,0,0,0-1.251.162l-2.473,2.473-2.927-2.92,2.48-2.472a1.033,1.033,0,0,0,.163-1.252,11.817,11.817,0,0,1-1.217-2.936,1.033,1.033,0,0,0-1-.77h-3.5V15.5h3.5a1.033,1.033,0,0,0,1-.77,11.819,11.819,0,0,1,1.217-2.936,1.033,1.033,0,0,0-.163-1.252l-2.48-2.473,2.928-2.928,2.473,2.48a1.033,1.033,0,0,0,1.252.163,11.771,11.771,0,0,1,2.936-1.216,1.034,1.034,0,0,0,.769-1v-3.5h4.133v3.5a1.033,1.033,0,0,0,.77,1,11.769,11.769,0,0,1,2.936,1.216,1.033,1.033,0,0,0,1.254-.163l2.473-2.48,2.928,2.928-2.48,2.473a1.032,1.032,0,0,0-.163,1.252,11.834,11.834,0,0,1,1.217,2.936,1.033,1.033,0,0,0,.995.769h3.5v4.133h-3.5A1.033,1.033,0,0,0,236.565,20.4Zm0,0" transform="translate(-181.133)"/><path d="M316.133,104a4.133,4.133,0,1,0,4.133,4.133A4.134,4.134,0,0,0,316.133,104Zm0,6.2a2.067,2.067,0,1,1,2.067-2.067A2.067,2.067,0,0,1,316.133,110.2Zm0,0" transform="translate(-271.7 -90.567)"/></g></g></svg>