<svg xmlns="http://www.w3.org/2000/svg" xmlns:xlink="http://www.w3.org/1999/xlink" width="440" height="300" viewBox="0 0 440 300"><defs><clipPath id="a"><path d="M11.036,0H304.883a11.035,11.035,0,0,1,11.035,11.035V167.19a11.035,11.035,0,0,1-11.035,11.035H11.035A11.035,11.035,0,0,1,0,167.19V11.036A11.036,11.036,0,0,1,11.036,0Z" fill="none"/></clipPath><clipPath id="b"><path d="M522.737,241.208c21.774-48.583-35.051-68.586-64.26-46.242s-44.079,23.979-38.237,1.089c14.236-55.777-1.593-114.443-79.129-147.687S199.5,64.89,187.553,106.987s-17.126,53.949-25.889,47.41c-32.957-24.6-76.072-26.566-56.954,53.95S168.431,337.5,168.431,337.5s316.6-1.387,327.753-3.567,25.492-8.719,40.892-46.867S500.963,289.791,522.737,241.208Z" transform="translate(165 4103.5)" fill="#ffa726" opacity="0.248"/></clipPath></defs><g transform="translate(-265 -4141)"><path d="M522.737,241.208c21.774-48.583-35.051-68.586-64.26-46.242s-44.079,23.979-38.237,1.089c14.236-55.777-1.593-114.443-79.129-147.687S199.5,64.89,187.553,106.987s-17.126,53.949-25.889,47.41c-32.957-24.6-76.072-26.566-56.954,53.95S168.431,337.5,168.431,337.5s316.6-1.387,327.753-3.567,25.492-8.719,40.892-46.867S500.963,289.791,522.737,241.208Z" transform="translate(165 4103.5)" fill="#ffa726" opacity="0.248"/><path d="M-609.979,1005.623h-153.6a4.345,4.345,0,0,0-4.345,4.344,4.345,4.345,0,0,0,4.345,4.345h153.6a4.345,4.345,0,0,0,4.344-4.345A4.344,4.344,0,0,0-609.979,1005.623Z" transform="translate(1169.961 3413.973)" fill="#ffca28" opacity="0.15" style="mix-blend-mode:multiply;isolation:isolate"/><g transform="translate(318.674 4161.998)"><g transform="translate(0)"><g transform="translate(104.206 200.526)"><path d="M-713.6,921.467h1.833c14.468,0,27.323-12.048,31.943-29.937l5.243-20.3H-640.8l3.142,16.727c3.7,19.675,17.214,33.512,32.739,33.512h3.138c2.892,0,5.235,3.058,5.235,6.831h-122.3C-718.84,924.525-716.5,921.467-713.6,921.467Z" transform="translate(718.84 -871.228)" fill="#f6f6f6"/><path d="M-627.684,892.631c10.375-4.1,32.444-3.731,43.424-.538-.364-1.349-.685-2.726-.95-4.137l-3.142-16.727h-33.786l-5.243,20.3C-627.476,891.9-627.581,892.265-627.684,892.631Z" transform="translate(666.393 -871.228)" fill="#ccc"/><path d="M-599.874,1009.968H-715.51c-1.839,0-3.33-1.945-3.33-4.344h122.3C-596.544,1008.023-598.035,1009.968-599.874,1009.968Z" transform="translate(718.84 -948.553)" fill="#f1f2f2"/></g><path d="M-949.445,404.235h301.126a14.792,14.792,0,0,1,14.793,14.792V597.366c0,8.169.51,14.791-9.875,14.791h-312c-8.837,0-8.837-6.622-8.837-14.791V419.027A14.791,14.791,0,0,1-949.445,404.235Z" transform="translate(964.237 -402.014)" fill="#bcbec0"/><path d="M21.478,0H309.231A21.478,21.478,0,0,1,330.71,21.478V186.445a21.477,21.477,0,0,1-21.477,21.477H21.477A21.477,21.477,0,0,1,0,186.445V21.478A21.478,21.478,0,0,1,21.478,0Z" transform="translate(0 0)" fill="#e8e8e8"/><path d="M-955.116,399h312.468a9.121,9.121,0,0,1,9.121,9.121V590.318h-330.71V408.126A9.121,9.121,0,0,1-955.116,399Z" transform="translate(964.237 -399.005)" fill="#00104e"/><path d="M11.036,0H304.883a11.035,11.035,0,0,1,11.035,11.035V167.19a11.035,11.035,0,0,1-11.035,11.035H11.035A11.036,11.036,0,0,1,0,167.19V11.036A11.036,11.036,0,0,1,11.036,0Z" transform="translate(7.396 7.396)" fill="#f6f6f6" opacity="0.999"/></g><path d="M-635.588,416.422H-942.134a4.687,4.687,0,0,0-4.686,4.686V431.8H-630.9v-10.69A4.686,4.686,0,0,0-635.588,416.422Z" transform="translate(954.216 -409.026)" fill="#fff"/><g transform="translate(289.143 11.967)"><path d="M3.225,0A3.225,3.225,0,1,1,0,3.225,3.225,3.225,0,0,1,3.225,0Z" transform="translate(0)" fill="#ffca28"/><circle cx="3.225" cy="3.225" r="3.225" transform="translate(9.829 0)" fill="#ffa726"/><circle cx="3.225" cy="3.225" r="3.225" transform="translate(19.658 0)" fill="#039be5"/></g></g><rect width="248.549" height="7.383" transform="translate(347.516 4173.391)" fill="#f2f2f2"/><g transform="translate(326.07 4169.395)"><g transform="translate(0)" clip-path="url(#a)"><g transform="translate(0 21.351)"><g transform="translate(33.246 2.132)"><path d="M0,0H155.485V26.719H0Z" transform="translate(26.719 0) rotate(90)" fill="#ffedb7"/><rect width="26.719" height="5.995" transform="translate(0 115.367)" fill="#1565c0"/><rect width="26.719" height="5.995" transform="translate(0 126.895)" fill="#ffa726"/></g><g transform="translate(0 15.465)"><g transform="translate(0)"><rect width="142.151" height="33.245" transform="translate(0 142.151) rotate(-90)" fill="#039be5"/></g><g transform="translate(0 104.8)"><g transform="translate(0 0)"><rect width="37.351" height="33.245" transform="translate(0 37.351) rotate(-90)" fill="#ffca28"/></g></g><rect width="14.295" height="9.667" transform="translate(21.456 97.883) rotate(90)" fill="#4dd0e1"/></g><g transform="translate(147.274 5.318)"><path d="M0,0H152.3V18.9H0Z" transform="translate(18.901 0) rotate(90)" fill="#1565c0"/><rect width="6.161" height="18.901" transform="translate(18.901 10.147) rotate(90)" fill="#26a69a"/><rect width="6.161" height="18.901" transform="translate(18.901 16.308) rotate(90)" fill="#ffca28"/><path d="M-580.049,771.676h0a6.342,6.342,0,0,0-6.342-6.342h-.287a6.342,6.342,0,0,0-6.342,6.342h0a6.342,6.342,0,0,0,6.342,6.342h.287A6.342,6.342,0,0,0-580.049,771.676Z" transform="translate(595.985 -643.84)" fill="#fff"/></g><g transform="translate(116.781)"><g transform="translate(0)"><path d="M0,0H160.689V30.494H0Z" transform="translate(0 160.689) rotate(-90)" fill="#26a69a"/><g transform="translate(0 64.698)"><path d="M-671.811,619.06v7.672c0,2.315,30.493,2.315,30.493,0V619.06C-641.318,620.708-671.811,620.708-671.811,619.06Z" transform="translate(671.811 -619.06)" fill="#ffb6a6"/></g></g><rect width="1.859" height="8.098" transform="translate(0 149.518)" fill="#b34c35"/><rect width="1.859" height="8.098" transform="translate(4.091 149.518)" fill="#b34c35"/><rect width="1.859" height="8.098" transform="translate(8.181 149.518)" fill="#b34c35"/><rect width="1.859" height="8.098" transform="translate(12.272 149.518)" fill="#b34c35"/><rect width="1.859" height="8.098" transform="translate(16.362 149.518)" fill="#b34c35"/><rect width="1.859" height="8.098" transform="translate(20.453 149.518)" fill="#b34c35"/><rect width="1.859" height="8.098" transform="translate(24.544 149.518)" fill="#b34c35"/><rect width="1.859" height="8.098" transform="translate(28.634 149.518)" fill="#b34c35"/><rect width="41.771" height="8.282" transform="translate(19.953 10.567) rotate(90)" fill="#fff"/></g><g transform="translate(91.972 26.905)"><g transform="translate(0 0)"><rect width="130.712" height="24.809" transform="translate(24.809 0) rotate(90)" fill="#1565c0"/><path d="M0,0H10.107V93.274H0Z" transform="translate(7.427 9.584)" fill="#ffca28"/></g><rect width="1.198" height="24.809" transform="translate(24.886 110.346) rotate(90)" fill="#ffc440"/><rect width="1.198" height="24.809" transform="translate(24.886 114.539) rotate(90)" fill="#ffc440"/><rect width="1.198" height="24.809" transform="translate(24.886 119.331) rotate(90)" fill="#ffc440"/></g><g transform="translate(59.965 36.489)"><g transform="translate(0)"><rect width="121.128" height="15.621" transform="translate(0 121.128) rotate(-90)" fill="#ffa726"/></g><rect width="62.596" height="9.801" transform="translate(12.711 43.856) rotate(90)" fill="#fff"/><ellipse cx="5.054" cy="4.942" rx="5.054" ry="4.942" transform="translate(2.68 17.5)" fill="#039be5"/></g><g transform="translate(75.585 44.704)"><g transform="translate(0 0)"><rect width="112.913" height="16.386" transform="translate(16.386 0) rotate(90)" fill="#26a69a"/><path d="M0,0H7.81V75.475H0Z" transform="translate(4.365 9.584)" fill="#ffedb7"/></g><rect width="1.198" height="16.386" transform="translate(16.463 94.777) rotate(90)" fill="#ed687e"/><rect width="1.198" height="16.386" transform="translate(16.463 98.97) rotate(90)" fill="#ed687e"/><rect width="1.198" height="16.386" transform="translate(16.463 103.762) rotate(90)" fill="#ed687e"/></g><g transform="translate(273.582 42.361)"><g transform="translate(0)"><g transform="translate(0)"><rect width="115.256" height="25.324" transform="translate(0 115.256) rotate(-90)" fill="#26a69a"/></g></g><path d="M-302.558,602.455V615.3c0,2.73,25.324,2.73,25.324,0v-12.84C-277.234,605.124-302.558,605.124-302.558,602.455Zm25.324,18.037c0,2.335-25.324,2.335-25.324,0v12.84c0,3.615,25.324,3.615,25.324,0Z" transform="translate(302.558 -587.169)" fill="#ffedb7"/></g><g transform="translate(298.906 42.361)"><g transform="translate(0)"><g transform="translate(0)"><rect width="115.256" height="17.508" transform="translate(0 115.256) rotate(-90)" fill="#ffca28"/></g><g transform="translate(0 34.546)"><rect width="1.834" height="17.508" transform="translate(0 1.834) rotate(-90)" fill="#4a3195"/></g><rect width="4.69" height="10.394" rx="2.345" transform="translate(10.786 23.999) rotate(180)" fill="#fff"/></g></g><g transform="translate(246.92)"><g transform="translate(0)"><g transform="translate(0)"><rect width="157.617" height="26.662" transform="translate(0 157.617) rotate(-90)" fill="#00104e"/></g></g><rect width="106.842" height="16.729" transform="translate(21.695 25.726) rotate(90)" fill="#fff"/><path d="M6.207,0a6.14,6.14,0,0,1,6.207,6.07,6.14,6.14,0,0,1-6.207,6.07A6.14,6.14,0,0,1,0,6.07,6.14,6.14,0,0,1,6.207,0Z" transform="translate(6.993 6.195)" fill="#ffca28"/></g></g><path d="M-855.954,471.721h-12.265V626.432Z" transform="translate(901.596 -448.239)" opacity="0.15" style="mix-blend-mode:multiply;isolation:isolate"/><path d="M-946.508,645.272h.9l11.269-142.151h-12.174Z" transform="translate(946.641 -466.304)" opacity="0.15" style="mix-blend-mode:multiply;isolation:isolate"/><path d="M-659.344,466.7h-12.467V623.957Z" transform="translate(788.592 -445.35)" opacity="0.15" style="mix-blend-mode:multiply;isolation:isolate"/><path d="M-591.47,479.225H-600V607.418Z" transform="translate(747.276 -452.556)" opacity="0.15" style="mix-blend-mode:multiply;isolation:isolate"/><path d="M-353.418,466.7h-11.926V623.327Z" transform="translate(612.264 -445.35)" opacity="0.15" style="mix-blend-mode:multiply;isolation:isolate"/><path d="M-302.558,566.458V681.713h.32l13.9-115.255Z" transform="translate(576.14 -502.746)" opacity="0.15" style="mix-blend-mode:multiply;isolation:isolate"/><path d="M-234.149,566.458h-8.774V678.906Z" transform="translate(541.828 -502.746)" opacity="0.15" style="mix-blend-mode:multiply;isolation:isolate"/><path d="M-805.608,673.724l7.026-121.062h-7.026Z" transform="translate(865.573 -494.809)" opacity="0.15" style="mix-blend-mode:multiply;isolation:isolate"/><path d="M-768.738,684.22l5.991-112.115h-5.991Z" transform="translate(844.359 -505.995)" opacity="0.15" style="mix-blend-mode:multiply;isolation:isolate"/><path d="M-718.3,530.059h-11.934V659.9Z" transform="translate(822.206 -481.803)" opacity="0.15" style="mix-blend-mode:multiply;isolation:isolate"/></g></g><circle cx="4" cy="4" r="4" transform="translate(333 4173)" fill="#039be5"/><g clip-path="url(#b)"><g transform="translate(205.92 4203.264)"><g transform="translate(0 0)"><g transform="translate(0 88.723)"><path d="M-674.584,761.822l15.478,14.471s-3.042,5.87-8.607,4.234S-684.507,766.2-684.507,766.2l-4.459,3.744-10.56-1.047,1.246-2.706,10.552-5.945A11.2,11.2,0,0,1-674.584,761.822Z" transform="translate(924.688 -736.006)" fill="#8c4719"/><path d="M-652.656,759.283s-3.478,6.44-7.793,5.121c-2.846-.869-10.329-9-15.1-14.431a8.03,8.03,0,0,0-9.925-1.73l-11,6.085-4.136,1.641-.8-7.464,24.612-12.172,13.085,8.641Z" transform="translate(925.767 -723.077)" fill="#b35b20"/><path d="M-673.336,726.7l20,18.507a4.093,4.093,0,0,1-1.311,6.851,4.049,4.049,0,0,1-2.964-.1c-3.322-1.344-14.881-11.67-20.41-16.709-1.768-1.612-7.194-3.909-9.193-2.595l-19.547,11.408-4.847-4.454,22.88-16.82Z" transform="translate(931.64 -715.286)" fill="#de7935"/><path d="M-769.356,831.835s17.424,8.548,25.478,27.391C-743.878,859.226-761.618,851.265-769.356,831.835Z" transform="translate(964.866 -778.025)" fill="#b3b3b3"/><path d="M-705.87,720.3s5.225,8.193.829,14.163-22.508,17.975-22.508,17.975-4.71,19.4-12.121,24.158-13.782,9.784-13.782,9.784L-774.19,765.16l7-5.751s5.354-30.9,9.577-35.93,15.5-10.993,23.17-16.192a12.611,12.611,0,0,1,9.866-1.859l35.083,7.957s1.073,5.366-3.723,6.805-32.519-3.616-32.519-3.616l-11.991,7.569a7.06,7.06,0,0,0-1.356,10.827h0a7.06,7.06,0,0,0,8.969,1.065Z" transform="translate(967.647 -705.116)" fill="#ffb583"/><path d="M-753.451,860.662l-20.739-21.217,6.349-5.217c1.978,4.365,7.356,13.526,20.216,22.081C-751.113,858.819-753.451,860.662-753.451,860.662Z" transform="translate(967.647 -779.401)" fill="#ffb583"/><g transform="translate(0 53.81)"><path d="M-754.864,859.226c-20.287-11.593-25.478-27.391-25.478-27.391l-8.108,7.542s5.191,15.8,25.478,27.391Z" transform="translate(975.852 -831.835)" fill="#fff"/><path d="M-1016.132,876.557c-51.494,40.921-101.63,91.061-181.186,184.483l-32.448-35.741c82.176-91.156,134.329-140.1,187.223-177.135C-1042.543,848.164-1036.975,864.367-1016.132,876.557Z" transform="translate(1229.766 -841.23)" fill="#26a69a"/></g></g><g transform="translate(222.303)"><g transform="translate(0.038 8.537)"><path d="M-609.176,516.283l27.205,119.666-80.422,43.283-15.362-8.2a4.463,4.463,0,0,1-2.284-2.793L-706.171,553.3l1.16-1.954,15.371,8.2h0Z" transform="translate(706.171 -516.283)" fill="#ffca28"/><path d="M-662.392,726.737l-15.362-8.2a4.464,4.464,0,0,1-2.284-2.793L-706.171,600.8l1.16-1.955,15.371,8.2.082.044Z" transform="translate(706.171 -563.787)" fill="#ffa726"/><path d="M-574.566,569.425l-47.93,25.77a4.1,4.1,0,0,0-2.057,4.521l7.745,34.069a4.1,4.1,0,0,0,5.941,2.7l47.93-25.77a4.1,4.1,0,0,0,2.057-4.521l-7.746-34.069A4.1,4.1,0,0,0-574.566,569.425Z" transform="translate(659.27 -546.576)" fill="#fff"/></g><g transform="translate(6.127 59.893)"><path d="M-691.832,637.224l15.082,66.34,10.842,5.784-15.082-66.34Z" transform="translate(691.832 -637.224)" fill="#4dd0e1"/><path d="M-640.534,840.194c-3.088-1.647-5.057-.638-4.4,2.255s3.694,6.573,6.781,8.22,5.058.638,4.4-2.255S-637.447,841.842-640.534,840.194Z" transform="translate(664.922 -753.549)" fill="#26a69a"/></g><g transform="translate(1.03 1.771)"><path d="M-622.749,500.35l-81.086,44.134,12.437,6.635,81.088-44.134C-613.31,508.6-625.748,501.96-622.749,500.35Z" transform="translate(703.836 -500.35)" fill="#fff"/><path d="M-615.5,507.676l-78.881,42.95.555.3,78.926-42.974Q-615.2,507.815-615.5,507.676Zm-2.031-1.055-78.854,42.936.555.3,78.841-42.928C-617.175,506.824-617.355,506.723-617.533,506.621Zm4.3,1.985L-692.378,551.7l.555.3,79.268-43.157C-612.78,508.764-613.008,508.686-613.237,508.606Zm-6.107-3.159-79.048,43.04.555.3,78.969-43Q-619.115,505.616-619.344,505.447Zm-1.474-1.354L-700.4,547.417l.555.3,79.38-43.218A4.659,4.659,0,0,1-620.818,504.093Z" transform="translate(701.857 -502.504)" fill="#e6e6e6"/></g><path d="M-686.541,608l-4.949.313-11.224-5.988,2-1.886Z" transform="translate(704.22 -556.167)" opacity="0.1" style="mix-blend-mode:multiply;isolation:isolate"/><path d="M-622.853,497.448l-79.783,43.435c-1.019.547-.769,1.568.557,2.276l6.559,3.5a5.132,5.132,0,0,0,4.253.291l79.784-43.435,2.376,1.268-79.783,43.435c-2.029,1.089-5.814.831-8.455-.578l-6.559-3.5c-2.641-1.409-3.138-3.434-1.109-4.523l79.783-43.435Z" transform="translate(706.261 -496.18)" fill="#ffa726"/></g><path d="M-642.75,763.624l-20.025,13.041,4.907,21.586,6.186-16.944c13.623-7.954,11.605-14.619,11.605-14.619Z" transform="translate(903.544 -650.056)" opacity="0.25" style="mix-blend-mode:multiply;isolation:isolate"/><g transform="translate(227.978 103.904)"><path d="M-692.9,797.161c7.411-4.76,12.12-24.158,12.12-24.158s18.112-12.006,22.508-17.975-.829-14.163-.829-14.163L-683.344,756.6a7.06,7.06,0,0,1-8.969-1.065Z" transform="translate(692.896 -740.865)" fill="#ffb583"/></g><path d="M-627.2,743.188h0l-7.616,4.943s1.382,2.883,3.292,2.705S-624.383,747.679-627.2,743.188Z" transform="translate(887.456 -638.298)" fill="#ffd3b5"/></g><path d="M-503.873,566.458-517.95,688.646l21.882-11.777,6.877-80.3-5.59-24.587Z" transform="translate(820.218 -536.615)" opacity="0.15" style="mix-blend-mode:multiply;isolation:isolate"/><g transform="translate(316.345 29.843)"><path d="M0,0H115.256V25.324H0Z" transform="translate(25.324 0) rotate(90)" fill="#039be5"/><rect width="25.324" height="1.883" transform="translate(0 113.373)" fill="#4d39ab"/><rect width="25.324" height="1.883" transform="translate(0 113.373)" fill="#4d39ab"/><rect width="25.324" height="1.883" transform="translate(0 113.373)" fill="#4d39ab"/><path d="M-484.8,770.374v28.664h25.324V770.374C-459.476,774.355-484.8,774.355-484.8,770.374Z" transform="translate(484.8 -683.782)" fill="#1565c0"/><ellipse cx="5.94" cy="5.809" rx="5.94" ry="5.809" transform="translate(6.722 95.887)" fill="#ffca28"/></g><g transform="translate(341.669 18.934)"><g transform="translate(0 0)"><g transform="translate(0 0)"><path d="M0,0H126.165V25.324H0Z" transform="translate(25.324 0) rotate(90)" fill="#1565c0"/><rect width="10.317" height="77.041" transform="translate(7.582 20.692)" fill="#ffca28"/></g></g><rect width="1.223" height="25.324" transform="translate(25.402 105.376) rotate(90)" fill="#ffc440"/><rect width="1.223" height="25.324" transform="translate(25.402 109.656) rotate(90)" fill="#ffc440"/><rect width="1.223" height="25.324" transform="translate(25.402 114.547) rotate(90)" fill="#ffc440"/><path d="M-425.124,666.933h1.779l8.4-126.165h-10.175Z" transform="translate(425.141 -540.768)" opacity="0.15" style="mix-blend-mode:multiply;isolation:isolate"/></g></g><path d="M-1162.656,1025.605c-27.339,12.823-28.743-10.806-28.748-10.875l-.015.016q-3.345,3.572-6.761,7.247l-.226.243q-3.266,3.516-6.6,7.129l-.826.9q-1.559,1.691-3.132,3.4l-1.324,1.441-1.637,1.787-1.723,1.883q-.9.99-1.814,1.986-1.179,1.291-2.366,2.595l-1.2,1.323q-1.328,1.458-2.665,2.932l-.668.735q-1.548,1.707-3.112,3.436l-.936,1.035q-1.648,1.825-3.311,3.668l-.046.05,32.448,35.74q16.781-19.706,31.9-36.939,3.37-3.84,6.667-7.568,4.947-5.593,9.738-10.943,3.195-3.568,6.324-7.032,7.825-8.661,15.266-16.7,2.979-3.22,5.9-6.346,4.386-4.69,8.655-9.18,1.424-1.5,2.835-2.973,2.822-2.952,5.6-5.82c12.028-12.43,23.418-23.71,34.426-34.127q2.54-2.4,5.055-4.748c16.766-15.628,32.725-29.315,48.817-42.1a74.322,74.322,0,0,1-7.919-5.338C-1078.32,941.866-1141.121,1015.5-1162.656,1025.605Z" transform="translate(1435.686 3473.328)" opacity="0.15" style="mix-blend-mode:multiply;isolation:isolate"/></g></g></svg>