<svg xmlns="http://www.w3.org/2000/svg" width="120.123" height="120" viewBox="0 0 120.123 120"><defs><style>.a{fill:#ffa726;}.b{fill:#26a69a;}.c{fill:#4dd0e1;}.d{fill:#ffedb7;}.e{fill:#039be5;}</style></defs><g transform="translate(0 -0.264)"><g transform="translate(1.762 2.022)"><g transform="translate(0 17.794)"><path class="a" d="M39.944,177.691V124h4.64A7.317,7.317,0,0,0,50.92,113.02L36.049,87.266a7.317,7.317,0,0,0-12.673,0L8.5,113.02A7.317,7.317,0,0,0,14.84,124h4.642v53.695a4.6,4.6,0,0,0,4.6,4.6H35.339A4.6,4.6,0,0,0,39.944,177.691Z" transform="translate(-7.513 -83.608)"/><path class="a" d="M28.323,182.3H24.087a4.6,4.6,0,0,1-4.6-4.6V124H14.84a7.315,7.315,0,0,1-6.335-10.976l14.87-25.753a7.248,7.248,0,0,1,6.337-3.656c-1.651,0-3.3,1.218-4.244,3.656l-9.962,25.753C13.617,117.905,15.977,124,19.75,124h1.908a3.58,3.58,0,0,1,3.58,3.58V177.7c0,2.543,1.382,4.605,3.086,4.605Z" transform="translate(-7.513 -83.615)"/></g><g transform="translate(67.741)"><path class="b" d="M318.989,77.966v-41.9h3.251a5.128,5.128,0,0,0,4.441-7.692L316.259,10.326a5.128,5.128,0,0,0-8.882,0L296.955,28.374a5.128,5.128,0,0,0,4.441,7.692h3.253v41.9a3.227,3.227,0,0,0,3.227,3.227h7.886a3.227,3.227,0,0,0,3.227-3.227Z" transform="translate(-296.26 -7.762)"/><path class="b" d="M310.844,81.2h-2.969a3.226,3.226,0,0,1-3.226-3.226V36.07H301.4a5.127,5.127,0,0,1-4.44-7.692l10.421-18.049a5.08,5.08,0,0,1,4.441-2.562c-1.157,0-2.314.853-2.974,2.562l-6.982,18.049c-1.324,3.419.33,7.692,2.974,7.692h1.337a2.509,2.509,0,0,1,2.509,2.509v39.39C308.682,79.752,309.651,81.2,310.844,81.2Z" transform="translate(-296.26 -7.766)"/></g><g transform="translate(18.835 33.967)"><circle class="c" cx="39.464" cy="39.464" r="39.464" transform="translate(0)"/><path class="c" d="M129.793,231.4c-.838.051-1.683.079-2.533.079a39.464,39.464,0,1,1,0-78.928c.85,0,1.7.028,2.533.079a39.467,39.467,0,0,0,0,78.769Z" transform="translate(-87.796 -152.547)"/><circle class="d" cx="30.162" cy="30.162" r="30.162" transform="translate(9.302 9.302)"/><path class="e" d="M197.757,312.069H183.744a3.842,3.842,0,0,1,0-7.685h14.013a3.842,3.842,0,0,1,0,7.685Z" transform="translate(-158.294 -268.762)"/><path class="e" d="M243.475,280.06a3.842,3.842,0,0,1-3.842-3.842v-9.811a3.842,3.842,0,1,1,7.685,0v9.811A3.842,3.842,0,0,1,243.475,280.06Z" transform="translate(-204.011 -236.754)"/></g><g transform="translate(72.199 54.524)"><path class="e" d="M347.694,297.522V280.557h4.64a7.317,7.317,0,0,0,6.337-10.976L343.8,243.827a7.317,7.317,0,0,0-12.673,0l-14.872,25.754a7.317,7.317,0,0,0,6.336,10.976h4.642v16.965a4.6,4.6,0,0,0,4.6,4.6h11.252a4.6,4.6,0,0,0,4.6-4.6Z" transform="translate(-315.262 -240.169)"/><path class="e" d="M336.072,302.133h-4.237a4.6,4.6,0,0,1-4.6-4.6V280.562h-4.644a7.315,7.315,0,0,1-6.335-10.976l14.87-25.753a7.248,7.248,0,0,1,6.337-3.656c-1.651,0-3.3,1.218-4.244,3.656l-9.962,25.753c-1.889,4.879.471,10.976,4.244,10.976h1.908a3.58,3.58,0,0,1,3.58,3.58v13.385C332.987,300.07,334.369,302.133,336.072,302.133Z" transform="translate(-315.262 -240.175)"/></g></g><g transform="translate(-0.001 0.263)"><path d="M192.013,255.063a5.608,5.608,0,0,0-5.6,5.6v4.209H178a5.6,5.6,0,1,0,0,11.2h14.015a5.608,5.608,0,0,0,5.6-5.6v-9.811A5.608,5.608,0,0,0,192.013,255.063Zm-16.1,15.413A2.085,2.085,0,0,1,178,268.393h8.412v2.083a5.572,5.572,0,0,0,.4,2.083H178A2.085,2.085,0,0,1,175.916,270.476Zm18.18,0a2.083,2.083,0,1,1-4.166,0v-9.811a2.083,2.083,0,1,1,4.166,0Z" transform="translate(-131.952 -195.286)"/><path d="M118.893,85.078,104.022,59.324a8.984,8.984,0,0,0-7.86-4.538h0c-.141,0-.28.007-.42.014q-.825-1.422-1.75-2.761V32.087h1.492a6.889,6.889,0,0,0,5.965-10.332l-4.371-7.568a1.759,1.759,0,1,0-3.047,1.76l4.37,7.568a3.37,3.37,0,0,1-2.917,5.053H92.232a1.76,1.76,0,0,0-1.76,1.76v17.3a41.224,41.224,0,0,0-10.822-8.44V30.327a1.76,1.76,0,0,0-1.76-1.76H74.639a3.368,3.368,0,0,1-2.918-5.053L82.146,5.466a3.367,3.367,0,0,1,5.832,0l2.534,4.385a1.759,1.759,0,0,0,3.047-1.761L91.025,3.707a6.886,6.886,0,0,0-11.927,0L68.675,21.754a6.887,6.887,0,0,0,5.965,10.332h1.492v5.4a41.2,41.2,0,0,0-34.945,1.322L31.823,22.594a8.986,8.986,0,0,0-7.861-4.537h0A8.983,8.983,0,0,0,16.1,22.595L1.23,48.347a9.077,9.077,0,0,0,7.86,13.617h2.881V113.9a6.372,6.372,0,0,0,6.365,6.365H29.588a6.372,6.372,0,0,0,6.365-6.365v-5a41.235,41.235,0,0,0,48.218-.007V113.9a6.371,6.371,0,0,0,6.364,6.364h11.252a6.371,6.371,0,0,0,6.364-6.364V98.694h2.88a9.077,9.077,0,0,0,7.861-13.616ZM60.061,113.157A37.608,37.608,0,0,1,31,99.472a1.76,1.76,0,0,0-2.712,2.243,41.616,41.616,0,0,0,4.148,4.332v7.85a2.849,2.849,0,0,1-2.846,2.846H18.337a2.849,2.849,0,0,1-2.846-2.846V60.2a1.76,1.76,0,0,0-1.76-1.76H9.091a5.558,5.558,0,0,1-4.813-8.338L19.15,24.354a5.5,5.5,0,0,1,4.811-2.778h0a5.5,5.5,0,0,1,4.814,2.778l9.358,16.208A41.217,41.217,0,0,0,24.126,95.668a1.76,1.76,0,1,0,3.066-1.728A37.708,37.708,0,0,1,92.175,55.695,9.024,9.024,0,0,0,88.3,59.324l-.346.6a31.929,31.929,0,1,0-6.014,38.77h2.231v5.745a37.682,37.682,0,0,1-24.111,8.718Zm13.367-19A9.013,9.013,0,0,0,77.5,97.874q-.848.662-1.737,1.256l-1.006-1.741a1.759,1.759,0,0,0-3.048,1.76l1.009,1.747a28.205,28.205,0,0,1-10.9,2.907V99.236a1.76,1.76,0,0,0-3.519,0V103.8a28.189,28.189,0,0,1-10.889-2.921l1-1.732a1.759,1.759,0,1,0-3.048-1.76l-1,1.728A28.637,28.637,0,0,1,36.4,91.147l1.727-1a1.759,1.759,0,1,0-1.76-3.048l-1.732,1a28.192,28.192,0,0,1-2.921-10.889h4.565a1.76,1.76,0,1,0,0-3.519H31.713a28.193,28.193,0,0,1,2.921-10.889l1.732,1a1.759,1.759,0,1,0,1.76-3.048l-1.727-1a28.631,28.631,0,0,1,7.969-7.969l1,1.728a1.759,1.759,0,1,0,3.048-1.76l-1-1.732A28.2,28.2,0,0,1,58.3,47.106v4.565a1.76,1.76,0,0,0,3.519,0V47.108a28.36,28.36,0,0,1,10.893,2.911l-1,1.74a1.759,1.759,0,1,0,3.048,1.76l1.007-1.745a28.356,28.356,0,0,1,7.973,7.978l-1.742,1.006a1.759,1.759,0,1,0,1.76,3.048l1.737-1c.124.25.247.5.364.756L73.429,85.078a8.985,8.985,0,0,0,0,9.077ZM115.845,92.4a5.5,5.5,0,0,1-4.813,2.779h-4.64a1.76,1.76,0,0,0-1.76,1.76V113.9a2.848,2.848,0,0,1-2.845,2.845H90.535A2.848,2.848,0,0,1,87.69,113.9V96.934a1.76,1.76,0,0,0-1.76-1.76H81.289a5.558,5.558,0,0,1-4.813-8.337L91.348,61.084a5.558,5.558,0,0,1,9.626,0l14.871,25.754a5.5,5.5,0,0,1,0,5.558Z" transform="translate(0.001 -0.263)"/></g></g></svg>