<svg xmlns="http://www.w3.org/2000/svg" width="824" height="1004" viewBox="0 0 824 1004"><g transform="translate(14813.999 18271)"><path d="M-36.23-3.023a1.127,1.127,0,0,0-.426-.937,5.292,5.292,0,0,0-1.5-.7,14.353,14.353,0,0,1-1.75-.7,3.314,3.314,0,0,1-2.211-2.984A2.676,2.676,0,0,1-41.562-10,3.562,3.562,0,0,1-40-11.129a6.065,6.065,0,0,1,2.266-.4,5.305,5.305,0,0,1,2.2.438,3.482,3.482,0,0,1,1.512,1.246A3.254,3.254,0,0,1-33.488-8h-2.734a1.375,1.375,0,0,0-.426-1.078A1.66,1.66,0,0,0-37.8-9.461a1.872,1.872,0,0,0-1.16.324,1,1,0,0,0-.426.824,1,1,0,0,0,.469.793,5.911,5.911,0,0,0,1.648.734,10.1,10.1,0,0,1,1.938.816,3.256,3.256,0,0,1,1.844,2.93A2.778,2.778,0,0,1-34.613-.7,5,5,0,0,1-37.7.156a6.122,6.122,0,0,1-2.5-.5A3.775,3.775,0,0,1-41.891-1.7a3.542,3.542,0,0,1-.566-1.988h2.75a1.744,1.744,0,0,0,.473,1.348,2.234,2.234,0,0,0,1.535.434A1.765,1.765,0,0,0-36.625-2.2.967.967,0,0,0-36.23-3.023Zm8.117,3.18A4.345,4.345,0,0,1-31.262-1a4.006,4.006,0,0,1-1.2-3.02v-.219a5.191,5.191,0,0,1,.48-2.289,3.516,3.516,0,0,1,1.4-1.535,4.233,4.233,0,0,1,2.188-.543A3.659,3.659,0,0,1-25.582-7.5a4.344,4.344,0,0,1,1.031,3.082V-3.4h-5.234a1.9,1.9,0,0,0,.617,1.117,1.836,1.836,0,0,0,1.234.406A2.366,2.366,0,0,0-25.98-2.75l1.2,1.422A3.363,3.363,0,0,1-26.172-.246,4.713,4.713,0,0,1-28.113.156Zm-.3-6.734q-1.156,0-1.375,1.531h2.656v-.2a1.3,1.3,0,0,0-.32-.98A1.275,1.275,0,0,0-28.41-6.578Zm10.031.508-.867-.062a1.558,1.558,0,0,0-1.594.781V0h-2.633V-8.453H-21l.086,1.086a2.039,2.039,0,0,1,1.852-1.242,2.567,2.567,0,0,1,.734.094Zm4.461,2.938,1.336-5.32h2.773L-12.566,0h-2.687l-2.758-8.453h2.781ZM-6.246,0H-8.887V-8.453h2.641Zm-2.8-10.633a1.175,1.175,0,0,1,.406-.922,1.533,1.533,0,0,1,1.055-.359,1.533,1.533,0,0,1,1.055.359,1.175,1.175,0,0,1,.406.922,1.175,1.175,0,0,1-.406.922,1.533,1.533,0,0,1-1.055.359,1.533,1.533,0,0,1-1.055-.359A1.175,1.175,0,0,1-9.043-10.633Zm7.992,8.758a1.171,1.171,0,0,0,.859-.3,1.1,1.1,0,0,0,.3-.84H2.574a2.922,2.922,0,0,1-1,2.281A3.705,3.705,0,0,1-.988.156,3.751,3.751,0,0,1-3.895-1,4.556,4.556,0,0,1-4.957-4.2v-.109a5.149,5.149,0,0,1,.473-2.262A3.441,3.441,0,0,1-3.121-8.082a4.065,4.065,0,0,1,2.109-.527A3.658,3.658,0,0,1,1.605-7.7a3.242,3.242,0,0,1,.969,2.477H.105a1.445,1.445,0,0,0-.32-1.008,1.106,1.106,0,0,0-.859-.352q-1.023,0-1.2,1.3a9.206,9.206,0,0,0-.055,1.141,3.616,3.616,0,0,0,.3,1.766A1.055,1.055,0,0,0-1.051-1.875ZM6.465,0H3.824V-8.453H6.465Zm-2.8-10.633a1.175,1.175,0,0,1,.406-.922,1.533,1.533,0,0,1,1.055-.359,1.533,1.533,0,0,1,1.055.359,1.175,1.175,0,0,1,.406.922,1.175,1.175,0,0,1-.406.922,1.533,1.533,0,0,1-1.055.359,1.533,1.533,0,0,1-1.055-.359A1.175,1.175,0,0,1,3.668-10.633ZM7.754-4.3a4.989,4.989,0,0,1,.492-2.254A3.52,3.52,0,0,1,9.66-8.078a4.259,4.259,0,0,1,2.164-.531,3.887,3.887,0,0,1,2.992,1.176,4.512,4.512,0,0,1,1.094,3.2v.094A4.378,4.378,0,0,1,14.813-1,3.9,3.9,0,0,1,11.84.156a3.942,3.942,0,0,1-2.9-1.082,4.232,4.232,0,0,1-1.18-2.934Zm2.633.164a3.145,3.145,0,0,0,.367,1.719,1.223,1.223,0,0,0,1.086.547q1.406,0,1.438-2.164V-4.3q0-2.273-1.453-2.273-1.32,0-1.43,1.961ZM21.5-2.375a.608.608,0,0,0-.352-.539,5.348,5.348,0,0,0-1.336-.422,6.092,6.092,0,0,1-1.625-.574,2.722,2.722,0,0,1-.977-.863,2.061,2.061,0,0,1-.336-1.164,2.336,2.336,0,0,1,.961-1.918,3.958,3.958,0,0,1,2.516-.754,4.386,4.386,0,0,1,2.688.758,2.37,2.37,0,0,1,1.016,1.992H21.41q0-1.016-1.07-1.016a1.061,1.061,0,0,0-.7.23.714.714,0,0,0-.281.574.655.655,0,0,0,.344.57,3.248,3.248,0,0,0,1.1.359,9.486,9.486,0,0,1,1.324.336,2.406,2.406,0,0,1,1.906,2.352A2.214,2.214,0,0,1,23.008-.57a4.505,4.505,0,0,1-2.66.727A4.6,4.6,0,0,1,18.41-.234,3.24,3.24,0,0,1,17.082-1.3a2.406,2.406,0,0,1-.477-1.414h2.461a1.017,1.017,0,0,0,.391.855,1.607,1.607,0,0,0,.961.27,1.264,1.264,0,0,0,.809-.219A.7.7,0,0,0,21.5-2.375ZM37.832-9.258H34.418V0H31.676V-9.258H28.324v-2.117h9.508ZM41.91,0H39.176V-11.375H41.91Z" transform="translate(-14746 -18221.969)" fill="#12263f"/><path d="M-24.8-3.859V0h-2.742V-11.375h4.539a5.287,5.287,0,0,1,2.309.48,3.621,3.621,0,0,1,1.555,1.367,3.734,3.734,0,0,1,.551,2.012,3.291,3.291,0,0,1-1.191,2.66,4.943,4.943,0,0,1-3.27,1Zm0-2.117h1.8a1.7,1.7,0,0,0,1.215-.4A1.48,1.48,0,0,0-21.375-7.5a1.83,1.83,0,0,0-.43-1.273,1.522,1.522,0,0,0-1.172-.484H-24.8Zm12.664-.094-.867-.062a1.558,1.558,0,0,0-1.594.781V0h-2.633V-8.453h2.469l.086,1.086a2.039,2.039,0,0,1,1.852-1.242,2.567,2.567,0,0,1,.734.094ZM-11.8-4.3a4.989,4.989,0,0,1,.492-2.254A3.52,3.52,0,0,1-9.9-8.078a4.259,4.259,0,0,1,2.164-.531A3.887,3.887,0,0,1-4.742-7.434a4.512,4.512,0,0,1,1.094,3.2v.094A4.378,4.378,0,0,1-4.746-1,3.9,3.9,0,0,1-7.719.156a3.942,3.942,0,0,1-2.9-1.082A4.232,4.232,0,0,1-11.8-3.859Zm2.633.164A3.145,3.145,0,0,0-8.8-2.422a1.223,1.223,0,0,0,1.086.547q1.406,0,1.438-2.164V-4.3q0-2.273-1.453-2.273-1.32,0-1.43,1.961ZM.766-3.133,2.1-8.453H4.875L2.117,0H-.57L-3.328-8.453H-.547ZM9.75.156A4.345,4.345,0,0,1,6.6-1a4.006,4.006,0,0,1-1.2-3.02v-.219a5.191,5.191,0,0,1,.48-2.289,3.516,3.516,0,0,1,1.4-1.535,4.233,4.233,0,0,1,2.188-.543A3.659,3.659,0,0,1,12.281-7.5a4.344,4.344,0,0,1,1.031,3.082V-3.4H8.078A1.9,1.9,0,0,0,8.7-2.281a1.836,1.836,0,0,0,1.234.406,2.366,2.366,0,0,0,1.953-.875l1.2,1.422A3.363,3.363,0,0,1,11.691-.246,4.713,4.713,0,0,1,9.75.156Zm-.3-6.734q-1.156,0-1.375,1.531h2.656v-.2a1.3,1.3,0,0,0-.32-.98A1.275,1.275,0,0,0,9.453-6.578ZM18.461.156A4.345,4.345,0,0,1,15.313-1a4.006,4.006,0,0,1-1.2-3.02v-.219a5.191,5.191,0,0,1,.48-2.289,3.516,3.516,0,0,1,1.4-1.535,4.233,4.233,0,0,1,2.188-.543A3.659,3.659,0,0,1,20.992-7.5a4.344,4.344,0,0,1,1.031,3.082V-3.4H16.789a1.9,1.9,0,0,0,.617,1.117,1.836,1.836,0,0,0,1.234.406,2.366,2.366,0,0,0,1.953-.875l1.2,1.422A3.363,3.363,0,0,1,20.4-.246,4.713,4.713,0,0,1,18.461.156Zm-.3-6.734q-1.156,0-1.375,1.531h2.656v-.2a1.3,1.3,0,0,0-.32-.98A1.275,1.275,0,0,0,18.164-6.578ZM28.2-6.07l-.867-.062a1.558,1.558,0,0,0-1.594.781V0H23.1V-8.453H25.57l.086,1.086a2.039,2.039,0,0,1,1.852-1.242,2.567,2.567,0,0,1,.734.094ZM-39.246,17.875H-43L-43.66,20h-2.93l4.172-11.375h2.578L-35.637,20h-2.945Zm-3.1-2.117H-39.9l-1.227-3.945Zm15.266.078a5.1,5.1,0,0,1-.887,3.145,2.843,2.843,0,0,1-2.395,1.176,2.437,2.437,0,0,1-1.914-.852V23.25H-34.91v-11.7h2.461l.078.781a2.437,2.437,0,0,1,1.992-.937,2.866,2.866,0,0,1,2.43,1.152,5.16,5.16,0,0,1,.867,3.168Zm-2.633-.164q0-2.25-1.312-2.25a1.239,1.239,0,0,0-1.25.672v3.328a1.279,1.279,0,0,0,1.266.7q1.258,0,1.3-2.172ZM-23.145,20h-2.641V8h2.641Zm4.4,0h-2.641V11.547h2.641Zm-2.8-10.633a1.175,1.175,0,0,1,.406-.922,1.533,1.533,0,0,1,1.055-.359,1.533,1.533,0,0,1,1.055.359,1.175,1.175,0,0,1,.406.922,1.175,1.175,0,0,1-.406.922,1.533,1.533,0,0,1-1.055.359,1.533,1.533,0,0,1-1.055-.359A1.175,1.175,0,0,1-21.543,9.367Zm7.992,8.758a1.171,1.171,0,0,0,.859-.3,1.1,1.1,0,0,0,.3-.84h2.469a2.922,2.922,0,0,1-1,2.281,3.705,3.705,0,0,1-2.566.891A3.751,3.751,0,0,1-16.395,19a4.556,4.556,0,0,1-1.062-3.2v-.109a5.149,5.149,0,0,1,.473-2.262,3.441,3.441,0,0,1,1.363-1.508,4.065,4.065,0,0,1,2.109-.527,3.658,3.658,0,0,1,2.617.914,3.242,3.242,0,0,1,.969,2.477h-2.469a1.445,1.445,0,0,0-.32-1.008,1.106,1.106,0,0,0-.859-.352q-1.023,0-1.2,1.3a9.206,9.206,0,0,0-.055,1.141,3.616,3.616,0,0,0,.3,1.766A1.055,1.055,0,0,0-13.551,18.125ZM-4.051,20a2.973,2.973,0,0,1-.25-.758,2.448,2.448,0,0,1-2.031.914,3,3,0,0,1-2.031-.723A2.3,2.3,0,0,1-9.2,17.617a2.364,2.364,0,0,1,1.016-2.078,5.174,5.174,0,0,1,2.953-.7h.813v-.445q0-1.164-1.008-1.164a.822.822,0,0,0-.937.922H-9a2.364,2.364,0,0,1,1.043-1.992,4.379,4.379,0,0,1,2.66-.766,3.843,3.843,0,0,1,2.555.789,2.743,2.743,0,0,1,.961,2.164v3.742a3.832,3.832,0,0,0,.359,1.781V20ZM-5.7,18.281a1.469,1.469,0,0,0,.816-.211,1.322,1.322,0,0,0,.465-.477V16.242h-.766q-1.375,0-1.375,1.234a.754.754,0,0,0,.242.582A.876.876,0,0,0-5.7,18.281Zm8.953-.156a1.171,1.171,0,0,0,.859-.3,1.1,1.1,0,0,0,.3-.84H6.879a2.922,2.922,0,0,1-1,2.281,3.705,3.705,0,0,1-2.566.891A3.751,3.751,0,0,1,.41,19,4.556,4.556,0,0,1-.652,15.8v-.109A5.149,5.149,0,0,1-.18,13.426a3.441,3.441,0,0,1,1.363-1.508,4.065,4.065,0,0,1,2.109-.527A3.658,3.658,0,0,1,5.91,12.3a3.242,3.242,0,0,1,.969,2.477H4.41a1.445,1.445,0,0,0-.32-1.008,1.106,1.106,0,0,0-.859-.352q-1.023,0-1.2,1.3a9.206,9.206,0,0,0-.055,1.141,3.616,3.616,0,0,0,.3,1.766A1.055,1.055,0,0,0,3.254,18.125ZM10.77,20H8.129V11.547H10.77ZM7.973,9.367a1.175,1.175,0,0,1,.406-.922,1.533,1.533,0,0,1,1.055-.359,1.533,1.533,0,0,1,1.055.359,1.249,1.249,0,0,1,0,1.844,1.533,1.533,0,0,1-1.055.359,1.533,1.533,0,0,1-1.055-.359A1.175,1.175,0,0,1,7.973,9.367ZM12.059,15.7a4.989,4.989,0,0,1,.492-2.254,3.52,3.52,0,0,1,1.414-1.52,4.259,4.259,0,0,1,2.164-.531,3.887,3.887,0,0,1,2.992,1.176,4.512,4.512,0,0,1,1.094,3.2v.094A4.378,4.378,0,0,1,19.117,19a3.9,3.9,0,0,1-2.973,1.16,3.942,3.942,0,0,1-2.9-1.082,4.232,4.232,0,0,1-1.18-2.934Zm2.633.164a3.145,3.145,0,0,0,.367,1.719,1.223,1.223,0,0,0,1.086.547q1.406,0,1.438-2.164V15.7q0-2.273-1.453-2.273-1.32,0-1.43,1.961Zm9.1-4.312.086.992a2.867,2.867,0,0,1,2.414-1.148,2.412,2.412,0,0,1,1.973.789,3.757,3.757,0,0,1,.676,2.375V20H26.3V14.664a1.426,1.426,0,0,0-.258-.941,1.193,1.193,0,0,0-.937-.3,1.256,1.256,0,0,0-1.148.609V20H21.324V11.547Zm10.7,8.609A4.345,4.345,0,0,1,31.34,19a4.006,4.006,0,0,1-1.2-3.02v-.219a5.191,5.191,0,0,1,.48-2.289,3.516,3.516,0,0,1,1.4-1.535,4.233,4.233,0,0,1,2.188-.543A3.659,3.659,0,0,1,37.02,12.5a4.344,4.344,0,0,1,1.031,3.082V16.6H32.816a1.9,1.9,0,0,0,.617,1.117,1.836,1.836,0,0,0,1.234.406,2.366,2.366,0,0,0,1.953-.875l1.2,1.422a3.363,3.363,0,0,1-1.395,1.082A4.713,4.713,0,0,1,34.488,20.156Zm-.3-6.734q-1.156,0-1.375,1.531h2.656v-.2a1.3,1.3,0,0,0-.32-.98A1.275,1.275,0,0,0,34.191,13.422Zm9.344,4.2a.608.608,0,0,0-.352-.539,5.348,5.348,0,0,0-1.336-.422,6.092,6.092,0,0,1-1.625-.574,2.722,2.722,0,0,1-.977-.863,2.061,2.061,0,0,1-.336-1.164,2.336,2.336,0,0,1,.961-1.918,3.958,3.958,0,0,1,2.516-.754,4.386,4.386,0,0,1,2.688.758,2.37,2.37,0,0,1,1.016,1.992H43.449q0-1.016-1.07-1.016a1.061,1.061,0,0,0-.7.23.714.714,0,0,0-.281.574.655.655,0,0,0,.344.57,3.248,3.248,0,0,0,1.1.359,9.485,9.485,0,0,1,1.324.336,2.406,2.406,0,0,1,1.906,2.352,2.214,2.214,0,0,1-1.027,1.883,4.505,4.505,0,0,1-2.66.727,4.6,4.6,0,0,1-1.937-.391A3.24,3.24,0,0,1,39.121,18.7a2.406,2.406,0,0,1-.477-1.414h2.461a1.017,1.017,0,0,0,.391.855,1.607,1.607,0,0,0,.961.27,1.264,1.264,0,0,0,.809-.219A.7.7,0,0,0,43.535,17.625Z" transform="translate(-14505.175 -18163.969)" fill="#12263f"/><path d="M-24.8-3.859V0h-2.742V-11.375h4.539a5.287,5.287,0,0,1,2.309.48,3.621,3.621,0,0,1,1.555,1.367,3.734,3.734,0,0,1,.551,2.012,3.291,3.291,0,0,1-1.191,2.66,4.943,4.943,0,0,1-3.27,1Zm0-2.117h1.8a1.7,1.7,0,0,0,1.215-.4A1.48,1.48,0,0,0-21.375-7.5a1.83,1.83,0,0,0-.43-1.273,1.522,1.522,0,0,0-1.172-.484H-24.8Zm12.664-.094-.867-.062a1.558,1.558,0,0,0-1.594.781V0h-2.633V-8.453h2.469l.086,1.086a2.039,2.039,0,0,1,1.852-1.242,2.567,2.567,0,0,1,.734.094ZM-11.8-4.3a4.989,4.989,0,0,1,.492-2.254A3.52,3.52,0,0,1-9.9-8.078a4.259,4.259,0,0,1,2.164-.531A3.887,3.887,0,0,1-4.742-7.434a4.512,4.512,0,0,1,1.094,3.2v.094A4.378,4.378,0,0,1-4.746-1,3.9,3.9,0,0,1-7.719.156a3.942,3.942,0,0,1-2.9-1.082A4.232,4.232,0,0,1-11.8-3.859Zm2.633.164A3.145,3.145,0,0,0-8.8-2.422a1.223,1.223,0,0,0,1.086.547q1.406,0,1.438-2.164V-4.3q0-2.273-1.453-2.273-1.32,0-1.43,1.961ZM.766-3.133,2.1-8.453H4.875L2.117,0H-.57L-3.328-8.453H-.547ZM9.75.156A4.345,4.345,0,0,1,6.6-1a4.006,4.006,0,0,1-1.2-3.02v-.219a5.191,5.191,0,0,1,.48-2.289,3.516,3.516,0,0,1,1.4-1.535,4.233,4.233,0,0,1,2.188-.543A3.659,3.659,0,0,1,12.281-7.5a4.344,4.344,0,0,1,1.031,3.082V-3.4H8.078A1.9,1.9,0,0,0,8.7-2.281a1.836,1.836,0,0,0,1.234.406,2.366,2.366,0,0,0,1.953-.875l1.2,1.422A3.363,3.363,0,0,1,11.691-.246,4.713,4.713,0,0,1,9.75.156Zm-.3-6.734q-1.156,0-1.375,1.531h2.656v-.2a1.3,1.3,0,0,0-.32-.98A1.275,1.275,0,0,0,9.453-6.578ZM18.461.156A4.345,4.345,0,0,1,15.313-1a4.006,4.006,0,0,1-1.2-3.02v-.219a5.191,5.191,0,0,1,.48-2.289,3.516,3.516,0,0,1,1.4-1.535,4.233,4.233,0,0,1,2.188-.543A3.659,3.659,0,0,1,20.992-7.5a4.344,4.344,0,0,1,1.031,3.082V-3.4H16.789a1.9,1.9,0,0,0,.617,1.117,1.836,1.836,0,0,0,1.234.406,2.366,2.366,0,0,0,1.953-.875l1.2,1.422A3.363,3.363,0,0,1,20.4-.246,4.713,4.713,0,0,1,18.461.156Zm-.3-6.734q-1.156,0-1.375,1.531h2.656v-.2a1.3,1.3,0,0,0-.32-.98A1.275,1.275,0,0,0,18.164-6.578ZM28.2-6.07l-.867-.062a1.558,1.558,0,0,0-1.594.781V0H23.1V-8.453H25.57l.086,1.086a2.039,2.039,0,0,1,1.852-1.242,2.567,2.567,0,0,1,.734.094Zm-58.9,23.047a1.127,1.127,0,0,0-.426-.937,5.292,5.292,0,0,0-1.5-.7,14.353,14.353,0,0,1-1.75-.7,3.314,3.314,0,0,1-2.211-2.984A2.676,2.676,0,0,1-36.039,10,3.562,3.562,0,0,1-34.48,8.871a6.065,6.065,0,0,1,2.266-.4,5.305,5.305,0,0,1,2.2.438A3.482,3.482,0,0,1-28.5,10.152,3.254,3.254,0,0,1-27.965,12H-30.7a1.375,1.375,0,0,0-.426-1.078,1.66,1.66,0,0,0-1.152-.383,1.872,1.872,0,0,0-1.16.324,1,1,0,0,0-.426.824,1,1,0,0,0,.469.793,5.911,5.911,0,0,0,1.648.734,10.1,10.1,0,0,1,1.938.816,3.256,3.256,0,0,1,1.844,2.93A2.778,2.778,0,0,1-29.09,19.3a5,5,0,0,1-3.086.852,6.122,6.122,0,0,1-2.5-.5A3.775,3.775,0,0,1-36.367,18.3a3.542,3.542,0,0,1-.566-1.988h2.75a1.744,1.744,0,0,0,.473,1.348,2.234,2.234,0,0,0,1.535.434A1.765,1.765,0,0,0-31.1,17.8.967.967,0,0,0-30.707,16.977Zm6.516-5.43.086.992a2.906,2.906,0,0,1,2.414-1.148,2.14,2.14,0,0,1,2.164,1.273,2.813,2.813,0,0,1,2.484-1.273q2.57,0,2.641,3.109V20h-2.641V14.664a1.611,1.611,0,0,0-.219-.945.931.931,0,0,0-.8-.3,1.247,1.247,0,0,0-1.164.7l.008.109V20h-2.641V14.68a1.694,1.694,0,0,0-.211-.961.929.929,0,0,0-.8-.3,1.263,1.263,0,0,0-1.156.7V20H-26.66V11.547ZM-8.137,20a2.973,2.973,0,0,1-.25-.758,2.448,2.448,0,0,1-2.031.914,3,3,0,0,1-2.031-.723,2.3,2.3,0,0,1-.836-1.816,2.364,2.364,0,0,1,1.016-2.078,5.174,5.174,0,0,1,2.953-.7H-8.5v-.445q0-1.164-1.008-1.164a.822.822,0,0,0-.937.922h-2.633a2.364,2.364,0,0,1,1.043-1.992,4.379,4.379,0,0,1,2.66-.766,3.843,3.843,0,0,1,2.555.789,2.743,2.743,0,0,1,.961,2.164v3.742A3.832,3.832,0,0,0-5.5,19.867V20Zm-1.648-1.719a1.469,1.469,0,0,0,.816-.211,1.322,1.322,0,0,0,.465-.477V16.242H-9.27q-1.375,0-1.375,1.234a.754.754,0,0,0,.242.582A.876.876,0,0,0-9.785,18.281ZM.707,13.93l-.867-.062a1.558,1.558,0,0,0-1.594.781V20H-4.387V11.547h2.469l.086,1.086A2.039,2.039,0,0,1,.02,11.391a2.567,2.567,0,0,1,.734.094ZM5.113,9.445v2.1H6.5v1.828H5.113v3.867a.987.987,0,0,0,.172.664.922.922,0,0,0,.68.188,3.862,3.862,0,0,0,.656-.047V19.93a4.859,4.859,0,0,1-1.484.227,2.758,2.758,0,0,1-2.008-.641A2.626,2.626,0,0,1,2.48,17.57v-4.2H1.4V11.547H2.48v-2.1Zm9.6,5.734H10.4v2.711H15.5V20H7.66V8.625h7.852v2.117H10.4v2.4h4.313ZM26.121,20H23.395V15.25H19.355V20H16.613V8.625h2.742v4.516h4.039V8.625h2.727Zm5.961-4.016H30.6V20H27.855V8.625h4.477a4.993,4.993,0,0,1,3.164.9,3.046,3.046,0,0,1,1.141,2.539,3.7,3.7,0,0,1-.48,1.969,3.411,3.411,0,0,1-1.5,1.266l2.375,4.586V20H34.09ZM30.6,13.867h1.734a1.559,1.559,0,0,0,1.176-.41,1.583,1.583,0,0,0,.395-1.145,1.6,1.6,0,0,0-.4-1.152,1.544,1.544,0,0,0-1.172-.418H30.6Z" transform="translate(-14285.175 -18093.969)" fill="#12263f"/><path d="M-26.41-5.453a6.708,6.708,0,0,1-.617,2.945A4.561,4.561,0,0,1-28.781-.535a4.884,4.884,0,0,1-2.59.691,4.953,4.953,0,0,1-2.578-.668A4.554,4.554,0,0,1-35.7-2.422a6.515,6.515,0,0,1-.66-2.852v-.641a6.737,6.737,0,0,1,.613-2.949,4.55,4.55,0,0,1,1.758-1.973,4.918,4.918,0,0,1,2.605-.7,4.87,4.87,0,0,1,2.578.688,4.632,4.632,0,0,1,1.762,1.957,6.544,6.544,0,0,1,.637,2.91ZM-29.2-5.93A4.783,4.783,0,0,0-29.766-8.5a1.817,1.817,0,0,0-1.621-.879q-2.062,0-2.18,3.094l-.008.836a4.92,4.92,0,0,0,.555,2.57,1.814,1.814,0,0,0,1.648.9,1.792,1.792,0,0,0,1.6-.883,4.785,4.785,0,0,0,.57-2.539Zm11.93,1.766a5.1,5.1,0,0,1-.887,3.145A2.843,2.843,0,0,1-20.551.156,2.437,2.437,0,0,1-22.465-.7V3.25H-25.1v-11.7h2.461l.078.781a2.437,2.437,0,0,1,1.992-.937,2.866,2.866,0,0,1,2.43,1.152,5.16,5.16,0,0,1,.867,3.168ZM-19.9-4.328q0-2.25-1.312-2.25a1.239,1.239,0,0,0-1.25.672v3.328a1.279,1.279,0,0,0,1.266.7q1.258,0,1.3-2.172ZM-12.02.156A4.345,4.345,0,0,1-15.168-1a4.006,4.006,0,0,1-1.2-3.02v-.219a5.191,5.191,0,0,1,.48-2.289,3.516,3.516,0,0,1,1.4-1.535A4.233,4.233,0,0,1-12.3-8.609,3.659,3.659,0,0,1-9.488-7.5,4.344,4.344,0,0,1-8.457-4.422V-3.4h-5.234a1.9,1.9,0,0,0,.617,1.117,1.836,1.836,0,0,0,1.234.406A2.366,2.366,0,0,0-9.887-2.75l1.2,1.422A3.363,3.363,0,0,1-10.078-.246,4.713,4.713,0,0,1-12.02.156Zm-.3-6.734q-1.156,0-1.375,1.531h2.656v-.2a1.3,1.3,0,0,0-.32-.98A1.275,1.275,0,0,0-12.316-6.578Zm10.031.508-.867-.062a1.558,1.558,0,0,0-1.594.781V0H-7.379V-8.453H-4.91l.086,1.086A2.039,2.039,0,0,1-2.973-8.609a2.567,2.567,0,0,1,.734.094ZM3.191,0a2.973,2.973,0,0,1-.25-.758A2.448,2.448,0,0,1,.91.156,3,3,0,0,1-1.121-.566a2.3,2.3,0,0,1-.836-1.816A2.364,2.364,0,0,1-.941-4.461a5.174,5.174,0,0,1,2.953-.7h.813v-.445q0-1.164-1.008-1.164a.822.822,0,0,0-.937.922H-1.754A2.364,2.364,0,0,1-.711-7.844a4.379,4.379,0,0,1,2.66-.766A3.843,3.843,0,0,1,4.5-7.82a2.743,2.743,0,0,1,.961,2.164v3.742A3.832,3.832,0,0,0,5.824-.133V0ZM1.543-1.719a1.469,1.469,0,0,0,.816-.211,1.322,1.322,0,0,0,.465-.477V-3.758H2.059Q.684-3.758.684-2.523a.754.754,0,0,0,.242.582A.876.876,0,0,0,1.543-1.719ZM10.5-1.875a1.171,1.171,0,0,0,.859-.3,1.1,1.1,0,0,0,.3-.84h2.469a2.922,2.922,0,0,1-1,2.281,3.705,3.705,0,0,1-2.566.891A3.751,3.751,0,0,1,7.652-1,4.556,4.556,0,0,1,6.59-4.2v-.109a5.149,5.149,0,0,1,.473-2.262A3.441,3.441,0,0,1,8.426-8.082a4.065,4.065,0,0,1,2.109-.527,3.658,3.658,0,0,1,2.617.914,3.242,3.242,0,0,1,.969,2.477H11.652a1.445,1.445,0,0,0-.32-1.008,1.106,1.106,0,0,0-.859-.352q-1.023,0-1.2,1.3a9.206,9.206,0,0,0-.055,1.141,3.616,3.616,0,0,0,.3,1.766A1.055,1.055,0,0,0,10.5-1.875ZM18.012,0H15.371V-8.453h2.641Zm-2.8-10.633a1.175,1.175,0,0,1,.406-.922,1.533,1.533,0,0,1,1.055-.359,1.533,1.533,0,0,1,1.055.359,1.175,1.175,0,0,1,.406.922,1.175,1.175,0,0,1-.406.922,1.533,1.533,0,0,1-1.055.359,1.533,1.533,0,0,1-1.055-.359A1.175,1.175,0,0,1,15.215-10.633ZM19.3-4.3a4.989,4.989,0,0,1,.492-2.254,3.52,3.52,0,0,1,1.414-1.52,4.259,4.259,0,0,1,2.164-.531,3.887,3.887,0,0,1,2.992,1.176,4.512,4.512,0,0,1,1.094,3.2v.094A4.378,4.378,0,0,1,26.359-1,3.9,3.9,0,0,1,23.387.156a3.942,3.942,0,0,1-2.9-1.082,4.232,4.232,0,0,1-1.18-2.934Zm2.633.164A3.145,3.145,0,0,0,22.3-2.422a1.223,1.223,0,0,0,1.086.547q1.406,0,1.438-2.164V-4.3q0-2.273-1.453-2.273-1.32,0-1.43,1.961ZM23.73-12h2.781L24.34-9.547H22.191Zm7.3,3.547.086.992a2.867,2.867,0,0,1,2.414-1.148,2.412,2.412,0,0,1,1.973.789,3.757,3.757,0,0,1,.676,2.375V0H33.543V-5.336a1.426,1.426,0,0,0-.258-.941,1.193,1.193,0,0,0-.937-.3,1.256,1.256,0,0,0-1.148.609V0H28.566V-8.453Zm-52.6,17.078,2.539,7.914,2.531-7.914h3.609V20h-2.75V17.344l.266-5.437L-18.117,20H-19.93l-2.758-8.1.266,5.445V20h-2.742V8.625Zm13.68,7.688,1.406-4.766h2.82L-7.1,21.414l-.148.359a2.617,2.617,0,0,1-2.594,1.641,4.111,4.111,0,0,1-1.086-.156V21.375h.344a1.8,1.8,0,0,0,.848-.16.972.972,0,0,0,.434-.574l.211-.562-2.937-8.531h2.813Zm10.9.664a1.127,1.127,0,0,0-.426-.937,5.292,5.292,0,0,0-1.5-.7,14.353,14.353,0,0,1-1.75-.7,3.314,3.314,0,0,1-2.211-2.984A2.676,2.676,0,0,1-2.316,10,3.562,3.562,0,0,1-.758,8.871a6.065,6.065,0,0,1,2.266-.4,5.305,5.305,0,0,1,2.2.438,3.482,3.482,0,0,1,1.512,1.246A3.254,3.254,0,0,1,5.758,12H3.023A1.375,1.375,0,0,0,2.6,10.922a1.66,1.66,0,0,0-1.152-.383,1.872,1.872,0,0,0-1.16.324A.955.955,0,0,0,.328,12.48a5.911,5.911,0,0,0,1.648.734,10.1,10.1,0,0,1,1.938.816,3.256,3.256,0,0,1,1.844,2.93A2.778,2.778,0,0,1,4.633,19.3a5,5,0,0,1-3.086.852,6.122,6.122,0,0,1-2.5-.5A3.775,3.775,0,0,1-2.645,18.3a3.542,3.542,0,0,1-.566-1.988h2.75A1.744,1.744,0,0,0,.012,17.66a2.234,2.234,0,0,0,1.535.434A1.765,1.765,0,0,0,2.621,17.8.967.967,0,0,0,3.016,16.977Zm13.8-2.43a6.722,6.722,0,0,1-.523,2.754,4.787,4.787,0,0,1-1.445,1.887l1.836,1.453-1.7,1.438-2.445-1.969a5.083,5.083,0,0,1-.687.047,4.93,4.93,0,0,1-2.578-.672A4.57,4.57,0,0,1,7.52,17.563a6.527,6.527,0,0,1-.652-2.875v-.6a6.731,6.731,0,0,1,.613-2.953A4.57,4.57,0,0,1,9.23,9.164a4.892,4.892,0,0,1,2.605-.7,4.87,4.87,0,0,1,2.578.688,4.632,4.632,0,0,1,1.762,1.957,6.544,6.544,0,0,1,.637,2.91Zm-2.789-.477a4.783,4.783,0,0,0-.566-2.574,1.817,1.817,0,0,0-1.621-.879,1.8,1.8,0,0,0-1.633.867,4.845,4.845,0,0,0-.555,2.539v.523a4.916,4.916,0,0,0,.555,2.574,1.816,1.816,0,0,0,1.648.895,1.79,1.79,0,0,0,1.605-.883,4.813,4.813,0,0,0,.566-2.539Zm6.93,3.82h4.773V20H18.211V8.625h2.742Z" transform="translate(-14059 -18023.969)" fill="#12263f"/><path d="M-26.41-5.453a6.708,6.708,0,0,1-.617,2.945A4.561,4.561,0,0,1-28.781-.535a4.884,4.884,0,0,1-2.59.691,4.953,4.953,0,0,1-2.578-.668A4.554,4.554,0,0,1-35.7-2.422a6.515,6.515,0,0,1-.66-2.852v-.641a6.737,6.737,0,0,1,.613-2.949,4.55,4.55,0,0,1,1.758-1.973,4.918,4.918,0,0,1,2.605-.7,4.87,4.87,0,0,1,2.578.688,4.632,4.632,0,0,1,1.762,1.957,6.544,6.544,0,0,1,.637,2.91ZM-29.2-5.93A4.783,4.783,0,0,0-29.766-8.5a1.817,1.817,0,0,0-1.621-.879q-2.062,0-2.18,3.094l-.008.836a4.92,4.92,0,0,0,.555,2.57,1.814,1.814,0,0,0,1.648.9,1.792,1.792,0,0,0,1.6-.883,4.785,4.785,0,0,0,.57-2.539Zm11.93,1.766a5.1,5.1,0,0,1-.887,3.145A2.843,2.843,0,0,1-20.551.156,2.437,2.437,0,0,1-22.465-.7V3.25H-25.1v-11.7h2.461l.078.781a2.437,2.437,0,0,1,1.992-.937,2.866,2.866,0,0,1,2.43,1.152,5.16,5.16,0,0,1,.867,3.168ZM-19.9-4.328q0-2.25-1.312-2.25a1.239,1.239,0,0,0-1.25.672v3.328a1.279,1.279,0,0,0,1.266.7q1.258,0,1.3-2.172ZM-12.02.156A4.345,4.345,0,0,1-15.168-1a4.006,4.006,0,0,1-1.2-3.02v-.219a5.191,5.191,0,0,1,.48-2.289,3.516,3.516,0,0,1,1.4-1.535A4.233,4.233,0,0,1-12.3-8.609,3.659,3.659,0,0,1-9.488-7.5,4.344,4.344,0,0,1-8.457-4.422V-3.4h-5.234a1.9,1.9,0,0,0,.617,1.117,1.836,1.836,0,0,0,1.234.406A2.366,2.366,0,0,0-9.887-2.75l1.2,1.422A3.363,3.363,0,0,1-10.078-.246,4.713,4.713,0,0,1-12.02.156Zm-.3-6.734q-1.156,0-1.375,1.531h2.656v-.2a1.3,1.3,0,0,0-.32-.98A1.275,1.275,0,0,0-12.316-6.578Zm10.031.508-.867-.062a1.558,1.558,0,0,0-1.594.781V0H-7.379V-8.453H-4.91l.086,1.086A2.039,2.039,0,0,1-2.973-8.609a2.567,2.567,0,0,1,.734.094ZM3.191,0a2.973,2.973,0,0,1-.25-.758A2.448,2.448,0,0,1,.91.156,3,3,0,0,1-1.121-.566a2.3,2.3,0,0,1-.836-1.816A2.364,2.364,0,0,1-.941-4.461a5.174,5.174,0,0,1,2.953-.7h.813v-.445q0-1.164-1.008-1.164a.822.822,0,0,0-.937.922H-1.754A2.364,2.364,0,0,1-.711-7.844a4.379,4.379,0,0,1,2.66-.766A3.843,3.843,0,0,1,4.5-7.82a2.743,2.743,0,0,1,.961,2.164v3.742A3.832,3.832,0,0,0,5.824-.133V0ZM1.543-1.719a1.469,1.469,0,0,0,.816-.211,1.322,1.322,0,0,0,.465-.477V-3.758H2.059Q.684-3.758.684-2.523a.754.754,0,0,0,.242.582A.876.876,0,0,0,1.543-1.719ZM10.5-1.875a1.171,1.171,0,0,0,.859-.3,1.1,1.1,0,0,0,.3-.84h2.469a2.922,2.922,0,0,1-1,2.281,3.705,3.705,0,0,1-2.566.891A3.751,3.751,0,0,1,7.652-1,4.556,4.556,0,0,1,6.59-4.2v-.109a5.149,5.149,0,0,1,.473-2.262A3.441,3.441,0,0,1,8.426-8.082a4.065,4.065,0,0,1,2.109-.527,3.658,3.658,0,0,1,2.617.914,3.242,3.242,0,0,1,.969,2.477H11.652a1.445,1.445,0,0,0-.32-1.008,1.106,1.106,0,0,0-.859-.352q-1.023,0-1.2,1.3a9.206,9.206,0,0,0-.055,1.141,3.616,3.616,0,0,0,.3,1.766A1.055,1.055,0,0,0,10.5-1.875ZM18.012,0H15.371V-8.453h2.641Zm-2.8-10.633a1.175,1.175,0,0,1,.406-.922,1.533,1.533,0,0,1,1.055-.359,1.533,1.533,0,0,1,1.055.359,1.175,1.175,0,0,1,.406.922,1.175,1.175,0,0,1-.406.922,1.533,1.533,0,0,1-1.055.359,1.533,1.533,0,0,1-1.055-.359A1.175,1.175,0,0,1,15.215-10.633ZM19.3-4.3a4.989,4.989,0,0,1,.492-2.254,3.52,3.52,0,0,1,1.414-1.52,4.259,4.259,0,0,1,2.164-.531,3.887,3.887,0,0,1,2.992,1.176,4.512,4.512,0,0,1,1.094,3.2v.094A4.378,4.378,0,0,1,26.359-1,3.9,3.9,0,0,1,23.387.156a3.942,3.942,0,0,1-2.9-1.082,4.232,4.232,0,0,1-1.18-2.934Zm2.633.164A3.145,3.145,0,0,0,22.3-2.422a1.223,1.223,0,0,0,1.086.547q1.406,0,1.438-2.164V-4.3q0-2.273-1.453-2.273-1.32,0-1.43,1.961ZM23.73-12h2.781L24.34-9.547H22.191Zm7.3,3.547.086.992a2.867,2.867,0,0,1,2.414-1.148,2.412,2.412,0,0,1,1.973.789,3.757,3.757,0,0,1,.676,2.375V0H33.543V-5.336a1.426,1.426,0,0,0-.258-.941,1.193,1.193,0,0,0-.937-.3,1.256,1.256,0,0,0-1.148.609V0H28.566V-8.453Zm-62.926,25.9a1.5,1.5,0,0,1,1.039.371,1.218,1.218,0,0,1,.414.949,1.218,1.218,0,0,1-.414.949,1.5,1.5,0,0,1-1.039.371,1.486,1.486,0,0,1-1.043-.375,1.226,1.226,0,0,1-.41-.945,1.226,1.226,0,0,1,.41-.945A1.486,1.486,0,0,1-31.891,17.445ZM-19.062,20h-2.727l-4.031-7.078V20h-2.742V8.625h2.742L-21.8,15.7V8.625h2.734Zm5.7.156A4.345,4.345,0,0,1-16.508,19a4.006,4.006,0,0,1-1.2-3.02v-.219a5.191,5.191,0,0,1,.48-2.289,3.516,3.516,0,0,1,1.4-1.535,4.233,4.233,0,0,1,2.188-.543A3.659,3.659,0,0,1-10.828,12.5,4.344,4.344,0,0,1-9.8,15.578V16.6h-5.234a1.9,1.9,0,0,0,.617,1.117,1.836,1.836,0,0,0,1.234.406,2.366,2.366,0,0,0,1.953-.875l1.2,1.422a3.363,3.363,0,0,1-1.395,1.082A4.713,4.713,0,0,1-13.359,20.156Zm-.3-6.734q-1.156,0-1.375,1.531h2.656v-.2a1.3,1.3,0,0,0-.32-.98A1.275,1.275,0,0,0-13.656,13.422Zm7.984-3.977v2.1h1.391v1.828H-5.672v3.867a.987.987,0,0,0,.172.664.922.922,0,0,0,.68.188,3.862,3.862,0,0,0,.656-.047V19.93a4.859,4.859,0,0,1-1.484.227,2.758,2.758,0,0,1-2.008-.641A2.626,2.626,0,0,1-8.3,17.57v-4.2H-9.383V11.547H-8.3v-2.1Zm15.734,6.7a4.154,4.154,0,0,1-.641,2.1,3.866,3.866,0,0,1-1.645,1.41,5.6,5.6,0,0,1-2.418.5A4.467,4.467,0,0,1,1.828,18.7,6.032,6.032,0,0,1,.539,14.57v-.562a6.885,6.885,0,0,1,.582-2.926A4.41,4.41,0,0,1,2.8,9.145a4.676,4.676,0,0,1,2.531-.684,4.9,4.9,0,0,1,3.328,1.09,4.306,4.306,0,0,1,1.43,3H7.352a2.037,2.037,0,0,0-.523-1.492,2.153,2.153,0,0,0-1.5-.453,1.638,1.638,0,0,0-1.5.766,4.921,4.921,0,0,0-.5,2.445v.8a5.445,5.445,0,0,0,.457,2.6,1.672,1.672,0,0,0,1.574.781A2.106,2.106,0,0,0,6.8,17.563a1.89,1.89,0,0,0,.531-1.414Zm.844-.453a4.989,4.989,0,0,1,.492-2.254,3.52,3.52,0,0,1,1.414-1.52,4.259,4.259,0,0,1,2.164-.531,3.887,3.887,0,0,1,2.992,1.176,4.512,4.512,0,0,1,1.094,3.2v.094A4.378,4.378,0,0,1,17.965,19a3.9,3.9,0,0,1-2.973,1.16,3.942,3.942,0,0,1-2.9-1.082,4.232,4.232,0,0,1-1.18-2.934Zm2.633.164a3.145,3.145,0,0,0,.367,1.719,1.223,1.223,0,0,0,1.086.547q1.406,0,1.438-2.164V15.7q0-2.273-1.453-2.273-1.32,0-1.43,1.961Zm11.8-1.93-.867-.062a1.558,1.558,0,0,0-1.594.781V20H20.242V11.547h2.469l.086,1.086a2.039,2.039,0,0,1,1.852-1.242,2.567,2.567,0,0,1,.734.094Zm5.039,6.227A4.345,4.345,0,0,1,27.227,19a4.006,4.006,0,0,1-1.2-3.02v-.219a5.191,5.191,0,0,1,.48-2.289,3.516,3.516,0,0,1,1.4-1.535,4.233,4.233,0,0,1,2.188-.543A3.659,3.659,0,0,1,32.906,12.5a4.344,4.344,0,0,1,1.031,3.082V16.6H28.7a1.9,1.9,0,0,0,.617,1.117,1.836,1.836,0,0,0,1.234.406,2.366,2.366,0,0,0,1.953-.875l1.2,1.422a3.363,3.363,0,0,1-1.395,1.082A4.713,4.713,0,0,1,30.375,20.156Zm-.3-6.734q-1.156,0-1.375,1.531h2.656v-.2a1.3,1.3,0,0,0-.32-.98A1.275,1.275,0,0,0,30.078,13.422Z" transform="translate(-14059 -17938.969)" fill="#12263f"/><path d="M-26.41-5.453a6.708,6.708,0,0,1-.617,2.945A4.561,4.561,0,0,1-28.781-.535a4.884,4.884,0,0,1-2.59.691,4.953,4.953,0,0,1-2.578-.668A4.554,4.554,0,0,1-35.7-2.422a6.515,6.515,0,0,1-.66-2.852v-.641a6.737,6.737,0,0,1,.613-2.949,4.55,4.55,0,0,1,1.758-1.973,4.918,4.918,0,0,1,2.605-.7,4.87,4.87,0,0,1,2.578.688,4.632,4.632,0,0,1,1.762,1.957,6.544,6.544,0,0,1,.637,2.91ZM-29.2-5.93A4.783,4.783,0,0,0-29.766-8.5a1.817,1.817,0,0,0-1.621-.879q-2.062,0-2.18,3.094l-.008.836a4.92,4.92,0,0,0,.555,2.57,1.814,1.814,0,0,0,1.648.9,1.792,1.792,0,0,0,1.6-.883,4.785,4.785,0,0,0,.57-2.539Zm11.93,1.766a5.1,5.1,0,0,1-.887,3.145A2.843,2.843,0,0,1-20.551.156,2.437,2.437,0,0,1-22.465-.7V3.25H-25.1v-11.7h2.461l.078.781a2.437,2.437,0,0,1,1.992-.937,2.866,2.866,0,0,1,2.43,1.152,5.16,5.16,0,0,1,.867,3.168ZM-19.9-4.328q0-2.25-1.312-2.25a1.239,1.239,0,0,0-1.25.672v3.328a1.279,1.279,0,0,0,1.266.7q1.258,0,1.3-2.172ZM-12.02.156A4.345,4.345,0,0,1-15.168-1a4.006,4.006,0,0,1-1.2-3.02v-.219a5.191,5.191,0,0,1,.48-2.289,3.516,3.516,0,0,1,1.4-1.535A4.233,4.233,0,0,1-12.3-8.609,3.659,3.659,0,0,1-9.488-7.5,4.344,4.344,0,0,1-8.457-4.422V-3.4h-5.234a1.9,1.9,0,0,0,.617,1.117,1.836,1.836,0,0,0,1.234.406A2.366,2.366,0,0,0-9.887-2.75l1.2,1.422A3.363,3.363,0,0,1-10.078-.246,4.713,4.713,0,0,1-12.02.156Zm-.3-6.734q-1.156,0-1.375,1.531h2.656v-.2a1.3,1.3,0,0,0-.32-.98A1.275,1.275,0,0,0-12.316-6.578Zm10.031.508-.867-.062a1.558,1.558,0,0,0-1.594.781V0H-7.379V-8.453H-4.91l.086,1.086A2.039,2.039,0,0,1-2.973-8.609a2.567,2.567,0,0,1,.734.094ZM3.191,0a2.973,2.973,0,0,1-.25-.758A2.448,2.448,0,0,1,.91.156,3,3,0,0,1-1.121-.566a2.3,2.3,0,0,1-.836-1.816A2.364,2.364,0,0,1-.941-4.461a5.174,5.174,0,0,1,2.953-.7h.813v-.445q0-1.164-1.008-1.164a.822.822,0,0,0-.937.922H-1.754A2.364,2.364,0,0,1-.711-7.844a4.379,4.379,0,0,1,2.66-.766A3.843,3.843,0,0,1,4.5-7.82a2.743,2.743,0,0,1,.961,2.164v3.742A3.832,3.832,0,0,0,5.824-.133V0ZM1.543-1.719a1.469,1.469,0,0,0,.816-.211,1.322,1.322,0,0,0,.465-.477V-3.758H2.059Q.684-3.758.684-2.523a.754.754,0,0,0,.242.582A.876.876,0,0,0,1.543-1.719ZM10.5-1.875a1.171,1.171,0,0,0,.859-.3,1.1,1.1,0,0,0,.3-.84h2.469a2.922,2.922,0,0,1-1,2.281,3.705,3.705,0,0,1-2.566.891A3.751,3.751,0,0,1,7.652-1,4.556,4.556,0,0,1,6.59-4.2v-.109a5.149,5.149,0,0,1,.473-2.262A3.441,3.441,0,0,1,8.426-8.082a4.065,4.065,0,0,1,2.109-.527,3.658,3.658,0,0,1,2.617.914,3.242,3.242,0,0,1,.969,2.477H11.652a1.445,1.445,0,0,0-.32-1.008,1.106,1.106,0,0,0-.859-.352q-1.023,0-1.2,1.3a9.206,9.206,0,0,0-.055,1.141,3.616,3.616,0,0,0,.3,1.766A1.055,1.055,0,0,0,10.5-1.875ZM18.012,0H15.371V-8.453h2.641Zm-2.8-10.633a1.175,1.175,0,0,1,.406-.922,1.533,1.533,0,0,1,1.055-.359,1.533,1.533,0,0,1,1.055.359,1.175,1.175,0,0,1,.406.922,1.175,1.175,0,0,1-.406.922,1.533,1.533,0,0,1-1.055.359,1.533,1.533,0,0,1-1.055-.359A1.175,1.175,0,0,1,15.215-10.633ZM19.3-4.3a4.989,4.989,0,0,1,.492-2.254,3.52,3.52,0,0,1,1.414-1.52,4.259,4.259,0,0,1,2.164-.531,3.887,3.887,0,0,1,2.992,1.176,4.512,4.512,0,0,1,1.094,3.2v.094A4.378,4.378,0,0,1,26.359-1,3.9,3.9,0,0,1,23.387.156a3.942,3.942,0,0,1-2.9-1.082,4.232,4.232,0,0,1-1.18-2.934Zm2.633.164A3.145,3.145,0,0,0,22.3-2.422a1.223,1.223,0,0,0,1.086.547q1.406,0,1.438-2.164V-4.3q0-2.273-1.453-2.273-1.32,0-1.43,1.961ZM23.73-12h2.781L24.34-9.547H22.191Zm7.3,3.547.086.992a2.867,2.867,0,0,1,2.414-1.148,2.412,2.412,0,0,1,1.973.789,3.757,3.757,0,0,1,.676,2.375V0H33.543V-5.336a1.426,1.426,0,0,0-.258-.941,1.193,1.193,0,0,0-.937-.3,1.256,1.256,0,0,0-1.148.609V0H28.566V-8.453Zm-58.055,23a6.708,6.708,0,0,1-.617,2.945,4.561,4.561,0,0,1-1.754,1.973,4.884,4.884,0,0,1-2.59.691,4.953,4.953,0,0,1-2.578-.668,4.554,4.554,0,0,1-1.754-1.91,6.515,6.515,0,0,1-.66-2.852v-.641a6.737,6.737,0,0,1,.613-2.949A4.55,4.55,0,0,1-34.6,9.164,4.918,4.918,0,0,1-32,8.469a4.87,4.87,0,0,1,2.578.688,4.632,4.632,0,0,1,1.762,1.957,6.544,6.544,0,0,1,.637,2.91Zm-2.789-.477a4.783,4.783,0,0,0-.566-2.574A1.817,1.817,0,0,0-32,10.617q-2.062,0-2.18,3.094l-.008.836a4.92,4.92,0,0,0,.555,2.57,1.814,1.814,0,0,0,1.648.9,1.792,1.792,0,0,0,1.6-.883,4.785,4.785,0,0,0,.57-2.539Zm10.07,2.906a1.127,1.127,0,0,0-.426-.937,5.292,5.292,0,0,0-1.5-.7,14.353,14.353,0,0,1-1.75-.7,3.314,3.314,0,0,1-2.211-2.984A2.676,2.676,0,0,1-25.07,10a3.562,3.562,0,0,1,1.559-1.125,6.065,6.065,0,0,1,2.266-.4,5.305,5.305,0,0,1,2.2.438,3.482,3.482,0,0,1,1.512,1.246A3.254,3.254,0,0,1-17,12H-19.73a1.375,1.375,0,0,0-.426-1.078,1.66,1.66,0,0,0-1.152-.383,1.872,1.872,0,0,0-1.16.324,1,1,0,0,0-.426.824,1,1,0,0,0,.469.793,5.911,5.911,0,0,0,1.648.734,10.1,10.1,0,0,1,1.938.816A3.256,3.256,0,0,1-17,16.961,2.778,2.778,0,0,1-18.121,19.3a5,5,0,0,1-3.086.852,6.122,6.122,0,0,1-2.5-.5A3.775,3.775,0,0,1-25.4,18.3a3.542,3.542,0,0,1-.566-1.988h2.75a1.744,1.744,0,0,0,.473,1.348,2.234,2.234,0,0,0,1.535.434,1.765,1.765,0,0,0,1.074-.293A.967.967,0,0,0-19.738,16.977ZM-11.605,20V8.625h3.664a5.39,5.39,0,0,1,2.711.684,4.805,4.805,0,0,1,1.879,1.93,5.826,5.826,0,0,1,.684,2.793v.523a5.86,5.86,0,0,1-.66,2.8,4.826,4.826,0,0,1-1.859,1.938A5.271,5.271,0,0,1-7.863,20Zm2.742-9.258v7.148h.953a2.133,2.133,0,0,0,1.813-.84,4.116,4.116,0,0,0,.633-2.5v-.492A4.082,4.082,0,0,0-6.1,11.578a2.17,2.17,0,0,0-1.844-.836Zm11.57,9.414A4.345,4.345,0,0,1-.441,19a4.006,4.006,0,0,1-1.2-3.02v-.219a5.191,5.191,0,0,1,.48-2.289,3.516,3.516,0,0,1,1.4-1.535,4.233,4.233,0,0,1,2.188-.543A3.659,3.659,0,0,1,5.238,12.5,4.344,4.344,0,0,1,6.27,15.578V16.6H1.035a1.9,1.9,0,0,0,.617,1.117,1.836,1.836,0,0,0,1.234.406A2.366,2.366,0,0,0,4.84,17.25l1.2,1.422a3.363,3.363,0,0,1-1.395,1.082A4.713,4.713,0,0,1,2.707,20.156Zm-.3-6.734q-1.156,0-1.375,1.531H3.691v-.2a1.3,1.3,0,0,0-.32-.98A1.275,1.275,0,0,0,2.41,13.422Zm12.766,2.422a5.152,5.152,0,0,1-.859,3.2,2.878,2.878,0,0,1-2.422,1.117,2.5,2.5,0,0,1-2.078-1.023L9.707,20H7.348V8H9.98v4.227a2.41,2.41,0,0,1,1.9-.836,2.879,2.879,0,0,1,2.438,1.133,5.179,5.179,0,0,1,.859,3.188Zm-2.641-.164a3.447,3.447,0,0,0-.324-1.738,1.092,1.092,0,0,0-1-.52,1.26,1.26,0,0,0-1.234.68v3.359a1.267,1.267,0,0,0,1.25.672,1.118,1.118,0,0,0,1.18-.906A6.518,6.518,0,0,0,12.535,15.68ZM19.113,20H16.473V11.547h2.641Zm-2.8-10.633a1.175,1.175,0,0,1,.406-.922,1.727,1.727,0,0,1,2.109,0,1.249,1.249,0,0,1,0,1.844,1.727,1.727,0,0,1-2.109,0A1.175,1.175,0,0,1,16.316,9.367ZM25.5,20a2.973,2.973,0,0,1-.25-.758,2.448,2.448,0,0,1-2.031.914,3,3,0,0,1-2.031-.723,2.3,2.3,0,0,1-.836-1.816,2.364,2.364,0,0,1,1.016-2.078,5.174,5.174,0,0,1,2.953-.7h.813v-.445q0-1.164-1.008-1.164a.822.822,0,0,0-.937.922H20.551a2.364,2.364,0,0,1,1.043-1.992,4.379,4.379,0,0,1,2.66-.766,3.843,3.843,0,0,1,2.555.789,2.743,2.743,0,0,1,.961,2.164v3.742a3.832,3.832,0,0,0,.359,1.781V20Zm-1.648-1.719a1.469,1.469,0,0,0,.816-.211,1.322,1.322,0,0,0,.465-.477V16.242h-.766q-1.375,0-1.375,1.234a.754.754,0,0,0,.242.582A.876.876,0,0,0,23.848,18.281Zm7.8-6.734.086.992a2.867,2.867,0,0,1,2.414-1.148,2.412,2.412,0,0,1,1.973.789,3.757,3.757,0,0,1,.676,2.375V20H34.152V14.664a1.426,1.426,0,0,0-.258-.941,1.193,1.193,0,0,0-.937-.3,1.256,1.256,0,0,0-1.148.609V20H29.176V11.547Z" transform="translate(-14059 -17853.969)" fill="#12263f"/><path d="M-22.816-3.023a1.127,1.127,0,0,0-.426-.937,5.292,5.292,0,0,0-1.5-.7,14.353,14.353,0,0,1-1.75-.7A3.314,3.314,0,0,1-28.7-8.336,2.676,2.676,0,0,1-28.148-10a3.562,3.562,0,0,1,1.559-1.125,6.065,6.065,0,0,1,2.266-.4,5.305,5.305,0,0,1,2.2.438,3.482,3.482,0,0,1,1.512,1.246A3.254,3.254,0,0,1-20.074-8h-2.734a1.375,1.375,0,0,0-.426-1.078,1.66,1.66,0,0,0-1.152-.383,1.872,1.872,0,0,0-1.16.324,1,1,0,0,0-.426.824,1,1,0,0,0,.469.793,5.911,5.911,0,0,0,1.648.734,10.1,10.1,0,0,1,1.938.816,3.256,3.256,0,0,1,1.844,2.93A2.778,2.778,0,0,1-21.2-.7a5,5,0,0,1-3.086.852,6.122,6.122,0,0,1-2.5-.5A3.775,3.775,0,0,1-28.477-1.7a3.542,3.542,0,0,1-.566-1.988h2.75A1.744,1.744,0,0,0-25.82-2.34a2.234,2.234,0,0,0,1.535.434A1.765,1.765,0,0,0-23.211-2.2.967.967,0,0,0-22.816-3.023ZM-16.012,0h-2.641V-8.453h2.641Zm-2.8-10.633a1.175,1.175,0,0,1,.406-.922,1.533,1.533,0,0,1,1.055-.359,1.533,1.533,0,0,1,1.055.359,1.175,1.175,0,0,1,.406.922,1.175,1.175,0,0,1-.406.922,1.533,1.533,0,0,1-1.055.359A1.533,1.533,0,0,1-18.4-9.711,1.175,1.175,0,0,1-18.809-10.633Zm8.844,8.258a.608.608,0,0,0-.352-.539,5.348,5.348,0,0,0-1.336-.422,6.092,6.092,0,0,1-1.625-.574,2.722,2.722,0,0,1-.977-.863,2.061,2.061,0,0,1-.336-1.164,2.336,2.336,0,0,1,.961-1.918,3.958,3.958,0,0,1,2.516-.754,4.386,4.386,0,0,1,2.688.758A2.37,2.37,0,0,1-7.41-5.859h-2.641q0-1.016-1.07-1.016a1.061,1.061,0,0,0-.7.23.714.714,0,0,0-.281.574.655.655,0,0,0,.344.57,3.248,3.248,0,0,0,1.1.359A9.485,9.485,0,0,1-9.332-4.8,2.406,2.406,0,0,1-7.426-2.453,2.214,2.214,0,0,1-8.453-.57a4.505,4.505,0,0,1-2.66.727,4.6,4.6,0,0,1-1.937-.391A3.24,3.24,0,0,1-14.379-1.3a2.406,2.406,0,0,1-.477-1.414h2.461A1.017,1.017,0,0,0-12-1.855a1.607,1.607,0,0,0,.961.27,1.264,1.264,0,0,0,.809-.219A.7.7,0,0,0-9.965-2.375Zm6.836-8.18v2.1h1.391v1.828H-3.129v3.867a.987.987,0,0,0,.172.664.922.922,0,0,0,.68.188,3.862,3.862,0,0,0,.656-.047V-.07A4.859,4.859,0,0,1-3.105.156,2.758,2.758,0,0,1-5.113-.484,2.626,2.626,0,0,1-5.762-2.43v-4.2H-6.84V-8.453h1.078v-2.1ZM3.387.156A4.345,4.345,0,0,1,.238-1a4.006,4.006,0,0,1-1.2-3.02v-.219a5.191,5.191,0,0,1,.48-2.289,3.516,3.516,0,0,1,1.4-1.535,4.233,4.233,0,0,1,2.188-.543A3.659,3.659,0,0,1,5.918-7.5,4.344,4.344,0,0,1,6.949-4.422V-3.4H1.715a1.9,1.9,0,0,0,.617,1.117,1.836,1.836,0,0,0,1.234.406A2.366,2.366,0,0,0,5.52-2.75l1.2,1.422A3.363,3.363,0,0,1,5.328-.246,4.713,4.713,0,0,1,3.387.156Zm-.3-6.734q-1.156,0-1.375,1.531H4.371v-.2a1.3,1.3,0,0,0-.32-.98A1.275,1.275,0,0,0,3.09-6.578ZM10.5-8.453l.086.992A2.906,2.906,0,0,1,13-8.609,2.14,2.14,0,0,1,15.16-7.336a2.813,2.813,0,0,1,2.484-1.273q2.57,0,2.641,3.109V0H17.645V-5.336a1.611,1.611,0,0,0-.219-.945.931.931,0,0,0-.8-.3,1.247,1.247,0,0,0-1.164.7l.008.109V0H12.832V-5.32a1.694,1.694,0,0,0-.211-.961.929.929,0,0,0-.8-.3,1.263,1.263,0,0,0-1.156.7V0H8.027V-8.453ZM26.551,0a2.973,2.973,0,0,1-.25-.758A2.448,2.448,0,0,1,24.27.156a3,3,0,0,1-2.031-.723A2.3,2.3,0,0,1,21.4-2.383a2.364,2.364,0,0,1,1.016-2.078,5.174,5.174,0,0,1,2.953-.7h.813v-.445q0-1.164-1.008-1.164a.822.822,0,0,0-.937.922H21.605a2.364,2.364,0,0,1,1.043-1.992,4.379,4.379,0,0,1,2.66-.766,3.843,3.843,0,0,1,2.555.789,2.743,2.743,0,0,1,.961,2.164v3.742a3.832,3.832,0,0,0,.359,1.781V0ZM24.9-1.719a1.469,1.469,0,0,0,.816-.211,1.322,1.322,0,0,0,.465-.477V-3.758h-.766q-1.375,0-1.375,1.234a.754.754,0,0,0,.242.582A.876.876,0,0,0,24.9-1.719Zm-55.609,18.7a1.127,1.127,0,0,0-.426-.937,5.292,5.292,0,0,0-1.5-.7,14.353,14.353,0,0,1-1.75-.7,3.314,3.314,0,0,1-2.211-2.984A2.676,2.676,0,0,1-36.039,10,3.562,3.562,0,0,1-34.48,8.871a6.065,6.065,0,0,1,2.266-.4,5.305,5.305,0,0,1,2.2.438A3.482,3.482,0,0,1-28.5,10.152,3.254,3.254,0,0,1-27.965,12H-30.7a1.375,1.375,0,0,0-.426-1.078,1.66,1.66,0,0,0-1.152-.383,1.872,1.872,0,0,0-1.16.324,1,1,0,0,0-.426.824,1,1,0,0,0,.469.793,5.911,5.911,0,0,0,1.648.734,10.1,10.1,0,0,1,1.938.816,3.256,3.256,0,0,1,1.844,2.93A2.778,2.778,0,0,1-29.09,19.3a5,5,0,0,1-3.086.852,6.122,6.122,0,0,1-2.5-.5A3.775,3.775,0,0,1-36.367,18.3a3.542,3.542,0,0,1-.566-1.988h2.75a1.744,1.744,0,0,0,.473,1.348,2.234,2.234,0,0,0,1.535.434A1.765,1.765,0,0,0-31.1,17.8.967.967,0,0,0-30.707,16.977Zm6.516-5.43.086.992a2.906,2.906,0,0,1,2.414-1.148,2.14,2.14,0,0,1,2.164,1.273,2.813,2.813,0,0,1,2.484-1.273q2.57,0,2.641,3.109V20h-2.641V14.664a1.611,1.611,0,0,0-.219-.945.931.931,0,0,0-.8-.3,1.247,1.247,0,0,0-1.164.7l.008.109V20h-2.641V14.68a1.694,1.694,0,0,0-.211-.961.929.929,0,0,0-.8-.3,1.263,1.263,0,0,0-1.156.7V20H-26.66V11.547ZM-8.137,20a2.973,2.973,0,0,1-.25-.758,2.448,2.448,0,0,1-2.031.914,3,3,0,0,1-2.031-.723,2.3,2.3,0,0,1-.836-1.816,2.364,2.364,0,0,1,1.016-2.078,5.174,5.174,0,0,1,2.953-.7H-8.5v-.445q0-1.164-1.008-1.164a.822.822,0,0,0-.937.922h-2.633a2.364,2.364,0,0,1,1.043-1.992,4.379,4.379,0,0,1,2.66-.766,3.843,3.843,0,0,1,2.555.789,2.743,2.743,0,0,1,.961,2.164v3.742A3.832,3.832,0,0,0-5.5,19.867V20Zm-1.648-1.719a1.469,1.469,0,0,0,.816-.211,1.322,1.322,0,0,0,.465-.477V16.242H-9.27q-1.375,0-1.375,1.234a.754.754,0,0,0,.242.582A.876.876,0,0,0-9.785,18.281ZM.707,13.93l-.867-.062a1.558,1.558,0,0,0-1.594.781V20H-4.387V11.547h2.469l.086,1.086A2.039,2.039,0,0,1,.02,11.391a2.567,2.567,0,0,1,.734.094ZM5.113,9.445v2.1H6.5v1.828H5.113v3.867a.987.987,0,0,0,.172.664.922.922,0,0,0,.68.188,3.862,3.862,0,0,0,.656-.047V19.93a4.859,4.859,0,0,1-1.484.227,2.758,2.758,0,0,1-2.008-.641A2.626,2.626,0,0,1,2.48,17.57v-4.2H1.4V11.547H2.48v-2.1Zm9.6,5.734H10.4v2.711H15.5V20H7.66V8.625h7.852v2.117H10.4v2.4h4.313ZM26.121,20H23.395V15.25H19.355V20H16.613V8.625h2.742v4.516h4.039V8.625h2.727Zm5.961-4.016H30.6V20H27.855V8.625h4.477a4.993,4.993,0,0,1,3.164.9,3.046,3.046,0,0,1,1.141,2.539,3.7,3.7,0,0,1-.48,1.969,3.411,3.411,0,0,1-1.5,1.266l2.375,4.586V20H34.09ZM30.6,13.867h1.734a1.559,1.559,0,0,0,1.176-.41,1.583,1.583,0,0,0,.395-1.145,1.6,1.6,0,0,0-.4-1.152,1.544,1.544,0,0,0-1.172-.418H30.6Z" transform="translate(-14059 -17768.969)" fill="#12263f"/><path d="M-19.387-2.125h-3.758L-23.8,0h-2.93l4.172-11.375h2.578L-15.777,0h-2.945Zm-3.1-2.117h2.445L-21.27-8.187ZM-11.5-1.875a1.171,1.171,0,0,0,.859-.3,1.1,1.1,0,0,0,.3-.84h2.469a2.922,2.922,0,0,1-1,2.281,3.705,3.705,0,0,1-2.566.891A3.751,3.751,0,0,1-14.34-1,4.556,4.556,0,0,1-15.4-4.2v-.109a5.149,5.149,0,0,1,.473-2.262,3.441,3.441,0,0,1,1.363-1.508,4.065,4.065,0,0,1,2.109-.527A3.658,3.658,0,0,1-8.84-7.7a3.242,3.242,0,0,1,.969,2.477H-10.34a1.445,1.445,0,0,0-.32-1.008,1.106,1.106,0,0,0-.859-.352q-1.023,0-1.2,1.3a9.206,9.206,0,0,0-.055,1.141,3.616,3.616,0,0,0,.3,1.766A1.055,1.055,0,0,0-11.5-1.875Zm8.313,0a1.171,1.171,0,0,0,.859-.3,1.1,1.1,0,0,0,.3-.84H.441a2.922,2.922,0,0,1-1,2.281A3.705,3.705,0,0,1-3.121.156,3.751,3.751,0,0,1-6.027-1,4.556,4.556,0,0,1-7.09-4.2v-.109a5.149,5.149,0,0,1,.473-2.262A3.441,3.441,0,0,1-5.254-8.082a4.065,4.065,0,0,1,2.109-.527A3.658,3.658,0,0,1-.527-7.7,3.242,3.242,0,0,1,.441-5.219H-2.027a1.445,1.445,0,0,0-.32-1.008,1.106,1.106,0,0,0-.859-.352q-1.023,0-1.2,1.3a9.206,9.206,0,0,0-.055,1.141,3.616,3.616,0,0,0,.3,1.766A1.055,1.055,0,0,0-3.184-1.875ZM5.645.156A4.345,4.345,0,0,1,2.5-1a4.006,4.006,0,0,1-1.2-3.02v-.219a5.191,5.191,0,0,1,.48-2.289,3.516,3.516,0,0,1,1.4-1.535,4.233,4.233,0,0,1,2.188-.543A3.659,3.659,0,0,1,8.176-7.5,4.344,4.344,0,0,1,9.207-4.422V-3.4H3.973A1.9,1.9,0,0,0,4.59-2.281a1.836,1.836,0,0,0,1.234.406A2.366,2.366,0,0,0,7.777-2.75l1.2,1.422A3.363,3.363,0,0,1,7.586-.246,4.713,4.713,0,0,1,5.645.156Zm-.3-6.734q-1.156,0-1.375,1.531H6.629v-.2a1.3,1.3,0,0,0-.32-.98A1.275,1.275,0,0,0,5.348-6.578Zm9.344,4.2a.608.608,0,0,0-.352-.539A5.348,5.348,0,0,0,13-3.336a6.092,6.092,0,0,1-1.625-.574,2.722,2.722,0,0,1-.977-.863,2.061,2.061,0,0,1-.336-1.164,2.336,2.336,0,0,1,.961-1.918,3.958,3.958,0,0,1,2.516-.754,4.386,4.386,0,0,1,2.688.758,2.37,2.37,0,0,1,1.016,1.992H14.605q0-1.016-1.07-1.016a1.061,1.061,0,0,0-.7.23.714.714,0,0,0-.281.574.655.655,0,0,0,.344.57,3.248,3.248,0,0,0,1.1.359,9.485,9.485,0,0,1,1.324.336A2.406,2.406,0,0,1,17.23-2.453,2.214,2.214,0,0,1,16.2-.57a4.505,4.505,0,0,1-2.66.727,4.6,4.6,0,0,1-1.937-.391A3.24,3.24,0,0,1,10.277-1.3,2.406,2.406,0,0,1,9.8-2.711h2.461a1.017,1.017,0,0,0,.391.855,1.607,1.607,0,0,0,.961.27,1.264,1.264,0,0,0,.809-.219A.7.7,0,0,0,14.691-2.375ZM18.129-4.3a4.989,4.989,0,0,1,.492-2.254,3.52,3.52,0,0,1,1.414-1.52A4.259,4.259,0,0,1,22.2-8.609a3.887,3.887,0,0,1,2.992,1.176,4.512,4.512,0,0,1,1.094,3.2v.094A4.378,4.378,0,0,1,25.188-1,3.9,3.9,0,0,1,22.215.156a3.942,3.942,0,0,1-2.9-1.082,4.232,4.232,0,0,1-1.18-2.934Zm2.633.164a3.145,3.145,0,0,0,.367,1.719,1.223,1.223,0,0,0,1.086.547q1.406,0,1.438-2.164V-4.3q0-2.273-1.453-2.273-1.32,0-1.43,1.961ZM-24.891,20h-2.734V8.625h2.734Zm4.2-8.453.086.992a2.867,2.867,0,0,1,2.414-1.148,2.412,2.412,0,0,1,1.973.789,3.757,3.757,0,0,1,.676,2.375V20H-18.18V14.664a1.426,1.426,0,0,0-.258-.941,1.193,1.193,0,0,0-.937-.3,1.256,1.256,0,0,0-1.148.609V20h-2.633V11.547Zm9.672-2.1v2.1h1.391v1.828h-1.391v3.867a.987.987,0,0,0,.172.664.922.922,0,0,0,.68.188,3.862,3.862,0,0,0,.656-.047V19.93a4.859,4.859,0,0,1-1.484.227A2.758,2.758,0,0,1-13,19.516a2.626,2.626,0,0,1-.648-1.945v-4.2h-1.078V11.547h1.078v-2.1ZM-4.5,20.156A4.345,4.345,0,0,1-7.648,19a4.006,4.006,0,0,1-1.2-3.02v-.219a5.191,5.191,0,0,1,.48-2.289,3.516,3.516,0,0,1,1.4-1.535,4.233,4.233,0,0,1,2.188-.543A3.659,3.659,0,0,1-1.969,12.5,4.344,4.344,0,0,1-.937,15.578V16.6H-6.172a1.9,1.9,0,0,0,.617,1.117,1.836,1.836,0,0,0,1.234.406,2.366,2.366,0,0,0,1.953-.875l1.2,1.422a3.363,3.363,0,0,1-1.395,1.082A4.713,4.713,0,0,1-4.5,20.156Zm-.3-6.734q-1.156,0-1.375,1.531h2.656v-.2a1.3,1.3,0,0,0-.32-.98A1.275,1.275,0,0,0-4.8,13.422Zm10.031.508-.867-.062a1.558,1.558,0,0,0-1.594.781V20H.141V11.547H2.609L2.7,12.633a2.039,2.039,0,0,1,1.852-1.242,2.567,2.567,0,0,1,.734.094ZM8.6,11.547l.086.992A2.867,2.867,0,0,1,11.1,11.391a2.412,2.412,0,0,1,1.973.789,3.757,3.757,0,0,1,.676,2.375V20H11.109V14.664a1.426,1.426,0,0,0-.258-.941,1.193,1.193,0,0,0-.937-.3,1.256,1.256,0,0,0-1.148.609V20H6.133V11.547Zm10.7,8.609A4.345,4.345,0,0,1,16.148,19a4.006,4.006,0,0,1-1.2-3.02v-.219a5.191,5.191,0,0,1,.48-2.289,3.516,3.516,0,0,1,1.4-1.535,4.233,4.233,0,0,1,2.188-.543A3.659,3.659,0,0,1,21.828,12.5a4.344,4.344,0,0,1,1.031,3.082V16.6H17.625a1.9,1.9,0,0,0,.617,1.117,1.836,1.836,0,0,0,1.234.406,2.366,2.366,0,0,0,1.953-.875l1.2,1.422a3.363,3.363,0,0,1-1.395,1.082A4.713,4.713,0,0,1,19.3,20.156ZM19,13.422q-1.156,0-1.375,1.531h2.656v-.2a1.3,1.3,0,0,0-.32-.98A1.275,1.275,0,0,0,19,13.422Zm7.984-3.977v2.1h1.391v1.828H26.984v3.867a.987.987,0,0,0,.172.664.922.922,0,0,0,.68.188,3.862,3.862,0,0,0,.656-.047V19.93a4.859,4.859,0,0,1-1.484.227A2.758,2.758,0,0,1,25,19.516a2.626,2.626,0,0,1-.648-1.945v-4.2H23.273V11.547h1.078v-2.1Z" transform="translate(-14285.175 -17546.969)" fill="#12263f"/><path d="M-27.016-3.023a1.127,1.127,0,0,0-.426-.937,5.292,5.292,0,0,0-1.5-.7,14.353,14.353,0,0,1-1.75-.7A3.314,3.314,0,0,1-32.9-8.336,2.676,2.676,0,0,1-32.348-10a3.562,3.562,0,0,1,1.559-1.125,6.065,6.065,0,0,1,2.266-.4,5.305,5.305,0,0,1,2.2.438,3.482,3.482,0,0,1,1.512,1.246A3.254,3.254,0,0,1-24.273-8h-2.734a1.375,1.375,0,0,0-.426-1.078,1.66,1.66,0,0,0-1.152-.383,1.872,1.872,0,0,0-1.16.324,1,1,0,0,0-.426.824,1,1,0,0,0,.469.793,5.911,5.911,0,0,0,1.648.734,10.1,10.1,0,0,1,1.938.816,3.256,3.256,0,0,1,1.844,2.93A2.778,2.778,0,0,1-25.4-.7a5,5,0,0,1-3.086.852,6.122,6.122,0,0,1-2.5-.5A3.775,3.775,0,0,1-32.676-1.7a3.542,3.542,0,0,1-.566-1.988h2.75A1.744,1.744,0,0,0-30.02-2.34a2.234,2.234,0,0,0,1.535.434A1.765,1.765,0,0,0-27.41-2.2.967.967,0,0,0-27.016-3.023ZM-18.9.156A4.345,4.345,0,0,1-22.047-1a4.006,4.006,0,0,1-1.2-3.02v-.219a5.191,5.191,0,0,1,.48-2.289,3.516,3.516,0,0,1,1.4-1.535,4.233,4.233,0,0,1,2.188-.543A3.659,3.659,0,0,1-16.367-7.5a4.344,4.344,0,0,1,1.031,3.082V-3.4H-20.57a1.9,1.9,0,0,0,.617,1.117,1.836,1.836,0,0,0,1.234.406,2.366,2.366,0,0,0,1.953-.875l1.2,1.422A3.363,3.363,0,0,1-16.957-.246,4.713,4.713,0,0,1-18.9.156Zm-.3-6.734q-1.156,0-1.375,1.531h2.656v-.2a1.3,1.3,0,0,0-.32-.98A1.275,1.275,0,0,0-19.2-6.578Zm10.031.508-.867-.062a1.558,1.558,0,0,0-1.594.781V0h-2.633V-8.453h2.469l.086,1.086A2.039,2.039,0,0,1-9.852-8.609a2.567,2.567,0,0,1,.734.094ZM-4.7-3.133l1.336-5.32H-.594L-3.352,0H-6.039L-8.8-8.453h2.781ZM2.969,0H.328V-8.453H2.969ZM.172-10.633a1.175,1.175,0,0,1,.406-.922,1.533,1.533,0,0,1,1.055-.359,1.533,1.533,0,0,1,1.055.359,1.175,1.175,0,0,1,.406.922,1.175,1.175,0,0,1-.406.922,1.533,1.533,0,0,1-1.055.359A1.533,1.533,0,0,1,.578-9.711,1.175,1.175,0,0,1,.172-10.633ZM8.164-1.875a1.171,1.171,0,0,0,.859-.3,1.1,1.1,0,0,0,.3-.84h2.469a2.922,2.922,0,0,1-1,2.281A3.705,3.705,0,0,1,8.227.156,3.751,3.751,0,0,1,5.32-1,4.556,4.556,0,0,1,4.258-4.2v-.109A5.149,5.149,0,0,1,4.73-6.574,3.441,3.441,0,0,1,6.094-8.082,4.065,4.065,0,0,1,8.2-8.609,3.658,3.658,0,0,1,10.82-7.7a3.242,3.242,0,0,1,.969,2.477H9.32A1.445,1.445,0,0,0,9-6.227a1.106,1.106,0,0,0-.859-.352q-1.023,0-1.2,1.3a9.206,9.206,0,0,0-.055,1.141,3.616,3.616,0,0,0,.3,1.766A1.055,1.055,0,0,0,8.164-1.875ZM15.68,0H13.039V-8.453H15.68Zm-2.8-10.633a1.175,1.175,0,0,1,.406-.922,1.533,1.533,0,0,1,1.055-.359,1.533,1.533,0,0,1,1.055.359,1.175,1.175,0,0,1,.406.922,1.175,1.175,0,0,1-.406.922,1.533,1.533,0,0,1-1.055.359,1.533,1.533,0,0,1-1.055-.359A1.175,1.175,0,0,1,12.883-10.633ZM16.969-4.3a4.989,4.989,0,0,1,.492-2.254,3.52,3.52,0,0,1,1.414-1.52,4.259,4.259,0,0,1,2.164-.531,3.887,3.887,0,0,1,2.992,1.176,4.512,4.512,0,0,1,1.094,3.2v.094A4.378,4.378,0,0,1,24.027-1,3.9,3.9,0,0,1,21.055.156a3.942,3.942,0,0,1-2.9-1.082,4.232,4.232,0,0,1-1.18-2.934Zm2.633.164a3.145,3.145,0,0,0,.367,1.719,1.223,1.223,0,0,0,1.086.547q1.406,0,1.438-2.164V-4.3q0-2.273-1.453-2.273-1.32,0-1.43,1.961ZM30.711-2.375a.608.608,0,0,0-.352-.539,5.348,5.348,0,0,0-1.336-.422A6.092,6.092,0,0,1,27.4-3.91a2.722,2.722,0,0,1-.977-.863,2.061,2.061,0,0,1-.336-1.164,2.336,2.336,0,0,1,.961-1.918,3.958,3.958,0,0,1,2.516-.754,4.386,4.386,0,0,1,2.688.758,2.37,2.37,0,0,1,1.016,1.992H30.625q0-1.016-1.07-1.016a1.061,1.061,0,0,0-.7.23.714.714,0,0,0-.281.574.655.655,0,0,0,.344.57,3.248,3.248,0,0,0,1.1.359,9.486,9.486,0,0,1,1.324.336A2.406,2.406,0,0,1,33.25-2.453,2.214,2.214,0,0,1,32.223-.57a4.505,4.505,0,0,1-2.66.727,4.6,4.6,0,0,1-1.937-.391A3.24,3.24,0,0,1,26.3-1.3a2.406,2.406,0,0,1-.477-1.414h2.461a1.017,1.017,0,0,0,.391.855,1.607,1.607,0,0,0,.961.27,1.264,1.264,0,0,0,.809-.219A.7.7,0,0,0,30.711-2.375ZM-14.937,20V8.625h3.664a5.39,5.39,0,0,1,2.711.684,4.805,4.805,0,0,1,1.879,1.93A5.826,5.826,0,0,1-6,14.031v.523a5.86,5.86,0,0,1-.66,2.8A4.826,4.826,0,0,1-8.52,19.293,5.271,5.271,0,0,1-11.2,20Zm2.742-9.258v7.148h.953a2.133,2.133,0,0,0,1.813-.84,4.116,4.116,0,0,0,.633-2.5v-.492a4.082,4.082,0,0,0-.633-2.484,2.17,2.17,0,0,0-1.844-.836ZM4.906,20H2.18l-4.031-7.078V20H-4.594V8.625h2.742L2.172,15.7V8.625H4.906Zm7.6-3.023a1.127,1.127,0,0,0-.426-.937,5.292,5.292,0,0,0-1.5-.7,14.353,14.353,0,0,1-1.75-.7,3.314,3.314,0,0,1-2.211-2.984A2.676,2.676,0,0,1,7.176,10,3.562,3.562,0,0,1,8.734,8.871,6.065,6.065,0,0,1,11,8.469a5.305,5.305,0,0,1,2.2.438,3.482,3.482,0,0,1,1.512,1.246A3.254,3.254,0,0,1,15.25,12H12.516a1.375,1.375,0,0,0-.426-1.078,1.66,1.66,0,0,0-1.152-.383,1.872,1.872,0,0,0-1.16.324A.955.955,0,0,0,9.82,12.48a5.911,5.911,0,0,0,1.648.734,10.1,10.1,0,0,1,1.938.816,3.256,3.256,0,0,1,1.844,2.93A2.778,2.778,0,0,1,14.125,19.3a5,5,0,0,1-3.086.852,6.122,6.122,0,0,1-2.5-.5A3.775,3.775,0,0,1,6.848,18.3a3.542,3.542,0,0,1-.566-1.988h2.75A1.744,1.744,0,0,0,9.5,17.66a2.234,2.234,0,0,0,1.535.434,1.765,1.765,0,0,0,1.074-.293A.967.967,0,0,0,12.508,16.977Z" transform="translate(-14059 -17477.969)" fill="#12263f"/><path d="M-22.918-3.023a1.127,1.127,0,0,0-.426-.937,5.292,5.292,0,0,0-1.5-.7,14.353,14.353,0,0,1-1.75-.7A3.314,3.314,0,0,1-28.8-8.336,2.676,2.676,0,0,1-28.25-10a3.562,3.562,0,0,1,1.559-1.125,6.065,6.065,0,0,1,2.266-.4,5.305,5.305,0,0,1,2.2.438,3.482,3.482,0,0,1,1.512,1.246A3.254,3.254,0,0,1-20.176-8H-22.91a1.375,1.375,0,0,0-.426-1.078,1.66,1.66,0,0,0-1.152-.383,1.872,1.872,0,0,0-1.16.324,1,1,0,0,0-.426.824,1,1,0,0,0,.469.793,5.911,5.911,0,0,0,1.648.734,10.1,10.1,0,0,1,1.938.816,3.256,3.256,0,0,1,1.844,2.93A2.778,2.778,0,0,1-21.3-.7a5,5,0,0,1-3.086.852,6.122,6.122,0,0,1-2.5-.5A3.775,3.775,0,0,1-28.578-1.7a3.542,3.542,0,0,1-.566-1.988h2.75a1.744,1.744,0,0,0,.473,1.348,2.234,2.234,0,0,0,1.535.434A1.765,1.765,0,0,0-23.312-2.2.967.967,0,0,0-22.918-3.023ZM-14.8.156A4.345,4.345,0,0,1-17.949-1a4.006,4.006,0,0,1-1.2-3.02v-.219a5.191,5.191,0,0,1,.48-2.289,3.516,3.516,0,0,1,1.4-1.535,4.233,4.233,0,0,1,2.188-.543A3.659,3.659,0,0,1-12.27-7.5a4.344,4.344,0,0,1,1.031,3.082V-3.4h-5.234a1.9,1.9,0,0,0,.617,1.117,1.836,1.836,0,0,0,1.234.406,2.366,2.366,0,0,0,1.953-.875l1.2,1.422A3.363,3.363,0,0,1-12.859-.246,4.713,4.713,0,0,1-14.8.156Zm-.3-6.734q-1.156,0-1.375,1.531h2.656v-.2a1.3,1.3,0,0,0-.32-.98A1.275,1.275,0,0,0-15.1-6.578Zm10.031.508-.867-.062a1.558,1.558,0,0,0-1.594.781V0H-10.16V-8.453h2.469l.086,1.086A2.039,2.039,0,0,1-5.754-8.609a2.567,2.567,0,0,1,.734.094ZM-.605-3.133.73-8.453H3.5L.746,0H-1.941L-4.7-8.453h2.781ZM7.066,0H4.426V-8.453H7.066ZM4.27-10.633a1.175,1.175,0,0,1,.406-.922,1.533,1.533,0,0,1,1.055-.359,1.533,1.533,0,0,1,1.055.359,1.175,1.175,0,0,1,.406.922,1.175,1.175,0,0,1-.406.922,1.533,1.533,0,0,1-1.055.359,1.533,1.533,0,0,1-1.055-.359A1.175,1.175,0,0,1,4.27-10.633Zm7.992,8.758a1.171,1.171,0,0,0,.859-.3,1.1,1.1,0,0,0,.3-.84h2.469a2.922,2.922,0,0,1-1,2.281,3.705,3.705,0,0,1-2.566.891A3.751,3.751,0,0,1,9.418-1,4.556,4.556,0,0,1,8.355-4.2v-.109a5.149,5.149,0,0,1,.473-2.262,3.441,3.441,0,0,1,1.363-1.508A4.065,4.065,0,0,1,12.3-8.609a3.658,3.658,0,0,1,2.617.914,3.242,3.242,0,0,1,.969,2.477H13.418a1.445,1.445,0,0,0-.32-1.008,1.106,1.106,0,0,0-.859-.352q-1.023,0-1.2,1.3a9.206,9.206,0,0,0-.055,1.141,3.616,3.616,0,0,0,.3,1.766A1.055,1.055,0,0,0,12.262-1.875ZM19.777,0H17.137V-8.453h2.641Zm-2.8-10.633a1.175,1.175,0,0,1,.406-.922,1.533,1.533,0,0,1,1.055-.359,1.533,1.533,0,0,1,1.055.359,1.175,1.175,0,0,1,.406.922,1.175,1.175,0,0,1-.406.922,1.533,1.533,0,0,1-1.055.359,1.533,1.533,0,0,1-1.055-.359A1.175,1.175,0,0,1,16.98-10.633ZM21.066-4.3a4.989,4.989,0,0,1,.492-2.254,3.52,3.52,0,0,1,1.414-1.52,4.259,4.259,0,0,1,2.164-.531,3.887,3.887,0,0,1,2.992,1.176,4.512,4.512,0,0,1,1.094,3.2v.094A4.378,4.378,0,0,1,28.125-1,3.9,3.9,0,0,1,25.152.156a3.942,3.942,0,0,1-2.9-1.082,4.232,4.232,0,0,1-1.18-2.934Zm2.633.164a3.145,3.145,0,0,0,.367,1.719,1.223,1.223,0,0,0,1.086.547q1.406,0,1.438-2.164V-4.3q0-2.273-1.453-2.273-1.32,0-1.43,1.961ZM-32.855,20H-35.59V8.625h2.734Zm4.648-3.859V20h-2.742V8.625h4.539a5.287,5.287,0,0,1,2.309.48,3.621,3.621,0,0,1,1.555,1.367A3.734,3.734,0,0,1-22,12.484a3.291,3.291,0,0,1-1.191,2.66,4.943,4.943,0,0,1-3.27,1Zm0-2.117h1.8a1.7,1.7,0,0,0,1.215-.4,1.48,1.48,0,0,0,.418-1.125,1.83,1.83,0,0,0-.43-1.273,1.522,1.522,0,0,0-1.172-.484h-1.828Zm14.4,2.117V20h-2.742V8.625h4.539a5.287,5.287,0,0,1,2.309.48,3.621,3.621,0,0,1,1.555,1.367A3.734,3.734,0,0,1-7.6,12.484a3.291,3.291,0,0,1-1.191,2.66,4.943,4.943,0,0,1-3.27,1Zm0-2.117h1.8a1.7,1.7,0,0,0,1.215-.4,1.48,1.48,0,0,0,.418-1.125,1.83,1.83,0,0,0-.43-1.273,1.522,1.522,0,0,0-1.172-.484h-1.828Zm12.586,5.063a2.714,2.714,0,0,1-2.258,1.07,2.662,2.662,0,0,1-2.105-.809A3.4,3.4,0,0,1-6.3,17.023V11.547h2.633v5.492a.946.946,0,0,0,1.055,1.086,1.376,1.376,0,0,0,1.289-.648v-5.93H1.324V20H-1.145ZM-2.16,8H.621l-2.172,2.453H-3.7Zm12.773,7.844a5.152,5.152,0,0,1-.859,3.2,2.878,2.878,0,0,1-2.422,1.117,2.5,2.5,0,0,1-2.078-1.023L5.145,20H2.785V8H5.418v4.227a2.41,2.41,0,0,1,1.9-.836,2.879,2.879,0,0,1,2.438,1.133,5.179,5.179,0,0,1,.859,3.188ZM7.973,15.68a3.447,3.447,0,0,0-.324-1.738,1.092,1.092,0,0,0-1-.52,1.26,1.26,0,0,0-1.234.68v3.359a1.267,1.267,0,0,0,1.25.672,1.118,1.118,0,0,0,1.18-.906A6.518,6.518,0,0,0,7.973,15.68ZM14.551,20H11.91V8h2.641Zm4.4,0H16.309V11.547h2.641Zm-2.8-10.633a1.175,1.175,0,0,1,.406-.922,1.727,1.727,0,0,1,2.109,0,1.249,1.249,0,0,1,0,1.844,1.727,1.727,0,0,1-2.109,0A1.175,1.175,0,0,1,16.152,9.367Zm7.992,8.758a1.171,1.171,0,0,0,.859-.3,1.1,1.1,0,0,0,.3-.84H27.77a2.922,2.922,0,0,1-1,2.281,3.705,3.705,0,0,1-2.566.891A3.751,3.751,0,0,1,21.3,19a4.556,4.556,0,0,1-1.062-3.2v-.109a5.149,5.149,0,0,1,.473-2.262,3.441,3.441,0,0,1,1.363-1.508,4.065,4.065,0,0,1,2.109-.527A3.658,3.658,0,0,1,26.8,12.3a3.242,3.242,0,0,1,.969,2.477H25.3a1.445,1.445,0,0,0-.32-1.008,1.106,1.106,0,0,0-.859-.352q-1.023,0-1.2,1.3a9.206,9.206,0,0,0-.055,1.141,3.616,3.616,0,0,0,.3,1.766A1.055,1.055,0,0,0,24.145,18.125ZM33.645,20a2.973,2.973,0,0,1-.25-.758,2.448,2.448,0,0,1-2.031.914,3,3,0,0,1-2.031-.723,2.3,2.3,0,0,1-.836-1.816,2.364,2.364,0,0,1,1.016-2.078,5.174,5.174,0,0,1,2.953-.7h.813v-.445q0-1.164-1.008-1.164a.822.822,0,0,0-.937.922H28.7a2.364,2.364,0,0,1,1.043-1.992,4.379,4.379,0,0,1,2.66-.766,3.843,3.843,0,0,1,2.555.789,2.743,2.743,0,0,1,.961,2.164v3.742a3.832,3.832,0,0,0,.359,1.781V20ZM32,18.281a1.469,1.469,0,0,0,.816-.211,1.322,1.322,0,0,0,.465-.477V16.242h-.766q-1.375,0-1.375,1.234a.754.754,0,0,0,.242.582A.876.876,0,0,0,32,18.281Z" transform="translate(-14059 -17392.969)" fill="#12263f"/><path d="M-40.91-3.852a4.154,4.154,0,0,1-.641,2.1A3.866,3.866,0,0,1-43.2-.344a5.6,5.6,0,0,1-2.418.5A4.467,4.467,0,0,1-49.145-1.3,6.032,6.032,0,0,1-50.434-5.43v-.562a6.885,6.885,0,0,1,.582-2.926,4.41,4.41,0,0,1,1.676-1.937,4.676,4.676,0,0,1,2.531-.684,4.9,4.9,0,0,1,3.328,1.09,4.306,4.306,0,0,1,1.43,3h-2.734a2.037,2.037,0,0,0-.523-1.492,2.153,2.153,0,0,0-1.5-.453,1.638,1.638,0,0,0-1.5.766,4.921,4.921,0,0,0-.5,2.445v.8a5.445,5.445,0,0,0,.457,2.6,1.672,1.672,0,0,0,1.574.781,2.106,2.106,0,0,0,1.445-.445,1.89,1.89,0,0,0,.531-1.414Zm.844-.453a4.989,4.989,0,0,1,.492-2.254,3.52,3.52,0,0,1,1.414-1.52A4.259,4.259,0,0,1-36-8.609,3.887,3.887,0,0,1-33-7.434a4.512,4.512,0,0,1,1.094,3.2v.094A4.378,4.378,0,0,1-33.008-1,3.9,3.9,0,0,1-35.98.156a3.942,3.942,0,0,1-2.9-1.082,4.232,4.232,0,0,1-1.18-2.934Zm2.633.164a3.145,3.145,0,0,0,.367,1.719,1.223,1.223,0,0,0,1.086.547q1.406,0,1.438-2.164V-4.3q0-2.273-1.453-2.273-1.32,0-1.43,1.961Zm9.1-4.312.086.992a2.867,2.867,0,0,1,2.414-1.148,2.412,2.412,0,0,1,1.973.789,3.757,3.757,0,0,1,.676,2.375V0h-2.641V-5.336a1.426,1.426,0,0,0-.258-.941,1.193,1.193,0,0,0-.937-.3,1.256,1.256,0,0,0-1.148.609V0H-30.8V-8.453ZM-21.113,0V-6.625H-22.34V-8.453h1.227v-.281A3.228,3.228,0,0,1-20-11.32a4.433,4.433,0,0,1,2.883-.844,10.23,10.23,0,0,1,2.75.453l-.359,2.078-.437-.117a6.962,6.962,0,0,0-1.8-.227q-1.508,0-1.508,1.375v.148h1.656v1.828h-1.656V0Zm7.953,0h-2.648V-8.453h2.648Zm1.3-4.289a5.708,5.708,0,0,1,.422-2.266,3.4,3.4,0,0,1,1.211-1.52,3.192,3.192,0,0,1,1.836-.535,2.538,2.538,0,0,1,2.063.891l.094-.734h2.391V-.32a3.564,3.564,0,0,1-.52,1.941,3.334,3.334,0,0,1-1.5,1.266,5.528,5.528,0,0,1-2.281.441,4.769,4.769,0,0,1-1.8-.352,3.251,3.251,0,0,1-1.332-.914l1.1-1.547a2.414,2.414,0,0,0,1.938.867A1.568,1.568,0,0,0-6.5-.414V-.68A2.472,2.472,0,0,1-8.41.156a3.055,3.055,0,0,1-2.5-1.184A4.9,4.9,0,0,1-11.863-4.2Zm2.641.164A3.007,3.007,0,0,0-8.832-2.48a1.232,1.232,0,0,0,1.094.605A1.4,1.4,0,0,0-6.5-2.445V-6a1.363,1.363,0,0,0-1.227-.578,1.241,1.241,0,0,0-1.1.629A3.429,3.429,0,0,0-9.223-4.125ZM2.684-.914A2.714,2.714,0,0,1,.426.156,2.662,2.662,0,0,1-1.68-.652a3.4,3.4,0,0,1-.715-2.324V-8.453H.238v5.492A.946.946,0,0,0,1.293-1.875a1.376,1.376,0,0,0,1.289-.648v-5.93H5.23V0H2.762Zm9.1-5.156-.867-.062a1.558,1.558,0,0,0-1.594.781V0H6.691V-8.453H9.16l.086,1.086A2.039,2.039,0,0,1,11.1-8.609a2.567,2.567,0,0,1,.734.094ZM17.262,0a2.973,2.973,0,0,1-.25-.758A2.448,2.448,0,0,1,14.98.156a3,3,0,0,1-2.031-.723,2.3,2.3,0,0,1-.836-1.816,2.364,2.364,0,0,1,1.016-2.078,5.174,5.174,0,0,1,2.953-.7h.813v-.445q0-1.164-1.008-1.164a.822.822,0,0,0-.937.922H12.316a2.364,2.364,0,0,1,1.043-1.992,4.379,4.379,0,0,1,2.66-.766,3.843,3.843,0,0,1,2.555.789,2.743,2.743,0,0,1,.961,2.164v3.742a3.832,3.832,0,0,0,.359,1.781V0ZM15.613-1.719a1.469,1.469,0,0,0,.816-.211,1.322,1.322,0,0,0,.465-.477V-3.758h-.766q-1.375,0-1.375,1.234A.754.754,0,0,0,15-1.941.876.876,0,0,0,15.613-1.719Zm8.953-.156a1.171,1.171,0,0,0,.859-.3,1.1,1.1,0,0,0,.3-.84h2.469a2.922,2.922,0,0,1-1,2.281,3.705,3.705,0,0,1-2.566.891A3.751,3.751,0,0,1,21.723-1,4.556,4.556,0,0,1,20.66-4.2v-.109a5.149,5.149,0,0,1,.473-2.262A3.441,3.441,0,0,1,22.5-8.082a4.065,4.065,0,0,1,2.109-.527,3.658,3.658,0,0,1,2.617.914,3.242,3.242,0,0,1,.969,2.477H25.723a1.445,1.445,0,0,0-.32-1.008,1.106,1.106,0,0,0-.859-.352q-1.023,0-1.2,1.3a9.206,9.206,0,0,0-.055,1.141,3.616,3.616,0,0,0,.3,1.766A1.055,1.055,0,0,0,24.566-1.875ZM32.082,0H29.441V-8.453h2.641Zm-2.8-10.633a1.175,1.175,0,0,1,.406-.922,1.533,1.533,0,0,1,1.055-.359,1.533,1.533,0,0,1,1.055.359,1.175,1.175,0,0,1,.406.922,1.175,1.175,0,0,1-.406.922,1.533,1.533,0,0,1-1.055.359,1.533,1.533,0,0,1-1.055-.359A1.175,1.175,0,0,1,29.285-10.633ZM33.371-4.3a4.989,4.989,0,0,1,.492-2.254,3.52,3.52,0,0,1,1.414-1.52,4.259,4.259,0,0,1,2.164-.531,3.887,3.887,0,0,1,2.992,1.176,4.512,4.512,0,0,1,1.094,3.2v.094A4.378,4.378,0,0,1,40.43-1,3.9,3.9,0,0,1,37.457.156a3.942,3.942,0,0,1-2.9-1.082,4.232,4.232,0,0,1-1.18-2.934ZM36-4.141a3.145,3.145,0,0,0,.367,1.719,1.223,1.223,0,0,0,1.086.547q1.406,0,1.438-2.164V-4.3q0-2.273-1.453-2.273-1.32,0-1.43,1.961ZM37.8-12h2.781L38.41-9.547H36.262Zm7.3,3.547.086.992a2.867,2.867,0,0,1,2.414-1.148,2.412,2.412,0,0,1,1.973.789,3.757,3.757,0,0,1,.676,2.375V0H47.613V-5.336a1.426,1.426,0,0,0-.258-.941,1.193,1.193,0,0,0-.937-.3,1.256,1.256,0,0,0-1.148.609V0H42.637V-8.453Zm-67.8,23.922h-4.422V20h-2.742V8.625h7.609v2.117h-4.867v2.617h4.422ZM-18.449,20H-21.09V11.547h2.641Zm-2.8-10.633a1.175,1.175,0,0,1,.406-.922,1.533,1.533,0,0,1,1.055-.359,1.533,1.533,0,0,1,1.055.359,1.175,1.175,0,0,1,.406.922,1.175,1.175,0,0,1-.406.922,1.533,1.533,0,0,1-1.055.359,1.533,1.533,0,0,1-1.055-.359A1.175,1.175,0,0,1-21.246,9.367Zm9.531,4.563-.867-.062a1.558,1.558,0,0,0-1.594.781V20h-2.633V11.547h2.469l.086,1.086A2.039,2.039,0,0,1-12.4,11.391a2.567,2.567,0,0,1,.734.094Zm5.039,6.227A4.345,4.345,0,0,1-9.824,19a4.006,4.006,0,0,1-1.2-3.02v-.219a5.191,5.191,0,0,1,.48-2.289,3.516,3.516,0,0,1,1.4-1.535,4.233,4.233,0,0,1,2.188-.543A3.659,3.659,0,0,1-4.145,12.5a4.344,4.344,0,0,1,1.031,3.082V16.6H-8.348a1.9,1.9,0,0,0,.617,1.117,1.836,1.836,0,0,0,1.234.406,2.366,2.366,0,0,0,1.953-.875l1.2,1.422a3.363,3.363,0,0,1-1.395,1.082A4.713,4.713,0,0,1-6.676,20.156Zm-.3-6.734q-1.156,0-1.375,1.531h2.656v-.2a1.3,1.3,0,0,0-.32-.98A1.275,1.275,0,0,0-6.973,13.422ZM5.246,16.531,6.1,11.547H8.621L6.629,20H4.4L3,14.984,1.6,20H-.629l-1.992-8.453H-.1l.836,5.1,1.344-5.1H3.918ZM14.324,20a2.973,2.973,0,0,1-.25-.758,2.448,2.448,0,0,1-2.031.914,3,3,0,0,1-2.031-.723,2.3,2.3,0,0,1-.836-1.816,2.364,2.364,0,0,1,1.016-2.078,5.174,5.174,0,0,1,2.953-.7h.813v-.445q0-1.164-1.008-1.164a.822.822,0,0,0-.937.922H9.379a2.364,2.364,0,0,1,1.043-1.992,4.379,4.379,0,0,1,2.66-.766,3.843,3.843,0,0,1,2.555.789,2.743,2.743,0,0,1,.961,2.164v3.742a3.832,3.832,0,0,0,.359,1.781V20Zm-1.648-1.719a1.469,1.469,0,0,0,.816-.211,1.322,1.322,0,0,0,.465-.477V16.242h-.766q-1.375,0-1.375,1.234a.754.754,0,0,0,.242.582A.876.876,0,0,0,12.676,18.281ZM20.832,20H18.191V8h2.641Zm1.289-4.289a5.164,5.164,0,0,1,.867-3.164,2.854,2.854,0,0,1,2.422-1.156,2.428,2.428,0,0,1,1.906.891V8h2.641V20H27.59l-.133-.906a2.493,2.493,0,0,1-2.062,1.063A2.849,2.849,0,0,1,23,19,5.327,5.327,0,0,1,22.121,15.711Zm2.633.164q0,2.25,1.313,2.25a1.3,1.3,0,0,0,1.25-.734V14.172a1.261,1.261,0,0,0-1.234-.75q-1.219,0-1.32,1.969Z" transform="translate(-14059 -17299.969)" fill="#12263f"/><path d="M-7.024-4.79a2.81,2.81,0,0,1,1.948.7A2.283,2.283,0,0,1-4.3-2.314a2.283,2.283,0,0,1-.776,1.78,2.81,2.81,0,0,1-1.948.7,2.786,2.786,0,0,1-1.956-.7,2.3,2.3,0,0,1-.769-1.772,2.3,2.3,0,0,1,.769-1.772A2.786,2.786,0,0,1-7.024-4.79Zm7.163,0a2.81,2.81,0,0,1,1.948.7,2.283,2.283,0,0,1,.776,1.78,2.283,2.283,0,0,1-.776,1.78,2.81,2.81,0,0,1-1.948.7,2.786,2.786,0,0,1-1.956-.7,2.3,2.3,0,0,1-.769-1.772,2.3,2.3,0,0,1,.769-1.772A2.786,2.786,0,0,1,.139-4.79Zm7.148,0a2.81,2.81,0,0,1,1.948.7,2.283,2.283,0,0,1,.776,1.78,2.283,2.283,0,0,1-.776,1.78,2.81,2.81,0,0,1-1.948.7,2.786,2.786,0,0,1-1.956-.7,2.3,2.3,0,0,1-.769-1.772,2.3,2.3,0,0,1,.769-1.772A2.786,2.786,0,0,1,7.288-4.79Z" transform="translate(-14285.175 -17625.969)" fill="#12263f"/><path d="M551.166,152.541v49.184H709.744" transform="translate(-15297.379 -18352.615)" fill="none" stroke="#26a69a" stroke-miterlimit="10" stroke-width="4"/><path d="M8.24,0A8.24,8.24,0,1,1,0,8.24,8.24,8.24,0,0,1,8.24,0Z" transform="translate(-14754.453 -18159.131)" fill="#ffa726"/><path d="M644.371,185.391V779.945l138.31-.574" transform="translate(-15150.182 -18314.006)" fill="none" stroke="#26a69a" stroke-miterlimit="10" stroke-width="4"/><path d="M732.794,217.077V521.571l142.244-.563" transform="translate(-15016.973 -18276.766)" fill="none" stroke="#26a69a" stroke-miterlimit="10" stroke-width="4"/><path d="M0,0H138" transform="translate(-14505.5 -17619.688)" fill="none" stroke="#26a69a" stroke-width="4"/><path d="M0,0H141" transform="translate(-14505.5 -18082.344)" fill="none" stroke="#26a69a" stroke-width="4"/><path d="M0,0H147.5" transform="translate(-14287 -18013.357)" fill="none" stroke="#26a69a" stroke-width="4"/><path d="M0,0H147.5" transform="translate(-14287 -17926.996)" fill="none" stroke="#26a69a" stroke-width="4"/><path d="M0,0H147.5" transform="translate(-14287 -17842.477)" fill="none" stroke="#26a69a" stroke-width="4"/><path d="M732.794,468.271v223.45h148.66" transform="translate(-15020.18 -17981.535)" fill="none" stroke="#26a69a" stroke-miterlimit="10" stroke-width="4"/><path d="M0,0H148.946" transform="translate(-14287 -17464.209)" fill="none" stroke="#26a69a" stroke-width="4"/><path d="M0,0H148.5" transform="translate(-14287 -17371.26)" fill="none" stroke="#26a69a" stroke-width="4"/><path d="M8.24,0A8.24,8.24,0,1,1,0,8.24,8.24,8.24,0,0,1,8.24,0Z" transform="translate(-14513.48 -18090.584)" fill="#ffa726"/><path d="M8.24,0A8.24,8.24,0,1,1,0,8.24,8.24,8.24,0,0,1,8.24,0Z" transform="translate(-14292.419 -18021.598)" fill="#ffa726"/><path d="M8.24,0A8.24,8.24,0,1,1,0,8.24,8.24,8.24,0,0,1,8.24,0Z" transform="translate(-14292.419 -17935.236)" fill="#ffa726"/><path d="M8.24,0A8.24,8.24,0,1,1,0,8.24,8.24,8.24,0,0,1,8.24,0Z" transform="translate(-14292.419 -17850.715)" fill="#ffa726"/><path d="M8.24,0A8.24,8.24,0,1,1,0,8.24,8.24,8.24,0,0,1,8.24,0Z" transform="translate(-14292.419 -17763.436)" fill="#ffa726"/><path d="M8.24,0A8.24,8.24,0,1,1,0,8.24,8.24,8.24,0,0,1,8.24,0Z" transform="translate(-14513.48 -17627.928)" fill="#ffa726"/><path d="M8.24,0A8.24,8.24,0,1,1,0,8.24,8.24,8.24,0,0,1,8.24,0Z" transform="translate(-14513.48 -17542.301)" fill="#ffa726"/><path d="M8.24,0A8.24,8.24,0,1,1,0,8.24,8.24,8.24,0,0,1,8.24,0Z" transform="translate(-14295.626 -17472.449)" fill="#ffa726"/><path d="M8.24,0A8.24,8.24,0,1,1,0,8.24,8.24,8.24,0,0,1,8.24,0Z" transform="translate(-14295.626 -17379.5)" fill="#ffa726"/><path d="M8.24,0A8.24,8.24,0,1,1,0,8.24,8.24,8.24,0,0,1,8.24,0Z" transform="translate(-14295.626 -17298.055)" fill="#ffa726"/><path d="M839.006,210.126,773.22,185.391l-65.786,24.734v44.191H839.006Z" transform="translate(-15057.014 -18314.006)" fill="none" stroke="#ffa726" stroke-linecap="round" stroke-linejoin="round" stroke-width="4"/><path d="M656.966,145.59,591.18,120.856,525.393,145.59v44.191H656.966Z" transform="translate(-15337.393 -18389.855)" fill="none" stroke="#ffa726" stroke-linecap="round" stroke-linejoin="round" stroke-width="4"/><path d="M751.868,178.44l-65.786-24.734L620.3,178.44v44.191H751.868Z" transform="translate(-15191.893 -18351.246)" fill="none" stroke="#ffa726" stroke-linecap="round" stroke-linejoin="round" stroke-width="4"/><path d="M927.394,241.811l-65.786-24.734-65.786,24.734V286H927.394Z" transform="translate(-14919.393 -18276.766)" fill="none" stroke="#ffa726" stroke-linecap="round" stroke-linejoin="round" stroke-width="4"/><path d="M927.394,281.194l-65.786-24.735-65.786,24.735v44.191H927.394Z" transform="translate(-14919.393 -18230.48)" fill="none" stroke="#ffa726" stroke-linecap="round" stroke-linejoin="round" stroke-width="4"/><path d="M927.394,320.517l-65.786-24.734-65.786,24.734v44.191H927.394Z" transform="translate(-14919.393 -18184.262)" fill="none" stroke="#ffa726" stroke-linecap="round" stroke-linejoin="round" stroke-width="4"/><path d="M927.394,359.84l-65.786-24.734L795.821,359.84v44.191H927.394Z" transform="translate(-14919.393 -18138.045)" fill="none" stroke="#ffa726" stroke-linecap="round" stroke-linejoin="round" stroke-width="4"/><path d="M838.594,461.32l-65.786-24.735L707.021,461.32v44.191H838.594Z" transform="translate(-15057.867 -18018.775)" fill="none" stroke="#ffa726" stroke-linecap="round" stroke-linejoin="round" stroke-width="4"/><path d="M838.594,421.912l-65.786-24.734-65.786,24.734V466.1H838.594Z" transform="translate(-15057.867 -18065.092)" fill="none" stroke="#ffa726" stroke-linecap="round" stroke-linejoin="round" stroke-width="4"/><path d="M925.421,493.005l-65.786-24.734-65.786,24.734V537.2H925.421Z" transform="translate(-14917.42 -17981.535)" fill="none" stroke="#ffa726" stroke-linecap="round" stroke-linejoin="round" stroke-width="4"/><path d="M925.421,533.307l-65.786-24.734-65.786,24.734V577.5H925.421Z" transform="translate(-14917.42 -17934.168)" fill="none" stroke="#ffa726" stroke-linecap="round" stroke-linejoin="round" stroke-width="4"/><path d="M925.421,573.609l-65.786-24.734-65.786,24.734V617.8H925.421Z" transform="translate(-14917.42 -17886.801)" fill="none" stroke="#ffa726" stroke-linecap="round" stroke-linejoin="round" stroke-width="4"/><path d="M9,0l9,15H0Z" transform="translate(-14579.5 -18159.5) rotate(90)" fill="#ffa726"/><path d="M9,0l9,15H0Z" transform="translate(-14352.5 -18091.5) rotate(90)" fill="#ffa726"/><path d="M9,0l9,15H0Z" transform="translate(-14129.5 -18022.5) rotate(90)" fill="#ffa726"/><path d="M9,0l9,15H0Z" transform="translate(-14129.5 -17936.5) rotate(90)" fill="#ffa726"/><path d="M9,0l9,15H0Z" transform="translate(-14129.5 -17851.5) rotate(90)" fill="#ffa726"/><path d="M9,0l9,15H0Z" transform="translate(-14129.5 -17764.469) rotate(90)" fill="#ffa726"/><path d="M9,0l9,15H0Z" transform="translate(-14357 -17628.969) rotate(90)" fill="#ffa726"/><path d="M9,0l9,15H0Z" transform="translate(-14357 -17543.969) rotate(90)" fill="#ffa726"/><path d="M9,0l9,15H0Z" transform="translate(-14129.5 -17473.469) rotate(90)" fill="#ffa726"/><path d="M9,0l9,15H0Z" transform="translate(-14129.5 -17380.26) rotate(90)" fill="#ffa726"/><path d="M9,0l9,15H0Z" transform="translate(-14129.5 -17298.814) rotate(90)" fill="#ffa726"/></g></svg>