<svg xmlns="http://www.w3.org/2000/svg" width="99.996" height="100" viewBox="0 0 99.996 100"><path d="M81.778,7v8.333H.82V7A6.242,6.242,0,0,1,7.07.75H75.528A6.242,6.242,0,0,1,81.778,7Z" transform="translate(2.597 2.375)" fill="#ffca28"/><path d="M81.778,4.25V56.333a6.242,6.242,0,0,1-6.25,6.25H7.07a6.242,6.242,0,0,1-6.25-6.25V4.25Z" transform="translate(2.597 13.458)" fill="#fff6db"/><path d="M60.755,53.638a2.522,2.522,0,0,1-2.2-1.292C54.363,44.9,41.292,39.2,32.767,39.1v8.633a2.534,2.534,0,0,1-4.275,1.837L11.618,33.538a2.537,2.537,0,0,1,0-3.675L28.493,13.834a2.534,2.534,0,0,1,4.275,1.837v7.708c14.171,1.283,30.521,13.229,30.521,27.729a2.537,2.537,0,0,1-1.887,2.45,2.659,2.659,0,0,1-.646.079Z" transform="translate(34.295 41.612)" fill="#26a69a"/><path d="M65.208,62a3.108,3.108,0,0,1-2.721-1.6,29.6,29.6,0,0,0-25.4-15.067v9.371a3.122,3.122,0,0,1-5.275,2.262L10.975,37.178a3.122,3.122,0,0,1,0-4.529L31.8,12.858a3.122,3.122,0,0,1,5.275,2.262v9.517A34.419,34.419,0,0,1,68.329,58.87,3.129,3.129,0,0,1,66,61.9,3.008,3.008,0,0,1,65.208,62ZM17.663,34.916,30.833,47.428V42.208a3.126,3.126,0,0,1,3.125-3.125h2.754a35.875,35.875,0,0,1,22.912,8.292A28.171,28.171,0,0,0,33.958,30.749a3.126,3.126,0,0,1-3.125-3.125V22.4Z" transform="translate(31.667 38.001)"/><path d="M30.208,79.167H11.458A11.468,11.468,0,0,1,0,67.708V11.458A11.468,11.468,0,0,1,11.458,0H76.042A11.468,11.468,0,0,1,87.5,11.458v43.75a3.125,3.125,0,0,1-6.25,0V11.458A5.216,5.216,0,0,0,76.042,6.25H11.458A5.216,5.216,0,0,0,6.25,11.458v56.25a5.216,5.216,0,0,0,5.208,5.208h18.75a3.125,3.125,0,0,1,0,6.25Z"/><path d="M84.375,9.75H3.125a3.125,3.125,0,1,1,0-6.25h81.25a3.125,3.125,0,1,1,0,6.25Z" transform="translate(0 11.083)"/></svg>