<svg xmlns="http://www.w3.org/2000/svg" width="100" height="100" viewBox="0 0 100 100"><g transform="translate(-1 -1)"><g transform="translate(2.613 2.613)"><g transform="translate(0 22.581)"><path d="M16.516,19.226a6.45,6.45,0,0,0,6.452,6.452A14.538,14.538,0,0,0,8.452,40.194v1.613H5.226A3.235,3.235,0,0,1,2,38.581V19.226A3.235,3.235,0,0,1,5.226,16H17.387a6.435,6.435,0,0,0-.871,3.226Z" transform="translate(-2 -16)" fill="#ffedb7"/></g><g transform="translate(20.968 22.581)"><path d="M42.532,41.806H29.516V40.194A14.517,14.517,0,0,0,15,25.677,6.443,6.443,0,0,0,20.581,16H40.258c-2.452,4.177-4.29,9.452-4.29,12.9l4.839,1.613v6.258A8.193,8.193,0,0,0,42.532,41.806Z" transform="translate(-15 -16)" fill="#ffedb7"/></g><g transform="translate(6.452 32.258)"><path d="M35.032,36.516v1.613H31.806v4.177a2.281,2.281,0,0,1-3.887,1.613l-5.79-5.79H6V36.516a14.516,14.516,0,0,1,29.032,0Z" transform="translate(-6 -22)" fill="#4dd0e1"/></g><g transform="translate(14.516 19.355)"><path d="M23.032,17.226A6.44,6.44,0,1,1,17.452,14,6.435,6.435,0,0,1,23.032,17.226Z" transform="translate(-11 -14)" fill="#f0d0b4"/></g><g transform="translate(0 61.29)"><path d="M47.161,43.226V62.581a3.235,3.235,0,0,1-3.226,3.226H40.71v4.177A2.281,2.281,0,0,1,36.823,71.6l-5.79-5.79H5.226A3.235,3.235,0,0,1,2,62.581V43.226A3.235,3.235,0,0,1,5.226,40h38.71A3.235,3.235,0,0,1,47.161,43.226Z" transform="translate(-2 -40)" fill="#ffca28"/></g><g transform="translate(80.645 64.516)"><path d="M68.129,50.065V74.258H52V50.065a8.065,8.065,0,0,1,16.129,0Z" transform="translate(-52 -42)" fill="#26a69a"/></g><g transform="translate(54.839 59.677)"><path d="M63.419,39l6.452,4.839A8.04,8.04,0,0,0,61.806,51.9V76.1H36V62.452A19.907,19.907,0,0,1,48.9,43.839h9.677Z" transform="translate(-36 -39)" fill="#26a69a"/></g><g transform="translate(67.742 54.677)"><path d="M58.516,36.061V40.9l-4.839,4.839H44V39.287h1.613A6.46,6.46,0,0,0,51.29,35.9l.774.161Z" transform="translate(-44 -35.9)" fill="#f0d0b4"/></g><g transform="translate(41.935 16.129)"><path d="M55.419,37.339v8.532a1.618,1.618,0,0,1-1.613,1.613H41.1a8.252,8.252,0,0,1-5.839-2.419,6.544,6.544,0,0,1-.694-.806,8.193,8.193,0,0,1-1.726-5.032V32.968L28,31.355c0-3.452,1.839-8.726,4.29-12.9,2.145-3.645,4.742-6.452,7-6.452H53.806v4.323a11.287,11.287,0,0,0,1.613,21.016Z" transform="translate(-28 -12)" fill="#f0d0b4"/></g><g transform="translate(43.548 0)"><path d="M43.516,5.226h9.677v12.9H37.065a8.065,8.065,0,1,1,6.452-12.9Z" transform="translate(-29 -2)" fill="#b27946"/></g><g transform="translate(75.032 4.403)"><path d="M70.262,30.875A27.279,27.279,0,0,1,58.1,53.6l-2.355,1.565H49.294L48.52,55a6.493,6.493,0,0,0,.774-3.065V41.795a11.287,11.287,0,0,0,1.613-21.016V4.73A27.319,27.319,0,0,1,70.262,30.875Z" transform="translate(-48.52 -4.73)" fill="#b27946"/></g><g transform="translate(67.742 0)"><path d="M44,18.129V5.226A3.235,3.235,0,0,1,47.226,2h3.226a3.235,3.235,0,0,1,3.226,3.226V22.452a11.222,11.222,0,0,0-9.677,0Z" transform="translate(-44 -2)" fill="#969faa"/></g><g transform="translate(48.387 41.468)"><path d="M59.419,27.71V37.855a6.451,6.451,0,0,1-6.452,6.452H36.839A4.846,4.846,0,0,1,32,39.468a1.618,1.618,0,0,1,1.613-1.613H51.355a1.618,1.618,0,0,0,1.613-1.613V27.71a11.357,11.357,0,0,0,6.452,0Z" transform="translate(-32 -27.71)" fill="#969faa"/></g><g transform="translate(61.29 19.355)"><path d="M56.129,15.1a11.29,11.29,0,1,1-9.677,0,11.222,11.222,0,0,1,9.677,0Z" transform="translate(-40 -14)" fill="#ffca28"/></g><g transform="translate(67.742 25.806)"><circle cx="4.839" cy="4.839" r="4.839" fill="#ffc729"/></g></g><g transform="translate(1 1)"><path d="M91.9,65.545l-5.415-4.061V58.315l1.634-1.089A28.916,28.916,0,0,0,81.645,5.873V5.839A4.845,4.845,0,0,0,76.806,1H73.581a4.832,4.832,0,0,0-4.542,3.226H61.419A9.667,9.667,0,1,0,50.866,19.74a21.99,21.99,0,0,0-2.974,3.84H29.99a7.981,7.981,0,0,0-12.819,0H5.839A4.845,4.845,0,0,0,1,28.419V47.774a4.845,4.845,0,0,0,4.839,4.839H24.526l5.311,5.311a3.894,3.894,0,0,0,6.647-2.753V52.613H50.363c.1.111.2.227.3.334.066.066.137.123.2.185a3.219,3.219,0,0,0-1.484,2.706,6.458,6.458,0,0,0,6.452,6.452h12.9v3.768a21.6,21.6,0,0,0-12.9,19.69V101H101V75.194a9.681,9.681,0,0,0-9.1-9.648Zm-16.7-22.61a9.677,9.677,0,1,1,9.677-9.677A9.687,9.687,0,0,1,75.194,42.935ZM52.947,50.666A6.607,6.607,0,0,1,51,45.966V38.547l-4.774-1.592c.674-6.324,6.465-16.6,9.613-16.6h12.9V22.1a12.883,12.883,0,0,0,1.613,23.111v7.4H57.647a6.607,6.607,0,0,1-4.7-1.947ZM73.581,4.226h3.226a1.616,1.616,0,0,1,1.613,1.613v14.94a12.478,12.478,0,0,0-6.452,0V5.839a1.616,1.616,0,0,1,1.613-1.613ZM47.774,10.677a6.452,6.452,0,0,1,12.9,0H63.9a9.638,9.638,0,0,0-.565-3.226h5.4v9.677H54.226A6.458,6.458,0,0,1,47.774,10.677Zm-24.194,12.9a4.839,4.839,0,1,1-4.839,4.839A4.845,4.845,0,0,1,23.581,23.581ZM4.226,47.774V28.419a1.616,1.616,0,0,1,1.613-1.613h9.84a8.01,8.01,0,0,0,2.368,7.45,16.141,16.141,0,0,0-10.6,15.131H5.839a1.616,1.616,0,0,1-1.613-1.613Zm29.032,1.613v5.784a.693.693,0,0,1-1.14.473l-6.256-6.256H10.677a12.9,12.9,0,0,1,25.806,0Zm6.452,0a16.141,16.141,0,0,0-10.6-15.131,8.01,8.01,0,0,0,2.368-7.45H46.121c-1.94,4.015-3.185,8.4-3.185,11.29V39.26l4.839,1.613v5.094a9.885,9.885,0,0,0,.618,3.421Zm16.129,9.677a3.229,3.229,0,0,1-3.226-3.226H70.355a3.229,3.229,0,0,0,3.226-3.226V46.05a11.744,11.744,0,0,0,3.226,0v8.176a4.845,4.845,0,0,1-4.839,4.839Zm24.194-4.839V45.211A12.883,12.883,0,0,0,81.645,22.1V9.294a25.71,25.71,0,0,1,4.684,45.248l-3.071,2.047v5.034l-3.894,3.894h-7.4V62.29A8.074,8.074,0,0,0,80.032,54.226Zm1.613,20.968V97.774H59.065V85.748a18.36,18.36,0,0,1,11.59-17.006H80.7l4.323-4.323,2.5,1.876a9.691,9.691,0,0,0-5.879,8.9ZM97.774,97.774h-12.9V75.194a6.452,6.452,0,1,1,12.9,0Z" transform="translate(-1 -1)"/><path d="M49.452,17A6.452,6.452,0,1,0,55.9,23.452,6.458,6.458,0,0,0,49.452,17Zm0,9.677a3.226,3.226,0,1,1,3.226-3.226A3.229,3.229,0,0,1,49.452,26.677Z" transform="translate(24.742 8.806)"/><path d="M44.548,39H5.839A4.845,4.845,0,0,0,1,43.839V63.194a4.845,4.845,0,0,0,4.839,4.839H30.977l5.311,5.311a3.894,3.894,0,0,0,6.647-2.753V68.032h1.613a4.845,4.845,0,0,0,4.839-4.839V43.839A4.845,4.845,0,0,0,44.548,39Zm1.613,24.194a1.616,1.616,0,0,1-1.613,1.613H39.71V70.59a.694.694,0,0,1-1.14.473l-6.256-6.256H5.839a1.616,1.616,0,0,1-1.613-1.613V43.839a1.616,1.616,0,0,1,1.613-1.613h38.71a1.616,1.616,0,0,1,1.613,1.613Z" transform="translate(-1 22.29)"/><path d="M5,43H8.226v3.226H5Z" transform="translate(1.452 24.742)"/><path d="M9,43H38.032v3.226H9Z" transform="translate(3.903 24.742)"/><path d="M5,47H40.484v3.226H5Z" transform="translate(1.452 27.194)"/><path d="M5,51H40.484v3.226H5Z" transform="translate(1.452 29.645)"/></g></g></svg>