<svg xmlns="http://www.w3.org/2000/svg" width="125" height="125" viewBox="0 0 125 125"><g transform="translate(13833 14280)"><g transform="translate(-13833 -14280)" fill="#ffca28"><path d="M 62.5 120 C 54.7353401184082 120 47.20560073852539 118.4804000854492 40.11994171142578 115.4834213256836 C 36.71390151977539 114.0427780151367 33.42839813232422 112.2594223022461 30.35467910766602 110.182861328125 C 27.30890083312988 108.1251602172852 24.44459915161133 105.7618789672852 21.84136009216309 103.1586380004883 C 19.23811912536621 100.5553970336914 16.87483978271484 97.69110107421875 14.81713962554932 94.64531707763672 C 12.74057960510254 91.57160186767578 10.95722007751465 88.28610229492188 9.516579627990723 84.88005828857422 C 6.519599914550781 77.79440307617188 5 70.26466369628906 5 62.5 C 5 54.7353401184082 6.519599914550781 47.20560073852539 9.516579627990723 40.11994171142578 C 10.95722007751465 36.71390151977539 12.74057960510254 33.42839813232422 14.81713962554932 30.35467910766602 C 16.87483978271484 27.30890083312988 19.23811912536621 24.44459915161133 21.84136009216309 21.84136009216309 C 24.44459915161133 19.23811912536621 27.30890083312988 16.87483978271484 30.35467910766602 14.81713962554932 C 33.42839813232422 12.74057960510254 36.71390151977539 10.95722007751465 40.11994171142578 9.516579627990723 C 47.20560073852539 6.519599914550781 54.7353401184082 5 62.5 5 C 70.26466369628906 5 77.79440307617188 6.519599914550781 84.88005828857422 9.516579627990723 C 88.28610229492188 10.95722007751465 91.57160186767578 12.74057960510254 94.64531707763672 14.81713962554932 C 97.69110107421875 16.87483978271484 100.5553970336914 19.23811912536621 103.1586380004883 21.84136009216309 C 105.7618789672852 24.44459915161133 108.1251602172852 27.30890083312988 110.182861328125 30.35467910766602 C 112.2594223022461 33.42839813232422 114.0427780151367 36.71390151977539 115.4834213256836 40.11994171142578 C 118.4804000854492 47.20560073852539 120 54.7353401184082 120 62.5 C 120 70.26466369628906 118.4804000854492 77.79440307617188 115.4834213256836 84.88005828857422 C 114.0427780151367 88.28610229492188 112.2594223022461 91.57160186767578 110.182861328125 94.64531707763672 C 108.1251602172852 97.69110107421875 105.7618789672852 100.5553970336914 103.1586380004883 103.1586380004883 C 100.5553970336914 105.7618789672852 97.69110107421875 108.1251602172852 94.64531707763672 110.182861328125 C 91.57160186767578 112.2594223022461 88.28610229492188 114.0427780151367 84.88005828857422 115.4834213256836 C 77.79440307617188 118.4804000854492 70.26466369628906 120 62.5 120 Z" stroke="none"/><path d="M 62.5 10 C 33.5513916015625 10 10 33.5513916015625 10 62.5 C 10 91.4486083984375 33.5513916015625 115 62.5 115 C 91.4486083984375 115 115 91.4486083984375 115 62.5 C 115 33.5513916015625 91.4486083984375 10 62.5 10 M 62.5 0 C 97.01779174804688 0 125 27.98220825195312 125 62.5 C 125 97.01779174804688 97.01779174804688 125 62.5 125 C 27.98220825195312 125 0 97.01779174804688 0 62.5 C 0 27.98220825195312 27.98220825195312 0 62.5 0 Z" stroke="none" fill="#1565c0"/></g><path d="M-5.742-25.459h4.658q5.537,0,5.537-5.42a4.687,4.687,0,0,0-1.318-3.442A5,5,0,0,0-.586-35.654,5.352,5.352,0,0,0-4-34.512a3.486,3.486,0,0,0-1.45,2.842h-9.873a10.107,10.107,0,0,1,1.875-6.006,12.382,12.382,0,0,1,5.2-4.116,17.779,17.779,0,0,1,7.31-1.479q7.119,0,11.191,3.252a10.811,10.811,0,0,1,4.072,8.936,9.01,9.01,0,0,1-1.685,5.2,12.007,12.007,0,0,1-4.907,3.97,11.468,11.468,0,0,1,5.332,3.735A9.837,9.837,0,0,1,15-11.982a11.007,11.007,0,0,1-4.395,9.141Q6.211.586-.937.586a18.917,18.917,0,0,1-7.778-1.6A12.187,12.187,0,0,1-14.15-5.435,11.5,11.5,0,0,1-16-11.865h9.932a4.445,4.445,0,0,0,1.582,3.4,5.585,5.585,0,0,0,3.9,1.436,5.85,5.85,0,0,0,4.16-1.45,4.847,4.847,0,0,0,1.553-3.706q0-3.223-1.611-4.57A6.736,6.736,0,0,0-.937-18.105h-4.8Z" transform="translate(-13770.004 -14195.729)" fill="#00104e"/></g></svg>