<svg xmlns="http://www.w3.org/2000/svg" width="90" height="90" viewBox="0 0 90 90"><g transform="translate(-51.63)"><rect width="90" height="90" transform="translate(51.63)" fill="none"/><g transform="translate(63.948 1.318)"><path d="M131.924,94.863H73.681a3.551,3.551,0,0,1-3.551-3.551V11.051A3.551,3.551,0,0,1,73.681,7.5h42.566a3.552,3.552,0,0,1,2.511,1.04l15.676,15.676a3.551,3.551,0,0,1,1.04,2.511V91.312A3.551,3.551,0,0,1,131.924,94.863Z" transform="translate(-70.13 -7.5)" fill="#fff"/></g><g transform="translate(69.63 42.159)"><path d="M102.455,239.837h53.98v5.682h-53.98Z" transform="translate(-102.455 -239.837)" fill="#ffca28"/></g><g transform="translate(111.537 1.642)"><path d="M344.405,26.773h13.882a3.548,3.548,0,0,0-.717-1.04L341.894,10.057a3.544,3.544,0,0,0-1.04-.717V23.222A3.551,3.551,0,0,0,344.405,26.773Z" transform="translate(-340.854 -9.34)" fill="#ffca28"/></g><g transform="translate(69.63 7)"><g transform="translate(14.205)"><path d="M197.473,54.03a14.205,14.205,0,0,0-14.205-14.205V54.03Z" transform="translate(-183.268 -39.825)" fill="#4dd0e1"/></g><g transform="translate(14.205 14.205)"><path d="M183.268,120.638l10.045,10.045a14.161,14.161,0,0,0,4.161-10.045Z" transform="translate(-183.268 -120.638)" fill="#a2f5c3"/></g><path d="M116.66,54.03V39.825a14.205,14.205,0,1,0,10.045,24.25Z" transform="translate(-102.455 -39.825)" fill="#039be5"/></g><g transform="translate(69.63 53.523)"><circle cx="2.841" cy="2.841" r="2.841" fill="#ffa726"/></g><g transform="translate(69.63 64.888)"><circle cx="2.841" cy="2.841" r="2.841" fill="#ffa726"/></g><g transform="translate(69.63 77.672)"><circle cx="2.841" cy="2.841" r="2.841" fill="#ffa726"/></g><g transform="translate(100.172 53.523)"><circle cx="2.841" cy="2.841" r="2.841" fill="#ffa726"/></g><g transform="translate(100.172 64.888)"><circle cx="2.841" cy="2.841" r="2.841" fill="#ffa726"/></g><g transform="translate(100.172 77.672)"><circle cx="2.841" cy="2.841" r="2.841" fill="#ffa726"/></g><g transform="translate(62.63 0)"><path d="M106.794,233.658a1.318,1.318,0,0,0,1.318,1.318h40.827v3.045H97.6v-3.045h4.363a1.318,1.318,0,0,0,0-2.637H96.278a1.318,1.318,0,0,0-1.318,1.318v5.681a1.318,1.318,0,0,0,1.318,1.318h53.979a1.318,1.318,0,0,0,1.318-1.318v-5.681a1.318,1.318,0,0,0-1.318-1.318H108.112a1.318,1.318,0,0,0-1.318,1.318Z" transform="translate(-89.277 -191.499)"/><path d="M110.48,32.325A15.524,15.524,0,1,0,126,47.849,15.541,15.541,0,0,0,110.48,32.325ZM123.3,46.53H111.8v-11.5A12.911,12.911,0,0,1,123.3,46.53Zm-2.828,9.446-6.809-6.809H123.3A12.826,12.826,0,0,1,120.472,55.976ZM97.593,47.849a12.905,12.905,0,0,1,11.569-12.82v12.82a1.314,1.314,0,0,0,.386.932l9.06,9.06a12.879,12.879,0,0,1-21.014-9.992Z" transform="translate(-89.274 -26.643)"/><path d="M129.185,17.1,113.509,1.427A4.9,4.9,0,0,0,110.066,0H67.5A4.875,4.875,0,0,0,62.63,4.869v65.7a1.318,1.318,0,0,0,2.637,0V4.869A2.235,2.235,0,0,1,67.5,2.637h42.567c.051,0,.1,0,.152.008V15.524a4.875,4.875,0,0,0,4.87,4.87h12.879c0,.05.008.1.008.152v12.5a1.318,1.318,0,1,0,2.637,0v-12.5A4.9,4.9,0,0,0,129.185,17.1Zm-16.33-1.579V4.5L126.11,17.757H115.088a2.235,2.235,0,0,1-2.233-2.233Z" transform="translate(-62.63 0)"/><path d="M129.293,215.5a1.318,1.318,0,0,0-1.318,1.318V262.75a2.235,2.235,0,0,1-2.232,2.232H67.5a2.235,2.235,0,0,1-2.232-2.232v-8.409a1.318,1.318,0,0,0-2.637,0v8.409a4.875,4.875,0,0,0,4.869,4.869h58.243a4.875,4.875,0,0,0,4.869-4.869V216.818A1.318,1.318,0,0,0,129.293,215.5Z" transform="translate(-62.63 -177.619)"/><path d="M292,161.626h-1.776a1.318,1.318,0,0,0,0,2.637H292a1.318,1.318,0,0,0,0-2.637Z" transform="translate(-249.131 -133.215)"/><path d="M345.081,164.263a1.318,1.318,0,0,0,0-2.637h-12.43a1.318,1.318,0,0,0,0,2.637Z" transform="translate(-284.1 -133.215)"/><path d="M288.909,195.269a1.318,1.318,0,0,0,1.318,1.318H298.4a1.318,1.318,0,0,0,0-2.637h-8.168A1.318,1.318,0,0,0,288.909,195.269Z" transform="translate(-249.133 -159.858)"/><path d="M99.115,305.306a4.16,4.16,0,1,0-4.16-4.16A4.164,4.164,0,0,0,99.115,305.306Zm0-5.682a1.523,1.523,0,1,1-1.523,1.523A1.524,1.524,0,0,1,99.115,299.624Z" transform="translate(-89.273 -244.782)"/><path d="M173,329.313H160.924a1.318,1.318,0,0,0,0,2.637H173a1.318,1.318,0,1,0,0-2.637Z" transform="translate(-142.559 -271.426)"/><path d="M160.923,299.625H162.7a1.318,1.318,0,0,0,0-2.637h-1.776a1.318,1.318,0,0,0,0,2.637Z" transform="translate(-142.559 -244.783)"/><path d="M207.967,296.988H203.35a1.318,1.318,0,0,0,0,2.637h4.617a1.318,1.318,0,0,0,0-2.637Z" transform="translate(-177.528 -244.783)"/><path d="M99.115,369.956a4.16,4.16,0,1,0-4.16-4.16A4.164,4.164,0,0,0,99.115,369.956Zm0-5.682a1.523,1.523,0,1,1-1.523,1.523A1.524,1.524,0,0,1,99.115,364.274Z" transform="translate(-89.273 -298.068)"/><path d="M173,393.963H160.924a1.318,1.318,0,0,0,0,2.637H173a1.318,1.318,0,1,0,0-2.637Z" transform="translate(-142.559 -324.712)"/><path d="M160.923,364.275H162.7a1.318,1.318,0,1,0,0-2.637h-1.776a1.318,1.318,0,0,0,0,2.637Z" transform="translate(-142.559 -298.069)"/><path d="M207.967,361.638H203.35a1.318,1.318,0,0,0,0,2.637h4.617a1.318,1.318,0,0,0,0-2.637Z" transform="translate(-177.528 -298.069)"/><path d="M99.115,442.688a4.16,4.16,0,1,0-4.16-4.16A4.164,4.164,0,0,0,99.115,442.688Zm0-5.682a1.523,1.523,0,1,1-1.523,1.523A1.524,1.524,0,0,1,99.115,437.006Z" transform="translate(-89.273 -358.015)"/><path d="M160.923,469.332H173a1.318,1.318,0,0,0,0-2.637H160.923a1.318,1.318,0,0,0,0,2.637Z" transform="translate(-142.559 -384.659)"/><path d="M160.923,437.007H162.7a1.318,1.318,0,1,0,0-2.637h-1.776a1.318,1.318,0,0,0,0,2.637Z" transform="translate(-142.559 -358.016)"/><path d="M207.967,434.37H203.35a1.318,1.318,0,0,0,0,2.637h4.617a1.318,1.318,0,0,0,0-2.637Z" transform="translate(-177.528 -358.016)"/><path d="M272.862,296.988a4.16,4.16,0,1,0,4.159,4.16A4.164,4.164,0,0,0,272.862,296.988Zm0,5.682a1.523,1.523,0,1,1,1.523-1.523A1.525,1.525,0,0,1,272.862,302.67Z" transform="translate(-232.479 -244.783)"/><path d="M346.747,329.313H334.672a1.318,1.318,0,0,0,0,2.637h12.075a1.318,1.318,0,0,0,0-2.637Z" transform="translate(-285.766 -271.426)"/><path d="M334.672,299.625h1.776a1.318,1.318,0,0,0,0-2.637h-1.776a1.318,1.318,0,0,0,0,2.637Z" transform="translate(-285.766 -244.783)"/><path d="M381.715,296.988H377.1a1.318,1.318,0,0,0,0,2.637h4.617a1.318,1.318,0,0,0,0-2.637Z" transform="translate(-320.734 -244.783)"/><path d="M272.862,361.638a4.16,4.16,0,1,0,4.159,4.16A4.164,4.164,0,0,0,272.862,361.638Zm0,5.682a1.523,1.523,0,1,1,1.523-1.523A1.525,1.525,0,0,1,272.862,367.32Z" transform="translate(-232.479 -298.069)"/><path d="M346.747,393.963H334.672a1.318,1.318,0,0,0,0,2.637h12.075a1.318,1.318,0,0,0,0-2.637Z" transform="translate(-285.766 -324.712)"/><path d="M334.672,364.275h1.776a1.318,1.318,0,1,0,0-2.637h-1.776a1.318,1.318,0,0,0,0,2.637Z" transform="translate(-285.766 -298.069)"/><path d="M381.715,361.638H377.1a1.318,1.318,0,0,0,0,2.637h4.617a1.318,1.318,0,0,0,0-2.637Z" transform="translate(-320.734 -298.069)"/><path d="M272.862,434.37a4.16,4.16,0,1,0,4.159,4.16A4.164,4.164,0,0,0,272.862,434.37Zm0,5.682a1.523,1.523,0,1,1,1.523-1.523A1.525,1.525,0,0,1,272.862,440.052Z" transform="translate(-232.479 -358.016)"/><path d="M334.672,469.332h12.075a1.318,1.318,0,0,0,0-2.637H334.672a1.318,1.318,0,0,0,0,2.637Z" transform="translate(-285.766 -384.659)"/><path d="M334.672,437.007h1.776a1.318,1.318,0,1,0,0-2.637h-1.776a1.318,1.318,0,0,0,0,2.637Z" transform="translate(-285.766 -358.016)"/><path d="M381.715,434.37H377.1a1.318,1.318,0,0,0,0,2.637h4.617a1.318,1.318,0,0,0,0-2.637Z" transform="translate(-320.734 -358.016)"/></g></g></svg>