<svg xmlns="http://www.w3.org/2000/svg" xmlns:xlink="http://www.w3.org/1999/xlink" width="90" height="90" viewBox="0 0 90 90"><defs><clipPath id="a"><rect width="90" height="90" transform="translate(439 11160)" fill="#4dd0e1"/></clipPath></defs><g transform="translate(-439 -11160)" clip-path="url(#a)"><g transform="translate(437.549 11157.822)"><path d="M58.065,90l-1.276-1.276a10.514,10.514,0,0,1,0-14.867l1.276-1.276H29.032l1.276,1.276a10.513,10.513,0,0,1,0,14.867L29.032,90Z" fill="#afafaf"/><path d="M78.387,72.581H8.71A5.807,5.807,0,0,1,2.9,66.774V26.129A5.807,5.807,0,0,1,8.71,20.323H78.387a5.807,5.807,0,0,1,5.806,5.806V66.774A5.807,5.807,0,0,1,78.387,72.581Z" fill="#afafaf"/><path d="M78.387,20.323H8.71A5.807,5.807,0,0,0,2.9,26.129V60.968h81.29V26.129A5.807,5.807,0,0,0,78.387,20.323Z" fill="#4dd0e1"/><path d="M31.935,33.387h4.179a7.434,7.434,0,0,1,7.434,7.434V47.9H11.613V40.821a7.434,7.434,0,0,1,7.434-7.434h4.179L27.581,47.9Z" fill="#26a69a"/><path d="M24.677,15.968a5.807,5.807,0,0,1-5.806,5.806H17.419v1.7a9.912,9.912,0,0,0,9.912,9.912h.5a9.912,9.912,0,0,0,9.912-9.912v-1.7H30.482a5.806,5.806,0,0,1-5.805-5.806Z" fill="#efbe9a"/><path d="M27.83,33.387h-.5a9.88,9.88,0,0,1-4.105-.9v.9L27.582,47.9l4.355-14.516v-.9a9.9,9.9,0,0,1-4.107.9Z" fill="#c7e2fc"/><path d="M33.419,21.774H30.484a5.807,5.807,0,0,1-5.806-5.806,5.807,5.807,0,0,1-5.806,5.806H17.419v1.7A9.91,9.91,0,0,0,20.2,30.355a18.064,18.064,0,0,0,13.214-8.58Z" fill="#f5d8c2"/><path d="M24.677,15.968a5.807,5.807,0,0,1-5.806,5.806H17.419v-1.7a9.912,9.912,0,0,1,9.912-9.912h.5a9.912,9.912,0,0,1,9.913,9.912v1.7H30.484A5.807,5.807,0,0,1,24.677,15.968Z" fill="#976947"/><path d="M17.419,21.774v-1.7a10.008,10.008,0,0,1,.081-1.2H14.516a2.9,2.9,0,0,0-2.9,2.9v2.9a2.9,2.9,0,0,0,2.9,2.9h3.81a9.856,9.856,0,0,1-.907-4.105Z" fill="#26a69a"/><path d="M40.645,18.871H37.661a10.049,10.049,0,0,1,.081,1.2v3.4a9.88,9.88,0,0,1-.9,4.105h3.806a2.9,2.9,0,0,0,2.9-2.9v-2.9A2.9,2.9,0,0,0,40.645,18.871Z" fill="#26a69a"/><path d="M58.065,52.258V46.452a2.9,2.9,0,0,1,2.9-2.9H87.1a2.9,2.9,0,0,1,2.9,2.9V63.871a2.9,2.9,0,0,1-2.9,2.9H60.968a2.9,2.9,0,0,1-2.9-2.9V58.065l-5.806-5.806Z" fill="#ffca28"/><path d="M60.968,37.742H87.1a2.9,2.9,0,0,0,2.9-2.9V11.613a2.9,2.9,0,0,0-2.9-2.9H60.968a2.9,2.9,0,0,0-2.9,2.9V23.226l-5.806,5.806h5.806v5.806A2.9,2.9,0,0,0,60.968,37.742Z" fill="#ffca28"/><path d="M78.387,74.032H8.71a7.266,7.266,0,0,1-7.258-7.258V26.129A7.266,7.266,0,0,1,8.71,18.871h2.9v2.9H8.71a4.36,4.36,0,0,0-4.355,4.355V66.774A4.36,4.36,0,0,0,8.71,71.129H78.387a4.36,4.36,0,0,0,4.355-4.355h2.9A7.266,7.266,0,0,1,78.387,74.032Z"/><path d="M30.059,91.026l-2.053-2.053L29.282,87.7a9.063,9.063,0,0,0,0-12.815l-1.276-1.276,2.053-2.053,1.276,1.276a11.964,11.964,0,0,1,0,16.92Z"/><path d="M57.038,91.026,55.762,89.75a11.964,11.964,0,0,1,0-16.92l1.276-1.276,2.053,2.053-1.276,1.276a9.063,9.063,0,0,0,0,12.815l1.276,1.276Z"/><path d="M14.516,88.548H72.581v2.9H14.516Z"/><path d="M2.9,59.516H58.065v2.9H2.9Z"/><path d="M76.935,65.323h2.9v2.9h-2.9Z"/><path d="M37.742,24.677H30.484a7.253,7.253,0,0,1-5.806-2.908,7.253,7.253,0,0,1-5.806,2.908H17.419a1.451,1.451,0,0,1-1.452-1.452v-1.7A11.364,11.364,0,0,1,27.331,10.161h.5A11.364,11.364,0,0,1,39.194,21.526v1.7A1.451,1.451,0,0,1,37.742,24.677ZM26.129,17.419a4.36,4.36,0,0,0,4.355,4.355H36.29v-.248a8.46,8.46,0,0,0-8.46-8.461h-.5a8.46,8.46,0,0,0-8.46,8.461v.248a4.36,4.36,0,0,0,4.355-4.355,1.452,1.452,0,0,1,2.9,0Z"/><path d="M27.83,34.839h-.5A11.364,11.364,0,0,1,15.968,23.474v-1.7h2.9v1.7a8.46,8.46,0,0,0,8.46,8.461h.5a8.46,8.46,0,0,0,8.46-8.461v-1.7h2.9v1.7A11.364,11.364,0,0,1,27.83,34.839Z"/><path d="M43.548,49.355H11.613A1.451,1.451,0,0,1,10.161,47.9V40.821a8.886,8.886,0,0,1,8.885-8.885h4.179a1.453,1.453,0,0,1,1.391,1.035l2.964,9.881,2.964-9.881a1.453,1.453,0,0,1,1.391-1.035h4.179A8.886,8.886,0,0,1,45,40.821V47.9a1.451,1.451,0,0,1-1.452,1.452Zm-14.017-2.9H42.1V40.821a6.029,6.029,0,0,0-1.752-4.23,5.944,5.944,0,0,0-4.23-1.752h-3.1Zm-16.467,0H25.63L22.146,34.839h-3.1a5.941,5.941,0,0,0-4.23,1.752,6.029,6.029,0,0,0-1.752,4.23Z"/><path d="M18.871,29.032H14.516a4.36,4.36,0,0,1-4.355-4.355v-2.9a4.36,4.36,0,0,1,4.355-4.355h2.9v2.9h-2.9a1.453,1.453,0,0,0-1.452,1.452v2.9a1.453,1.453,0,0,0,1.452,1.452h4.355Z"/><path d="M40.645,29.032H36.29v-2.9h4.355A1.453,1.453,0,0,0,42.1,24.677v-2.9a1.453,1.453,0,0,0-1.452-1.452h-2.9v-2.9h2.9A4.36,4.36,0,0,1,45,21.774v2.9A4.36,4.36,0,0,1,40.645,29.032Z"/><path d="M42.1,18.871h-2.9V17.419a11.613,11.613,0,0,0-23.226,0v1.452h-2.9V17.419a14.516,14.516,0,1,1,29.032,0Z"/><path d="M87.1,39.194H60.968a4.36,4.36,0,0,1-4.355-4.355V30.484H52.258a1.451,1.451,0,0,1-1.026-2.478l5.381-5.381V11.613a4.36,4.36,0,0,1,4.355-4.355H87.1a4.36,4.36,0,0,1,4.355,4.355V34.839A4.36,4.36,0,0,1,87.1,39.194ZM55.762,27.581h2.3a1.451,1.451,0,0,1,1.452,1.452v5.806a1.453,1.453,0,0,0,1.452,1.452H87.1a1.453,1.453,0,0,0,1.452-1.452V11.613A1.453,1.453,0,0,0,87.1,10.161H60.968a1.453,1.453,0,0,0-1.452,1.452V23.226a1.448,1.448,0,0,1-.425,1.026Z"/><path d="M87.1,68.226H60.968a4.36,4.36,0,0,1-4.355-4.355V58.665l-5.381-5.381a1.451,1.451,0,0,1,1.026-2.478h4.355V46.452A4.36,4.36,0,0,1,60.968,42.1H87.1a4.36,4.36,0,0,1,4.355,4.355V63.871A4.36,4.36,0,0,1,87.1,68.226ZM55.762,53.71l3.329,3.329a1.448,1.448,0,0,1,.425,1.026v5.806a1.453,1.453,0,0,0,1.452,1.452H87.1a1.453,1.453,0,0,0,1.452-1.452V46.452A1.453,1.453,0,0,0,87.1,45H60.968a1.453,1.453,0,0,0-1.452,1.452v5.806a1.451,1.451,0,0,1-1.452,1.452Z"/><path d="M43.548,18.871H58.065v2.9H43.548Z"/><path d="M82.742,37.742h2.9v5.806h-2.9Z"/><path d="M62.419,13.065H85.645v2.9H62.419Z"/><path d="M65.323,18.871H82.742v2.9H65.323Z"/><path d="M62.419,24.677H85.645v2.9H62.419Z"/><path d="M65.323,30.484H82.742v2.9H65.323Z"/><path d="M62.419,47.9H85.645v2.9H62.419Z"/><path d="M62.419,59.516H85.645v2.9H62.419Z"/><path d="M65.323,53.71H82.742v2.9H65.323Z"/></g></g></svg>