<svg xmlns="http://www.w3.org/2000/svg" xmlns:xlink="http://www.w3.org/1999/xlink" width="90" height="90" viewBox="0 0 90 90"><defs><clipPath id="a"><rect width="90" height="90" transform="translate(439 442)" fill="#4dd0e1"/></clipPath></defs><g transform="translate(-439 -442)" clip-path="url(#a)"><g transform="translate(439 442)"><path d="M61.147,23.179a3.515,3.515,0,0,0,0,4.971l2.788,2.788-2.788,2.788A3.515,3.515,0,0,0,66.118,38.7l2.788-2.788L71.694,38.7a3.515,3.515,0,0,0,4.971-4.971l-2.788-2.788,2.788-2.788a3.515,3.515,0,1,0-4.971-4.971l-2.788,2.788-2.788-2.788A3.515,3.515,0,0,0,61.147,23.179Z" fill="#ffa726" fill-rule="evenodd"/><path d="M61.147,28.15a3.515,3.515,0,1,1,4.971-4.971l2.788,2.788,2.788-2.788a3.515,3.515,0,1,1,4.971,4.971l-2.788,2.788,2.788,2.788A3.515,3.515,0,0,1,71.694,38.7l-2.788-2.788L66.118,38.7a3.515,3.515,0,0,1-4.971-4.971l2.788-2.788ZM58.812,47.432A19.337,19.337,0,1,0,49.57,30.938q0,.712.051,1.411a19.22,19.22,0,0,0,2.79,8.682q-.836,3.115-1.671,6.231A1.506,1.506,0,0,0,52.6,49.1l6.211-1.666Z" fill="#fff" fill-rule="evenodd"/><path d="M52.412,41.031a19.218,19.218,0,0,1-2.79-8.682A23.045,23.045,0,0,0,31.406,43.5,14.9,14.9,0,0,0,12.595,56.725a10.836,10.836,0,1,0,0,21.673h64.2a11.525,11.525,0,0,0-.075-23.05H74.231a23.089,23.089,0,0,0-.694-5.632,19.392,19.392,0,0,1-14.725-2.284L52.6,49.1a1.506,1.506,0,0,1-1.861-1.835q.835-3.117,1.671-6.231Z" fill="#4dd0e1" fill-rule="evenodd"/><path d="M76.717,53.59h-.79a24.961,24.961,0,0,0-.33-2.646A21.094,21.094,0,1,0,47.813,30.767,24.878,24.878,0,0,0,30.592,41.5a16.72,16.72,0,0,0-3.153-.3c-.451,0-.917.019-1.382.058a1.758,1.758,0,1,0,.288,3.5c.37-.03.738-.046,1.094-.046a13.163,13.163,0,0,1,3.5.472,1.756,1.756,0,0,0,1.974-.79A21.356,21.356,0,0,1,48.078,34.28a21.015,21.015,0,0,0,2.445,7.007q-.741,2.759-1.481,5.523a3.223,3.223,0,0,0,.861,3.16,3.269,3.269,0,0,0,3.162.824l5.491-1.473a21.142,21.142,0,0,0,13.618,2.458,21.46,21.46,0,0,1,.3,3.569A1.758,1.758,0,0,0,74.231,57.1h2.486a9.768,9.768,0,0,1,.075,19.535h-64.2a9.078,9.078,0,1,1,0-18.157,1.758,1.758,0,0,0,1.753-1.627,13.024,13.024,0,0,1,1.058-4.264,1.758,1.758,0,0,0-3.221-1.409,16.51,16.51,0,0,0-1.157,3.881,12.595,12.595,0,0,0,1.567,25.091h64.2a13.058,13.058,0,0,0,9.332-3.935A13.262,13.262,0,0,0,76.717,53.59ZM59.731,45.933a1.759,1.759,0,0,0-1.375-.2l-.59.158-5.214,1.4q.778-2.9,1.557-5.8a1.757,1.757,0,0,0-.2-1.375,17.574,17.574,0,1,1,5.821,5.822Z"/><path d="M79.453,25.664a5.273,5.273,0,0,0-9-3.729L68.906,23.48l-1.545-1.545A5.273,5.273,0,0,0,59.9,29.393l1.545,1.545L59.9,32.482a5.273,5.273,0,0,0,7.457,7.457l1.545-1.545,1.545,1.545a5.273,5.273,0,1,0,7.457-7.457l-1.545-1.545,1.545-1.545A5.238,5.238,0,0,0,79.453,25.664Zm-6.818,6.516,2.788,2.788a1.757,1.757,0,0,1-2.485,2.485l-2.788-2.788a1.758,1.758,0,0,0-2.486,0l-2.788,2.788a1.757,1.757,0,1,1-2.485-2.485l2.788-2.788a1.758,1.758,0,0,0,0-2.486l-2.788-2.788a1.757,1.757,0,0,1,2.485-2.485l2.788,2.788a1.758,1.758,0,0,0,2.486,0l2.788-2.788a1.757,1.757,0,1,1,2.485,2.485l-2.788,2.788A1.758,1.758,0,0,0,72.635,32.181Z"/><path d="M18.775,47.5a1.758,1.758,0,0,0,0-3.516h0a1.758,1.758,0,0,0,0,3.516Z"/></g></g></svg>