<svg xmlns="http://www.w3.org/2000/svg" xmlns:xlink="http://www.w3.org/1999/xlink" width="90" height="90" viewBox="0 0 90 90"><defs><clipPath id="a"><rect width="90" height="90" transform="translate(439 736)" fill="#4dd0e1"/></clipPath></defs><g transform="translate(-439 -736)" clip-path="url(#a)"><g transform="translate(436.254 733.493)"><path d="M84.256,65.128a18.784,18.784,0,0,1-1.6,3.879l4.088,5.446L80.421,80.78l-5.446-4.088a18.783,18.783,0,0,1-3.879,1.6l-.97,6.759H61.174l-.97-6.759a18.783,18.783,0,0,1-3.879-1.6L50.879,80.78l-6.326-6.326,4.088-5.446a18.784,18.784,0,0,1-1.6-3.879l-6.759-.97V55.206l6.759-.97a18.784,18.784,0,0,1,1.6-3.879l-4.088-5.446,6.326-6.326,3.283,2.462,2.163,1.626a19.509,19.509,0,0,1,1.865-.9,18.9,18.9,0,0,1,2.014-.7l.97-6.759h8.952l.97,6.759a18.906,18.906,0,0,1,2.014.7,19.511,19.511,0,0,1,1.865.9l4.1-3.074,1.343-1.015,6.326,6.326-4.088,5.446a18.784,18.784,0,0,1,1.6,3.879l6.759.97v8.952Z" fill="#ffa726"/><path d="M73.11,50.372a11.936,11.936,0,0,0-5.968-2.536,12.328,12.328,0,0,0-1.492-.09,11.936,11.936,0,0,0,0,23.873,12.293,12.293,0,0,0,2.984-.373A11.936,11.936,0,0,0,73.11,50.372Z" fill="#ffca28"/><path d="M73.11,41.777a18.9,18.9,0,0,0-2.014-.7l-.97-6.759H67.142V21.993A10.432,10.432,0,0,1,68.634,4v9.43L73.11,14.92l4.476-1.492V4a10.432,10.432,0,0,1,1.492,17.994V39.6l-4.1,3.074a19.511,19.511,0,0,0-1.865-.9Z" fill="#c6c5ca"/><path d="M73.11,41.777v8.594a11.936,11.936,0,0,0-5.968-2.536V34.317h2.984l.97,6.759A18.906,18.906,0,0,1,73.11,41.777Z" fill="#ff9811"/><path d="M52.222,31.333H49.238a2.984,2.984,0,0,0-1.492.4v8.549c0,.358-.015.716-.045,1.059a1.7,1.7,0,0,0,.283.149,2.966,2.966,0,0,0,1.253.283h2.984a2.9,2.9,0,0,0,1.94-.731,2.942,2.942,0,0,0,1.044-2.253V34.317A2.993,2.993,0,0,0,52.222,31.333Z" fill="#26a69a"/><path d="M59.1,69.649A14.825,14.825,0,0,0,51.789,63.4l-11.5-4.61-1.492-.6a5.968,5.968,0,0,1-11.936,0l-13,5.207A14.894,14.894,0,0,0,4.476,77.243V91.015h56.7V77.243A14.907,14.907,0,0,0,59.1,69.649Z" fill="#26a69a"/><path d="M38.793,53.952V58.19a5.968,5.968,0,0,1-11.936,0V53.952a14.837,14.837,0,0,0,11.936,0Z" fill="#ffc477"/><path d="M17.9,40.285c0,.358.015.716.045,1.059a2.835,2.835,0,0,1-1.537.433H13.428a2.993,2.993,0,0,1-2.984-2.984V34.317a2.993,2.993,0,0,1,2.984-2.984h2.984a2.984,2.984,0,0,1,1.492.4Z" fill="#26a69a"/><path d="M38.793,53.952v2.984a14.837,14.837,0,0,1-11.936,0V53.952a14.837,14.837,0,0,0,11.936,0Z" fill="#ffb655"/><path d="M47.746,31.736v1.089H46.254a5.968,5.968,0,0,1-4.775-2.387l-2.686-3.581L33.78,30.87a8.916,8.916,0,0,1-5.58,1.955H17.9V29.841a14.92,14.92,0,1,1,29.841,0Z" fill="#57565c"/><path d="M46.254,32.825a5.968,5.968,0,0,1-4.775-2.387l-2.686-3.581L33.78,30.87a8.916,8.916,0,0,1-5.58,1.955H17.9v7.46c0,.358.015.716.045,1.059a14.907,14.907,0,0,0,26.8,7.893,12.622,12.622,0,0,0,1.388-2.223,14.637,14.637,0,0,0,1.537-5.207v-.015c.015-.149.03-.3.03-.448.03-.343.045-.7.045-1.059v-7.46Z" fill="#ffc477"/><rect width="2.984" height="2.984" transform="translate(23.873 37.301)"/><rect width="2.984" height="2.984" transform="translate(38.793 37.301)"/><path d="M91.227,53.729,85.4,52.9a20.889,20.889,0,0,0-.98-2.387l3.527-4.7a1.492,1.492,0,0,0-.139-1.95l-6.331-6.331a1.476,1.476,0,0,0-.9-.422V22.74a11.936,11.936,0,0,0,4.476-9.312A11.813,11.813,0,0,0,78.224,2.65,1.492,1.492,0,0,0,76.094,4v8.355l-2.984,1-2.984-1V4A1.492,1.492,0,0,0,68,2.656a11.813,11.813,0,0,0-6.823,10.773A11.936,11.936,0,0,0,65.65,22.74V32.825H61.174a1.492,1.492,0,0,0-1.477,1.28l-.965,6.757,2.954.422.782-5.476h6.365l.782,5.476a1.492,1.492,0,0,0,1.059,1.22,17.813,17.813,0,0,1,3.581,1.473,1.492,1.492,0,0,0,1.613-.115l4.418-3.312,4.5,4.5-3.32,4.418a1.492,1.492,0,0,0-.115,1.613,17.813,17.813,0,0,1,1.473,3.581,1.492,1.492,0,0,0,1.221,1.059l5.476.782v6.365l-5.476.782a1.492,1.492,0,0,0-1.22,1.059,17.813,17.813,0,0,1-1.473,3.581,1.492,1.492,0,0,0,.115,1.613l3.312,4.418-4.5,4.5L75.863,75.5a1.492,1.492,0,0,0-1.613-.115,17.814,17.814,0,0,1-3.581,1.473,1.492,1.492,0,0,0-1.059,1.22l-.777,5.479H62.666v-6.31a16.562,16.562,0,0,0-.671-4.657,13.593,13.593,0,1,0-9.54-10.537c-.036-.015-.07-.033-.106-.046L40.285,57.18V54.887a16.545,16.545,0,0,0,5.191-4.157h3.761a4.476,4.476,0,0,0,4.476-4.476V42.995a4.476,4.476,0,0,0,2.984-4.2V34.317a4.476,4.476,0,0,0-2.984-4.2V28.349a20.889,20.889,0,1,0-41.777,0v1.767a4.476,4.476,0,0,0-2.984,4.2v4.476a4.476,4.476,0,0,0,4.476,4.476h2.984c.1,0,.188-.015.282-.021a16.447,16.447,0,0,0,8.67,11.638V57.18L13.3,62.005A16.336,16.336,0,0,0,2.984,77.245v13.77a1.492,1.492,0,0,0,1.492,1.492h56.7a1.492,1.492,0,0,0,1.492-1.492V86.539h7.46a1.492,1.492,0,0,0,1.477-1.28l.833-5.829a20.888,20.888,0,0,0,2.387-.98l4.7,3.527a1.492,1.492,0,0,0,1.95-.139l6.331-6.331a1.492,1.492,0,0,0,.139-1.95l-3.527-4.7a20.889,20.889,0,0,0,.98-2.387l5.829-.833a1.492,1.492,0,0,0,1.279-1.476V55.206a1.492,1.492,0,0,0-1.28-1.477ZM74.814,40.915c-.07-.034-.149-.057-.219-.09V22.381H71.618V34.213l-.015-.107a1.492,1.492,0,0,0-1.477-1.28H68.634V21.993a1.492,1.492,0,0,0-.64-1.225,8.952,8.952,0,0,1-.852-14.021v6.681a1.492,1.492,0,0,0,1.021,1.416l4.476,1.492a1.492,1.492,0,0,0,.943,0l4.476-1.492a1.492,1.492,0,0,0,1.021-1.416V6.747a8.952,8.952,0,0,1-.852,14.025,1.492,1.492,0,0,0-.64,1.22v16.85ZM55.206,59.682a10.519,10.519,0,1,1,4.973,8.864,16.287,16.287,0,0,0-3.9-4.293,10.2,10.2,0,0,1-1.077-4.572ZM49.238,47.746H47.426a16.264,16.264,0,0,0,1.529-4.5c.094,0,.187.021.282.021H50.73v2.984A1.492,1.492,0,0,1,49.238,47.746ZM46.254,31.333a4.5,4.5,0,0,1-3.581-1.79l-2.686-3.581a1.492,1.492,0,0,0-1.006-.585,1.508,1.508,0,0,0-1.121.315l-5.007,4A7.487,7.487,0,0,1,28.2,31.333H19.4V29.841a13.428,13.428,0,1,1,26.857,0Zm7.46,7.46a1.492,1.492,0,0,1-1.492,1.492H49.238v-7.46h2.984a1.492,1.492,0,0,1,1.492,1.492ZM32.825,10.444a17.924,17.924,0,0,1,17.9,17.9v1.492H49.238a16.413,16.413,0,1,0-32.825,0H14.92V28.349a17.924,17.924,0,0,1,17.9-17.9Zm-19.4,29.841a1.492,1.492,0,0,1-1.492-1.492V34.317a1.492,1.492,0,0,1,1.492-1.492h2.984v7.46Zm5.968,0V34.317h8.8a10.48,10.48,0,0,0,6.523-2.289l3.806-3.045,1.756,2.35a7.5,7.5,0,0,0,5.968,2.984v5.968a13.349,13.349,0,0,1-2.271,7.46H32.825V50.73h8.421A13.415,13.415,0,0,1,19.4,40.285ZM32.825,56.7a16.362,16.362,0,0,0,4.476-.636V58.19a4.476,4.476,0,1,1-8.952,0V56.062a16.362,16.362,0,0,0,4.476.636ZM59.682,89.523H50.73V73.11H47.746V89.523H17.9V73.11H14.92V89.523H5.968V77.245A13.366,13.366,0,0,1,14.41,64.776l11.284-4.513a7.412,7.412,0,0,0,14.261,0L51.24,64.776a13.366,13.366,0,0,1,8.442,12.469Z"/><rect width="2.984" height="2.984" transform="translate(64.158 38.793)"/><rect width="2.984" height="2.984" transform="translate(64.158 77.587)"/><rect width="2.984" height="2.984" transform="translate(77.255 73.398) rotate(-45)"/><rect width="2.984" height="2.984" transform="translate(83.555 58.19)"/><rect width="2.984" height="2.984" transform="translate(77.255 45.967) rotate(-45)"/></g></g></svg>