<svg xmlns="http://www.w3.org/2000/svg" width="154.467" height="154.467" viewBox="0 0 154.467 154.467"><defs><style>.a{fill:#ffedb7;}.b{fill:#aab2bd;}.c{fill:#ccd1d9;}.d{fill:#4dd0e1;}.e{fill:#1565c0;}.f{fill:#26a69a;}.g{fill:#ffeaa7;}.h{fill:#ffa726;}.i{fill:#ffca28;}</style></defs><g transform="translate(20390 12868)"><path class="a" d="M77.233,0A77.233,77.233,0,1,1,0,77.233,77.233,77.233,0,0,1,77.233,0Z" transform="translate(-20390 -12868)"/><g transform="translate(-20354 -12831)"><path class="b" d="M55.742,40v5.161H48V40Z" transform="translate(13.645 11.323)"/><path class="c" d="M68.387,36v2.581a2.588,2.588,0,0,1-2.581,2.581H42.581A2.588,2.588,0,0,1,40,38.581V36Z" transform="translate(11.323 10.161)"/><path class="d" d="M11.613,0A11.613,11.613,0,1,1,0,11.613,11.613,11.613,0,0,1,11.613,0Z" transform="translate(56.484 2.29)"/><path class="e" d="M68.387,26.581v12.9H40v-12.9A2.588,2.588,0,0,1,42.581,24H65.806A2.588,2.588,0,0,1,68.387,26.581Z" transform="translate(11.323 6.677)"/><path class="b" d="M20.065,4.581V7.161H2V4.581A2.588,2.588,0,0,1,4.581,2h12.9A2.588,2.588,0,0,1,20.065,4.581Z" transform="translate(0.29 0.29)"/><path class="b" d="M20.065,20v2.581a2.588,2.588,0,0,1-2.581,2.581H4.581A2.588,2.588,0,0,1,2,22.581V20Z" transform="translate(0.29 5.516)"/><path class="f" d="M20.065,15.032v9.032H2V6H20.065Z" transform="translate(0.29 1.452)"/><path class="g" d="M14.9,28A12.9,12.9,0,1,1,2,40.9,12.908,12.908,0,0,1,14.9,28Z" transform="translate(0.29 7.839)"/><path class="h" d="M2.581,0A2.581,2.581,0,1,1,0,2.581,2.581,2.581,0,0,1,2.581,0Z" transform="translate(12.613 51.323)"/><path class="i" d="M37.484,42.2a12.9,12.9,0,1,1-5.161,0v5.355a7.742,7.742,0,1,0,5.161,0Z" transform="translate(6.097 11.961)"/><path class="h" d="M35.161,48.774v4.71a2.581,2.581,0,0,1-5.161,0v-12.9A2.588,2.588,0,0,1,32.581,38a2.6,2.6,0,0,1,2.581,2.581v8.194Z" transform="translate(8.419 10.742)"/><path d="M77.129,23H53.9a3.876,3.876,0,0,0-3.871,3.871V42.355A3.876,3.876,0,0,0,53.9,46.226h6.452v2.581H57.774v2.581h6.452v6.452a1.292,1.292,0,0,1-1.29,1.29h-7.8a14.24,14.24,0,0,0-10.262-12.36V44.935a3.871,3.871,0,1,0-7.742,0v1.834a14.241,14.241,0,0,0-10.262,12.36H17.774a1.292,1.292,0,0,1-1.29-1.29V56.483a14.194,14.194,0,1,0-2.581,0v1.356a3.876,3.876,0,0,0,3.871,3.871h9.1a14.186,14.186,0,0,0,28.255,0h7.808a3.876,3.876,0,0,0,3.871-3.871V51.387h6.452V48.806H70.677V46.226h6.452A3.876,3.876,0,0,0,81,42.355V26.871A3.876,3.876,0,0,0,77.129,23ZM3.581,42.355A11.613,11.613,0,1,1,15.194,53.968,11.627,11.627,0,0,1,3.581,42.355ZM41,61.71a3.876,3.876,0,0,0,3.871-3.871V55.271a6.452,6.452,0,1,1-7.742,0v2.568A3.876,3.876,0,0,0,41,61.71ZM39.71,44.935a1.29,1.29,0,1,1,2.581,0v12.9a1.29,1.29,0,0,1-2.581,0ZM41,72.032A11.607,11.607,0,0,1,37.129,49.48v2.814a9.032,9.032,0,1,0,7.742,0V49.48A11.607,11.607,0,0,1,41,72.032ZM53.9,25.581H77.129a1.292,1.292,0,0,1,1.29,1.29V38.484H52.613V26.871A1.292,1.292,0,0,1,53.9,25.581ZM68.1,48.806H62.935V46.226H68.1Zm9.032-5.161H53.9a1.292,1.292,0,0,1-1.29-1.29v-1.29H78.419v1.29A1.292,1.292,0,0,1,77.129,43.645Z" transform="translate(0 6.387)"/><path d="M4.871,31.968h12.9A3.876,3.876,0,0,0,21.645,28.1V17.774h12.9a1.292,1.292,0,0,1,1.29,1.29V35.839h2.581V19.065a3.876,3.876,0,0,0-3.871-3.871h-12.9V4.871A3.876,3.876,0,0,0,17.774,1H4.871A3.876,3.876,0,0,0,1,4.871V28.1A3.876,3.876,0,0,0,4.871,31.968Zm12.9-2.581H4.871a1.292,1.292,0,0,1-1.29-1.29v-1.29H19.065V28.1A1.292,1.292,0,0,1,17.774,29.387ZM3.581,24.226V8.742H19.065V24.226ZM4.871,3.581h12.9a1.292,1.292,0,0,1,1.29,1.29v1.29H3.581V4.871A1.292,1.292,0,0,1,4.871,3.581Z"/><path d="M16.742,42.871a3.871,3.871,0,1,0-3.871,3.871A3.876,3.876,0,0,0,16.742,42.871Zm-5.161,0a1.29,1.29,0,1,1,1.29,1.29A1.292,1.292,0,0,1,11.581,42.871Z" transform="translate(2.323 11.032)"/><path d="M18,39.469l1.825-1.825a9.042,9.042,0,0,0-12.773,0l1.825,1.825A6.46,6.46,0,0,1,18,39.469Z" transform="translate(1.757 9.872)"/><path d="M22.47,36.98l1.825-1.825a14.21,14.21,0,0,0-20.074,0L6.046,36.98A11.628,11.628,0,0,1,22.47,36.98Z" transform="translate(0.935 8.711)"/><path d="M28,34h2.581v2.581H28Z" transform="translate(7.839 9.581)"/><path d="M28,30h2.581v2.581H28Z" transform="translate(7.839 8.419)"/><path d="M34,34h2.581v2.581H34Z" transform="translate(9.581 9.581)"/><path d="M34,30h2.581v2.581H34Z" transform="translate(9.581 8.419)"/><path d="M36.581,16.484a1.292,1.292,0,0,1,1.29-1.29h7.808a12.9,12.9,0,1,0,0-2.581H37.871A3.876,3.876,0,0,0,34,16.484V35.839h2.581Zm21.935-12.9c.4,0,1.268,1.32,1.886,3.871H56.63c.618-2.551,1.483-3.871,1.886-3.871Zm2.347,6.452c.1.792.173,1.648.208,2.581H55.959c.035-.933.11-1.788.208-2.581ZM58.516,24.226c-.4,0-1.268-1.32-1.886-3.871H60.4C59.785,22.906,58.92,24.226,58.516,24.226Zm-2.347-6.452c-.1-.792-.173-1.648-.208-2.581h5.112c-.035.933-.11,1.788-.208,2.581Zm7.484-2.581h5.1a10.223,10.223,0,0,1-.671,2.581H63.461C63.556,16.926,63.622,16.062,63.653,15.194Zm5.1-2.581h-5.1c-.031-.868-.1-1.733-.192-2.581h4.618A10.278,10.278,0,0,1,68.75,12.613Zm-15.37,0h-5.1a10.223,10.223,0,0,1,.671-2.581h4.618C53.476,10.88,53.41,11.745,53.379,12.613Zm0,2.581c.031.868.1,1.733.192,2.581H48.954a10.278,10.278,0,0,1-.671-2.581Zm-2.908,5.161h3.508a17.2,17.2,0,0,0,.97,3.223,10.359,10.359,0,0,1-4.479-3.223Zm11.612,3.223a17.2,17.2,0,0,0,.97-3.223h3.508A10.359,10.359,0,0,1,62.083,23.578ZM66.561,7.452H63.053a17.2,17.2,0,0,0-.97-3.223A10.359,10.359,0,0,1,66.561,7.452ZM54.95,4.228a17.3,17.3,0,0,0-.97,3.223H50.471A10.359,10.359,0,0,1,54.95,4.228Z" transform="translate(9.581)"/></g></g></svg>