<svg xmlns="http://www.w3.org/2000/svg" xmlns:xlink="http://www.w3.org/1999/xlink" width="228.519" height="227.57" viewBox="0 0 228.519 227.57"><defs><linearGradient id="a" x1="-2.944" y1="-0.378" x2="-1.627" y2="2.004" gradientUnits="objectBoundingBox"><stop offset="0" stop-color="#ffc444"/><stop offset="0.996" stop-color="#f36f56"/></linearGradient></defs><g transform="translate(3490.552 -771.368)"><path d="M-3435.618,785.046c-7.675,10.987,1.324,28.8-10.064,37.063-11.085,8.044-24.7-5.141-35.151,1.783-15.5,10.271-12.668,57.27,9.991,86.472,6.814,8.782,12.508,12.2,15.03,22.131,5.415,21.326-13.616,34.013-9.994,44.56,8.154,23.749,133.564,43.678,183.885-27.7,23.5-33.335,27.018-81.471,6.02-118.031C-3313.845,765.264-3418.4,760.393-3435.618,785.046Z" transform="translate(0 0)" fill="#fff6db"/><g transform="translate(-3488.95 774.202)"><path d="M-3337.818,1931.854l-3.668-.031a28.439,28.439,0,0,0-1.295-4.827l3.182-1.8a1.8,1.8,0,0,0,.665-2.47l-3.137-5.464a1.837,1.837,0,0,0-2.486-.7l-3.224,1.815a29.346,29.346,0,0,0-3.537-3.557l1.87-3.2a1.832,1.832,0,0,0-.669-2.5l-5.473-3.229a1.823,1.823,0,0,0-2.506.627l-1.882,3.209a29.255,29.255,0,0,0-4.856-1.35v-3.759a1.873,1.873,0,0,0-1.844-1.858l-6.384-.108a1.806,1.806,0,0,0-1.853,1.8v3.77a28.985,28.985,0,0,0-4.9,1.209l-1.906-3.288a1.9,1.9,0,0,0-2.544-.713l-5.584,3.089a1.809,1.809,0,0,0-.684,2.5l1.914,3.289a28.8,28.8,0,0,0-3.623,3.507l-3.315-1.924a1.882,1.882,0,0,0-2.565.642l-3.248,5.483a1.839,1.839,0,0,0,.689,2.53l3.292,1.9a28.23,28.23,0,0,0-1.338,4.882l-3.8-.032a1.848,1.848,0,0,0-1.885,1.833v6.384a1.879,1.879,0,0,0,1.885,1.859l3.771.021a28.5,28.5,0,0,0,1.319,4.929l-3.243,1.825a1.825,1.825,0,0,0-.689,2.521l3.248,5.528a1.9,1.9,0,0,0,2.565.678l3.218-1.822a29.438,29.438,0,0,0,3.655,3.612l-1.848,3.152a1.824,1.824,0,0,0,.684,2.514l5.584,3.167a1.879,1.879,0,0,0,2.544-.677l1.825-3.123a29.276,29.276,0,0,0,4.979,1.3v3.605a1.836,1.836,0,0,0,1.853,1.827l6.384-.019a1.842,1.842,0,0,0,1.844-1.833V1965a28.956,28.956,0,0,0,4.936-1.31l1.8,3.1a1.838,1.838,0,0,0,2.506.662l5.473-3.154a1.816,1.816,0,0,0,.669-2.486l-1.807-3.116a28.745,28.745,0,0,0,3.568-3.562l3.129,1.805a1.822,1.822,0,0,0,2.486-.662l3.137-5.42a1.817,1.817,0,0,0-.665-2.48l-3.134-1.819a28.2,28.2,0,0,0,1.277-4.836l3.639.02a1.8,1.8,0,0,0,1.813-1.8v-6.257A1.831,1.831,0,0,0-3337.818,1931.854Zm-32.048-13.676a18.733,18.733,0,0,1,18.563,18.608,18.423,18.423,0,0,1-18.563,18.352,18.726,18.726,0,0,1-18.768-18.609A18.417,18.417,0,0,1-3369.867,1918.178Z" transform="translate(3409.811 -1813.548)" fill="#4dd0e1"/><g transform="translate(30.057 0)"><path d="M-2778.156,1073.309l-3.32-.091a25.028,25.028,0,0,0-1.173-4.279l2.881-1.531a1.546,1.546,0,0,0,.6-2.165l-2.84-4.876a1.711,1.711,0,0,0-2.252-.663l-2.924,1.539a27.155,27.155,0,0,0-3.211-3.209l1.7-2.787a1.615,1.615,0,0,0-.607-2.216l-4.974-2.966a1.666,1.666,0,0,0-2.28.5l-1.714,2.8a27.755,27.755,0,0,0-4.426-1.295v-3.326a1.733,1.733,0,0,0-1.682-1.684l-5.833-.234a1.584,1.584,0,0,0-1.7,1.557v3.342a26.849,26.849,0,0,0-4.486.97l-1.748-2.957a1.8,1.8,0,0,0-2.335-.687l-5.13,2.625a1.557,1.557,0,0,0-.63,2.211l1.759,2.961a25.319,25.319,0,0,0-3.332,3.044l-3.052-1.776a1.749,1.749,0,0,0-2.364.52l-3,4.816a1.626,1.626,0,0,0,.635,2.265l3.036,1.751a24.012,24.012,0,0,0-1.234,4.319l-3.508-.1a1.641,1.641,0,0,0-1.74,1.6v5.685a1.744,1.744,0,0,0,1.74,1.686l3.48.08a25.025,25.025,0,0,0,1.216,4.406l-2.99,1.574a1.577,1.577,0,0,0-.635,2.233l3,4.966a1.8,1.8,0,0,0,2.364.639l2.963-1.574a27.257,27.257,0,0,0,3.362,3.262l-1.7,2.775a1.606,1.606,0,0,0,.63,2.243l5.13,2.884a1.743,1.743,0,0,0,2.335-.569l1.674-2.747a27.818,27.818,0,0,0,4.56,1.221v3.2a1.682,1.682,0,0,0,1.7,1.642l5.833.061a1.63,1.63,0,0,0,1.682-1.6v-3.181a26.784,26.784,0,0,0,4.5-1.095l1.641,2.762a1.715,1.715,0,0,0,2.28.617l4.974-2.716a1.567,1.567,0,0,0,.607-2.186l-1.641-2.776a25.238,25.238,0,0,0,3.24-3.095l2.838,1.636a1.659,1.659,0,0,0,2.252-.549l2.84-4.733a1.594,1.594,0,0,0-.6-2.2l-2.838-1.651a24.061,24.061,0,0,0,1.156-4.244l3.293.076a1.574,1.574,0,0,0,1.639-1.558v-5.512A1.673,1.673,0,0,0-2778.156,1073.309Zm-29.135-12.672c9.375.312,16.912,7.829,16.912,16.792s-7.537,16.1-16.912,15.941c-9.463-.162-17.2-7.684-17.2-16.8S-2816.753,1060.322-2807.291,1060.637Z" transform="translate(2860.322 -1027.269)" fill="#26a69a"/><path d="M-3047.977,806.306c-28.949-1.439-53.032,20.149-53.032,48.256s24.083,50.909,53.032,50.929c28.144.02,50.39-21.615,50.39-48.323S-3019.833,807.7-3047.977,806.306Zm0,87.326c-21.952-.144-40.1-17.492-40.1-38.744s18.148-37.686,40.1-36.723c21.485.942,38.57,18.263,38.57,38.706S-3026.492,893.773-3047.977,893.632Z" transform="translate(3101.009 -806.238)" fill="#fff" opacity="0.74"/><g transform="translate(0 0.002)"><path d="M-3007.14,1631.631l-11.139,5.885a52.77,52.77,0,0,0,17.983,18.292l6.347-10.374A40.066,40.066,0,0,1-3007.14,1631.631Z" transform="translate(3025.003 -1564.549)" fill="#039be5"/><path d="M-2197.75,924l10.353-5.456a53.009,53.009,0,0,0-16.648-15.9l-6.049,9.9A40.375,40.375,0,0,1-2197.75,924Z" transform="translate(2282.504 -894.807)" fill="#039be5"/><path d="M-2977.507,894.635a37.622,37.622,0,0,1,12.993-10.761l-6.327-10.675a49.43,49.43,0,0,0-17.818,14.956Z" transform="translate(2997.79 -867.758)" fill="#039be5"/><path d="M-3088.076,1385.723c0-.454.02-.9.037-1.354l-12.949-.335q-.019.679-.02,1.364a48.6,48.6,0,0,0,5.588,22.589l11.186-5.9A36.938,36.938,0,0,1-3088.076,1385.723Z" transform="translate(3101.009 -1337.075)" fill="#039be5"/><path d="M-2014.271,1414.467a35.736,35.736,0,0,1-3.567,15.618l10.316,5.995a46.956,46.956,0,0,0,5.072-21.315q0-.65-.018-1.3l-11.836-.306C-2014.29,1413.6-2014.271,1414.029-2014.271,1414.467Z" transform="translate(2105.874 -1363.836)" fill="#039be5" opacity="0.25"/><path d="M-2171.368,1645.507a37.1,37.1,0,0,1-12.476,13.1l6.042,10.209a48.811,48.811,0,0,0,16.728-17.335Z" transform="translate(2258.387 -1577.297)" fill="#039be5" opacity="0.25"/><path d="M-2042.808,1127.145a37.313,37.313,0,0,1,5.423,16.034l11.865.32a48.952,48.952,0,0,0-6.979-21.8Z" transform="translate(2128.813 -1096.061)" fill="#039be5"/><path d="M-2746.649,1821.673a41.152,41.152,0,0,1-18.774-5.256l-6.326,10.355a54.123,54.123,0,0,0,25.1,6.781Z" transform="translate(2798.51 -1734.316)" fill="#039be5" opacity="0.25"/><path d="M-2415.72,1820.83a39.536,39.536,0,0,1-18.389,4.912v11.866a51.993,51.993,0,0,0,24.436-6.575Z" transform="translate(2488.311 -1738.371)" fill="#039be5" opacity="0.25"/><path d="M-2737.161,821.39a39.9,39.9,0,0,1,16.482-3.227v-11.88a52.472,52.472,0,0,0-22.8,4.427Z" transform="translate(2772.54 -806.261)" fill="#039be5"/><path d="M-3086.282,1103.167a35.651,35.651,0,0,1,5.827-16.265l-11.133-6.456a46.864,46.864,0,0,0-7.672,22.371Z" transform="translate(3099.403 -1058.162)" fill="#039be5"/><path d="M-2434.109,819.831a41.185,41.185,0,0,1,16.18,4.591l6.069-9.919a54.162,54.162,0,0,0-22.249-6.538Z" transform="translate(2488.311 -807.827)" fill="#039be5"/></g></g><path d="M-3441.574,1515.381l-1.619.013a11.66,11.66,0,0,0-.572-2.045l1.4-.791a.76.76,0,0,0,.293-1.057l-1.385-2.3a.817.817,0,0,0-1.1-.277l-1.422.8a12.393,12.393,0,0,0-1.559-1.486l.824-1.376a.756.756,0,0,0-.294-1.056l-2.412-1.33a.828.828,0,0,0-1.1.287l-.828,1.379a13.017,13.017,0,0,0-2.136-.535V1504a.792.792,0,0,0-.81-.775l-2.805.006a.8.8,0,0,0-.813.78v1.6a13.255,13.255,0,0,0-2.15.552l-.836-1.38a.837.837,0,0,0-1.116-.282l-2.447,1.355a.763.763,0,0,0-.3,1.068l.838,1.38a12.758,12.758,0,0,0-1.587,1.515l-1.451-.79a.847.847,0,0,0-1.123.292l-1.42,2.348a.758.758,0,0,0,.3,1.067l1.44.781a11.879,11.879,0,0,0-.586,2.079l-1.662.013a.813.813,0,0,0-.824.79v2.7a.8.8,0,0,0,.824.775l1.649-.017a11.627,11.627,0,0,0,.577,2.08l-1.418.8a.767.767,0,0,0-.3,1.073l1.42,2.322a.838.838,0,0,0,1.123.271l1.409-.793a12.441,12.441,0,0,0,1.6,1.509l-.81,1.349a.754.754,0,0,0,.3,1.062l2.447,1.31a.847.847,0,0,0,1.116-.3l.8-1.337a13.087,13.087,0,0,0,2.186.523v1.531a.781.781,0,0,0,.813.765l2.805-.046a.81.81,0,0,0,.81-.79v-1.528a13.232,13.232,0,0,0,2.171-.587l.793,1.306a.819.819,0,0,0,1.1.267l2.412-1.375a.765.765,0,0,0,.294-1.062l-.8-1.314a12.751,12.751,0,0,0,1.573-1.538l1.38.748a.826.826,0,0,0,1.1-.3l1.385-2.328a.752.752,0,0,0-.293-1.051l-1.384-.753a11.805,11.805,0,0,0,.564-2.067l1.606-.017a.8.8,0,0,0,.8-.78v-2.665A.778.778,0,0,0-3441.574,1515.381Zm-14.116-5.579a7.942,7.942,0,0,1,8.168,7.774,8.122,8.122,0,0,1-8.168,7.926,7.942,7.942,0,0,1-8.235-7.773A8.122,8.122,0,0,1-3455.691,1509.8Z" transform="translate(3470.831 -1446.582)" fill="#26a69a"/></g><g transform="translate(-3351.991 788.023)"><g transform="translate(0)" style="isolation:isolate"><g transform="translate(0 3.09)"><path d="M-1741.34,1014.331c8.924.468,16.471,8.457,16.854,17.841a17.358,17.358,0,0,1-.087,2.618,12.1,12.1,0,0,1,5.074-.8c7.365.386,13.591,6.977,13.907,14.722.3,7.363-4.843,13.116-11.675,13.339-.359.01-.721.008-1.088-.011l-61.043-3.406a8.556,8.556,0,0,1-6.306-7.9,6.736,6.736,0,0,1,7.02-7.325,7.358,7.358,0,0,1,2.463.567,19.181,19.181,0,0,1-.625-4.123c-.4-9.7,6.761-17.177,15.987-16.694a16.784,16.784,0,0,1,4.959,1.037A14.425,14.425,0,0,1-1741.34,1014.331Z" transform="translate(1785.71 -1014.31)" fill="#26a69a"/></g><g transform="translate(4.071)"><path d="M-1691.247,976.314c8.924.468,16.47,8.457,16.853,17.841a17.356,17.356,0,0,1-.087,2.618,12.107,12.107,0,0,1,5.074-.8c7.365.386,13.591,6.977,13.907,14.722.3,7.363-4.842,13.116-11.675,13.339-.359.01-.721.008-1.088-.011l-61.043-3.406a8.556,8.556,0,0,1-6.306-7.9,6.736,6.736,0,0,1,7.02-7.325,7.356,7.356,0,0,1,2.463.568,19.176,19.176,0,0,1-.626-4.124c-.4-9.7,6.76-17.177,15.987-16.694a16.785,16.785,0,0,1,4.959,1.037A14.425,14.425,0,0,1-1691.247,976.314Z" transform="translate(1735.617 -976.293)" fill="#4dd0e1"/></g></g></g><g transform="translate(-3324.441 833.647)"><g transform="translate(0 0)"><path d="M-1445.106,1546a1.63,1.63,0,0,1-1.63-1.63v-5.094a1.63,1.63,0,0,1,1.63-1.63,1.63,1.63,0,0,1,1.63,1.63v5.094A1.63,1.63,0,0,1-1445.106,1546Z" transform="translate(1446.736 -1537.645)" fill="#ffa726"/><path d="M-1445.106,1707.748a1.63,1.63,0,0,1-1.63-1.63v-7.83a1.63,1.63,0,0,1,1.63-1.63,1.63,1.63,0,0,1,1.63,1.63v7.83A1.63,1.63,0,0,1-1445.106,1707.748Z" transform="translate(1446.736 -1683.734)" fill="#ffa726"/><path d="M-1445.106,1897.7a1.63,1.63,0,0,1-1.63-1.63v-5.093a1.63,1.63,0,0,1,1.63-1.63,1.63,1.63,0,0,1,1.63,1.63v5.093A1.63,1.63,0,0,1-1445.106,1897.7Z" transform="translate(1446.736 -1860.758)" fill="#ffa726"/></g></g><g transform="translate(-3416.259 853.351)"><g transform="translate(0 0)"><path d="M-2574.824,1788.426a1.63,1.63,0,0,1-1.63-1.63V1781.7a1.63,1.63,0,0,1,1.63-1.63,1.63,1.63,0,0,1,1.63,1.63v5.094A1.63,1.63,0,0,1-2574.824,1788.426Z" transform="translate(2576.454 -1780.073)" fill="#ffa726"/><path d="M-2574.824,1950.177a1.63,1.63,0,0,1-1.63-1.63v-7.83a1.63,1.63,0,0,1,1.63-1.63,1.63,1.63,0,0,1,1.63,1.63v7.83A1.63,1.63,0,0,1-2574.824,1950.177Z" transform="translate(2576.454 -1926.163)" fill="#ffa726"/><path d="M-2574.824,2140.125a1.63,1.63,0,0,1-1.63-1.63V2133.4a1.63,1.63,0,0,1,1.63-1.63,1.63,1.63,0,0,1,1.63,1.63v5.094A1.63,1.63,0,0,1-2574.824,2140.125Z" transform="translate(2576.454 -2103.188)" fill="#ffa726"/></g></g><g transform="translate(-3368.92 826.646)"><g transform="translate(0 0)"><path d="M-1992.372,1459.854a1.63,1.63,0,0,1-1.63-1.63v-5.094a1.63,1.63,0,0,1,1.63-1.63,1.63,1.63,0,0,1,1.63,1.63v5.094A1.63,1.63,0,0,1-1992.372,1459.854Z" transform="translate(1994.002 -1451.501)" fill="#ffa726"/><path d="M-1992.372,1621.6a1.63,1.63,0,0,1-1.63-1.63v-7.83a1.63,1.63,0,0,1,1.63-1.63,1.63,1.63,0,0,1,1.63,1.63v7.83A1.63,1.63,0,0,1-1992.372,1621.6Z" transform="translate(1994.002 -1597.591)" fill="#ffa726"/><path d="M-1992.372,1811.552a1.63,1.63,0,0,1-1.63-1.63v-5.094a1.63,1.63,0,0,1,1.63-1.63,1.63,1.63,0,0,1,1.63,1.63v5.094A1.63,1.63,0,0,1-1992.372,1811.552Z" transform="translate(1994.002 -1774.615)" fill="#ffa726"/></g></g><g transform="translate(-3450.441 882.282)"><g transform="translate(0 0)"><path d="M-2995.387,2144.391a1.63,1.63,0,0,1-1.63-1.63v-5.094a1.63,1.63,0,0,1,1.63-1.63,1.63,1.63,0,0,1,1.63,1.63v5.094A1.63,1.63,0,0,1-2995.387,2144.391Z" transform="translate(2997.017 -2136.038)" fill="#ffa726"/><path d="M-2995.387,2306.141a1.63,1.63,0,0,1-1.63-1.63v-7.83a1.63,1.63,0,0,1,1.63-1.63,1.63,1.63,0,0,1,1.63,1.63v7.83A1.63,1.63,0,0,1-2995.387,2306.141Z" transform="translate(2997.017 -2282.127)" fill="#ffa726"/><path d="M-2995.387,2496.089a1.63,1.63,0,0,1-1.63-1.63v-5.094a1.629,1.629,0,0,1,1.63-1.629,1.63,1.63,0,0,1,1.63,1.629v5.094A1.63,1.63,0,0,1-2995.387,2496.089Z" transform="translate(2997.017 -2459.152)" fill="#ffa726"/></g></g><g transform="translate(-3465.641 904.74)"><path d="M-3027.465,3259.647l-139.436-1.188v3.517a1.871,1.871,0,0,0,1.432,1.911l39.428,6.925a5.54,5.54,0,0,0,1.415.065l95.646-7.9a1.785,1.785,0,0,0,1.516-1.865Z" transform="translate(3168.294 -3189.692)" fill="#1565c0"/><g transform="translate(0)"><path d="M-3093.818,2476.68l-87.394,6.433a2.648,2.648,0,0,1-2.835-2.732V2415.3a2.891,2.891,0,0,1,2.835-2.941h87.394a2.51,2.51,0,0,1,2.33,2.659v58.831A2.744,2.744,0,0,1-3093.818,2476.68Z" transform="translate(3184.047 -2412.36)" fill="#1565c0"/><path d="M-3076.672,2476.68l-87.393,6.433a2.649,2.649,0,0,1-2.835-2.732V2415.3a2.891,2.891,0,0,1,2.835-2.941h87.393a2.51,2.51,0,0,1,2.33,2.659v58.831A2.745,2.745,0,0,1-3076.672,2476.68Z" transform="translate(3168.294 -2412.36)" fill="#039be5"/><path d="M-3036.423,2515.244l-81.4,5.588a2.171,2.171,0,0,1-2.307-2.243v-56.977a2.368,2.368,0,0,1,2.307-2.411l81.4-.351a2.056,2.056,0,0,1,1.922,2.179v51.9A2.247,2.247,0,0,1-3036.423,2515.244Z" transform="translate(3125.322 -2455.072)" fill="#4dd0e1"/><path d="M-2579.152,2421.893a1.058,1.058,0,0,1-1.005,1.1,1.052,1.052,0,0,1-1.007-1.095,1.056,1.056,0,0,1,1.007-1.1A1.052,1.052,0,0,1-2579.152,2421.893Z" transform="translate(2630.164 -2420.114)" fill="#fff"/></g><path d="M-3073.189,3199.138l-93.712,6.771,40.86,7.177a5.53,5.53,0,0,0,1.415.065l97.162-8.021-44.234-5.947A7.267,7.267,0,0,0-3073.189,3199.138Z" transform="translate(3168.294 -3135.175)" fill="#039be5"/><path d="M-2998.657,3218.709l78.018-5.721,24.146,3.219-77.346,6.116Z" transform="translate(3013.725 -3147.917)" fill="#1565c0"/><g transform="translate(5.339 3.983)"><path d="M-3083.35,2520.792l-33.206,2.234a1.687,1.687,0,0,1-1.8-1.684v-58.156a1.687,1.687,0,0,1,1.68-1.687l33.326-.135Z" transform="translate(3118.356 -2461.365)" fill="#ffca28"/><path d="M-2555.507,2763.864l-34.986,1.229v-3.537l34.986-1.1Z" transform="translate(2633.396 -2736.15)" fill="#1565c0"/><path d="M-2555.507,2832.491l-34.986,1.447V2830.4l34.986-1.314Z" transform="translate(2633.396 -2799.199)" fill="#1565c0"/><path d="M-2956.873,2780.9l-20.09.685v-2.644l20.09-.629Z" transform="translate(2988.454 -2752.556)" fill="#ffa726"/><path d="M-2956.873,2833.086l-20.09.776v-2.644l20.09-.72Z" transform="translate(2988.454 -2800.496)" fill="#ffa726"/><path d="M-2956.873,2885.268l-20.09.865v-2.644l20.09-.81Z" transform="translate(2988.454 -2848.437)" fill="#ffa726"/><path d="M-2956.873,2937.45l-20.09.955v-2.644l20.09-.9Z" transform="translate(2988.454 -2896.378)" fill="#ffa726"/><path d="M-2575.033,2911.711l-15.46.736v-3.537l15.46-.677Z" transform="translate(2633.396 -2871.913)" fill="#1565c0"/><g transform="translate(55.873 6.456)"><path d="M-2430.9,2608.08v5.314a2.747,2.747,0,0,0,2.882,2.706l3.941-.1a2.886,2.886,0,0,0,2.84-2.827v-5.258Zm3.63,5.494.732-2.219a.959.959,0,0,1-.527-.853,1.029,1.029,0,0,1,1.021-1.007.98.98,0,0,1,1.019.966,1.006,1.006,0,0,1-.525.873l.73,2.183Z" transform="translate(2430.903 -2602.459)" fill="#d8dee8"/><path d="M-2418.158,2545.8a.732.732,0,0,1-.757-.723,2.84,2.84,0,0,0-2.928-2.8,2.951,2.951,0,0,0-2.947,2.889.771.771,0,0,1-.769.753.741.741,0,0,1-.77-.729,4.483,4.483,0,0,1,4.485-4.389,4.314,4.314,0,0,1,4.442,4.247A.761.761,0,0,1-2418.158,2545.8Z" transform="translate(2426.701 -2540.803)" fill="#d8dee8"/></g></g><path d="M-3164.065,2483.113l86.951-6.4.442-.032a2.346,2.346,0,0,0,1.539-.779c-6.257-.343-10.143-2.563-12.651-4.857-5.034-4.608-4.161-9.152-9.59-12.181-6.771-3.779-12.1,1.009-17.235-3.715-3.116-2.864-1.586-5-5.419-9.28-4.246-4.74-7.01-3.147-11.277-7.413-5.4-5.395-2.7-9.592-7.344-13.465-5.638-4.7-11.718-.35-17.085-4.856a13.726,13.726,0,0,1-4.248-7.774h-4.083a2.891,2.891,0,0,0-2.835,2.941v65.079A2.649,2.649,0,0,0-3164.065,2483.113Z" transform="translate(3172.241 -2417.473)" fill="#fff" opacity="0.48" style="mix-blend-mode:soft-light;isolation:isolate"/></g><g transform="translate(-3407.544 853.315)"><path d="M-2419.923,1901.154a12.7,12.7,0,0,1-6.912-1.788,133.64,133.64,0,0,1-24.016-18.2c-10.641-10.374-16.756-20.919-18.093-31.273l-.021-.162-.26-44.183c0-8.732,5.695-15.82,16.388-20.478,8.835-3.848,20.544-5.754,32.914-5.4,12.226.354,23.54,2.876,31.913,7.08,9.954,5,15.177,12.019,15.177,20.344l-.237,42.217-.02.155c-1.222,9.916-6.847,20.165-16.791,30.529a138.666,138.666,0,0,1-23.176,18.983A13.156,13.156,0,0,1-2419.923,1901.154Z" transform="translate(2469.225 -1779.63)" fill="#039be5"/><path d="M-2382.706,1901.154a12.4,12.4,0,0,1-6.821-1.788,132.018,132.018,0,0,1-23.7-18.2c-10.5-10.374-16.534-20.919-17.854-31.273l-.02-.162-.256-44.183c0-8.732,5.62-15.82,16.172-20.478,8.718-3.848,20.273-5.754,32.479-5.4,12.064.354,23.228,2.876,31.491,7.08,9.823,5,14.976,12.019,14.976,20.344l-.234,42.217-.019.155c-1.206,9.916-6.758,20.165-16.569,30.529a137.174,137.174,0,0,1-22.87,18.983A12.861,12.861,0,0,1-2382.706,1901.154Z" transform="translate(2434.435 -1779.63)" fill="#1565c0"/><path d="M-2395.464,1836.256l.258,43.96c2.894,22.43,29.253,40.589,40.734,47.488a10.135,10.135,0,0,0,10.759-.29c11.241-7.4,36.157-26.018,38.819-47.583l.236-42.1C-2304.658,1806.5-2395.464,1803.64-2395.464,1836.256Z" transform="translate(2401.459 -1810.307)" fill="#4dd0e1"/><path d="M-2250.688,2013.711a1.572,1.572,0,0,1-.851-.225A124.782,124.782,0,0,1-2273.4,1996.8c-8.611-8.458-13.577-16.682-14.716-24.405l-.253-43.232c.01-4.148,3.294-7.7,9.731-10.539,7.185-3.172,17.39-4.835,27.95-4.585,10.455.248,20.362,2.353,27.225,5.759,6.071,3.012,9.14,6.563,9.15,10.568l-.236,41.735c-1.063,7.474-5.723,15.531-13.907,24a129.638,129.638,0,0,1-21.381,17.346A1.626,1.626,0,0,1-2250.688,2013.711Z" transform="translate(2303.068 -1903.09)" fill="#1565c0"/><path d="M-2231.341,2041.606a121.213,121.213,0,0,1-20.669-15.906c-8.092-7.964-12.775-15.606-13.876-22.677l-.251-42.981c.008-2.966,2.734-5.687,8.083-8.054,6.807-3.014,16.559-4.6,26.713-4.374,10.057.226,19.535,2.212,26.05,5.435,5.062,2.5,7.622,5.236,7.629,8.129l-.235,41.582c-1.033,6.861-5.45,14.364-13.174,22.343A125.9,125.9,0,0,1-2231.341,2041.606Z" transform="translate(2282.644 -1933.941)" fill="#f4f7fa"/><g transform="translate(31.752 31.247)"><path d="M-2041.924,2411.95l-32.146.286a4.429,4.429,0,0,0-4.485,4.3v20.6a4.151,4.151,0,0,0,4.468,4.052l32.033-1.312a4.313,4.313,0,0,0,4.138-4.214l.1-19.676A4.03,4.03,0,0,0-2041.924,2411.95Z" transform="translate(2078.555 -2391.805)" fill="#ffa726"/><path d="M-1865.5,2512.834a3.98,3.98,0,0,0-4.329-3.922,4.251,4.251,0,0,0-3.98,3.883,3.873,3.873,0,0,0,2.073,3.659,1.435,1.435,0,0,1,.72,1.532l-.929,5.2a1.046,1.046,0,0,0,1.1,1.221l2.352-.082a1.132,1.132,0,0,0,1.1-1.292l-.9-5.153a1.534,1.534,0,0,1,.767-1.561A4.11,4.11,0,0,0-1865.5,2512.834Z" transform="translate(1890.455 -2480.878)" fill="#00104e"/><path d="M-2007.282,2182.188a1.715,1.715,0,0,1-1.742-1.713l.02-4.487a8.336,8.336,0,0,0-8.348-8.259l-10.493-.1a8.528,8.528,0,0,0-8.76,8.347l0,4.629a1.842,1.842,0,0,1-1.871,1.792,1.819,1.819,0,0,1-1.876-1.774l0-4.648a12.136,12.136,0,0,1,12.516-11.884l10.5.146a11.863,11.863,0,0,1,11.832,11.758l-.021,4.468A1.754,1.754,0,0,1-2007.282,2182.188Z" transform="translate(2043.461 -2164.086)" fill="#ffa726"/></g></g><g transform="translate(-3346.748 850.464)"><g transform="translate(0 0)"><path d="M-1711.149,2154.681l-2.52-2.75a9.34,9.34,0,0,0-2.242-1.933c-2.028-1.244-4.818-1.854-5.236-1.143-.474.805,2.176,3.192,3.079,3.979l3.739,2.716Z" transform="translate(1721.203 -2115.719)" fill="url(#a)"/><path d="M-1158.976,1993.964c.685.259,11.124,4.41,13.27,15.306.173.88,1.85,10.241-4.5,16.855-7.119,7.416-20.827,7.232-26.268,1.032a11.119,11.119,0,0,1-2.313-4.394h0l1.434-3.809a9.335,9.335,0,0,1,5.4-2.926c3.136-.773,5.5.624,7.3-.888a4.726,4.726,0,0,0,1.367-3.116c.6-3.664-1.467-5.919-1.618-8.178-.113-1.689-.7-5.39,1.5-7.8A7.118,7.118,0,0,1-1158.976,1993.964Z" transform="translate(1222.87 -1973.693)" fill="#ffca28"/><path d="M-885.057,3478.643c.122-.671,2.288-1.278,3.361-.379.533.446.9,1.35.591,1.759-.112.148.347.41-.093.415C-882.657,3480.455-885.178,3479.31-885.057,3478.643Z" transform="translate(953.018 -3336.941)" fill="#1565c0"/><path d="M-868.178,3428.708l2.228-.314c-1.032-1.242-.841-5.2-.841-5.2l-2.369.529s.27,1.086.729,2.688A10.5,10.5,0,0,1-868.178,3428.708Z" transform="translate(938.411 -3286.762)" fill="#f36f56"/><path d="M-859.939,3484.257s2.682-.618,2.972-.086.515,1.957-1.186,1.911S-860.09,3484.709-859.939,3484.257Z" transform="translate(929.973 -3342.586)" fill="#1565c0"/><path d="M-1261.271,3512.351c.215-.647,2.445-.945,3.381.095.465.516.7,1.463.339,1.824-.132.132.286.455-.15.4C-1259.148,3514.48-1261.484,3512.994-1261.271,3512.351Z" transform="translate(1298.665 -3368.134)" fill="#1565c0"/><path d="M-1236.983,3466.344h2.25c-.848-1.375-.1-5.267-.1-5.267l-2.42.192s.115,1.113.346,2.764A10.526,10.526,0,0,1-1236.983,3466.344Z" transform="translate(1276.591 -3321.567)" fill="#f36f56"/><path d="M-1353.41,2458.359a104.1,104.1,0,0,0-3.489,15.967c-2.733,19.879,3.076,20.514,1.991,42.543-.346,7.032,6.092,23.246,6.659,23.6a7.044,7.044,0,0,0,.89.035,8.882,8.882,0,0,0,2.268-.378c1.02-.176,4.7-10.135,3.844-16.056-.6-4.191-.428-8.689-.079-17.684.057-1.458,3.786-28.358,3.786-28.358h0c1.134,9.957,2.439,18.417,3.57,24.977,3.634,21.074,15.449,33.83,16.065,34.034a2.5,2.5,0,0,0,2.137-.146,1.476,1.476,0,0,0,.541-.609c.316-.247-.093-21.04-3.7-36.688-5.23-22.714-2.953-28.028-4.61-38.173C-1324.967,2452.647-1353.41,2458.359-1353.41,2458.359Z" transform="translate(1387.186 -2398.667)" fill="#1565c0"/><path d="M-1312.21,1969.23c-3.473-.1-11.455-1.328-15.852,2.628-.077.068.824.55.381,1.07a28.749,28.749,0,0,0-3.1,4.454,29.921,29.921,0,0,0-2.609,6.454,55.455,55.455,0,0,0-2.06,11.259c-.8,10.569-.007,15.446.717,18.762a36.578,36.578,0,0,0,20.871,3.065,32.58,32.58,0,0,0,10.405-3.428c-2.5-7.574-.539-11.627.387-15.362,1.32-5.327,1.342-4.924,2.429-9.155,1.793-6.982,2.088-14.116.855-15.576C-1303.114,1969.464-1309.1,1969.322-1312.21,1969.23Z" transform="translate(1367.115 -1950.733)" fill="#ffca28"/><path d="M-1236.821,3521.64s2.742-.236,2.955.332.236,2.009-1.442,1.726S-1237.034,3522.066-1236.821,3521.64Z" transform="translate(1276.272 -3377.163)" fill="#1565c0"/><g transform="translate(42.987)"><path d="M-1190.158,1831.508a6.037,6.037,0,0,1-.488-4.345c.452-1.88.621-2.165.969-2.563l.493-.522.063-.045a7.058,7.058,0,0,1,1.9-.633c.883-.044,2.681,3.123,3.71,8q.126.261.248.528c.511,1.108.948,2.2,1.325,3.259,5.969.5,6.8,1.2,6.824,1.609.056.851-3.345,1.835-5.9,2.21-5.579.817-11.313-.655-11.286-1.695.011-.453,1.12-1.043,5.849-1.662q-.166-1.174-.332-2.348C-1187.169,1833.22-1189.365,1832.848-1190.158,1831.508Z" transform="translate(1192.302 -1816.992)" fill="#f36f56"/><path d="M-1181.857,1750.739a5.8,5.8,0,0,0,1.956,3.056,2.575,2.575,0,0,1,.7.446.778.778,0,0,1,.132.153c.577.853-.622,2.357-.222,2.7.291.249,1.2-.43,1.388-.2s-.527.956-.319,1.219c.157.2.622-.146,1.041.111.209.128.2.276.51.753a4.9,4.9,0,0,0,.554.709c.749.738,2.294.669,2.481.244.052-.118-.037-.182-.044-.532a2.707,2.707,0,0,1,.11-.731,7.028,7.028,0,0,1,1.4-1.861,5,5,0,0,0,1.284-2.591c.013-.111.017-.194.02-.253a5.738,5.738,0,0,0-1.126-3.67c-1.271-1.443-2.928-.155-4.9-1.4-2.27-1.431-1.913-4.31-2.946-4.342C-1180.98,1744.523-1182.6,1747.984-1181.857,1750.739Z" transform="translate(1182.879 -1744.558)" fill="#00104e"/><path d="M-1145.365,1889.082c.232-.6,1-.3,1.177.35a1.226,1.226,0,0,1-.917,1.526C-1145.751,1890.993-1145.676,1889.889-1145.365,1889.082Z" transform="translate(1149.393 -1877.038)" fill="#f36f56"/></g><path d="M-953.856,2241.81a.081.081,0,0,1-.08-.072,21.131,21.131,0,0,1,1.036-8.816c.166-.582.323-1.131.459-1.681.75-3.027,1.079-4.2,1.427-5.433.226-.8.459-1.634.821-3.023a.081.081,0,0,1,.1-.058.081.081,0,0,1,.058.1c-.362,1.39-.6,2.222-.822,3.026-.348,1.236-.676,2.4-1.425,5.429-.137.552-.294,1.1-.46,1.687a21,21,0,0,0-1.031,8.754.081.081,0,0,1-.072.09Z" transform="translate(1016.403 -2183.861)" fill="#ffa726"/><path d="M-1640.418,2016.176a6.957,6.957,0,0,0-2.279,2.834,21.055,21.055,0,0,0,7.352,9.157,21.643,21.643,0,0,0,24.786-.519c8.672-6.625,10.121-19.329,6.478-24.77-.419-.626-1.8-2.686-3.938-2.922-1.351-.149-3.191.408-6.1,3.811-6.056,7.09-3.917,11.518-7.495,13.592C-1626.975,2020.469-1634.948,2012.348-1640.418,2016.176Z" transform="translate(1649.078 -1979.179)" fill="#ffca28"/><path d="M-1315.216,2234.924a.081.081,0,0,1-.079-.064.081.081,0,0,1,.062-.1c.085-.018,8.5-1.956,12.287-12.409a.081.081,0,0,1,.1-.049.081.081,0,0,1,.049.1,20.7,20.7,0,0,1-7.647,10.252,15.126,15.126,0,0,1-4.758,2.26Z" transform="translate(1348.287 -2183.473)" fill="#ffa726"/></g></g><path d="M-1355,1182.863l-1.228.01a8.847,8.847,0,0,0-.434-1.552l1.065-.6a.577.577,0,0,0,.223-.8l-1.051-1.747a.62.62,0,0,0-.832-.21l-1.078.6a9.415,9.415,0,0,0-1.183-1.127l.625-1.044a.574.574,0,0,0-.224-.8l-1.829-1.009a.628.628,0,0,0-.837.218l-.629,1.046a9.911,9.911,0,0,0-1.621-.406v-1.212a.6.6,0,0,0-.615-.588l-2.128,0a.606.606,0,0,0-.617.592v1.214a10.042,10.042,0,0,0-1.631.419l-.634-1.047a.635.635,0,0,0-.847-.214l-1.857,1.028a.578.578,0,0,0-.227.81l.636,1.047a9.717,9.717,0,0,0-1.2,1.15l-1.1-.6a.643.643,0,0,0-.852.221l-1.078,1.781a.576.576,0,0,0,.229.809l1.092.592a8.966,8.966,0,0,0-.444,1.577l-1.262.01a.616.616,0,0,0-.625.6v2.052a.6.6,0,0,0,.625.588l1.252-.013a8.846,8.846,0,0,0,.438,1.578l-1.076.6a.582.582,0,0,0-.229.814l1.078,1.761a.636.636,0,0,0,.852.206l1.069-.6a9.425,9.425,0,0,0,1.215,1.145l-.614,1.023a.572.572,0,0,0,.227.806l1.857.994a.642.642,0,0,0,.847-.23l.608-1.014a9.946,9.946,0,0,0,1.658.4v1.161a.592.592,0,0,0,.617.58l2.128-.035a.615.615,0,0,0,.615-.6V1193.7a10.042,10.042,0,0,0,1.647-.445l.6.991a.621.621,0,0,0,.837.2l1.829-1.043a.58.58,0,0,0,.224-.805l-.6-1a9.663,9.663,0,0,0,1.193-1.167l1.047.567a.627.627,0,0,0,.832-.226l1.051-1.766a.57.57,0,0,0-.223-.8l-1.05-.571a8.963,8.963,0,0,0,.427-1.568l1.219-.013a.6.6,0,0,0,.608-.592v-2.022A.591.591,0,0,0-1355,1182.863Zm-10.71-4.233a6.025,6.025,0,0,1,6.2,5.9,6.162,6.162,0,0,1-6.2,6.013,6.026,6.026,0,0,1-6.247-5.9A6.162,6.162,0,0,1-1365.711,1178.63Z" transform="translate(-1941.592 -369.581)" fill="#26a69a"/></g></svg>