<svg xmlns="http://www.w3.org/2000/svg" width="440" height="300.969" viewBox="0 0 440 300.969"><g transform="translate(-265 -301)"><path d="M522.737,241.208c21.774-48.583-35.051-68.586-64.26-46.242s-44.079,23.979-38.237,1.089c14.236-55.777-1.593-114.443-79.129-147.687S199.5,64.89,187.553,106.987s-17.126,53.949-25.889,47.41c-32.957-24.6-76.072-26.566-56.954,53.95S168.431,337.5,168.431,337.5s315.044,2.18,326.2,0,27.048-12.287,42.449-50.435S500.963,289.791,522.737,241.208Z" transform="translate(165 263.5)" fill="#4dd0e1" opacity="0.302"/><g transform="translate(359.17 420.762)"><path d="M-303.857,217.534a1.07,1.07,0,0,1-.086-1.513h0a1.081,1.081,0,0,1,1.514-.086h0a1.084,1.084,0,0,1,.086,1.525h0a1.07,1.07,0,0,1-.795.354h0A1.081,1.081,0,0,1-303.857,217.534Zm3.382-4.154a1.074,1.074,0,0,1-.311-1.483h0a1.075,1.075,0,0,1,1.482-.321h0a1.076,1.076,0,0,1,.322,1.492h0a1.074,1.074,0,0,1-.9.482h0A1.076,1.076,0,0,1-300.475,213.381Zm2.715-4.627a1.069,1.069,0,0,1-.525-1.418h0a1.058,1.058,0,0,1,1.417-.537h0a1.083,1.083,0,0,1,.537,1.418h0a1.1,1.1,0,0,1-.988.633h0A1.136,1.136,0,0,1-297.76,208.753Zm2.019-4.972a1.073,1.073,0,0,1-.73-1.342h0a1.067,1.067,0,0,1,1.331-.719h0a1.082,1.082,0,0,1,.73,1.332h0a1.075,1.075,0,0,1-1.031.772h0A1.451,1.451,0,0,1-295.74,203.781Zm1.321-5.206a1.068,1.068,0,0,1-.891-1.224h0a1.072,1.072,0,0,1,1.235-.891h0a1.065,1.065,0,0,1,.879,1.224h0a1.069,1.069,0,0,1-1.052.913h0A.836.836,0,0,1-294.42,198.575Zm.666-5.325a1.072,1.072,0,0,1-1.032-1.117h0a1.078,1.078,0,0,1,1.118-1.031h0a1.087,1.087,0,0,1,1.03,1.127h0a1.08,1.08,0,0,1-1.074,1.02h-.042Zm-1.106-6.357a1.08,1.08,0,0,1,1-1.148h0a1.079,1.079,0,0,1,1.149,1h0a1.063,1.063,0,0,1-1,1.138h0a.178.178,0,0,1-.074.011h0A1.086,1.086,0,0,1-294.86,186.893Zm-.633-5.217a1.071,1.071,0,0,1,.87-1.246h0a1.08,1.08,0,0,1,1.245.87h0a1.082,1.082,0,0,1-.871,1.246h0a1.286,1.286,0,0,1-.192.021h0A1.091,1.091,0,0,1-295.493,181.676Zm-1.193-5.122a1.087,1.087,0,0,1,.742-1.33h0a1.086,1.086,0,0,1,1.331.741h0a1.087,1.087,0,0,1-.741,1.33h0a1.355,1.355,0,0,1-.3.043h0A1.088,1.088,0,0,1-296.686,176.554Zm-1.706-4.96a1.078,1.078,0,0,1,.591-1.405h0a1.072,1.072,0,0,1,1.4.6h0a1.072,1.072,0,0,1-.591,1.4h0a1.062,1.062,0,0,1-.4.074h0A1.067,1.067,0,0,1-298.392,171.594Zm-2.233-4.755a1.065,1.065,0,0,1,.44-1.449h0a1.071,1.071,0,0,1,1.449.428h0a1.074,1.074,0,0,1-.429,1.46h0a1.114,1.114,0,0,1-.515.129h0A1.072,1.072,0,0,1-300.625,166.839Zm-157.1-3.458a1.059,1.059,0,0,1-.934-1.191h0a1.061,1.061,0,0,1,1.192-.935h0a1.061,1.061,0,0,1,.934,1.192h0a1.068,1.068,0,0,1-1.063.946h0A.477.477,0,0,1-457.729,163.381Zm154.376-1.03a1.075,1.075,0,0,1,.291-1.493h0a1.063,1.063,0,0,1,1.482.29h0a1.082,1.082,0,0,1-.279,1.493h0a1.165,1.165,0,0,1-.6.181h0A1.089,1.089,0,0,1-303.353,162.351Zm-150.328-1.578a1.057,1.057,0,0,1-.44-1.449h0a1.065,1.065,0,0,1,1.449-.44h0a1.077,1.077,0,0,1,.44,1.459h0a1.083,1.083,0,0,1-.945.558h0A.955.955,0,0,1-453.681,160.773Zm-8.267-2.051a1.075,1.075,0,0,1,.934-1.2h0a1.074,1.074,0,0,1,1.2.922h0a1.075,1.075,0,0,1-.934,1.2h0a.517.517,0,0,1-.14.012h0A1.084,1.084,0,0,1-461.948,158.722Zm155.45-.6a1.061,1.061,0,0,1,.149-1.5h0a1.075,1.075,0,0,1,1.515.15h0a1.082,1.082,0,0,1-.151,1.513h0a1.086,1.086,0,0,1-.686.237h0A1.074,1.074,0,0,1-306.5,158.121Zm-147.216-3.308a1.067,1.067,0,0,1,.827-1.266h0a1.084,1.084,0,0,1,1.278.826h0a1.094,1.094,0,0,1-.827,1.279h0a1.607,1.607,0,0,1-.226.021h0A1.078,1.078,0,0,1-453.714,154.813Zm-6.249-.364a1.079,1.079,0,0,1-.268-1.492h0a1.091,1.091,0,0,1,1.5-.268h0a1.091,1.091,0,0,1,.268,1.5v-.01a1.087,1.087,0,0,1-.88.461h0A1.118,1.118,0,0,1-459.962,154.449ZM-310,154.181a1.073,1.073,0,0,1,.021-1.525h0a1.08,1.08,0,0,1,1.523.032h0a1.068,1.068,0,0,1-.031,1.514h0a1.038,1.038,0,0,1-.741.3h0A1.056,1.056,0,0,1-310,154.181Zm-3.811-3.662h0a1.062,1.062,0,0,1-.1-1.514h0a1.072,1.072,0,0,1,1.514-.085h0a1.071,1.071,0,0,1,.1,1.513h0a1.089,1.089,0,0,1-.805.354h0A1.025,1.025,0,0,1-313.809,150.519Zm-141.622.012a1.052,1.052,0,0,1-1.127-.225h0a1.074,1.074,0,0,1-.021-1.526h0a1.072,1.072,0,0,1,1.439-.085h0a1.062,1.062,0,0,1,1.267.408h0a1.073,1.073,0,0,1-.29,1.492h0a1.086,1.086,0,0,1-.6.171h0A1.031,1.031,0,0,1-455.431,150.531Zm137.531-3.383h.01a1.077,1.077,0,0,1-.2-1.5h0a1.089,1.089,0,0,1,1.514-.2h0v.011h0a1.073,1.073,0,0,1,.193,1.5h0a1.11,1.11,0,0,1-.859.419h0A1.1,1.1,0,0,1-317.9,147.148Zm-134.847-.611a1.094,1.094,0,0,1,.086-1.525h0a1.07,1.07,0,0,1,1.514.086h0a1.07,1.07,0,0,1-.075,1.513h0a1.078,1.078,0,0,1-.719.28h0A1.093,1.093,0,0,1-452.747,146.537Zm-6.345.1h.011a1.054,1.054,0,0,1-.172-1.5h0a1.055,1.055,0,0,1,1.5-.171h0a1.063,1.063,0,0,1,.172,1.5h0a1.073,1.073,0,0,1-.837.408h0A1.076,1.076,0,0,1-459.092,146.632Zm136.9-2.577a1.072,1.072,0,0,1-.29-1.492h0a1.059,1.059,0,0,1,1.482-.289h0a1.073,1.073,0,0,1,.3,1.482h0a1.088,1.088,0,0,1-.9.482h0A1.09,1.09,0,0,1-322.194,144.055Zm-141.236-.16h0a1.076,1.076,0,0,1-.483-1.439h0a1.094,1.094,0,0,1,1.449-.483h0v.011h0a1.066,1.066,0,0,1,.472,1.439h0a1.064,1.064,0,0,1-.956.589h0A1.119,1.119,0,0,1-463.43,143.9Zm-74.273-.966a1.081,1.081,0,0,1,.687-1.354h0a1.073,1.073,0,0,1,1.353.7h0a1.06,1.06,0,0,1-.687,1.342h0a.924.924,0,0,1-.333.054h0A1.08,1.08,0,0,1-537.7,142.929Zm89.036.1a1.055,1.055,0,0,1,.182-1.5h0a1.073,1.073,0,0,1,1.5.183h0a1.086,1.086,0,0,1-.182,1.514h0a1.091,1.091,0,0,1-.666.225h0A1.037,1.037,0,0,1-448.668,143.026Zm-83.9-1.686a1.07,1.07,0,0,1,.741-1.321h0a1.076,1.076,0,0,1,1.321.75h0a1.07,1.07,0,0,1-.741,1.321h0a.876.876,0,0,1-.29.043h0A1.064,1.064,0,0,1-532.571,141.34Zm64.321.568v.012a1.072,1.072,0,0,1-.676-1.363h0a1.066,1.066,0,0,1,1.353-.677h0a1.069,1.069,0,0,1,.676,1.364h0a1.08,1.08,0,0,1-1.009.731h0A.91.91,0,0,1-468.251,141.908Zm141.568-.687a1.07,1.07,0,0,1-.386-1.47h0a1.079,1.079,0,0,1,1.471-.376h0a1.074,1.074,0,0,1,.387,1.471h0a1.069,1.069,0,0,1-.934.525h0A.994.994,0,0,1-326.682,141.221Zm-200.7-1.235a1.079,1.079,0,0,1,.816-1.287h0a1.068,1.068,0,0,1,1.278.805h0a1.072,1.072,0,0,1-.805,1.287h0a.884.884,0,0,1-.236.021h0A1.078,1.078,0,0,1-527.386,139.986Zm54.068.527a1.081,1.081,0,0,1-.816-1.289h0a1.074,1.074,0,0,1,1.288-.805h0a1.071,1.071,0,0,1,.805,1.278h0a1.064,1.064,0,0,1-1.041.839h0A1.955,1.955,0,0,1-473.318,140.514Zm28.934-.7a1.073,1.073,0,0,1,.29-1.492h0a1.072,1.072,0,0,1,1.492.278h0a1.074,1.074,0,0,1-.29,1.493h0a1.016,1.016,0,0,1-.6.181h0A1.089,1.089,0,0,1-444.384,139.816Zm-77.752-.956a1.075,1.075,0,0,1,.87-1.256h0a1.079,1.079,0,0,1,1.245.87h0a1.07,1.07,0,0,1-.87,1.244h0a1.074,1.074,0,0,1-.182.021h0A1.08,1.08,0,0,1-522.136,138.86Zm43.6.632a1.094,1.094,0,0,1-.88-1.244h0a1.079,1.079,0,0,1,1.245-.87h0a1.078,1.078,0,0,1,.88,1.235h0a1.081,1.081,0,0,1-1.063.891h0A.948.948,0,0,1-478.536,139.493Zm-38.307-1.534a1.073,1.073,0,0,1,.923-1.2h0a1.058,1.058,0,0,1,1.2.913h0a1.069,1.069,0,0,1-.913,1.213h0a.788.788,0,0,1-.15.01h0A1.083,1.083,0,0,1-516.843,137.958Zm185.512.686a1.08,1.08,0,0,1-.462-1.449h0a1.072,1.072,0,0,1,1.449-.451h0a1.081,1.081,0,0,1,.462,1.45h0a1.089,1.089,0,0,1-.956.58h0A1.017,1.017,0,0,1-331.331,138.644ZM-483.8,138.7a1.073,1.073,0,0,1-.934-1.193h0a1.075,1.075,0,0,1,1.2-.933h0a1.075,1.075,0,0,1,.934,1.2h0a1.084,1.084,0,0,1-1.063.934h0A.678.678,0,0,1-483.8,138.7Zm-27.721-1.4a1.08,1.08,0,0,1,.977-1.169h0a1.063,1.063,0,0,1,1.159.965h0a1.064,1.064,0,0,1-.966,1.17h0c-.032,0-.064.012-.1.012h0A1.083,1.083,0,0,1-511.518,137.3Zm22.428.848a1.07,1.07,0,0,1-.977-1.16h0a1.058,1.058,0,0,1,1.16-.976h0a1.062,1.062,0,0,1,.977,1.149h0a1.068,1.068,0,0,1-1.074.987h-.086Zm-17.071-1.277a1.071,1.071,0,0,1,1.02-1.127h0a1.077,1.077,0,0,1,1.127,1.019h0a1.086,1.086,0,0,1-1.02,1.128h-.054A1.074,1.074,0,0,1-506.16,136.874Zm10.726-.161a1.077,1.077,0,0,1,1.117-1.031h0a1.083,1.083,0,0,1,1.031,1.117h0a1.071,1.071,0,0,1-1.117,1.031h0A1.071,1.071,0,0,1-495.435,136.713Zm-5.368-.033a1.079,1.079,0,0,1,1.074-1.083h0a1.07,1.07,0,0,1,1.074,1.074h0a1.061,1.061,0,0,1-1.063,1.074h-.011A1.075,1.075,0,0,1-500.8,136.68Zm60.918.194a1.073,1.073,0,0,1,.376-1.472h0a1.072,1.072,0,0,1,1.471.377h0a1.079,1.079,0,0,1-.376,1.471h0a1.03,1.03,0,0,1-.548.15h0A1.055,1.055,0,0,1-439.885,136.874Zm103.777-.558h0a1.082,1.082,0,0,1-.526-1.429h0a1.08,1.08,0,0,1,1.428-.525h0a1.077,1.077,0,0,1,.526,1.428h0a1.083,1.083,0,0,1-.977.622h0A1.135,1.135,0,0,1-336.109,136.316Zm-99.106-2.094a1.06,1.06,0,0,1,.462-1.44h0a1.059,1.059,0,0,1,1.439.463h0a1.059,1.059,0,0,1-.462,1.438h0a.976.976,0,0,1-.494.118h0A1.04,1.04,0,0,1-435.215,134.222Zm94.232-.021a1.075,1.075,0,0,1-.591-1.406h0a1.077,1.077,0,0,1,1.4-.592h0a1.084,1.084,0,0,1,.591,1.406h0a1.069,1.069,0,0,1-1,.667h0A1.042,1.042,0,0,1-340.983,134.2Zm-89.422-2.341a1.079,1.079,0,0,1,.548-1.417h0a1.08,1.08,0,0,1,1.417.548h0a1.069,1.069,0,0,1-.548,1.416h0a1.041,1.041,0,0,1-.429.1h0A1.09,1.09,0,0,1-430.405,131.86Zm84.451.429a1.086,1.086,0,0,1-.655-1.374h0a1.071,1.071,0,0,1,1.374-.644h0a1.084,1.084,0,0,1,.655,1.373h0a1.081,1.081,0,0,1-1.009.71h0A1.045,1.045,0,0,1-345.954,132.29ZM-351,130.583a1.073,1.073,0,0,1-.7-1.354h0a1.073,1.073,0,0,1,1.342-.7h0a1.071,1.071,0,0,1,.7,1.353h0a1.078,1.078,0,0,1-1.02.75h0A1.161,1.161,0,0,1-351,130.583Zm-74.456-.805a1.071,1.071,0,0,1,.633-1.375h0a1.082,1.082,0,0,1,1.385.635h0a1.07,1.07,0,0,1-.633,1.374h0a1.226,1.226,0,0,1-.376.074h0A1.072,1.072,0,0,1-425.456,129.777Zm69.346-.719h0a1.071,1.071,0,0,1-.741-1.321h0a1.074,1.074,0,0,1,1.321-.752h0a1.07,1.07,0,0,1,.741,1.321h0a1.064,1.064,0,0,1-1.031.794h0A.9.9,0,0,1-356.11,129.058ZM-420.388,128a1.062,1.062,0,0,1,.709-1.342h0a1.066,1.066,0,0,1,1.342.709h0a1.08,1.08,0,0,1-.709,1.342h0a1.146,1.146,0,0,1-.322.043h0A1.056,1.056,0,0,1-420.388,128Zm59.125-.258a1.091,1.091,0,0,1-.805-1.3h0a1.083,1.083,0,0,1,1.3-.794h0a1.076,1.076,0,0,1,.794,1.288h0a1.075,1.075,0,0,1-1.041.827h0A1.762,1.762,0,0,1-361.264,127.737Zm-53.971-1.245a1.064,1.064,0,0,1,.784-1.3h-.011a1.071,1.071,0,0,1,1.31.784h0a1.079,1.079,0,0,1-.784,1.3h0a1.058,1.058,0,0,1-.258.031h0A1.076,1.076,0,0,1-415.235,126.492Zm48.764.117h0a1.066,1.066,0,0,1-.848-1.255h0a1.074,1.074,0,0,1,1.256-.848h0a1.079,1.079,0,0,1,.848,1.255h0a1.068,1.068,0,0,1-1.052.87h0A.661.661,0,0,1-366.471,126.609Zm-43.536-1.33a1.08,1.08,0,0,1,.848-1.256h0a1.076,1.076,0,0,1,1.256.859h0a1.072,1.072,0,0,1-.848,1.256h0a1.469,1.469,0,0,1-.2.021h0A1.078,1.078,0,0,1-410.006,125.279Zm38.285.429a1.079,1.079,0,0,1-.9-1.225h0a1.083,1.083,0,0,1,1.224-.9h0a1.071,1.071,0,0,1,.9,1.224h0a1.073,1.073,0,0,1-1.063.912h0A.9.9,0,0,1-371.721,125.708Zm-32.993-1.342a1.067,1.067,0,0,1,.913-1.213h0a1.083,1.083,0,0,1,1.213.923h0a1.069,1.069,0,0,1-.923,1.2h0a.785.785,0,0,1-.15.01h0A1.054,1.054,0,0,1-404.713,124.366Zm27.721.654a1.073,1.073,0,0,1-.956-1.181h0a1.073,1.073,0,0,1,1.181-.954h0a1.079,1.079,0,0,1,.956,1.18h0a1.079,1.079,0,0,1-1.063.967h0A.368.368,0,0,1-376.992,125.02Zm-22.4-1.287a1.066,1.066,0,0,1,.977-1.16h0a1.058,1.058,0,0,1,1.16.976h0a1.07,1.07,0,0,1-.977,1.16h-.086A1.066,1.066,0,0,1-399.388,123.733Zm17.092.837h0a1.079,1.079,0,0,1-1.009-1.138h0a1.071,1.071,0,0,1,1.138-1h.011a1.072,1.072,0,0,1,1,1.138h0a1.063,1.063,0,0,1-1.074,1h-.064Zm-11.735-1.2a1.07,1.07,0,0,1,1.041-1.1h0a1.069,1.069,0,0,1,1.106,1.04h0a1.085,1.085,0,0,1-1.041,1.107h-.032A1.078,1.078,0,0,1-394.031,123.367Zm6.42,1a1.078,1.078,0,0,1-1.052-1.1h0a1.06,1.06,0,0,1,1.084-1.052h0a1.076,1.076,0,0,1,1.063,1.083h0a1.082,1.082,0,0,1-1.074,1.064h-.022Z" transform="translate(537.756 -122.219)" fill="#00104e"/></g><g transform="translate(433.027 389.994)"><g transform="translate(0 3.879)"><path d="M-498.248,212.848l-2.546-2.546,53.87-53.87,28.217,28.217,44.373-44.373h15.726l38.865-38.865,2.546,2.546-39.919,39.92h-15.726l-45.865,45.865-28.217-28.217Z" transform="translate(500.795 -101.411)" fill="#039be5"/></g><g transform="translate(119.895 40.147)"><circle cx="5.152" cy="5.152" r="5.152" fill="#039be5"/></g><g transform="translate(138.741 40.147)"><circle cx="5.152" cy="5.152" r="5.152" fill="#039be5"/></g><g transform="translate(177.172)"><circle cx="5.152" cy="5.152" r="5.152" fill="#039be5"/></g><g transform="translate(48.455 56.111)"><circle cx="5.152" cy="5.152" r="5.152" fill="#039be5"/></g></g><path d="M-390.479,97.911a20.357,20.357,0,0,0,.944-2.076l-1.487-1.316c.1-.276.187-.554.27-.836s.158-.566.228-.85l1.963-.3a20.191,20.191,0,0,0,.335-2.256l-1.8-.847q.045-.885,0-1.759l1.8-.839a19.869,19.869,0,0,0-.321-2.258l-1.966-.305q-.207-.855-.494-1.686l1.493-1.314a20.174,20.174,0,0,0-.946-2.078l-1.972.262q-.436-.762-.945-1.478l1.062-1.682a19.939,19.939,0,0,0-1.49-1.728l-1.818.806q-.632-.606-1.326-1.154l.546-1.915a20.111,20.111,0,0,0-1.918-1.233l-1.516,1.286q-.775-.4-1.6-.732l-.015-1.988c-.356-.128-.717-.248-1.084-.357s-.736-.2-1.1-.29l-1.093,1.661q-.871-.172-1.74-.254l-.575-1.9a19.658,19.658,0,0,0-2.28-.007l-.582,1.9q-.879.081-1.741.248l-1.088-1.665a20.139,20.139,0,0,0-2.19.641l-.022,1.99q-.817.325-1.6.728l-1.514-1.291a20.3,20.3,0,0,0-1.923,1.231l.539,1.914q-.69.539-1.33,1.146l-1.817-.812a19.825,19.825,0,0,0-1.5,1.722l1.057,1.684q-.509.712-.953,1.478l-1.974-.268a19.9,19.9,0,0,0-.944,2.077l1.486,1.315c-.1.276-.186.555-.27.837s-.158.565-.228.849l-1.963.3a20.153,20.153,0,0,0-.335,2.256l1.8.847q-.045.883,0,1.758l-1.8.84a20.077,20.077,0,0,0,.321,2.258l1.967.3q.207.856.493,1.686l-1.493,1.314a20.282,20.282,0,0,0,.946,2.078l1.972-.261q.438.76.945,1.478l-1.062,1.683a20.244,20.244,0,0,0,1.491,1.728l1.817-.807q.633.608,1.326,1.154l-.546,1.915a19.835,19.835,0,0,0,1.919,1.233l1.516-1.285q.774.4,1.6.731l.015,1.989c.357.127.717.248,1.084.356s.736.2,1.1.291l1.093-1.661q.871.17,1.74.254l.574,1.9a20.081,20.081,0,0,0,2.281.007l.582-1.9q.879-.082,1.74-.249l1.088,1.664a20.1,20.1,0,0,0,2.191-.641l.022-1.99q.816-.325,1.6-.727l1.514,1.29a20.009,20.009,0,0,0,1.923-1.231l-.539-1.913q.691-.54,1.33-1.147l1.817.813a19.954,19.954,0,0,0,1.5-1.722l-1.057-1.685q.509-.712.953-1.478Zm-21.994,5.026a15.028,15.028,0,0,1-10.157-18.669A15.028,15.028,0,0,1-403.961,74.11,15.028,15.028,0,0,1-393.8,92.78,15.027,15.027,0,0,1-412.473,102.937Z" transform="translate(952.277 285.203)" fill="#26a69a"/><path d="M-342.383,91.808a19.968,19.968,0,0,0,.945-2.076l-1.486-1.316c.1-.276.186-.554.27-.836s.158-.566.228-.849l1.962-.3a20.156,20.156,0,0,0,.336-2.256l-1.8-.847c.031-.59.031-1.176,0-1.758l1.8-.84a19.868,19.868,0,0,0-.321-2.258l-1.967-.3q-.207-.856-.493-1.686l1.492-1.314a20.165,20.165,0,0,0-.945-2.078l-1.972.262q-.438-.76-.946-1.478l1.063-1.682a20.112,20.112,0,0,0-1.491-1.728l-1.817.806q-.633-.606-1.327-1.154l.547-1.914a19.665,19.665,0,0,0-1.919-1.233l-1.516,1.285q-.775-.4-1.6-.732l-.015-1.988c-.357-.128-.717-.248-1.085-.357s-.735-.2-1.1-.29l-1.094,1.661q-.87-.17-1.74-.254l-.574-1.9a19.674,19.674,0,0,0-2.281-.007l-.582,1.9q-.879.082-1.74.249l-1.088-1.664a19.893,19.893,0,0,0-2.191.64l-.022,1.99q-.816.325-1.6.728l-1.514-1.291a20.179,20.179,0,0,0-1.923,1.231l.539,1.914q-.691.54-1.33,1.147l-1.818-.813a20.111,20.111,0,0,0-1.5,1.722l1.056,1.684q-.509.712-.953,1.478l-1.974-.268a20.27,20.27,0,0,0-.944,2.077l1.487,1.315q-.145.413-.271.837t-.227.849l-1.963.3a19.951,19.951,0,0,0-.335,2.256l1.8.847q-.045.883,0,1.758l-1.8.84a20.075,20.075,0,0,0,.32,2.258l1.967.3q.207.856.494,1.686l-1.493,1.314a20,20,0,0,0,.946,2.078l1.972-.261q.436.76.945,1.478l-1.062,1.683a20.07,20.07,0,0,0,1.49,1.728l1.818-.806q.632.606,1.326,1.153l-.547,1.915a20.06,20.06,0,0,0,1.919,1.233l1.516-1.285c.517.267,1.049.512,1.6.732l.016,1.988c.356.128.717.248,1.084.357s.736.2,1.1.29l1.093-1.661q.871.17,1.74.254l.574,1.9a19.876,19.876,0,0,0,2.281.007l.582-1.9q.879-.082,1.74-.249l1.089,1.664a20.136,20.136,0,0,0,2.19-.64l.022-1.99q.816-.325,1.6-.728l1.514,1.291a20.285,20.285,0,0,0,1.922-1.231l-.539-1.914q.691-.54,1.331-1.147l1.817.813a19.948,19.948,0,0,0,1.5-1.722l-1.057-1.684q.509-.712.953-1.478Zm-21.994,5.027a15.03,15.03,0,0,1-10.157-18.67,15.029,15.029,0,0,1,18.67-10.157,15.029,15.029,0,0,1,10.157,18.67A15.03,15.03,0,0,1-364.377,96.835Z" transform="translate(940.127 276.021)" fill="#26a69a"/><path d="M-371.749,53.932a20.161,20.161,0,0,0,.945-2.076l-1.487-1.316q.145-.413.271-.836t.227-.85l1.963-.3A19.943,19.943,0,0,0-369.5,46.3l-1.8-.846q.045-.885,0-1.759l1.8-.84a20.1,20.1,0,0,0-.321-2.258l-1.967-.3q-.207-.856-.494-1.686l1.493-1.314a20.092,20.092,0,0,0-.946-2.078l-1.972.262q-.436-.762-.945-1.478l1.062-1.683a20.076,20.076,0,0,0-1.49-1.728l-1.818.807q-.632-.608-1.326-1.154l.547-1.915a20.053,20.053,0,0,0-1.919-1.233l-1.516,1.286q-.775-.4-1.6-.732l-.016-1.989c-.356-.127-.717-.248-1.084-.356s-.736-.2-1.1-.29L-386,26.671c-.581-.114-1.161-.2-1.74-.255l-.574-1.9a20.084,20.084,0,0,0-2.281-.007l-.582,1.9q-.879.082-1.74.249L-394.006,25a20.142,20.142,0,0,0-2.19.641l-.022,1.99q-.816.325-1.6.727l-1.514-1.29a20.1,20.1,0,0,0-1.922,1.231l.539,1.913q-.691.54-1.331,1.147l-1.817-.813a20.091,20.091,0,0,0-1.5,1.722l1.057,1.685q-.509.712-.953,1.478l-1.974-.268a19.974,19.974,0,0,0-.944,2.076l1.486,1.316c-.1.276-.186.554-.27.836s-.158.566-.228.85l-1.962.3a20.187,20.187,0,0,0-.336,2.256l1.8.847c-.031.59-.031,1.176,0,1.759l-1.8.84a19.859,19.859,0,0,0,.321,2.257l1.967.305q.207.856.493,1.686l-1.492,1.314a20.08,20.08,0,0,0,.945,2.078l1.972-.262q.438.762.946,1.478l-1.063,1.682A19.969,19.969,0,0,0-403.9,58.5l1.817-.806q.633.606,1.327,1.154l-.547,1.915A19.836,19.836,0,0,0-399.384,62l1.516-1.286q.775.4,1.6.732l.015,1.989c.357.127.717.248,1.085.356s.735.2,1.1.29l1.094-1.661q.87.172,1.74.254l.574,1.9a20.083,20.083,0,0,0,2.281.007l.582-1.9q.879-.082,1.74-.249l1.088,1.664a20.1,20.1,0,0,0,2.191-.641l.022-1.99q.816-.325,1.6-.728l1.514,1.291a20.177,20.177,0,0,0,1.923-1.231l-.539-1.913q.691-.54,1.33-1.147l1.818.813a20.243,20.243,0,0,0,1.5-1.722l-1.056-1.685q.509-.712.953-1.478Zm-21.994,5.026A15.028,15.028,0,0,1-403.9,40.289a15.029,15.029,0,0,1,18.67-10.157A15.029,15.029,0,0,1-375.073,48.8,15.029,15.029,0,0,1-393.743,58.958Z" transform="translate(937.213 289.047)" fill="#26a69a"/><g transform="translate(386.563 496.184)"><g transform="translate(0 0)"><path d="M9.72,0H133.16a9.72,9.72,0,0,1,9.72,9.72V94.789H0V9.72A9.72,9.72,0,0,1,9.72,0Z" transform="translate(27.607)" fill="#00104e"/><rect width="124.074" height="85.934" transform="translate(37.01 8.855)" fill="#fff"/><path d="M-353.168,294.13h-198.1a9.883,9.883,0,0,0,9.883,9.883h178.329a9.883,9.883,0,0,0,9.883-9.883Z" transform="translate(551.263 -199.341)" fill="#e6e6e6"/><path d="M-465.6,294.13v1.509a2.686,2.686,0,0,0,2.686,2.685h38.473a2.685,2.685,0,0,0,2.685-2.685V294.13Z" transform="translate(542.729 -199.341)" fill="#b8b8b8"/></g><g transform="translate(46.714 31.434)"><path d="M-474.63,248.515l18.817,16.072a24.864,24.864,0,0,1-34.888,2.745,24.864,24.864,0,0,1-2.746-34.888,24.865,24.865,0,0,1,34.889-2.746,24.772,24.772,0,0,1,8.335,22.9Z" transform="translate(499.375 -223.77)" fill="#ffedb7"/><path d="M-474.635,248.51h24.746a24.863,24.863,0,0,1-24.746,24.746A24.863,24.863,0,0,1-499.38,248.51a24.863,24.863,0,0,1,24.745-24.745,24.772,24.772,0,0,1,21.212,12Z" transform="translate(499.38 -223.765)" fill="#ffca28"/><path d="M-474.635,248.51h24.746a24.863,24.863,0,0,1-24.746,24.746A24.863,24.863,0,0,1-499.38,248.51a24.863,24.863,0,0,1,24.745-24.745,24.747,24.747,0,0,1,9.774,2.011Z" transform="translate(499.38 -223.765)" fill="#ffa726"/></g><rect width="44.118" height="5.369" transform="translate(48.815 14.271)" fill="#1565c0"/><rect width="44.118" height="5.369" transform="translate(106.439 14.271)" fill="#1565c0"/><rect width="44.118" height="54.328" transform="translate(106.439 32.445)" fill="#4dd0e1"/></g><g transform="translate(285 422.42)"><path d="M32.05,0A32.05,32.05,0,1,1,0,32.05,32.05,32.05,0,0,1,32.05,0Z" transform="translate(9.468 61.552) rotate(-73.794)" fill="#ffa726"/><circle cx="32.049" cy="32.049" r="32.049" transform="translate(18.149 4.194)" fill="#ffca28"/><circle cx="28.429" cy="28.429" r="28.429" transform="translate(14.966 55.609) rotate(-73.794)" fill="#ffa726"/><circle cx="21.921" cy="21.921" r="21.921" transform="translate(28.277 14.322)" fill="#ffedb7"/><circle cx="14.073" cy="14.073" r="14.073" transform="translate(32.757 45.83) rotate(-73.794)" fill="#ffa726"/><circle cx="6.583" cy="6.583" r="6.583" transform="translate(43.616 29.66)" fill="#ffedb7"/><path d="M-599.433,182.207l10.867-5.973-7.4-1.978-10.867,5.973Z" transform="translate(606.833 -122.44)" fill="#ffca28"/><path d="M-598.868,182.426-588,176.453l-2.3,7.307-10.867,5.973Z" transform="translate(606.268 -122.659)" fill="#ffca28"/><line x1="43.468" y2="23.891" transform="translate(6.731 36.244)" fill="none" stroke="#bd5924" stroke-linecap="round" stroke-linejoin="round" stroke-width="2"/></g><g transform="translate(495 399.18)"><path d="M-419.584,103.852h30.026a8.547,8.547,0,0,1,8.547,8.546v16.17a8.547,8.547,0,0,1-8.547,8.546H-410.98l-5.37,5.37v-5.37h-3.234a8.547,8.547,0,0,1-8.546-8.546V112.4A8.547,8.547,0,0,1-419.584,103.852Z" transform="translate(428.13 -96.003)" fill="#ffa726"/><path d="M-388.678,103.852h-29.956a8.528,8.528,0,0,0-.663,3.3v16.169a8.547,8.547,0,0,0,8.547,8.547h21.422l4.379,4.379a8.689,8.689,0,0,0,.991-.559v-3.819h3.165a8.528,8.528,0,0,0,.663-3.3V112.4A8.547,8.547,0,0,0-388.678,103.852Z" transform="translate(427.25 -96.003)" fill="#ffca28" style="mix-blend-mode:multiply;isolation:isolate"/><path d="M-376.724,95.135H-406.75a8.547,8.547,0,0,0-8.547,8.547v16.169a8.547,8.547,0,0,0,8.547,8.547h21.422l5.37,5.37V128.4h3.234a8.547,8.547,0,0,0,8.546-8.547V103.682A8.547,8.547,0,0,0-376.724,95.135Z" transform="translate(426.852 -95.135)" fill="#ffca28"/></g><g transform="translate(569.625 483.711)"><circle cx="18.819" cy="18.819" r="18.819" fill="#4dd0e1"/><circle cx="15.804" cy="15.804" r="15.804" transform="translate(3.015 3.015)" fill="#fff"/><path d="M-317.389,182.978a15.806,15.806,0,0,0-22.351,0,15.792,15.792,0,0,0-2.564,3.392,15.8,15.8,0,0,1,20.113,1.848,15.8,15.8,0,0,1,2.564,18.959,15.823,15.823,0,0,0,2.238-1.848A15.8,15.8,0,0,0-317.389,182.978Z" transform="translate(347.383 -175.335)" fill="#4dd0e1" opacity="0.181"/><rect width="5.702" height="26.733" transform="translate(29.951 32.41) rotate(-45)" fill="#4dd0e1"/><path d="M0,0H8.517V26.733H0Z" transform="translate(35.504 39.953) rotate(-45)" fill="#26a69a"/></g><path d="M-473.787,97.987h0a16.744,16.744,0,0,0-9.766,27.308l18.767,22.112,9.766-27.309A16.744,16.744,0,0,0-473.787,97.987Zm13.244,20.137h0a10.88,10.88,0,0,1-18.539,3.376h0a10.88,10.88,0,0,1,6.346-17.744h0A10.879,10.879,0,0,1-460.543,118.124Z" transform="translate(929.02 280.508)" fill="#039be5"/><path d="M-263.073,249.646h-76.018a1.561,1.561,0,0,0-1.561,1.561v5.38a1.561,1.561,0,0,0,1.561,1.561h76.018a1.561,1.561,0,0,0,1.561-1.561v-5.38A1.561,1.561,0,0,0-263.073,249.646Zm-72.721,6.265a2.014,2.014,0,0,1-2.014-2.014,2.014,2.014,0,0,1,2.014-2.014,2.015,2.015,0,0,1,2.014,2.014A2.014,2.014,0,0,1-335.794,255.911Zm7.395,0a2.014,2.014,0,0,1-2.014-2.014,2.015,2.015,0,0,1,2.014-2.014,2.015,2.015,0,0,1,2.014,2.014A2.014,2.014,0,0,1-328.4,255.911Zm7.395,0a2.014,2.014,0,0,1-2.014-2.014A2.015,2.015,0,0,1-321,251.883a2.015,2.015,0,0,1,2.014,2.014A2.014,2.014,0,0,1-321,255.911Z" transform="translate(916.844 301.273)" fill="#1565c0"/><g transform="translate(265 505.311)"><path d="M-586.391,289.987v-7.852a11.975,11.975,0,0,1,3.411-8.372v-1.221h-83.71l-4.96,4.031-2.481,13.021,6.511,8.061,84.64,1.86v-1.157A11.975,11.975,0,0,1-586.391,289.987Z" transform="translate(685.068 -206.319)" fill="#fff"/><path d="M-674.13,289.836l4.932,6.107a5.214,5.214,0,0,1-.12-1.1v-7.852a5.207,5.207,0,0,1,5.2-5.2h77.755a11.939,11.939,0,0,1,2.545-6.821h-80.3a11.959,11.959,0,0,0-7.719,2.819Z" transform="translate(685.068 -206.56)" fill="#f6f6f6"/><g transform="translate(8.93 63.793)"><path d="M-577.682,301.74h-86.656a12.035,12.035,0,0,1-12.022-12.022v-7.852a12.036,12.036,0,0,1,12.022-12.023h86.656a3.41,3.41,0,0,1,3.41,3.411,3.41,3.41,0,0,1-3.41,3.411h-86.656a5.207,5.207,0,0,0-5.2,5.2v7.852a5.207,5.207,0,0,0,5.2,5.2h86.656a3.41,3.41,0,0,1,3.41,3.411A3.41,3.41,0,0,1-577.682,301.74Z" transform="translate(676.36 -269.843)" fill="#ffca28"/></g><path d="M-596.309,254.561v-7.852a11.975,11.975,0,0,1,3.411-8.372v-1.221h-83.71l-4.96,4.031-2.48,13.021,6.511,8.061,84.64,1.86v-1.157A11.975,11.975,0,0,1-596.309,254.561Z" transform="translate(686.056 -202.789)" fill="#fff"/><path d="M-680.473,258.811v-7.5a5.207,5.207,0,0,1,5.2-5.2h79a11.953,11.953,0,0,1,2.716-6.821h-81.719a11.926,11.926,0,0,0-5.257,1.227l-1.039.845-2.48,13.021Z" transform="translate(686.056 -203.006)" fill="#f6f6f6"/><g transform="translate(0 31.897)"><path d="M-587.6,266.314h-86.655a12.035,12.035,0,0,1-12.023-12.022V246.44a12.036,12.036,0,0,1,12.023-12.023H-587.6a3.411,3.411,0,0,1,3.411,3.411,3.411,3.411,0,0,1-3.411,3.411h-86.655a5.207,5.207,0,0,0-5.2,5.2v7.852a5.207,5.207,0,0,0,5.2,5.2H-587.6a3.411,3.411,0,0,1,3.411,3.411A3.41,3.41,0,0,1-587.6,266.314Z" transform="translate(686.278 -234.417)" fill="#4dd0e1"/></g><path d="M-586.391,219.135v-7.852a11.975,11.975,0,0,1,3.411-8.372V201.69h-83.71l-4.96,4.031-2.481,13.021,6.511,8.061,84.64,1.86v-1.157A11.975,11.975,0,0,1-586.391,219.135Z" transform="translate(685.068 -199.26)" fill="#fff"/><g transform="translate(10.938 3.376)"><path d="M-667.619,226.908l.588.013a5.2,5.2,0,0,1-2.286-4.3v-7.852a5.207,5.207,0,0,1,5.2-5.2h77.879a11.993,11.993,0,0,1,3.258-6.547v-.275h-81.136a11.927,11.927,0,0,0-5.236,1.217l-2.3,1.867-2.481,13.021Z" transform="translate(674.13 -202.741)" fill="#f6f6f6"/><path d="M-620.941,230.592l43.26.951v-.951Z" transform="translate(668.831 -205.516)" fill="#f6f6f6"/></g><g transform="translate(8.93 0)"><path d="M-577.682,230.888h-86.656a12.035,12.035,0,0,1-12.022-12.022v-7.852a12.036,12.036,0,0,1,12.022-12.023h86.656a3.41,3.41,0,0,1,3.41,3.411,3.41,3.41,0,0,1-3.41,3.411h-86.656a5.207,5.207,0,0,0-5.2,5.2v7.852a5.207,5.207,0,0,0,5.2,5.2h86.656a3.41,3.41,0,0,1,3.41,3.411A3.41,3.41,0,0,1-577.682,230.888Z" transform="translate(676.36 -198.991)" fill="#ffa726"/></g></g><g transform="translate(344.035 383.162) rotate(-51)"><rect width="43.086" height="76.734" rx="7.341" transform="translate(22.223 2.749) rotate(16.835)" fill="#1565c0"/><rect width="43.086" height="76.734" rx="7.341" transform="translate(23.055) rotate(16.835)" fill="#039be5"/><rect width="37.76" height="63.044" transform="translate(23.622 7.323) rotate(16.835)" fill="#fff"/><rect width="33.443" height="29.34" transform="translate(24.679 11.638) rotate(16.835)" fill="#ffca28"/><rect width="33.443" height="20.969" transform="translate(14.7 44.614) rotate(16.835)" fill="#26a69a"/><path d="M-525.155,107.077a2.155,2.155,0,0,1-2.686,1.439,2.154,2.154,0,0,1-1.438-2.686,2.155,2.155,0,0,1,2.686-1.439A2.154,2.154,0,0,1-525.155,107.077Z" transform="translate(549.738 -30.303)" fill="#4dd0e1"/></g><g transform="translate(427.652 317.715) rotate(-14)"><g transform="translate(0 0)"><circle cx="15.715" cy="15.715" r="15.715" transform="matrix(0.298, -0.954, 0.954, 0.298, 0, 29.999)" fill="#c7dceb"/></g><g transform="translate(5.571 3.134)"><circle cx="15.715" cy="15.715" r="15.715" fill="#fff"/></g><g transform="translate(5.597 9.921)"><path d="M-258.765,166.132l-28.646-8.951a15.777,15.777,0,0,0-2.757,8.007l29.111,9.1A15.789,15.789,0,0,0-258.765,166.132Z" transform="translate(290.168 -157.181)" fill="#ebf7ff"/></g><g transform="translate(5.677 20.676)"><path d="M-289.216,172.721l23.781,7.431a15.567,15.567,0,0,0,2.756-2.464l-27.4-8.562A15.583,15.583,0,0,0-289.216,172.721Z" transform="translate(290.079 -169.126)" fill="#ebf7ff"/></g><g transform="translate(19.553 37.809)"><circle cx="15.715" cy="15.715" r="15.715" transform="translate(0 29.445) rotate(-69.528)" fill="#c7dceb"/></g><g transform="translate(20.152 35.971)"><circle cx="15.715" cy="15.715" r="15.715" transform="translate(0 14.609) rotate(-27.698)" fill="#fff"/></g><g transform="translate(25.682 48.262)"><path d="M-236.458,208.715l-28.646-8.951a15.783,15.783,0,0,0-2.757,8.007l29.111,9.1A15.788,15.788,0,0,0-236.458,208.715Z" transform="translate(267.861 -199.764)" fill="#ebf7ff"/></g><g transform="translate(25.762 59.017)"><path d="M-266.909,215.3l23.781,7.431a15.568,15.568,0,0,0,2.756-2.464l-27.4-8.562A15.583,15.583,0,0,0-266.909,215.3Z" transform="translate(267.772 -211.709)" fill="#ebf7ff"/></g><g transform="translate(27.994 29.081)"><path d="M-257.444,194.64a.953.953,0,0,1-.066-.731c1.093-3.5.959-6.473-.4-8.828-2.123-3.676-6.584-4.715-6.629-4.726a.959.959,0,0,1-.727-1.143.958.958,0,0,1,1.141-.728c.215.048,5.309,1.214,7.865,5.621,1.643,2.848,1.847,6.336.583,10.376a.958.958,0,0,1-1.2.629A.957.957,0,0,1-257.444,194.64Z" transform="translate(265.293 -178.461)" fill="#1565c0"/></g></g><g transform="matrix(0.914, -0.407, 0.407, 0.914, 626.965, 484.779)"><rect width="6.911" height="6.911" rx="1.54" transform="translate(31.914 25.9) rotate(47.747)" fill="#1565c0"/><rect width="11.938" height="57.471" rx="2.42" transform="matrix(0.672, 0.74, -0.74, 0.672, 42.539, 0)" fill="#ffca28"/><path d="M4.762,0H16.611a4.763,4.763,0,0,1,4.763,4.763V16.611a4.762,4.762,0,0,1-4.762,4.762H4.762A4.762,4.762,0,0,1,0,16.611V4.762A4.762,4.762,0,0,1,4.762,0Z" transform="matrix(0.672, 0.74, -0.74, 0.672, 26.008, 8.644)" fill="#00104e"/></g></g></svg>