<svg xmlns="http://www.w3.org/2000/svg" width="113.629" height="120" viewBox="0 0 113.629 120"><defs><style>.a{fill:#ffa726;}.b{fill:#c48958;}.c{fill:#4dd0e1;}.d{fill:#039be5;}.e{fill:#f2d1a5;}.f{fill:#fff6db;}.g{fill:#ffedb7;}.h{fill:#e3a76f;}.i{fill:#26a69a;}.j{fill:#d6995c;}</style></defs><g transform="translate(-13.59)"><g transform="translate(15.581 1.758)"><path class="a" d="M374.292,315.469V288.6a17.356,17.356,0,0,0-15.579-17.264c-.583-.059-1.175.085-1.774.085a16.975,16.975,0,0,0-16.96,17.3v26.635Z" transform="translate(-265.474 -209.489)"/><path class="b" d="M401.361,414.665V396.482l-.719-2.125.719-6.241h-9.686l.41,9.873-.41,3.281v13.395l4.841.729Z" transform="translate(-305.053 -298.909)"/><path class="c" d="M359.775,432.191l-9.52,3.768,1.156,13.179H364.8l-.7-.769c-3.336-3.671-3.986-8.413-4.113-13.354C359.965,433.928,359.775,433.288,359.775,432.191Z" transform="translate(-273.341 -332.654)"/><path class="c" d="M427.118,434.335l-9.941-4.1c0,6-.065,12.176-4.178,16.676l-.666.729H428.4a2.346,2.346,0,0,0,2.346-2.346v-5.54A5.865,5.865,0,0,0,427.118,434.335Z" transform="translate(-320.869 -331.16)"/><path class="b" d="M367.393,315.5a11.856,11.856,0,0,0-.126,2.359c1.282,6.228,6.331,12.487,10.522,12.487,4.845,0,10.829-8.354,10.829-15.363,0-4.338-1.463-8.168-4.24-10.457-.578-.476-1.054-.432-1.744-.766a.378.378,0,0,0-.532.251,14.593,14.593,0,0,1-11.038,10.532l-3.374.585C367.515,315.166,367.393,315.5,367.393,315.5Z" transform="translate(-286.325 -234.295)"/><path class="d" d="M58.686,437.2,45.114,432.36c-2.555,2.949-6.982,2.611-9.536-.339l-9.8,4.071a5.407,5.407,0,0,0-3.691,5.03v5.305a2.346,2.346,0,0,0,2.346,2.346l.466.234H35.426l4.69-.6,5,.6H53.77l4.915-.87Z" transform="translate(-22.09 -332.524)"/><path class="e" d="M89.876,398.126H81l.04,7.046c.843.973,1.4,2.109,2.537,2.44a6.4,6.4,0,0,0,6.637-1.954l0,0v-3.721Z" transform="translate(-67.193 -306.573)"/><path class="f" d="M68.312,434.8,57.245,447.645H47.558L39.5,436.852l-1.563-2.385,5.306-1.845,4.319-2.382a6.406,6.406,0,0,0,9.684,0v0Z" transform="translate(-34.222 -331.16)"/><path class="e" d="M74.369,303.294c0-7.372-3.783-11.868-11.155-11.868s-11.155,4.5-11.155,11.868a15.049,15.049,0,0,0,.537,4.664c1.834,5.7,6.6,10.631,10.617,10.631,3.983,0,8.7-4.841,10.567-10.475A15.128,15.128,0,0,0,74.369,303.294Z" transform="translate(-45.036 -224.881)"/><path class="a" d="M111.052,285.37a7.756,7.756,0,0,1,2.96-.857,6.65,6.65,0,0,1,4.861,1.867c4.434,4.49,2.106,11.414.4,14.453a.469.469,0,0,1-.761.084,28.767,28.767,0,0,0-5.765-4.972,10.842,10.842,0,0,1-2.351-2.02,8.377,8.377,0,0,1-1.315-2.942Z" transform="translate(-88.695 -219.588)"/><path class="a" d="M57.59,271.285a5.431,5.431,0,0,0-3.862-2.246c-2.722-.434-6.123.824-9.247,3.107-5.889,4.3-4.685,12.737-2.837,16.481a.47.47,0,0,0,.8.07c.322-.445.833-.772,1.55-1.5a18.916,18.916,0,0,1,7.045-4.523C56.949,280.521,59.606,274.434,57.59,271.285Z" transform="translate(-35.9 -207.676)"/><path class="g" d="M57.912,119.117l-5.446-.03a2.515,2.515,0,0,0-1.763.722l-3.668,3.6a1.257,1.257,0,0,1-1.77-.006l-3.594-3.586a2.514,2.514,0,0,0-1.776-.735H34.241a4.525,4.525,0,0,1-4.525-4.525V98.719a4.642,4.642,0,0,1,2.813-4.513,4.522,4.522,0,0,1,1.478-.247H62.814V114.8a4.516,4.516,0,0,1-.247,1.479c-.613,1.773-2.673,2.842-4.654,2.842Z" transform="translate(-27.929 -73.696)"/><g transform="translate(11.201 28.371)"><path class="a" d="M76.528,129.678a.547.547,0,0,0,.746,0,4.181,4.181,0,0,1,2.868-1.121,4.1,4.1,0,0,1,4.093,4.114c-.042,2.96-3.2,5.493-5.36,6.881a8.489,8.489,0,0,1-1.73.7.547.547,0,0,1-.495.005c-1.292-.638-6.853-3.47-6.77-7.6a3.94,3.94,0,0,1,2.284-3.69,4.019,4.019,0,0,1,.46-.262,3.935,3.935,0,0,1,1.054-.152A4.1,4.1,0,0,1,76.528,129.678Z" transform="translate(-69.879 -128.552)"/></g><path class="f" d="M370.192,119.086H364.6a2.515,2.515,0,0,0-1.763.722l-3.668,3.839a1.257,1.257,0,0,1-1.77-.006l-3.594-3.82a2.514,2.514,0,0,0-1.776-.735h-5.655a4.525,4.525,0,0,1-4.525-4.525l.3-20.139,4.564-.463h23.71a4.525,4.525,0,0,1,4.525,4.525V114.8a4.518,4.518,0,0,1-.247,1.479,4.642,4.642,0,0,1-4.512,2.812Z" transform="translate(-266.909 -73.695)"/><g transform="translate(84.358 28.371)"><path class="a" d="M388.667,129.678a.547.547,0,0,0,.746,0,4.181,4.181,0,0,1,2.868-1.121,4.1,4.1,0,0,1,4.093,4.114c-.042,2.96-3.2,5.493-5.36,6.881a8.489,8.489,0,0,1-1.73.7.547.547,0,0,1-.495.005c-1.292-.638-6.853-3.47-6.77-7.6a3.94,3.94,0,0,1,2.284-3.69,4.018,4.018,0,0,1,.46-.262,3.935,3.935,0,0,1,1.054-.152A4.1,4.1,0,0,1,388.667,129.678Z" transform="translate(-382.018 -128.552)"/></g><path class="f" d="M199.93,40.175l-6.774.229a3.771,3.771,0,0,0-2.81,1.256l-3.934,4.329a1.76,1.76,0,0,1-2.632-.011l-3.638-4.406a3.771,3.771,0,0,0-2.831-1.279l-7.766.435a6.287,6.287,0,0,1-6.286-6.286V13.786A6.283,6.283,0,0,1,169.544,7.5h31.1a6.285,6.285,0,0,1,6.285,6.285V34.444a6.257,6.257,0,0,1-.9,3.239c-1.1,1.826-3.818,2.493-6.1,2.493Z" transform="translate(-130.173 -7.5)"/><path class="a" d="M220.506,45.685a.839.839,0,0,0,1.145-.007,6.415,6.415,0,0,1,4.4-1.72,6.289,6.289,0,0,1,6.279,6.311c-.068,4.761-5.39,8.8-8.691,10.853a15.527,15.527,0,0,1-2.118.99.839.839,0,0,1-.76.008c-1.983-.978-10.639-5.154-10.511-11.489.055-2.72,1.479-5.506,3.989-6.353a6.044,6.044,0,0,1,1.894-.319,6.287,6.287,0,0,1,4.371,1.727Z" transform="translate(-166.149 -35.413)"/><path class="h" d="M242.4,357.911H230.2l.577,8.134-.577,4.3,0,0a9.079,9.079,0,0,0,1.622,1.841,8.555,8.555,0,0,0,8.827.329c.709-.426,1.171-1.5,1.746-2.168l0,0v-5.167l-.493-.809Z" transform="translate(-181.423 -275.783)"/><path class="i" d="M200.827,418.455l-6.382-2.629-6.356-1.933c-3.218,3.715-8.982,4.05-12.2.334l-12.269,4.228a7.039,7.039,0,0,0-4.357,6.508l.234,9.7,2.343.469h15.4L182.224,434l4.417,1.129h18.543V424.963A7.039,7.039,0,0,0,200.827,418.455Z" transform="translate(-127.114 -318.645)"/><path class="j" d="M233.247,357.91H230.2v12.436c.383.442.21,1.186.656,1.523.508.383,1.641.344,2.208.591h0l0-5.785a.469.469,0,0,1,.575-.457,12.26,12.26,0,0,0,2.659.406,13.365,13.365,0,0,0,6.1-1.446V357.91h-9.152Z" transform="translate(-181.424 -275.783)"/><path class="f" d="M228.745,413.588c-.152.178-.255.3-.265.307a32.525,32.525,0,0,0-7.54,18.736v.26h-9.4v-.169a32.515,32.515,0,0,0-5.81-16.62,27.973,27.973,0,0,0-1.6-2.331l-.07-.091,6.125-2.468a7.372,7.372,0,0,0,2.866,1.873,8.074,8.074,0,0,0,9.331-2.112l0,0Z" transform="translate(-161.414 -316.407)"/><path class="h" d="M226.032,247.221c0-8.828-4.44-15.9-13.269-15.9s-12.831,7.136-12.831,15.964c0,1.474-.674,3.016-.409,4.527,1.32,7.542,5.886,14.845,13.241,14.845,7.831,0,12.5-8.28,13.456-16.312A26.575,26.575,0,0,0,226.032,247.221Z" transform="translate(-157.889 -178.861)"/><g transform="translate(35.569 45)"><path class="a" d="M208,210.937c-.123-.035-.352-.079-.543-.112a.232.232,0,0,1-.173-.325,4.921,4.921,0,0,0-7.922-5.586.233.233,0,0,1-.4-.119,5.974,5.974,0,0,0-9.617-3.5.236.236,0,0,1-.331-.033,4.916,4.916,0,0,0-8.644,2.5.235.235,0,0,1-.22.205,7.022,7.022,0,0,0-1.593.278,6.92,6.92,0,0,0-4.713,6.867,6.313,6.313,0,0,0,1.8,4.428.224.224,0,0,1,.059.165,20.855,20.855,0,0,0,.221,4.762,6.208,6.208,0,0,0,3.591,4.782,2.349,2.349,0,0,1,1.153-2.039c1.433-1.185,3.908-1.4,4.532-3.583a.229.229,0,0,1,.258-.168,12.038,12.038,0,0,0,1.669.2A8.438,8.438,0,0,0,195,214.243a.225.225,0,0,1,.387-.055,5.744,5.744,0,0,0,6.064,1.973.23.23,0,0,1,.283.154c1.439,4.7,5.037,3.183,5.037,7.569,2.357-1.065,3.766-4.7,4.438-7.121A4.736,4.736,0,0,0,208,210.937Z" transform="translate(-173.849 -199.5)"/></g></g><g transform="translate(13.589 0)"><path d="M381.223,136.394a2.313,2.313,0,0,0,2.085-.023c1.868-.974,7.967-4.531,8.037-9.425A5.886,5.886,0,0,0,382.254,122a5.829,5.829,0,0,0-3.194-.949,6.059,6.059,0,0,0-5.9,5.836C373.052,131.965,379.3,135.448,381.223,136.394Zm-2.18-11.829h.016a2.347,2.347,0,0,1,1.615.647h0a2.309,2.309,0,0,0,3.15,0,2.374,2.374,0,0,1,4.005,1.681c-.033,2.317-3.315,4.77-5.6,6.062-2.31-1.244-5.606-3.639-5.559-6A2.494,2.494,0,0,1,379.043,124.565Z" transform="translate(-288.881 -92.678)"/><path d="M69.085,136.394a2.313,2.313,0,0,0,2.085-.023c1.868-.974,7.966-4.531,8.037-9.425A5.886,5.886,0,0,0,70.115,122a5.831,5.831,0,0,0-3.236-.949,5.972,5.972,0,0,0-5.863,5.836C60.914,131.965,67.165,135.448,69.085,136.394ZM66.9,124.565h.016a2.346,2.346,0,0,1,1.614.647h0a2.309,2.309,0,0,0,3.15,0,2.374,2.374,0,0,1,4,1.681c-.033,2.317-3.315,4.77-5.6,6.062-2.31-1.244-5.606-3.639-5.558-6a2.494,2.494,0,0,1,2.373-2.391Z" transform="translate(-49.899 -92.678)"/><path d="M27.5,49.141h5.655a.752.752,0,0,1,.534.221l3.828,3.821a3.024,3.024,0,0,0,4.244.015l3.9-3.839a.751.751,0,0,1,.53-.217H51.78a6.29,6.29,0,0,0,6.283-6.283V36.267a8.007,8.007,0,0,0,2.729.477h7.579a2.015,2.015,0,0,1,1.511.683l3.832,4.353a3.52,3.52,0,0,0,2.626,1.193h.014A3.52,3.52,0,0,0,78.976,41.8L82.9,37.415a2.015,2.015,0,0,1,1.5-.671H91.9a8.013,8.013,0,0,0,2.477-.392v6.506a6.29,6.29,0,0,0,6.283,6.283h5.655a.752.752,0,0,1,.534.221l3.828,3.821a3.024,3.024,0,0,0,4.244.015l3.9-3.84a.752.752,0,0,1,.53-.217h5.588a6.29,6.29,0,0,0,6.283-6.283V26.547a6.29,6.29,0,0,0-6.283-6.283h-25V8.043A8.052,8.052,0,0,0,91.895,0H77.574a1.758,1.758,0,0,0,0,3.516h14.32a4.532,4.532,0,0,1,4.527,4.527V28.7a4.532,4.532,0,0,1-4.527,4.527H84.4a5.536,5.536,0,0,0-4.121,1.842l-3.927,4.386L72.521,35.1a5.531,5.531,0,0,0-4.15-1.875H60.792A4.532,4.532,0,0,1,56.265,28.7V8.043a4.532,4.532,0,0,1,4.527-4.527h8.579a1.758,1.758,0,1,0,0-3.516H60.792a8.052,8.052,0,0,0-8.043,8.043V20.264H27.5a6.29,6.29,0,0,0-6.283,6.283V42.858A6.29,6.29,0,0,0,27.5,49.141Zm97.44-25.362a2.771,2.771,0,0,1,2.767,2.768V42.858a2.771,2.771,0,0,1-2.767,2.767H119.35a4.246,4.246,0,0,0-3,1.226l-3.549,3.491-3.477-3.47a4.244,4.244,0,0,0-3.018-1.248h-5.655a2.771,2.771,0,0,1-2.768-2.768v-8.8a8.01,8.01,0,0,0,2.05-5.356V23.779h25ZM24.731,26.547A2.771,2.771,0,0,1,27.5,23.779H52.749V28.7a8,8,0,0,0,1.8,5.061v9.095a2.771,2.771,0,0,1-2.768,2.768H46.192a4.247,4.247,0,0,0-3,1.226l-3.549,3.491-3.477-3.47a4.244,4.244,0,0,0-3.018-1.248H27.5a2.771,2.771,0,0,1-2.768-2.767V26.547Z" transform="translate(-19.428 0)"/><path d="M200.9,44.487c-.146,7.239,9.037,12.337,11.854,13.727a2.606,2.606,0,0,0,2.351-.026c2.749-1.433,11.725-6.651,11.825-13.64a8.093,8.093,0,0,0-13.011-6.429,8.047,8.047,0,0,0-4.955-1.665,8.216,8.216,0,0,0-8.063,8.033Zm8.089-4.518h.032a4.535,4.535,0,0,1,3.12,1.249h0a2.6,2.6,0,0,0,3.549,0,4.581,4.581,0,0,1,7.723,3.28c-.056,3.891-5.072,7.951-9.522,10.354-4.516-2.314-9.558-6.308-9.478-10.293A4.735,4.735,0,0,1,208.985,39.969Z" transform="translate(-156.995 -27.908)"/><path d="M126.158,253.474v-25.6A19.118,19.118,0,0,0,98.324,210.86a1.758,1.758,0,0,0,1.606,3.127,15.422,15.422,0,0,1,7.115-1.714,15.614,15.614,0,0,1,15.6,15.6v22.5c-.048-.021-.094-.045-.142-.065h0l-8.853-3.648v-3.436a20.8,20.8,0,0,0,5.984-13.778c0-6.418-2.857-11.46-7.643-13.489a1.761,1.761,0,0,0-1.362,0,1.829,1.829,0,0,0-1.041,1.247,12.681,12.681,0,0,1-9.713,9.666l-4.023.861a2.039,2.039,0,0,0-1.386,2.071,20.847,20.847,0,0,0,5.983,13.448v3.415l-6.993,2.882a8.753,8.753,0,0,0-2-1.808V227.869a15.5,15.5,0,0,1,2.816-8.942,1.758,1.758,0,1,0-2.878-2.018,18.994,18.994,0,0,0-3.453,10.961v18.237l-9.62-3.964v-6.678c4.4-3.567,7.013-9.985,7.5-16.3,2.3-1.654,3.65-5,4.394-7.676a6.521,6.521,0,0,0-.856-5.369,6.443,6.443,0,0,0-2.647-2.272,6.742,6.742,0,0,0,.079-1.792,6.676,6.676,0,0,0-9.516-5.427,7.737,7.737,0,0,0-10.591-3.2A6.681,6.681,0,0,0,56.2,196.611a8.79,8.79,0,0,0-5.282,14.012,22.2,22.2,0,0,0,.3,4.553,8.364,8.364,0,0,0,4.1,5.761,28.8,28.8,0,0,0,.671,3.4,1.853,1.853,0,0,0,2.146,1.255,1.758,1.758,0,0,0,1.255-2.146,25.3,25.3,0,0,1-.674-3.652c-.078-.68.176-.979,1.718-1.731a7.1,7.1,0,0,0,3.2-2.446,10.284,10.284,0,0,0,9.317-4.549,7.862,7.862,0,0,0,4.891,1.291,8.153,8.153,0,0,0,3.136,3.459c1.047.722,1.37.946,1.376,2.273-.364,8.215-4.909,16.7-11.9,16.7a9.915,9.915,0,0,1-7.955-4.515,1.758,1.758,0,1,0-2.845,2.066,16.4,16.4,0,0,0,2.944,3.139v6.659l-11.649,4.8a8.787,8.787,0,0,0-3.515,2.631l-7.072-2.914v-5.4a20.47,20.47,0,0,0,5.707-8.94,1.756,1.756,0,0,0,1.231-.79c1.827-2.855,5.338-11.511-.29-17.21A8.72,8.72,0,0,0,39.12,212.1a5.56,5.56,0,0,0-.368-.677c-2.374-3.709-8.51-4.229-13.969-1.184a1.758,1.758,0,1,0,1.713,3.07c4.095-2.284,8.112-1.84,9.3.009a3.834,3.834,0,0,1,.086,3.228,9.438,9.438,0,0,1-5.755,5.559,20.64,20.64,0,0,0-7.944,5.2,16.008,16.008,0,0,1-.134-8.641,1.758,1.758,0,0,0-3.366-1.015c-1.622,5.379-.033,11.549,1.552,14.025a1.757,1.757,0,0,0,1.273.8,20.526,20.526,0,0,0,5.659,8.775v5.419c-.161.071-8.781,3.61-8.951,3.693a7.6,7.6,0,0,0-4.62,7V262.9a4.109,4.109,0,0,0,4.1,4.1H123.115a4.108,4.108,0,0,0,4.1-4.1v-5.54a7.61,7.61,0,0,0-1.061-3.882Zm-45.491-43.6a1.758,1.758,0,0,0-2.235-1.2,3.987,3.987,0,0,1-4.533-1.559,1.758,1.758,0,0,0-3.125.438,6.666,6.666,0,0,1-6.347,4.6,11.963,11.963,0,0,1-1.545-.2,1.758,1.758,0,0,0-2.046,1.348c-.152.688-.674,1-1.918,1.594a7.16,7.16,0,0,0-2.944,2.151,4.808,4.808,0,0,1-1.3-2.519,19.637,19.637,0,0,1-.213-4.373A1.758,1.758,0,0,0,54,208.823a5.27,5.27,0,0,1,3.71-8.85,1.758,1.758,0,0,0,1.7-1.594,3.159,3.159,0,0,1,5.666-1.609,1.758,1.758,0,0,0,2.558.259,4.216,4.216,0,0,1,6.967,2.692,1.758,1.758,0,0,0,3.1.925,3.136,3.136,0,0,1,2.726-1.134,3.163,3.163,0,0,1,2.486,4.671,1.758,1.758,0,0,0,1.357,2.595,2.951,2.951,0,0,1,2.165,1.294,3.008,3.008,0,0,1,.393,2.478,16.589,16.589,0,0,1-1.784,4.321,6.818,6.818,0,0,0-2.061-1.943A4.7,4.7,0,0,1,80.667,209.879ZM100.607,230.3a16.211,16.211,0,0,0,11.74-10.091c2.39,1.866,3.769,5.171,3.769,9.233,0,6.308-5.49,13.606-9.071,13.606-3.319,0-8.276-6.212-8.985-12.2Zm-33.272,33.18a34.539,34.539,0,0,0-6.544-16.793l3.153-1.3a9.817,9.817,0,0,0,6.512,2.473h0a9.819,9.819,0,0,0,6.516-2.473l3.1,1.279a34.557,34.557,0,0,0-6.6,16.813Zm16.108-15.426,5.181,2.135a5.263,5.263,0,0,1,3.269,4.883v8.408H77.02A30.993,30.993,0,0,1,83.443,248.059Zm-12.988-9.75a12.073,12.073,0,0,0,4.344-.794v5.1a6.307,6.307,0,0,1-4.342,1.731h0a6.306,6.306,0,0,1-4.341-1.73v-5.1a12.153,12.153,0,0,0,4.34.79ZM45.5,263.484H42.439l3.066-3.559Zm.021-8.97-7.727,8.97h-8L21.741,252.7l6.777-2.792a8.159,8.159,0,0,0,5.242,1.907h0a8.157,8.157,0,0,0,5.243-1.907l6.825,2.812a8.807,8.807,0,0,0-.3,1.8Zm-1.017-37.729c3.06,3.1,2.1,7.8.89,10.742a29.756,29.756,0,0,0-4.814-3.893,8.477,8.477,0,0,1-2.894-3.018,11.466,11.466,0,0,0,1.516-2.948,9.136,9.136,0,0,0,.449-2.085A5.332,5.332,0,0,1,44.509,216.785ZM24.462,230a17.074,17.074,0,0,1,6.862-4.6,13.839,13.839,0,0,0,3.862-2.154,12.251,12.251,0,0,0,3.5,3.345,26.381,26.381,0,0,1,4.339,3.536c-1.356,5.772-6.082,10.576-9.268,10.576S25.779,235.822,24.462,230Zm9.3,14.22a7.913,7.913,0,0,0,3.087-.678v3.578a4.645,4.645,0,0,1-3.085,1.171h0a4.644,4.644,0,0,1-3.084-1.173V243.54a7.87,7.87,0,0,0,3.084.683ZM17.1,262.9v-5.539a4.092,4.092,0,0,1,1.414-3.1l6.893,9.228H17.693A.589.589,0,0,1,17.1,262.9Zm31.916-7.82a5.263,5.263,0,0,1,3.269-4.883l5.138-2.117a30.982,30.982,0,0,1,6.365,15.408H49.021v-8.408Zm46.388,8.408v-8.408a8.833,8.833,0,0,0-.336-2.4l5.385-2.219c.068,4.429.478,9.083,2.942,13.027Zm8.552-15.651V245.8a6.61,6.61,0,0,0,6.171,0s0,1.858,0,2.04c0,5.275,0,10.719-3.085,14.73-3.084-4-3.086-9.454-3.086-14.735A.02.02,0,0,0,103.961,247.834ZM123.7,262.9a.589.589,0,0,1-.588.588H110.69c2.465-3.949,2.875-8.6,2.944-13.027l7.527,3.1h0a4.094,4.094,0,0,1,2.543,3.8Z" transform="translate(-13.589 -147)"/></g></g></svg>