<svg xmlns="http://www.w3.org/2000/svg" width="90" height="120" viewBox="0 0 90 120"><defs><style>.a{fill:#ffca28;}</style></defs><g transform="translate(-64)"><path d="M37.5,0A37.5,37.5,0,1,1,0,37.5,37.5,37.5,0,0,1,37.5,0Z" transform="translate(64)"/><path class="a" d="M32.5,0A32.5,32.5,0,1,1,0,32.5,32.5,32.5,0,0,1,32.5,0Z" transform="translate(69 5)"/><g transform="translate(64 17.5)"><path d="M192.583,104.666h-8.75a2.5,2.5,0,0,0,0,5h5v2.5a2.5,2.5,0,1,0,5,0V109.54a8.73,8.73,0,0,0-1.25-17.374h-2.5a3.75,3.75,0,0,1,0-7.5h8.75a2.5,2.5,0,0,0,0-5h-5v-2.5a2.5,2.5,0,1,0-5,0v2.626a8.73,8.73,0,0,0,1.25,17.374h2.5a3.75,3.75,0,0,1,0,7.5Z" transform="translate(-153.833 -74.666)"/><path d="M151.5,323.667a2.5,2.5,0,0,0-2.5,2.5v13.972L115.767,306.9a2.5,2.5,0,0,0-3.535,0L94,325.132,68.267,299.4a2.5,2.5,0,0,0-3.535,3.535l27.5,27.5a2.5,2.5,0,0,0,3.535,0L114,312.2l31.458,31.465H131.5a2.5,2.5,0,0,0,0,5h20a2.5,2.5,0,0,0,2.5-2.5v-20A2.5,2.5,0,0,0,151.5,323.667Z" transform="translate(-64 -246.167)"/></g></g></svg>