<svg xmlns="http://www.w3.org/2000/svg" width="120" height="120" viewBox="0 0 120 120"><defs><style>.a{fill:#ffca28;}.b{fill:#ffa726;}.c{fill:#26a69a;}.d{fill:#4dd0e1;}.e{fill:#ffedb7;}.f{fill:#f0d0b4;}</style></defs><g transform="translate(-1 -1)"><path class="a" d="M42.71,43.252,31.252,54.71,14.8,37.6,9.4,42.981,4,16l26.981,5.4L25.6,26.8Z" transform="translate(2.806 14.032)"/><path class="a" d="M39.484,4,54.968,27.226H47.226V50.452H31.742V27.226H24Z" transform="translate(21.516 2.806)"/><path class="a" d="M78.71,16l-5.4,26.981L67.91,37.6,51.458,54.71,40,43.252,57.11,26.8l-5.381-5.4Z" transform="translate(36.484 14.032)"/><g transform="translate(2.935 2.935)"><circle class="b" cx="3.871" cy="3.871" r="3.871" transform="translate(0 71.613)"/><circle class="b" cx="3.871" cy="3.871" r="3.871" transform="translate(0 108.387)"/><circle class="b" cx="3.871" cy="3.871" r="3.871"/><circle class="b" cx="3.871" cy="3.871" r="3.871" transform="translate(108.387)"/><circle class="b" cx="3.871" cy="3.871" r="3.871" transform="translate(108.387 71.613)"/><circle class="b" cx="3.871" cy="3.871" r="3.871" transform="translate(108.387 108.387)"/></g><path class="c" d="M40.29,73.881H19V68.074a25.087,25.087,0,0,1,7.374-17.787c.329-.329.677-.677,1.045-.987l1.258,7.161,5.806,3.871L30.613,64.2Z" transform="translate(16.839 45.184)"/><path class="c" d="M55.29,68.074v5.806H34L43.677,64.2l-3.871-3.871,5.806-3.871L46.871,49.3A25.066,25.066,0,0,1,55.29,68.074Z" transform="translate(30.871 45.184)"/><path class="d" d="M30.492,46.98l9.6,29.071H36.221l-9.677-9.677L30.415,62.5l-5.806-3.871L23.35,51.47A25.311,25.311,0,0,1,30.492,46.98Z" transform="translate(20.908 43.014)"/><path class="d" d="M41.677,62.5l3.871,3.871-9.677,9.677H32L41.6,46.98a25.311,25.311,0,0,1,7.142,4.49l-1.258,7.161Z" transform="translate(29 43.014)"/><path class="e" d="M46.24,47.9l-9.6,29.071L27.04,47.9a25.242,25.242,0,0,1,19.2,0Z" transform="translate(24.36 42.097)"/><circle class="f" cx="13.548" cy="13.548" r="13.548" transform="translate(47.452 61)"/><path d="M53.524,59.455a15.484,15.484,0,1,0-16.854,0A27.131,27.131,0,0,0,18,85.194v7.742H72.194V85.194A27.131,27.131,0,0,0,53.524,59.455Zm2.385,21.867-7.742,7.742h-.391l8.073-24.439a23.317,23.317,0,0,1,3.9,2.565l-.925,5.241-7.082,4.721ZM31.376,72.429l-.925-5.241a23.316,23.316,0,0,1,3.9-2.565L42.42,89.065h-.391l-7.742-7.742,4.173-4.171Zm2.108-25.945A11.613,11.613,0,1,1,45.1,58.1,11.625,11.625,0,0,1,33.484,46.484ZM52.27,63.114,45.1,84.828,37.926,63.114a23.019,23.019,0,0,1,14.344,0Zm-30.4,22.08a23.115,23.115,0,0,1,5.237-14.667l.741,4.206,4.531,3.021-3.569,3.569,7.742,7.742H21.871Zm46.452,3.871H53.64l7.742-7.742-3.569-3.571,4.531-3.021.741-4.206a23.125,23.125,0,0,1,5.237,14.669Z" transform="translate(15.903 28.065)"/><path d="M31.555,54.074H50.91V30.848h9.424L41.232,2.2l-19.1,28.651h9.424Zm-2.189-27.1,11.866-17.8L53.1,26.977h-6.06V50.2H35.426V26.977Z" transform="translate(19.768 1.12)"/><path d="M2.725,14.725,9.4,48.106l6.559-6.559L32.423,58.666,46.664,44.425,29.545,27.962,36.1,21.4ZM41.139,44.479l-8.659,8.659L16.016,36.019l-4.237,4.235L7.66,19.66l20.6,4.119-4.235,4.237Z" transform="translate(1.614 12.84)"/><path d="M38.572,44.425,52.813,58.666,69.277,41.547l6.559,6.559,6.675-33.381L49.13,21.4l6.559,6.559ZM77.578,19.66l-4.119,20.6-4.237-4.235L52.759,53.14,44.1,44.481,61.219,28.018l-4.235-4.237Z" transform="translate(35.148 12.84)"/><path d="M6.806,12.613A5.806,5.806,0,1,0,1,6.806,5.814,5.814,0,0,0,6.806,12.613Zm0-7.742A1.935,1.935,0,1,1,4.871,6.806,1.939,1.939,0,0,1,6.806,4.871Z" transform="translate(0 0)"/><path d="M0,0H3.871V3.677H0Z" transform="translate(22.187 24.93) rotate(-45)"/><path d="M0,0H3.871V3.871H0Z" transform="translate(16.716 19.457) rotate(-45)"/><path d="M0,0H3.871V3.871H0Z" transform="translate(11.242 13.981) rotate(-45)"/><path d="M6.806,57a5.806,5.806,0,1,0,5.806,5.806A5.814,5.814,0,0,0,6.806,57Zm0,7.742a1.935,1.935,0,1,1,1.935-1.935A1.939,1.939,0,0,1,6.806,64.742Z" transform="translate(0 52.387)"/><path d="M0,0H3.871V3.871H0Z" transform="translate(16.706 102.534) rotate(-45)"/><path d="M0,0H3.871V3.871H0Z" transform="translate(11.231 108.01) rotate(-45)"/><path d="M0,0H3.677V3.871H0Z" transform="translate(22.18 97.062) rotate(-45)"/><path d="M62.806,57a5.806,5.806,0,1,0,5.806,5.806A5.814,5.814,0,0,0,62.806,57Zm0,7.742a1.935,1.935,0,1,1,1.935-1.935A1.939,1.939,0,0,1,62.806,64.742Z" transform="translate(52.387 52.387)"/><path d="M0,0H3.871V3.871H0Z" transform="translate(99.783 102.543) rotate(-45)"/><path d="M0,0H3.871V3.677H0Z" transform="translate(94.45 97.208) rotate(-45)"/><path d="M0,0H3.871V3.871H0Z" transform="translate(105.259 108.019) rotate(-45)"/><path d="M62.806,12.613A5.806,5.806,0,1,0,57,6.806,5.814,5.814,0,0,0,62.806,12.613Zm0-7.742a1.935,1.935,0,1,1-1.935,1.935A1.939,1.939,0,0,1,62.806,4.871Z" transform="translate(52.387 0)"/><path d="M0,0H3.871V3.871H0Z" transform="translate(105.268 13.992) rotate(-45)"/><path d="M0,0H3.871V3.871H0Z" transform="translate(99.795 19.466) rotate(-45)"/><path d="M0,0H3.677V3.871H0Z" transform="translate(94.457 24.8) rotate(-45)"/><path d="M62.806,38a5.806,5.806,0,1,0,5.806,5.806A5.814,5.814,0,0,0,62.806,38Zm0,7.742a1.935,1.935,0,1,1,1.935-1.935A1.939,1.939,0,0,1,62.806,45.742Z" transform="translate(52.387 34.613)"/><path d="M53,40h3.871v3.871H53Z" transform="translate(48.645 36.484)"/><path d="M49,40h3.871v3.871H49Z" transform="translate(44.903 36.484)"/><path d="M45,40h3.871v3.871H45Z" transform="translate(41.161 36.484)"/><path d="M6.806,49.613A5.806,5.806,0,1,0,1,43.806,5.814,5.814,0,0,0,6.806,49.613Zm0-7.742a1.935,1.935,0,1,1-1.935,1.935A1.939,1.939,0,0,1,6.806,41.871Z" transform="translate(0 34.613)"/><path d="M9,40h3.871v3.871H9Z" transform="translate(7.484 36.484)"/><path d="M13,40h3.871v3.871H13Z" transform="translate(11.226 36.484)"/><path d="M17,40h3.871v3.871H17Z" transform="translate(14.968 36.484)"/></g></svg>