<svg xmlns="http://www.w3.org/2000/svg" width="120" height="120" viewBox="0 0 120 120"><defs><style>.a{fill:#ffa726;}.b{fill:#26a69a;}.c{fill:#039be5;}.d{fill:#ffca28;}.e{fill:#ffedb7;}.f{fill:#4dd0e1;}</style></defs><g transform="translate(-1 -1)"><g transform="translate(2.935 2.935)"><g transform="translate(75.484 38.71)"><path class="a" d="M56.484,22a3.9,3.9,0,0,1,3.871,3.871,3.882,3.882,0,0,1-3.871,3.871H44.871A3.9,3.9,0,0,1,41,25.871,3.882,3.882,0,0,1,44.871,22H56.484Z" transform="translate(-41 -22)"/></g><g transform="translate(79.355 46.452)"><path class="a" d="M54.613,26v8.284a31.919,31.919,0,0,0-5.806-.542A30.139,30.139,0,0,0,43,34.3V26Z" transform="translate(-43 -26)"/></g><g transform="translate(13.548)"><path class="b" d="M98.032,40.71V52.323l-4.568,1.548A41.378,41.378,0,0,1,92.323,58.5a28.878,28.878,0,0,0-5.9-1.761V48.452a3.882,3.882,0,0,0,3.871-3.871,3.9,3.9,0,0,0-3.871-3.871h-.5a32.91,32.91,0,0,0-65.3,5.806,33.248,33.248,0,0,0,1.548,9.968A30.052,30.052,0,0,0,14.71,58.5a41.379,41.379,0,0,1-1.142-4.626L9,52.323V40.71l4.568-1.548a40.219,40.219,0,0,1,6.5-15.716l-2.129-4.3,8.206-8.206,4.3,2.129a40.219,40.219,0,0,1,15.716-6.5L47.71,2H59.323l1.548,4.568a40.219,40.219,0,0,1,15.716,6.5l4.3-2.129,8.206,8.206-2.129,4.3a40.219,40.219,0,0,1,6.5,15.716Z" transform="translate(-9 -2)"/></g><g transform="translate(25.161 11.613)"><path class="b" d="M80.3,35.1H72.387A25.165,25.165,0,1,0,24.774,50.832a29.918,29.918,0,0,0-3.968-.252,30.849,30.849,0,0,0-4.258.29A33.248,33.248,0,0,1,15,40.9,32.91,32.91,0,0,1,80.3,35.1Z" transform="translate(-15 -8)"/></g><g transform="translate(58.065 54.194)"><path class="c" d="M70.806,32.3a28.878,28.878,0,0,0-5.9-1.761A31.919,31.919,0,0,0,59.1,30a30.139,30.139,0,0,0-5.806.561A30.959,30.959,0,0,0,32,45.968v.019a30.923,30.923,0,0,1,0,29.961v.019A30.969,30.969,0,1,0,70.806,32.3Z" transform="translate(-32 -30)"/></g><g transform="translate(0 54.194)"><path class="d" d="M28.71,30.29A30.849,30.849,0,0,1,32.968,30a29.918,29.918,0,0,1,3.968.252A30.991,30.991,0,0,1,60.065,45.968v.019a30.923,30.923,0,0,1,0,29.961v.019A30.969,30.969,0,1,1,21.258,32.3,30.052,30.052,0,0,1,28.71,30.29Z" transform="translate(-2 -30)"/></g><g transform="translate(7.742 61.935)"><circle class="e" cx="23.226" cy="23.226" r="23.226"/></g><g transform="translate(61.935 61.935)"><path class="f" d="M80.452,57.226a23.195,23.195,0,1,1-6.794-16.432,23.153,23.153,0,0,1,6.794,16.432Z" transform="translate(-34 -34)"/></g><g transform="translate(81.29 81.29)"><path class="a" d="M47.871,44A3.871,3.871,0,1,1,44,47.871,3.9,3.9,0,0,1,47.871,44Z" transform="translate(-44 -44)"/></g></g><g transform="translate(1 1)"><path d="M29.484,48.429A7.56,7.56,0,0,0,23.677,41.1V37H19.806v4.1a7.546,7.546,0,0,0-.637,14.5l3.919,1.308A3.687,3.687,0,0,1,21.926,64.1H21.56a3.69,3.69,0,0,1-3.689-3.687V58.29H14V60.41a7.56,7.56,0,0,0,5.806,7.334v4.1h3.871v-4.1a7.546,7.546,0,0,0,.637-14.5l-3.919-1.308a3.687,3.687,0,0,1,1.163-7.186h.366a3.69,3.69,0,0,1,3.689,3.687v.184Z" transform="translate(11.161 32.677)"/><path d="M30.161,33A25.161,25.161,0,1,0,55.323,58.161,25.19,25.19,0,0,0,30.161,33Zm0,46.452a21.29,21.29,0,1,1,21.29-21.29A21.315,21.315,0,0,1,30.161,79.452Z" transform="translate(2.742 28.935)"/><path d="M45.532,51.339a5.8,5.8,0,0,0,3.871,5.45v4.227h3.871V56.789a5.792,5.792,0,0,0-1.935-11.257,5.711,5.711,0,0,0-2.487.583L43.03,40.293,40.293,43.03l5.822,5.822A5.711,5.711,0,0,0,45.532,51.339ZM51.339,49.4A1.935,1.935,0,1,1,49.4,51.339,1.936,1.936,0,0,1,51.339,49.4Z" transform="translate(35.758 35.758)"/><path d="M102.086,58.36c.186-.7.4-1.4.542-2.085l4.823-1.628V40.254l-4.821-1.626a42.028,42.028,0,0,0-5.948-14.39l2.253-4.546L88.759,9.516l-4.546,2.253A42.039,42.039,0,0,0,69.82,5.819L68.2,1H53.8L52.178,5.821a42.055,42.055,0,0,0-14.392,5.95L33.241,9.516,23.065,19.695l2.253,4.546a41.975,41.975,0,0,0-5.948,14.39l-4.821,1.624V54.65l4.823,1.626c.145.685.356,1.388.542,2.085A32.879,32.879,0,1,0,61,106.718,32.88,32.88,0,1,0,102.086,58.36Zm-79.13-3.91-.2-1.123-4.334-1.459V43.037l4.332-1.461.2-1.123a38.239,38.239,0,0,1,6.188-14.965l.646-.937-2.023-4.084,6.246-6.246L38.1,16.244l.937-.648A38.29,38.29,0,0,1,54,9.408L55.12,9.2l1.463-4.332h8.834L66.876,9.2,68,9.406a38.249,38.249,0,0,1,14.965,6.188l.937.648,4.084-2.023,6.246,6.246-2.023,4.084.646.937a38.222,38.222,0,0,1,6.188,14.965l.2,1.123,4.335,1.461v8.832l-4.332,1.461-.2,1.123c-.147.805-.335,1.626-.544,2.456-.871-.29-1.759-.536-2.661-.755V50.966a5.785,5.785,0,0,0-.875-11.15A34.818,34.818,0,1,0,27.214,55.881,32.127,32.127,0,0,0,23.5,56.906c-.211-.828-.4-1.651-.546-2.456ZM39.3,55.675A23.212,23.212,0,1,1,82.892,39.71h-.6a5.792,5.792,0,0,0-1.935,11.257v5.172A32.942,32.942,0,0,0,61,69.475a32.934,32.934,0,0,0-21.7-13.8Zm-8.228-.339a30.953,30.953,0,1,1,59.9-15.627H86.953a27.087,27.087,0,1,0-51.9,15.542c-.385-.014-.765-.058-1.154-.058-.954,0-1.893.064-2.828.143ZM93.9,47.452H82.29a1.935,1.935,0,0,1,0-3.871H93.9a1.935,1.935,0,0,1,0,3.871Zm-9.677,3.871h7.742v4.119a33.17,33.17,0,0,0-3.871-.248,32.527,32.527,0,0,0-3.871.244ZM33.9,117.129A29.032,29.032,0,1,1,62.935,88.1,29.065,29.065,0,0,1,33.9,117.129ZM71.746,74.483l2.665,2.665,2.737-2.737-2.665-2.665a21.18,21.18,0,0,1,11.679-4.841v3.772h3.871V66.905a21.2,21.2,0,0,1,11.679,4.841l-2.665,2.665,2.737,2.737,2.665-2.665a21.18,21.18,0,0,1,4.841,11.679h-3.772v3.871h3.772a21.2,21.2,0,0,1-4.841,11.679l-2.665-2.665-2.737,2.737,2.665,2.665a21.18,21.18,0,0,1-11.679,4.841v-3.772H86.161v3.772a21.2,21.2,0,0,1-11.679-4.841l2.665-2.665-2.737-2.737-2.665,2.665a21.18,21.18,0,0,1-4.841-11.679h3.772V86.161H66.905A21.186,21.186,0,0,1,71.746,74.483ZM88.1,117.129A29.046,29.046,0,0,1,63.2,102.992a32.658,32.658,0,0,0,1.943-4.634,25.159,25.159,0,1,0,0-20.524A32.563,32.563,0,0,0,63.2,73.2,29.023,29.023,0,1,1,88.1,117.129Z" transform="translate(-1 -1)"/><path d="M22,33.382h3.871a15.4,15.4,0,0,1,8.6-13.875L32.75,16.04A19.259,19.259,0,0,0,22,33.382Z" transform="translate(18.645 13.07)"/><path d="M30.637,19.254a15.642,15.642,0,0,1,3.441-.383V15a19.426,19.426,0,0,0-4.3.48Z" transform="translate(25.921 12.097)"/></g></g></svg>