<svg xmlns="http://www.w3.org/2000/svg" width="120" height="120" viewBox="0 0 120 120"><defs><style>.a{fill:#26a69a;}.b{fill:#ffa726;}.c{fill:#4dd0e1;}.d{fill:#60d1e0;}.e{fill:#e0e0de;}.f{fill:#ffca28;}.g{fill:#e8e8e8;}.h{fill:#95573a;}</style></defs><g transform="translate(-16 -16)"><path class="a" d="M96,72h80a8,8,0,0,1,8,8v62a6,6,0,0,1-6,6H94a6,6,0,0,1-6-6V80a8,8,0,0,1,8-8Z" transform="translate(-54 -42)"/><path class="b" d="M196,24H136a8,8,0,0,0-8,8v84h76V32A8,8,0,0,0,196,24Z" transform="translate(-84 -6)"/><path class="c" d="M228,146q0,1.009-.075,2a25.967,25.967,0,0,1-22.3,23.747c-.535.077-1.075.135-1.62.177q-.99.075-2,.075t-2-.075c-.545-.042-1.085-.1-1.62-.177a25.668,25.668,0,0,1-6.055-1.607A26,26,0,0,1,176.075,148q-.075-.99-.075-2t.075-2A25.969,25.969,0,0,1,198.1,120.292q.941-.143,1.9-.217.99-.075,2-.075t2,.075c.545.042,1.085.1,1.62.177a25.656,25.656,0,0,1,6.05,1.605A26.088,26.088,0,0,1,225.07,134a25.792,25.792,0,0,1,2.855,10Q228,144.99,228,146Z" transform="translate(-120 -78)"/><path class="d" d="M227.925,148q.075-.99.075-2t-.075-2h-9.962a50.87,50.87,0,0,0-1.37-10h8.477a25.847,25.847,0,0,0-2.575-4h-7.06a41.131,41.131,0,0,0-3.765-8.142,25.656,25.656,0,0,0-6.05-1.605l1.395,1.8A35.034,35.034,0,0,1,211.188,130H204v-9.925q-.99-.075-2-.075t-2,.075V130h-7.187a34.9,34.9,0,0,1,4.195-7.978c.025-.032.045-.067.067-.1l1.023-1.63a25.748,25.748,0,0,0-5.768,1.565A41,41,0,0,0,188.565,130H181.5a25.848,25.848,0,0,0-2.575,4h8.477a50.818,50.818,0,0,0-1.37,10h-9.962q-.075.99-.075,2t.075,2h9.965a50.118,50.118,0,0,0,1.91,12h-7.865a26.1,26.1,0,0,0,3.155,4H189.3a38.909,38.909,0,0,0,3.02,6.14,25.668,25.668,0,0,0,6.055,1.607l-1.4-1.8A33.121,33.121,0,0,1,193.632,164H200v7.925q.99.075,2,.075t2-.075V164h6.367a32.989,32.989,0,0,1-3.353,5.945l-1.395,1.8a25.668,25.668,0,0,0,6.055-1.607,38.689,38.689,0,0,0,3.02-6.14h6.065a26.1,26.1,0,0,0,3.155-4H216.05a50.2,50.2,0,0,0,1.91-12ZM200,160h-7.868a45.725,45.725,0,0,1-2.09-12H200Zm0-16h-9.96a46.477,46.477,0,0,1,1.493-10H200Zm11.867,16H204V148h9.957A45.815,45.815,0,0,1,211.867,160ZM204,144V134h8.467a46.547,46.547,0,0,1,1.492,10Z" transform="translate(-120 -78)"/><path class="e" d="M137.172,362a6.828,6.828,0,0,1-4.828,2H116a6.829,6.829,0,0,1-4.828-2,6.828,6.828,0,0,0-4.828-2H72v6a6,6,0,0,0,6,6h92a6,6,0,0,0,6-6v-6H142a6.829,6.829,0,0,0-4.828,2Z" transform="translate(-42 -258)"/><path class="f" d="M80,356.5v25a4.444,4.444,0,0,1-.615,2.267A4.492,4.492,0,0,1,75.5,386h-47a4.492,4.492,0,0,1-3.885-2.233A4.444,4.444,0,0,1,24,381.5v-25a4.444,4.444,0,0,1,.615-2.267A4.492,4.492,0,0,1,28.5,352h47a4.492,4.492,0,0,1,3.885,2.233A4.445,4.445,0,0,1,80,356.5Z" transform="translate(-6 -252)"/><path class="g" d="M70,216a22,22,0,0,0-22,22v12h8V238a14,14,0,0,1,28,0v12h8V238A22,22,0,0,0,70,216Z" transform="translate(-24 -150)"/><path class="h" d="M124,397.922a6,6,0,1,0-8,5.631v4.369h4v-4.369A5.99,5.99,0,0,0,124,397.922Z" transform="translate(-71.997 -281.922)"/><path d="M182,100h-2V38a10.011,10.011,0,0,0-10-10V26a10.011,10.011,0,0,0-10-10H100A10.011,10.011,0,0,0,90,26v2A10.011,10.011,0,0,0,80,38V62h4V38a6.007,6.007,0,0,1,6-6V60h4V26a6.007,6.007,0,0,1,6-6h60a6.007,6.007,0,0,1,6,6V94h4V32a6.007,6.007,0,0,1,6,6v62H148a8.76,8.76,0,0,0-6.234,2.586A4.81,4.81,0,0,1,138.34,104H128v4h10.34a8.784,8.784,0,0,0,6.254-2.586A4.787,4.787,0,0,1,148,104h32v4a4,4,0,0,1-4,4H128v4h48a8.009,8.009,0,0,0,8-8v-6a2,2,0,0,0-2-2Z" transform="translate(-48)"/><path d="M120,272h4v14h-4Z" transform="translate(-78 -192)"/><path d="M159.995,48h4v4h-4Z" transform="translate(-107.996 -24)"/><path d="M191.995,48h4v4h-4Z" transform="translate(-131.996 -24)"/><path d="M223.995,48h4v4h-4Z" transform="translate(-155.996 -24)"/><path d="M160,80h60v4H160Z" transform="translate(-108 -48)"/><path d="M192.129,163.205c-.423-.109-.85-.232-1.268-.367l-1.223,3.809c.492.158.994.3,1.481.429a28,28,0,1,0-16.451-42.156A27.648,27.648,0,0,0,171,133.541l3.893.921a23.638,23.638,0,0,1,2.579-6.46h6.186a51.1,51.1,0,0,0-1.408,12c0,1.385.056,2.784.166,4.16l3.987-.319c-.049-.61-.085-1.225-.111-1.84h9.958v12h-6v4h6v5.91A23.951,23.951,0,0,1,192.129,163.205ZM214.1,158a24.1,24.1,0,0,1-4.552,3.162c.5-1.023.97-2.075,1.391-3.162Zm3.628-4H212.3a50.3,50.3,0,0,0,1.912-12h7.959A23.578,23.578,0,0,1,217.733,154ZM192.852,116.62a23.888,23.888,0,0,1,3.4-.528V124h-7.182a35.367,35.367,0,0,1,3.784-7.382Zm7.4-.528a23.936,23.936,0,0,1,3.4.529A35.362,35.362,0,0,1,207.432,124H200.25ZM208.715,128a46.516,46.516,0,0,1,1.493,10H200.25V128Zm13.45,10h-7.953a50.75,50.75,0,0,0-1.37-10h6.184a23.772,23.772,0,0,1,3.137,10Zm-6.036-14h-4.447a42.975,42.975,0,0,0-2.147-5.191A23.777,23.777,0,0,1,216.128,124Zm-29.164-5.19A42.972,42.972,0,0,0,184.818,124h-4.447A23.775,23.775,0,0,1,186.965,118.811ZM186.292,138a46.5,46.5,0,0,1,1.492-10h8.466v10Zm13.958,4h9.958a45.811,45.811,0,0,1-2.093,12H200.25Zm6.363,16a33.354,33.354,0,0,1-2.96,5.381,23.856,23.856,0,0,1-3.4.53V158Z" transform="translate(-116.25 -72.002)"/><path d="M70,242.04V232a24,24,0,1,0-48,0v10.04a6.734,6.734,0,0,0-6,6.685v24.55A6.733,6.733,0,0,0,22.725,280h46.55A6.733,6.733,0,0,0,76,273.275v-24.55a6.735,6.735,0,0,0-6-6.685ZM46,212a20.023,20.023,0,0,1,20,20v10H62V232a16,16,0,0,0-32,0v10H26V232A20.023,20.023,0,0,1,46,212Zm12,30H34V232a12,12,0,1,1,24,0Zm14,31.275A2.728,2.728,0,0,1,69.275,276H22.725A2.728,2.728,0,0,1,20,273.275v-24.55A2.728,2.728,0,0,1,22.725,246h46.55A2.728,2.728,0,0,1,72,248.725Z" transform="translate(0 -144)"/><path d="M118.006,392a6,6,0,0,0-2,11.656V408h4v-4.344a6,6,0,0,0-2-11.656Zm0,8a2,2,0,1,1,2-2A2,2,0,0,1,118.006,400Z" transform="translate(-72.006 -282)"/></g></svg>