<svg xmlns="http://www.w3.org/2000/svg" width="90" height="90" viewBox="0 0 90 90"><g transform="translate(1.758 1.758)"><path d="M30,109.035h79.453v-3.516A3.526,3.526,0,0,0,105.938,102H33.517A3.526,3.526,0,0,0,30,105.519Z" transform="translate(-26.485 -85.831)" fill="#a7bdcd" fill-rule="evenodd"/><path d="M30,142.005h79.453v47.46H30Z" transform="translate(-26.485 -118.801)" fill="#4dd0e1" fill-rule="evenodd"/><path d="M109.454,412H30v7.031h29.18a1.763,1.763,0,0,0,1.758,1.758H78.516a1.763,1.763,0,0,0,1.758-1.758h29.18Z" transform="translate(-26.485 -341.337)" fill="#a7bdcd" fill-rule="evenodd"/><path d="M62.031,453.76H44.453A1.763,1.763,0,0,1,42.7,452H10v5.273a3.526,3.526,0,0,0,3.516,3.516H92.969a3.526,3.526,0,0,0,3.516-3.516V452h-32.7A1.763,1.763,0,0,1,62.031,453.76Z" transform="translate(-10 -374.307)" fill="#6d91ac" fill-rule="evenodd"/><g transform="translate(18.56 6.252)"><circle cx="3.516" cy="3.516" r="3.516" transform="matrix(0.967, -0.256, 0.256, 0.967, 0, 1.8)" fill="#ffca28"/><ellipse cx="3.842" cy="3.293" rx="3.842" ry="3.293" transform="translate(0.533 17.233)" fill="#ffca28"/><ellipse cx="3.842" cy="3.293" rx="3.842" ry="3.293" transform="translate(0.533 32.6)" fill="#ffca28"/><ellipse cx="3.842" cy="3.293" rx="3.842" ry="3.293" transform="translate(0.533 47.966)" fill="#ffca28"/></g><path d="M90.549,64.493a3.516,3.516,0,1,1-3.516,3.516A3.516,3.516,0,0,1,90.549,64.493Zm51.327,16.171V11.758A1.763,1.763,0,0,0,140.118,10H81.76A1.764,1.764,0,0,0,80,11.758V80.664h61.874ZM94.065,52.188a3.516,3.516,0,1,1-3.516-3.516A3.516,3.516,0,0,1,94.065,52.188ZM115.711,68.05a3.515,3.515,0,1,1,4.971-4.971l2.067,2.067,6.094-6.094a3.515,3.515,0,0,1,4.971,4.971l-8.58,8.58a3.515,3.515,0,0,1-4.971,0ZM94.065,36.368a3.516,3.516,0,1,1-3.516-3.516A3.516,3.516,0,0,1,94.065,36.368Zm0-15.821a3.516,3.516,0,1,1-3.516-3.516A3.516,3.516,0,0,1,94.065,20.547Z" transform="translate(-67.697 -10)" fill="#fff" fill-rule="evenodd"/><path d="M278.318,293.22l4.553,4.553a3.515,3.515,0,0,0,4.971,0l8.58-8.58a3.515,3.515,0,0,0-4.971-4.971l-6.094,6.095-2.067-2.067a3.515,3.515,0,0,0-4.971,4.971Z" transform="translate(-230.305 -235.17)" fill="#ffa726" fill-rule="evenodd"/></g><g transform="translate(0 0)"><path d="M88.242,77.7H86.484V21.446a5.279,5.279,0,0,0-5.273-5.273H77.695V3.516A3.52,3.52,0,0,0,74.179,0H15.821A3.52,3.52,0,0,0,12.3,3.516V16.173H8.789a5.279,5.279,0,0,0-5.273,5.273V77.7H1.758A1.758,1.758,0,0,0,0,79.453v5.273A5.279,5.279,0,0,0,5.273,90H84.726A5.279,5.279,0,0,0,90,84.727V79.453A1.758,1.758,0,0,0,88.242,77.7ZM77.695,26.719h5.274V70.664H77.695Zm0-7.031h3.516a1.76,1.76,0,0,1,1.758,1.758V23.2H77.695V19.688ZM7.031,26.719H12.3V70.664H7.031Zm1.758-7.031H12.3V23.2H7.031V21.446A1.76,1.76,0,0,1,8.789,19.688ZM7.031,77.7V74.179H37.089a1.758,1.758,0,0,0,0-3.516H15.821V3.516H74.179V70.664H52.909a1.758,1.758,0,1,0,0,3.516H82.968V77.7H55.547a1.758,1.758,0,0,0-1.758,1.758H36.211A1.758,1.758,0,0,0,34.453,77.7H7.031Zm79.453,7.031a1.76,1.76,0,0,1-1.758,1.758H5.273a1.76,1.76,0,0,1-1.758-1.758V81.211H33.167a3.518,3.518,0,0,0,3.044,1.758H53.789a3.518,3.518,0,0,0,3.044-1.758H86.484Z" transform="translate(0 0)"/><path d="M285.694,273.191a5.238,5.238,0,0,0-3.729,1.545l-4.852,4.851-.824-.824a5.273,5.273,0,0,0-7.457,7.457l4.553,4.553a5.279,5.279,0,0,0,7.457,0l8.58-8.58a5.273,5.273,0,0,0-3.729-9Zm1.243,6.516-8.58,8.58a1.76,1.76,0,0,1-2.485,0l-4.553-4.553a1.757,1.757,0,0,1,2.485-2.485l2.067,2.067a1.758,1.758,0,0,0,2.486,0l6.094-6.094a1.757,1.757,0,0,1,2.486,2.485Z" transform="translate(-220.304 -225.169)"/><path d="M115.278,40a5.273,5.273,0,1,0,5.273,5.273A5.279,5.279,0,0,0,115.278,40Zm0,7.031a1.758,1.758,0,1,1,1.758-1.758A1.76,1.76,0,0,1,115.278,47.032Z" transform="translate(-90.668 -32.97)"/><path d="M191.763,43.517h33.749a1.758,1.758,0,1,0,0-3.516H191.763a1.758,1.758,0,0,0,0,3.516Z" transform="translate(-156.606 -32.97)"/><path d="M191.763,83.517h33.749a1.758,1.758,0,1,0,0-3.516H191.763a1.758,1.758,0,0,0,0,3.516Z" transform="translate(-156.606 -65.938)"/><path d="M115.278,130a5.273,5.273,0,1,0,5.273,5.273A5.279,5.279,0,0,0,115.278,130Zm0,7.031a1.758,1.758,0,1,1,1.758-1.758A1.76,1.76,0,0,1,115.278,137.034Z" transform="translate(-90.668 -107.151)"/><path d="M191.763,133.519h33.749a1.758,1.758,0,1,0,0-3.516H191.763a1.758,1.758,0,0,0,0,3.516Z" transform="translate(-156.606 -107.151)"/><path d="M191.763,173.518h33.749a1.758,1.758,0,1,0,0-3.516H191.763a1.758,1.758,0,0,0,0,3.516Z" transform="translate(-156.606 -140.119)"/><path d="M115.278,220a5.273,5.273,0,1,0,5.273,5.273A5.279,5.279,0,0,0,115.278,220Zm0,7.031a1.758,1.758,0,1,1,1.758-1.758A1.76,1.76,0,0,1,115.278,227.035Z" transform="translate(-90.668 -181.332)"/><path d="M191.763,223.52h33.749a1.758,1.758,0,1,0,0-3.516H191.763a1.758,1.758,0,0,0,0,3.516Z" transform="translate(-156.606 -181.332)"/><path d="M191.763,263.52h16.874a1.758,1.758,0,1,0,0-3.516H191.763a1.758,1.758,0,1,0,0,3.516Z" transform="translate(-156.606 -214.3)"/><path d="M115.278,310.005a5.273,5.273,0,1,0,5.273,5.273A5.279,5.279,0,0,0,115.278,310.005Zm0,7.031a1.758,1.758,0,1,1,1.758-1.758A1.76,1.76,0,0,1,115.278,317.036Z" transform="translate(-90.668 -255.512)"/><path d="M191.764,313.522h6.468a1.758,1.758,0,1,0,0-3.516h-6.468a1.758,1.758,0,0,0,0,3.516Z" transform="translate(-156.607 -255.513)"/><path d="M199.989,351.763A1.758,1.758,0,0,0,198.231,350h-6.468a1.758,1.758,0,1,0,0,3.516h6.468A1.758,1.758,0,0,0,199.989,351.763Z" transform="translate(-156.607 -288.481)"/><path d="M247.756,402h0a1.758,1.758,0,1,0,1.759,1.758A1.757,1.757,0,0,0,247.755,402Z" transform="translate(-202.756 -331.336)"/></g></svg>