<svg xmlns="http://www.w3.org/2000/svg" xmlns:xlink="http://www.w3.org/1999/xlink" width="90" height="90" viewBox="0 0 90 90"><defs><clipPath id="a"><rect width="90" height="90" transform="translate(439 149)" fill="#4dd0e1"/></clipPath></defs><g transform="translate(-439 -149)" clip-path="url(#a)"><g transform="translate(439 159.5)"><path d="M84,58.5H1.5v6a3.01,3.01,0,0,0,3,3h81a3.01,3.01,0,0,0,3-3v-6Zm0,0" fill="#acabb1"/><path d="M78,1.5H12a6,6,0,0,0-6,6v6H84v-6A6,6,0,0,0,78,1.5Zm0,0" fill="#039be5"/><path d="M75,13.5H6v45H84v-45Zm0,0" fill="#4dd0e1"/><path d="M73.5,24v6l-3.525.705a12.539,12.539,0,0,1-1.185,2.85l2,2.985L66.54,40.785l-2.985-2a12.539,12.539,0,0,1-2.85,1.185L60,43.5H54l-.705-3.525a12.539,12.539,0,0,1-2.85-1.185l-2.985,2L43.215,36.54l2-2.985a12.539,12.539,0,0,1-1.185-2.85L40.5,30V24l3.525-.705a12.539,12.539,0,0,1,1.185-2.85l-2-2.985,4.245-4.245,2.985,2a12.539,12.539,0,0,1,2.85-1.185L54,10.5h6l.705,3.525a12.539,12.539,0,0,1,2.85,1.185l2.985-2,4.245,4.245-2,2.985a12.539,12.539,0,0,1,1.185,2.85Zm0,0" fill="#ffa726"/><path d="M64.5,27A7.5,7.5,0,1,1,57,19.5,7.5,7.5,0,0,1,64.5,27Zm0,0" fill="#4dd0e1"/><path d="M45.975,39.705a12.539,12.539,0,0,1-1.185,2.85l2,2.985L42.54,49.785l-2.985-2a12.539,12.539,0,0,1-2.85,1.185L36,52.5H30l-.705-3.525a12.539,12.539,0,0,1-2.85-1.185l-2.985,2L19.215,45.54l2-2.985a12.539,12.539,0,0,1-1.185-2.85L16.5,39V33l3.525-.705a12.539,12.539,0,0,1,1.185-2.85l-2-2.985,4.245-4.245,2.985,2a12.539,12.539,0,0,1,2.85-1.185L30,19.5h6l.705,3.525a12.539,12.539,0,0,1,2.85,1.185l2.985-2,4.245,4.245-2,2.985a12.539,12.539,0,0,1,1.185,2.85L49.5,33v6l-3.18.645Zm0,0" fill="#ffca28"/><path d="M40.5,36A7.5,7.5,0,1,1,33,28.5,7.5,7.5,0,0,1,40.5,36Zm0,0" fill="#4dd0e1"/><path d="M37.5,58.5h15v3A1.5,1.5,0,0,1,51,63H39a1.5,1.5,0,0,1-1.5-1.5Zm0,0" fill="#898890"/><path d="M88.5,57h-3V7.5A7.509,7.509,0,0,0,78,0H12A7.509,7.509,0,0,0,4.5,7.5V57h-3A1.5,1.5,0,0,0,0,58.5v6A4.5,4.5,0,0,0,4.5,69h81A4.5,4.5,0,0,0,90,64.5v-6A1.5,1.5,0,0,0,88.5,57ZM7.5,15h33V12H7.5V7.5A4.5,4.5,0,0,1,12,3H78a4.5,4.5,0,0,1,4.5,4.5V12h-9v3h9V57H7.5ZM39,60H51v1.5H39Zm48,4.5A1.5,1.5,0,0,1,85.5,66H4.5A1.5,1.5,0,0,1,3,64.5V60H36v1.5a3,3,0,0,0,3,3H51a3,3,0,0,0,3-3V60H87Zm0,0"/><path d="M13.5,6h3V9h-3Zm0,0"/><path d="M19.5,6h3V9h-3Zm0,0"/><path d="M25.5,6h3V9h-3Zm0,0"/><path d="M33,27a9,9,0,1,0,9,9A9,9,0,0,0,33,27Zm0,15a6,6,0,1,1,6-6A6,6,0,0,1,33,42Zm0,0"/><path d="M49.8,31.53,47.139,31a14.564,14.564,0,0,0-.6-1.457l1.5-2.25a1.5,1.5,0,0,0-.187-1.893L43.606,21.15a1.5,1.5,0,0,0-1.891-.187l-2.25,1.5a14.969,14.969,0,0,0-1.455-.6L37.47,19.2A1.5,1.5,0,0,0,36,18H30a1.5,1.5,0,0,0-1.47,1.2L28,21.861a14.969,14.969,0,0,0-1.455.6l-2.25-1.5a1.5,1.5,0,0,0-1.891.188l-4.25,4.245a1.5,1.5,0,0,0-.187,1.893l1.5,2.25a14.564,14.564,0,0,0-.6,1.457L16.2,31.53A1.5,1.5,0,0,0,15,33v6a1.5,1.5,0,0,0,1.2,1.47L18.861,41a14.564,14.564,0,0,0,.6,1.457l-1.5,2.25a1.5,1.5,0,0,0,.188,1.893l4.245,4.248a1.5,1.5,0,0,0,1.891.188l2.25-1.5a14.969,14.969,0,0,0,1.455.6l.54,2.663A1.5,1.5,0,0,0,30,54h6a1.5,1.5,0,0,0,1.47-1.2L38,50.139a14.969,14.969,0,0,0,1.455-.6l2.25,1.5a1.5,1.5,0,0,0,1.891-.187l4.25-4.245a1.5,1.5,0,0,0,.188-1.893l-1.5-2.25a14.564,14.564,0,0,0,.6-1.457L49.8,40.47A1.5,1.5,0,0,0,51,39V33A1.5,1.5,0,0,0,49.8,31.53ZM48,37.77l-2.322.465a1.5,1.5,0,0,0-1.148,1.058,11.911,11.911,0,0,1-1.05,2.536,1.5,1.5,0,0,0,.063,1.559l1.31,1.965-2.5,2.5-1.965-1.31a1.5,1.5,0,0,0-1.563-.062,11.9,11.9,0,0,1-2.532,1.05,1.5,1.5,0,0,0-1.059,1.148L34.772,51H31.228l-.464-2.322a1.5,1.5,0,0,0-1.058-1.148,11.866,11.866,0,0,1-2.532-1.05,1.5,1.5,0,0,0-1.563.062l-1.965,1.311-2.5-2.5,1.31-1.965a1.5,1.5,0,0,0,.063-1.559,11.911,11.911,0,0,1-1.05-2.536,1.5,1.5,0,0,0-1.148-1.058L18,37.77V34.23l2.322-.465a1.5,1.5,0,0,0,1.148-1.058,11.911,11.911,0,0,1,1.05-2.536,1.5,1.5,0,0,0-.063-1.559l-1.31-1.965,2.5-2.5,1.965,1.31a1.5,1.5,0,0,0,1.563.062,11.9,11.9,0,0,1,2.532-1.05,1.5,1.5,0,0,0,1.059-1.148L31.228,21h3.543l.464,2.322a1.5,1.5,0,0,0,1.058,1.148,11.866,11.866,0,0,1,2.532,1.05,1.5,1.5,0,0,0,1.563-.062l1.965-1.311,2.5,2.5-1.309,1.965a1.5,1.5,0,0,0-.063,1.56,11.925,11.925,0,0,1,1.05,2.535,1.5,1.5,0,0,0,1.148,1.059L48,34.23Zm0,0"/><path d="M57,21a6,6,0,1,1-2.4,11.5l-1.2,2.75A9,9,0,1,0,48.75,23.4L51.5,24.6A6,6,0,0,1,57,21Zm0,0"/><path d="M73.8,22.53,71.139,22a14.564,14.564,0,0,0-.6-1.457l1.5-2.25a1.5,1.5,0,0,0-.187-1.893L67.606,12.15a1.5,1.5,0,0,0-1.891-.187l-2.25,1.5a14.969,14.969,0,0,0-1.455-.6L61.47,10.2A1.5,1.5,0,0,0,60,9H54a1.5,1.5,0,0,0-1.47,1.2L52,12.861a14.969,14.969,0,0,0-1.455.6l-2.25-1.5a1.5,1.5,0,0,0-1.891.188l-4.25,4.245,2.121,2.12,3.374-3.373,1.965,1.31a1.5,1.5,0,0,0,1.563.062,11.9,11.9,0,0,1,2.532-1.05,1.5,1.5,0,0,0,1.058-1.148L55.228,12h3.543l.464,2.322a1.5,1.5,0,0,0,1.058,1.148,11.866,11.866,0,0,1,2.532,1.05,1.5,1.5,0,0,0,1.563-.062l1.965-1.311,2.5,2.5-1.309,1.965a1.5,1.5,0,0,0-.063,1.56,11.925,11.925,0,0,1,1.05,2.535,1.5,1.5,0,0,0,1.148,1.059L72,25.23V28.77l-2.322.465a1.5,1.5,0,0,0-1.148,1.058,11.911,11.911,0,0,1-1.05,2.536,1.5,1.5,0,0,0,.063,1.559l1.31,1.965-2.5,2.5-1.965-1.31a1.5,1.5,0,0,0-1.563-.062,11.9,11.9,0,0,1-2.532,1.05,1.5,1.5,0,0,0-1.059,1.148L58.772,42H55.228l-.464-2.322-2.941.59L52.53,43.8A1.5,1.5,0,0,0,54,45h6a1.5,1.5,0,0,0,1.47-1.2L62,41.139a14.969,14.969,0,0,0,1.455-.6l2.25,1.5a1.5,1.5,0,0,0,1.891-.187l4.25-4.245a1.5,1.5,0,0,0,.188-1.893l-1.5-2.25a14.564,14.564,0,0,0,.6-1.457L73.8,31.47A1.5,1.5,0,0,0,75,30V24A1.5,1.5,0,0,0,73.8,22.53Zm0,0"/></g></g></svg>