<svg xmlns="http://www.w3.org/2000/svg" width="125" height="125" viewBox="0 0 125 125"><g transform="translate(14168 14280)"><g transform="translate(-14168 -14280)" fill="#ffca28" stroke="#1565c0" stroke-width="10"><circle cx="62.5" cy="62.5" r="62.5" stroke="none"/><circle cx="62.5" cy="62.5" r="57.5" fill="none"/></g><path d="M15,0H-14.766V-6.445L-1.055-20.859q5.068-5.771,5.068-9.17a6.378,6.378,0,0,0-1.2-4.189A4.289,4.289,0,0,0-.674-35.654a4.342,4.342,0,0,0-3.662,1.919,7.886,7.886,0,0,0-1.406,4.79h-9.9A14.009,14.009,0,0,1-13.682-36.2a13.765,13.765,0,0,1,5.449-5.2A16.187,16.187,0,0,1-.439-43.271q6.914,0,10.649,3.193t3.735,9.17A13.316,13.316,0,0,1,13.008-26a21.52,21.52,0,0,1-2.915,5.01,73.429,73.429,0,0,1-6.372,7.017L-1.787-7.617H15Z" transform="translate(-14105.355 -14195.729)" fill="#00104e"/></g></svg>