<svg xmlns="http://www.w3.org/2000/svg" width="125" height="125" viewBox="0 0 125 125"><g transform="translate(14462 14280)"><g transform="translate(-14462 -14280)" fill="#ffca28"><path d="M 62.5 120 C 54.7353401184082 120 47.20560073852539 118.4804000854492 40.11994171142578 115.4834213256836 C 36.71390151977539 114.0427780151367 33.42839813232422 112.2594223022461 30.35467910766602 110.182861328125 C 27.30890083312988 108.1251602172852 24.44459915161133 105.7618789672852 21.84136009216309 103.1586380004883 C 19.23811912536621 100.5553970336914 16.87483978271484 97.69110107421875 14.81713962554932 94.64531707763672 C 12.74057960510254 91.57160186767578 10.95722007751465 88.28610229492188 9.516579627990723 84.88005828857422 C 6.519599914550781 77.79440307617188 5 70.26466369628906 5 62.5 C 5 54.7353401184082 6.519599914550781 47.20560073852539 9.516579627990723 40.11994171142578 C 10.95722007751465 36.71390151977539 12.74057960510254 33.42839813232422 14.81713962554932 30.35467910766602 C 16.87483978271484 27.30890083312988 19.23811912536621 24.44459915161133 21.84136009216309 21.84136009216309 C 24.44459915161133 19.23811912536621 27.30890083312988 16.87483978271484 30.35467910766602 14.81713962554932 C 33.42839813232422 12.74057960510254 36.71390151977539 10.95722007751465 40.11994171142578 9.516579627990723 C 47.20560073852539 6.519599914550781 54.7353401184082 5 62.5 5 C 70.26466369628906 5 77.79440307617188 6.519599914550781 84.88005828857422 9.516579627990723 C 88.28610229492188 10.95722007751465 91.57160186767578 12.74057960510254 94.64531707763672 14.81713962554932 C 97.69110107421875 16.87483978271484 100.5553970336914 19.23811912536621 103.1586380004883 21.84136009216309 C 105.7618789672852 24.44459915161133 108.1251602172852 27.30890083312988 110.182861328125 30.35467910766602 C 112.2594223022461 33.42839813232422 114.0427780151367 36.71390151977539 115.4834213256836 40.11994171142578 C 118.4804000854492 47.20560073852539 120 54.7353401184082 120 62.5 C 120 70.26466369628906 118.4804000854492 77.79440307617188 115.4834213256836 84.88005828857422 C 114.0427780151367 88.28610229492188 112.2594223022461 91.57160186767578 110.182861328125 94.64531707763672 C 108.1251602172852 97.69110107421875 105.7618789672852 100.5553970336914 103.1586380004883 103.1586380004883 C 100.5553970336914 105.7618789672852 97.69110107421875 108.1251602172852 94.64531707763672 110.182861328125 C 91.57160186767578 112.2594223022461 88.28610229492188 114.0427780151367 84.88005828857422 115.4834213256836 C 77.79440307617188 118.4804000854492 70.26466369628906 120 62.5 120 Z" stroke="none"/><path d="M 62.5 10 C 33.5513916015625 10 10 33.5513916015625 10 62.5 C 10 91.4486083984375 33.5513916015625 115 62.5 115 C 91.4486083984375 115 115 91.4486083984375 115 62.5 C 115 33.5513916015625 91.4486083984375 10 62.5 10 M 62.5 0 C 97.01779174804688 0 125 27.98220825195312 125 62.5 C 125 97.01779174804688 97.01779174804688 125 62.5 125 C 27.98220825195312 125 0 97.01779174804688 0 62.5 C 0 27.98220825195312 27.98220825195312 0 62.5 0 Z" stroke="none" fill="#1565c0"/></g><path d="M7.119,0h-9.9V-31.523l-9.727,2.842v-7.5L6.211-42.656h.908Z" transform="translate(-14396.49 -14196.344)" fill="#00104e"/></g></svg>